<svg viewBox="0 0 960 280" xmlns="http://www.w3.org/2000/svg">

<defs>
  <!-- CYBER GRADIENT -->
  <linearGradient id="grad" x1="0" y1="0" x2="1" y2="0">
    <stop offset="0%" stop-color="#ff2fdc"/>
    <stop offset="40%" stop-color="#9b5cff"/>
    <stop offset="70%" stop-color="#00f5ff"/>
    <stop offset="100%" stop-color="#00f5ff"/>
  </linearGradient>

  <!-- NEON GLOW -->
  <filter id="glow">
    <feGaussianBlur stdDeviation="4" result="b"/>
    <feMerge>
      <feMergeNode in="b"/>
      <feMergeNode in="SourceGraphic"/>
    </feMerge>
  </filter>

  <!-- CRT SCANLINE -->
  <pattern id="scanline" width="4" height="4">
    <rect width="4" height="1" fill="rgba(255,255,255,0.05)"/>
  </pattern>
</defs>

<!-- BACKGROUND -->
<rect width="100%" height="100%" fill="#05010d"/>
<rect width="100%" height="100%" fill="url(#scanline)"/>

<!-- EQUALIZER (CHAOTIC) -->
<g filter="url(#glow)">
  
      <rect x="0"
            y="243.7275053145568"
            width="14"
            height="36.272494685443206"
            fill="url(#grad)"
            opacity="0.6256486210122958">
        <animate attributeName="height"
                 dur="0.42s"
                 repeatCount="indefinite"
                 values="36.272494685443206;38.0076234351217;36.272494685443206" />
        <animate attributeName="y"
                 dur="0.42s"
                 repeatCount="indefinite"
                 values="243.7275053145568;241.9923765648783;243.7275053145568" />
      </rect>
    
      <rect x="16"
            y="254.44966560555088"
            width="14"
            height="25.550334394449138"
            fill="url(#grad)"
            opacity="0.5475244691702655">
        <animate attributeName="height"
                 dur="0.84s"
                 repeatCount="indefinite"
                 values="25.550334394449138;31.589830024070576;25.550334394449138" />
        <animate attributeName="y"
                 dur="0.84s"
                 repeatCount="indefinite"
                 values="254.44966560555088;248.41016997592942;254.44966560555088" />
      </rect>
    
      <rect x="32"
            y="250.76979729742703"
            width="14"
            height="29.230202702572974"
            fill="url(#grad)"
            opacity="0.699206805378848">
        <animate attributeName="height"
                 dur="0.51s"
                 repeatCount="indefinite"
                 values="29.230202702572974;59.866601328896365;29.230202702572974" />
        <animate attributeName="y"
                 dur="0.51s"
                 repeatCount="indefinite"
                 values="250.76979729742703;220.13339867110363;250.76979729742703" />
      </rect>
    
      <rect x="48"
            y="243.0403205257589"
            width="14"
            height="36.95967947424111"
            fill="url(#grad)"
            opacity="0.4189957555028631">
        <animate attributeName="height"
                 dur="0.67s"
                 repeatCount="indefinite"
                 values="36.95967947424111;66.71721450294028;36.95967947424111" />
        <animate attributeName="y"
                 dur="0.67s"
                 repeatCount="indefinite"
                 values="243.0403205257589;213.2827854970597;243.0403205257589" />
      </rect>
    
      <rect x="64"
            y="243.80849717548705"
            width="14"
            height="36.19150282451295"
            fill="url(#grad)"
            opacity="0.6140928446088533">
        <animate attributeName="height"
                 dur="0.43s"
                 repeatCount="indefinite"
                 values="36.19150282451295;104.7159582629876;36.19150282451295" />
        <animate attributeName="y"
                 dur="0.43s"
                 repeatCount="indefinite"
                 values="243.80849717548705;175.2840417370124;243.80849717548705" />
      </rect>
    
      <rect x="80"
            y="254.0122485211446"
            width="14"
            height="25.9877514788554"
            fill="url(#grad)"
            opacity="0.7806430327198859">
        <animate attributeName="height"
                 dur="1.15s"
                 repeatCount="indefinite"
                 values="25.9877514788554;114.87255494823353;25.9877514788554" />
        <animate attributeName="y"
                 dur="1.15s"
                 repeatCount="indefinite"
                 values="254.0122485211446;165.12744505176647;254.0122485211446" />
      </rect>
    
      <rect x="96"
            y="251.44365928439768"
            width="14"
            height="28.55634071560232"
            fill="url(#grad)"
            opacity="0.6721724697064038">
        <animate attributeName="height"
                 dur="0.75s"
                 repeatCount="indefinite"
                 values="28.55634071560232;36.435400065639485;28.55634071560232" />
        <animate attributeName="y"
                 dur="0.75s"
                 repeatCount="indefinite"
                 values="251.44365928439768;243.5645999343605;251.44365928439768" />
      </rect>
    
      <rect x="112"
            y="251.30132115021266"
            width="14"
            height="28.698678849787346"
            fill="url(#grad)"
            opacity="0.5575990889278292">
        <animate attributeName="height"
                 dur="0.97s"
                 repeatCount="indefinite"
                 values="28.698678849787346;54.76014356426391;28.698678849787346" />
        <animate attributeName="y"
                 dur="0.97s"
                 repeatCount="indefinite"
                 values="251.30132115021266;225.2398564357361;251.30132115021266" />
      </rect>
    
      <rect x="128"
            y="246.42050171044545"
            width="14"
            height="33.57949828955456"
            fill="url(#grad)"
            opacity="0.5863796301873117">
        <animate attributeName="height"
                 dur="0.98s"
                 repeatCount="indefinite"
                 values="33.57949828955456;115.23943973929644;33.57949828955456" />
        <animate attributeName="y"
                 dur="0.98s"
                 repeatCount="indefinite"
                 values="246.42050171044545;164.76056026070356;246.42050171044545" />
      </rect>
    
      <rect x="144"
            y="253.20220930701663"
            width="14"
            height="26.79779069298337"
            fill="url(#grad)"
            opacity="0.5442374133457215">
        <animate attributeName="height"
                 dur="1.13s"
                 repeatCount="indefinite"
                 values="26.79779069298337;57.21855273230972;26.79779069298337" />
        <animate attributeName="y"
                 dur="1.13s"
                 repeatCount="indefinite"
                 values="253.20220930701663;222.78144726769028;253.20220930701663" />
      </rect>
    
      <rect x="160"
            y="246.91425766985185"
            width="14"
            height="33.08574233014816"
            fill="url(#grad)"
            opacity="0.4846196632001552">
        <animate attributeName="height"
                 dur="0.57s"
                 repeatCount="indefinite"
                 values="33.08574233014816;70.12223829863936;33.08574233014816" />
        <animate attributeName="y"
                 dur="0.57s"
                 repeatCount="indefinite"
                 values="246.91425766985185;209.87776170136064;246.91425766985185" />
      </rect>
    
      <rect x="176"
            y="255.66204497002315"
            width="14"
            height="24.337955029976857"
            fill="url(#grad)"
            opacity="0.7235180248997601">
        <animate attributeName="height"
                 dur="0.76s"
                 repeatCount="indefinite"
                 values="24.337955029976857;109.98220351675683;24.337955029976857" />
        <animate attributeName="y"
                 dur="0.76s"
                 repeatCount="indefinite"
                 values="255.66204497002315;170.01779648324316;255.66204497002315" />
      </rect>
    
      <rect x="192"
            y="250.7655235782759"
            width="14"
            height="29.23447642172412"
            fill="url(#grad)"
            opacity="0.6931899621120027">
        <animate attributeName="height"
                 dur="0.35s"
                 repeatCount="indefinite"
                 values="29.23447642172412;60.44871578982883;29.23447642172412" />
        <animate attributeName="y"
                 dur="0.35s"
                 repeatCount="indefinite"
                 values="250.7655235782759;219.55128421017116;250.7655235782759" />
      </rect>
    
      <rect x="208"
            y="256.1805200859867"
            width="14"
            height="23.81947991401328"
            fill="url(#grad)"
            opacity="0.5361958264509059">
        <animate attributeName="height"
                 dur="1.10s"
                 repeatCount="indefinite"
                 values="23.81947991401328;50.96553526860531;23.81947991401328" />
        <animate attributeName="y"
                 dur="1.10s"
                 repeatCount="indefinite"
                 values="256.1805200859867;229.03446473139468;256.1805200859867" />
      </rect>
    
      <rect x="224"
            y="244.93659664630428"
            width="14"
            height="35.06340335369572"
            fill="url(#grad)"
            opacity="0.6575576223469317">
        <animate attributeName="height"
                 dur="1.01s"
                 repeatCount="indefinite"
                 values="35.06340335369572;104.58564331071275;35.06340335369572" />
        <animate attributeName="y"
                 dur="1.01s"
                 repeatCount="indefinite"
                 values="244.93659664630428;175.41435668928725;244.93659664630428" />
      </rect>
    
      <rect x="240"
            y="240.43550819477855"
            width="14"
            height="39.564491805221444"
            fill="url(#grad)"
            opacity="0.35609067142078565">
        <animate attributeName="height"
                 dur="0.84s"
                 repeatCount="indefinite"
                 values="39.564491805221444;108.42630731615193;39.564491805221444" />
        <animate attributeName="y"
                 dur="0.84s"
                 repeatCount="indefinite"
                 values="240.43550819477855;171.57369268384807;240.43550819477855" />
      </rect>
    
      <rect x="256"
            y="258.2355533783215"
            width="14"
            height="21.76444662167846"
            fill="url(#grad)"
            opacity="0.5821675823652704">
        <animate attributeName="height"
                 dur="0.84s"
                 repeatCount="indefinite"
                 values="21.76444662167846;63.11240851513825;21.76444662167846" />
        <animate attributeName="y"
                 dur="0.84s"
                 repeatCount="indefinite"
                 values="258.2355533783215;216.88759148486176;258.2355533783215" />
      </rect>
    
      <rect x="272"
            y="257.6451778332187"
            width="14"
            height="22.354822166781286"
            fill="url(#grad)"
            opacity="0.6069754328870933">
        <animate attributeName="height"
                 dur="0.56s"
                 repeatCount="indefinite"
                 values="22.354822166781286;77.86872778100991;22.354822166781286" />
        <animate attributeName="y"
                 dur="0.56s"
                 repeatCount="indefinite"
                 values="257.6451778332187;202.1312722189901;257.6451778332187" />
      </rect>
    
      <rect x="288"
            y="253.77858497913104"
            width="14"
            height="26.221415020868953"
            fill="url(#grad)"
            opacity="0.6628901821132447">
        <animate attributeName="height"
                 dur="0.76s"
                 repeatCount="indefinite"
                 values="26.221415020868953;76.01832390037211;26.221415020868953" />
        <animate attributeName="y"
                 dur="0.76s"
                 repeatCount="indefinite"
                 values="253.77858497913104;203.9816760996279;253.77858497913104" />
      </rect>
    
      <rect x="304"
            y="245.1174985088552"
            width="14"
            height="34.882501491144794"
            fill="url(#grad)"
            opacity="0.4776485023260084">
        <animate attributeName="height"
                 dur="0.66s"
                 repeatCount="indefinite"
                 values="34.882501491144794;92.20647594140684;34.882501491144794" />
        <animate attributeName="y"
                 dur="0.66s"
                 repeatCount="indefinite"
                 values="245.1174985088552;187.79352405859316;245.1174985088552" />
      </rect>
    
      <rect x="320"
            y="250.26619833538538"
            width="14"
            height="29.73380166461462"
            fill="url(#grad)"
            opacity="0.6761802224992797">
        <animate attributeName="height"
                 dur="0.62s"
                 repeatCount="indefinite"
                 values="29.73380166461462;111.47184539085274;29.73380166461462" />
        <animate attributeName="y"
                 dur="0.62s"
                 repeatCount="indefinite"
                 values="250.26619833538538;168.52815460914726;250.26619833538538" />
      </rect>
    
      <rect x="336"
            y="244.64209048588103"
            width="14"
            height="35.35790951411898"
            fill="url(#grad)"
            opacity="0.3924926060773048">
        <animate attributeName="height"
                 dur="0.75s"
                 repeatCount="indefinite"
                 values="35.35790951411898;119.89060787301;35.35790951411898" />
        <animate attributeName="y"
                 dur="0.75s"
                 repeatCount="indefinite"
                 values="244.64209048588103;160.10939212699;244.64209048588103" />
      </rect>
    
      <rect x="352"
            y="247.21878583537324"
            width="14"
            height="32.781214164626746"
            fill="url(#grad)"
            opacity="0.46664249895493004">
        <animate attributeName="height"
                 dur="1.02s"
                 repeatCount="indefinite"
                 values="32.781214164626746;58.26903356306539;32.781214164626746" />
        <animate attributeName="y"
                 dur="1.02s"
                 repeatCount="indefinite"
                 values="247.21878583537324;221.7309664369346;247.21878583537324" />
      </rect>
    
      <rect x="368"
            y="245.36585997646569"
            width="14"
            height="34.634140023534314"
            fill="url(#grad)"
            opacity="0.4991798589192653">
        <animate attributeName="height"
                 dur="0.87s"
                 repeatCount="indefinite"
                 values="34.634140023534314;109.97277983291139;34.634140023534314" />
        <animate attributeName="y"
                 dur="0.87s"
                 repeatCount="indefinite"
                 values="245.36585997646569;170.02722016708861;245.36585997646569" />
      </rect>
    
      <rect x="384"
            y="240.91037509114946"
            width="14"
            height="39.08962490885053"
            fill="url(#grad)"
            opacity="0.733004529788263">
        <animate attributeName="height"
                 dur="0.57s"
                 repeatCount="indefinite"
                 values="39.08962490885053;81.47253825427859;39.08962490885053" />
        <animate attributeName="y"
                 dur="0.57s"
                 repeatCount="indefinite"
                 values="240.91037509114946;198.5274617457214;240.91037509114946" />
      </rect>
    
      <rect x="400"
            y="242.13833936880042"
            width="14"
            height="37.861660631199584"
            fill="url(#grad)"
            opacity="0.7420542791268898">
        <animate attributeName="height"
                 dur="1.02s"
                 repeatCount="indefinite"
                 values="37.861660631199584;75.5775355704397;37.861660631199584" />
        <animate attributeName="y"
                 dur="1.02s"
                 repeatCount="indefinite"
                 values="242.13833936880042;204.4224644295603;242.13833936880042" />
      </rect>
    
      <rect x="416"
            y="248.2296740528715"
            width="14"
            height="31.770325947128487"
            fill="url(#grad)"
            opacity="0.6605127134833372">
        <animate attributeName="height"
                 dur="1.10s"
                 repeatCount="indefinite"
                 values="31.770325947128487;105.19888333840463;31.770325947128487" />
        <animate attributeName="y"
                 dur="1.10s"
                 repeatCount="indefinite"
                 values="248.2296740528715;174.80111666159536;248.2296740528715" />
      </rect>
    
      <rect x="432"
            y="245.47362106775896"
            width="14"
            height="34.526378932241045"
            fill="url(#grad)"
            opacity="0.6129141813475143">
        <animate attributeName="height"
                 dur="0.32s"
                 repeatCount="indefinite"
                 values="34.526378932241045;34.64359184352473;34.526378932241045" />
        <animate attributeName="y"
                 dur="0.32s"
                 repeatCount="indefinite"
                 values="245.47362106775896;245.35640815647525;245.47362106775896" />
      </rect>
    
      <rect x="448"
            y="247.75814043433672"
            width="14"
            height="32.241859565663276"
            fill="url(#grad)"
            opacity="0.3825696498682906">
        <animate attributeName="height"
                 dur="0.39s"
                 repeatCount="indefinite"
                 values="32.241859565663276;59.146800705260645;32.241859565663276" />
        <animate attributeName="y"
                 dur="0.39s"
                 repeatCount="indefinite"
                 values="247.75814043433672;220.85319929473934;247.75814043433672" />
      </rect>
    
      <rect x="464"
            y="256.48014509269234"
            width="14"
            height="23.51985490730765"
            fill="url(#grad)"
            opacity="0.6736380725929276">
        <animate attributeName="height"
                 dur="0.71s"
                 repeatCount="indefinite"
                 values="23.51985490730765;45.28866337189447;23.51985490730765" />
        <animate attributeName="y"
                 dur="0.71s"
                 repeatCount="indefinite"
                 values="256.48014509269234;234.71133662810553;256.48014509269234" />
      </rect>
    
      <rect x="480"
            y="248.27662860659393"
            width="14"
            height="31.72337139340607"
            fill="url(#grad)"
            opacity="0.6063901405873395">
        <animate attributeName="height"
                 dur="0.52s"
                 repeatCount="indefinite"
                 values="31.72337139340607;36.5931164785753;31.72337139340607" />
        <animate attributeName="y"
                 dur="0.52s"
                 repeatCount="indefinite"
                 values="248.27662860659393;243.4068835214247;248.27662860659393" />
      </rect>
    
      <rect x="496"
            y="257.5233871887282"
            width="14"
            height="22.47661281127183"
            fill="url(#grad)"
            opacity="0.6640402302739992">
        <animate attributeName="height"
                 dur="1.19s"
                 repeatCount="indefinite"
                 values="22.47661281127183;66.7018139981372;22.47661281127183" />
        <animate attributeName="y"
                 dur="1.19s"
                 repeatCount="indefinite"
                 values="257.5233871887282;213.2981860018628;257.5233871887282" />
      </rect>
    
      <rect x="512"
            y="251.009406477082"
            width="14"
            height="28.990593522918008"
            fill="url(#grad)"
            opacity="0.4252342998997586">
        <animate attributeName="height"
                 dur="1.16s"
                 repeatCount="indefinite"
                 values="28.990593522918008;105.62897721464809;28.990593522918008" />
        <animate attributeName="y"
                 dur="1.16s"
                 repeatCount="indefinite"
                 values="251.009406477082;174.3710227853519;251.009406477082" />
      </rect>
    
      <rect x="528"
            y="245.65927164220247"
            width="14"
            height="34.34072835779753"
            fill="url(#grad)"
            opacity="0.4475359200146934">
        <animate attributeName="height"
                 dur="0.56s"
                 repeatCount="indefinite"
                 values="34.34072835779753;49.11288417134459;34.34072835779753" />
        <animate attributeName="y"
                 dur="0.56s"
                 repeatCount="indefinite"
                 values="245.65927164220247;230.8871158286554;245.65927164220247" />
      </rect>
    
      <rect x="544"
            y="248.33721179557904"
            width="14"
            height="31.66278820442095"
            fill="url(#grad)"
            opacity="0.4849385084126455">
        <animate attributeName="height"
                 dur="0.40s"
                 repeatCount="indefinite"
                 values="31.66278820442095;58.512600928882776;31.66278820442095" />
        <animate attributeName="y"
                 dur="0.40s"
                 repeatCount="indefinite"
                 values="248.33721179557904;221.48739907111724;248.33721179557904" />
      </rect>
    
      <rect x="560"
            y="245.58450242712854"
            width="14"
            height="34.41549757287146"
            fill="url(#grad)"
            opacity="0.6827858869824048">
        <animate attributeName="height"
                 dur="0.97s"
                 repeatCount="indefinite"
                 values="34.41549757287146;85.77127507178815;34.41549757287146" />
        <animate attributeName="y"
                 dur="0.97s"
                 repeatCount="indefinite"
                 values="245.58450242712854;194.22872492821185;245.58450242712854" />
      </rect>
    
      <rect x="576"
            y="241.0359765513867"
            width="14"
            height="38.96402344861329"
            fill="url(#grad)"
            opacity="0.4158631130121106">
        <animate attributeName="height"
                 dur="0.53s"
                 repeatCount="indefinite"
                 values="38.96402344861329;43.856096509102244;38.96402344861329" />
        <animate attributeName="y"
                 dur="0.53s"
                 repeatCount="indefinite"
                 values="241.0359765513867;236.14390349089774;241.0359765513867" />
      </rect>
    
      <rect x="592"
            y="259.25527946693273"
            width="14"
            height="20.744720533067287"
            fill="url(#grad)"
            opacity="0.6326552067852416">
        <animate attributeName="height"
                 dur="1.08s"
                 repeatCount="indefinite"
                 values="20.744720533067287;70.33439464237459;20.744720533067287" />
        <animate attributeName="y"
                 dur="1.08s"
                 repeatCount="indefinite"
                 values="259.25527946693273;209.6656053576254;259.25527946693273" />
      </rect>
    
      <rect x="608"
            y="256.3199989319914"
            width="14"
            height="23.680001068008583"
            fill="url(#grad)"
            opacity="0.6163369041438921">
        <animate attributeName="height"
                 dur="1.12s"
                 repeatCount="indefinite"
                 values="23.680001068008583;91.61199023082312;23.680001068008583" />
        <animate attributeName="y"
                 dur="1.12s"
                 repeatCount="indefinite"
                 values="256.3199989319914;188.38800976917688;256.3199989319914" />
      </rect>
    
      <rect x="624"
            y="245.38670833920554"
            width="14"
            height="34.613291660794445"
            fill="url(#grad)"
            opacity="0.5165568005640022">
        <animate attributeName="height"
                 dur="0.62s"
                 repeatCount="indefinite"
                 values="34.613291660794445;105.53081106022012;34.613291660794445" />
        <animate attributeName="y"
                 dur="0.62s"
                 repeatCount="indefinite"
                 values="245.38670833920554;174.46918893977988;245.38670833920554" />
      </rect>
    
      <rect x="640"
            y="255.94598957566814"
            width="14"
            height="24.054010424331853"
            fill="url(#grad)"
            opacity="0.5167554095188172">
        <animate attributeName="height"
                 dur="0.35s"
                 repeatCount="indefinite"
                 values="24.054010424331853;64.59730684600387;24.054010424331853" />
        <animate attributeName="y"
                 dur="0.35s"
                 repeatCount="indefinite"
                 values="255.94598957566814;215.40269315399613;255.94598957566814" />
      </rect>
    
      <rect x="656"
            y="241.67961185188864"
            width="14"
            height="38.32038814811137"
            fill="url(#grad)"
            opacity="0.484937226586567">
        <animate attributeName="height"
                 dur="0.83s"
                 repeatCount="indefinite"
                 values="38.32038814811137;118.25037064286684;38.32038814811137" />
        <animate attributeName="y"
                 dur="0.83s"
                 repeatCount="indefinite"
                 values="241.67961185188864;161.74962935713316;241.67961185188864" />
      </rect>
    
      <rect x="672"
            y="247.09269405876057"
            width="14"
            height="32.90730594123943"
            fill="url(#grad)"
            opacity="0.35276322583367264">
        <animate attributeName="height"
                 dur="0.51s"
                 repeatCount="indefinite"
                 values="32.90730594123943;75.13697638242868;32.90730594123943" />
        <animate attributeName="y"
                 dur="0.51s"
                 repeatCount="indefinite"
                 values="247.09269405876057;204.86302361757132;247.09269405876057" />
      </rect>
    
      <rect x="688"
            y="247.78881394294365"
            width="14"
            height="32.21118605705635"
            fill="url(#grad)"
            opacity="0.48157634350794487">
        <animate attributeName="height"
                 dur="0.35s"
                 repeatCount="indefinite"
                 values="32.21118605705635;85.26772701595937;32.21118605705635" />
        <animate attributeName="y"
                 dur="0.35s"
                 repeatCount="indefinite"
                 values="247.78881394294365;194.73227298404063;247.78881394294365" />
      </rect>
    
      <rect x="704"
            y="251.51248176123005"
            width="14"
            height="28.48751823876995"
            fill="url(#grad)"
            opacity="0.5937632214071846">
        <animate attributeName="height"
                 dur="0.43s"
                 repeatCount="indefinite"
                 values="28.48751823876995;64.05728186000536;28.48751823876995" />
        <animate attributeName="y"
                 dur="0.43s"
                 repeatCount="indefinite"
                 values="251.51248176123005;215.94271813999464;251.51248176123005" />
      </rect>
    
      <rect x="720"
            y="244.83615536777256"
            width="14"
            height="35.16384463222742"
            fill="url(#grad)"
            opacity="0.46746693386504223">
        <animate attributeName="height"
                 dur="0.90s"
                 repeatCount="indefinite"
                 values="35.16384463222742;97.87971694100906;35.16384463222742" />
        <animate attributeName="y"
                 dur="0.90s"
                 repeatCount="indefinite"
                 values="244.83615536777256;182.12028305899094;244.83615536777256" />
      </rect>
    
      <rect x="736"
            y="256.54474789334523"
            width="14"
            height="23.45525210665478"
            fill="url(#grad)"
            opacity="0.387359312169697">
        <animate attributeName="height"
                 dur="0.75s"
                 repeatCount="indefinite"
                 values="23.45525210665478;77.70546096251805;23.45525210665478" />
        <animate attributeName="y"
                 dur="0.75s"
                 repeatCount="indefinite"
                 values="256.54474789334523;202.29453903748197;256.54474789334523" />
      </rect>
    
      <rect x="752"
            y="246.1456438418037"
            width="14"
            height="33.85435615819631"
            fill="url(#grad)"
            opacity="0.6069022327841365">
        <animate attributeName="height"
                 dur="1.08s"
                 repeatCount="indefinite"
                 values="33.85435615819631;120.99103341985244;33.85435615819631" />
        <animate attributeName="y"
                 dur="1.08s"
                 repeatCount="indefinite"
                 values="246.1456438418037;159.00896658014756;246.1456438418037" />
      </rect>
    
      <rect x="768"
            y="240.31454394709647"
            width="14"
            height="39.68545605290352"
            fill="url(#grad)"
            opacity="0.6112060001127007">
        <animate attributeName="height"
                 dur="0.82s"
                 repeatCount="indefinite"
                 values="39.68545605290352;108.18414619656674;39.68545605290352" />
        <animate attributeName="y"
                 dur="0.82s"
                 repeatCount="indefinite"
                 values="240.31454394709647;171.81585380343324;240.31454394709647" />
      </rect>
    
      <rect x="784"
            y="250.86673389554701"
            width="14"
            height="29.13326610445298"
            fill="url(#grad)"
            opacity="0.6616967666765486">
        <animate attributeName="height"
                 dur="0.83s"
                 repeatCount="indefinite"
                 values="29.13326610445298;116.95168711499772;29.13326610445298" />
        <animate attributeName="y"
                 dur="0.83s"
                 repeatCount="indefinite"
                 values="250.86673389554701;163.04831288500228;250.86673389554701" />
      </rect>
    
      <rect x="800"
            y="242.16155823584305"
            width="14"
            height="37.838441764156954"
            fill="url(#grad)"
            opacity="0.5084517716082263">
        <animate attributeName="height"
                 dur="0.75s"
                 repeatCount="indefinite"
                 values="37.838441764156954;105.53689931407679;37.838441764156954" />
        <animate attributeName="y"
                 dur="0.75s"
                 repeatCount="indefinite"
                 values="242.16155823584305;174.46310068592322;242.16155823584305" />
      </rect>
    
      <rect x="816"
            y="253.08563348117988"
            width="14"
            height="26.914366518820113"
            fill="url(#grad)"
            opacity="0.7749681447426767">
        <animate attributeName="height"
                 dur="0.69s"
                 repeatCount="indefinite"
                 values="26.914366518820113;107.21101300976365;26.914366518820113" />
        <animate attributeName="y"
                 dur="0.69s"
                 repeatCount="indefinite"
                 values="253.08563348117988;172.78898699023637;253.08563348117988" />
      </rect>
    
      <rect x="832"
            y="250.2653575193201"
            width="14"
            height="29.734642480679902"
            fill="url(#grad)"
            opacity="0.5435178479307488">
        <animate attributeName="height"
                 dur="0.89s"
                 repeatCount="indefinite"
                 values="29.734642480679902;113.6003273592381;29.734642480679902" />
        <animate attributeName="y"
                 dur="0.89s"
                 repeatCount="indefinite"
                 values="250.2653575193201;166.3996726407619;250.2653575193201" />
      </rect>
    
      <rect x="848"
            y="252.49338708058687"
            width="14"
            height="27.506612919413133"
            fill="url(#grad)"
            opacity="0.5849404526638242">
        <animate attributeName="height"
                 dur="0.48s"
                 repeatCount="indefinite"
                 values="27.506612919413133;95.25281618297231;27.506612919413133" />
        <animate attributeName="y"
                 dur="0.48s"
                 repeatCount="indefinite"
                 values="252.49338708058687;184.7471838170277;252.49338708058687" />
      </rect>
    
      <rect x="864"
            y="254.60989725142872"
            width="14"
            height="25.390102748571284"
            fill="url(#grad)"
            opacity="0.35283695743563703">
        <animate attributeName="height"
                 dur="1.19s"
                 repeatCount="indefinite"
                 values="25.390102748571284;50.5629511375106;25.390102748571284" />
        <animate attributeName="y"
                 dur="1.19s"
                 repeatCount="indefinite"
                 values="254.60989725142872;229.4370488624894;254.60989725142872" />
      </rect>
    
      <rect x="880"
            y="251.16568909301148"
            width="14"
            height="28.834310906988527"
            fill="url(#grad)"
            opacity="0.6026582490030257">
        <animate attributeName="height"
                 dur="0.97s"
                 repeatCount="indefinite"
                 values="28.834310906988527;35.73299956130888;28.834310906988527" />
        <animate attributeName="y"
                 dur="0.97s"
                 repeatCount="indefinite"
                 values="251.16568909301148;244.26700043869113;251.16568909301148" />
      </rect>
    
      <rect x="896"
            y="255.16137347516423"
            width="14"
            height="24.83862652483576"
            fill="url(#grad)"
            opacity="0.5417710981865395">
        <animate attributeName="height"
                 dur="0.73s"
                 repeatCount="indefinite"
                 values="24.83862652483576;50.774697020376195;24.83862652483576" />
        <animate attributeName="y"
                 dur="0.73s"
                 repeatCount="indefinite"
                 values="255.16137347516423;229.2253029796238;255.16137347516423" />
      </rect>
    
      <rect x="912"
            y="241.84380771187134"
            width="14"
            height="38.15619228812867"
            fill="url(#grad)"
            opacity="0.5019124141739426">
        <animate attributeName="height"
                 dur="0.52s"
                 repeatCount="indefinite"
                 values="38.15619228812867;110.74495747743671;38.15619228812867" />
        <animate attributeName="y"
                 dur="0.52s"
                 repeatCount="indefinite"
                 values="241.84380771187134;169.2550425225633;241.84380771187134" />
      </rect>
    
      <rect x="928"
            y="252.96110344150358"
            width="14"
            height="27.03889655849643"
            fill="url(#grad)"
            opacity="0.5390113844125689">
        <animate attributeName="height"
                 dur="0.31s"
                 repeatCount="indefinite"
                 values="27.03889655849643;115.71464639396274;27.03889655849643" />
        <animate attributeName="y"
                 dur="0.31s"
                 repeatCount="indefinite"
                 values="252.96110344150358;164.28535360603726;252.96110344150358" />
      </rect>
    
      <rect x="944"
            y="251.6468310134516"
            width="14"
            height="28.353168986548415"
            fill="url(#grad)"
            opacity="0.7068458816323907">
        <animate attributeName="height"
                 dur="1.03s"
                 repeatCount="indefinite"
                 values="28.353168986548415;52.28163058945354;28.353168986548415" />
        <animate attributeName="y"
                 dur="1.03s"
                 repeatCount="indefinite"
                 values="251.6468310134516;227.71836941054647;251.6468310134516" />
      </rect>
    
</g>

<!-- TRUE PARALLAX WAVES -->
<path d="M 0 153.8747586930784 Q 2.4120603015075375 153.8747586930784 4.824120603015075 154.20951726494755 Q 7.236180904522612 154.20951726494755 9.64824120603015 154.56671199647786 Q 12.060301507537687 154.56671199647786 14.472361809045225 154.98130009743144 Q 16.884422110552762 154.98130009743144 19.2964824120603 155.47950777666983 Q 21.708542713567837 155.47950777666983 24.120603015075375 156.07538623956393 Q 26.532663316582912 156.07538623956393 28.94472361809045 156.76844533335037 Q 31.356783919597987 156.76844533335037 33.768844221105525 157.54258348186178 Q 36.18090452261306 157.54258348186178 38.5929648241206 158.36642614978675 Q 41.00502512562814 158.36642614978675 43.417085427135675 159.19506909078285 Q 45.82914572864321 159.19506909078285 48.24120603015075 159.97310637580543 Q 50.65326633165829 159.97310637580543 53.065326633165824 160.638716015984 Q 55.47738693467336 160.638716015984 57.8894472361809 161.1284865267815 Q 60.30150753768844 161.1284865267815 62.713567839195974 161.38260326680032 Q 65.12562814070351 161.38260326680032 67.53768844221105 161.34997908830525 Q 69.94974874371859 161.34997908830525 72.36180904522612 160.99291262183124 Q 74.77386934673366 160.99291262183124 77.1859296482412 160.29088961937788 Q 79.59798994974874 160.29088961937788 82.01005025125627 159.2432057835242 Q 84.42211055276381 159.2432057835242 86.83417085427135 157.8701785344123 Q 89.24623115577889 157.8701785344123 91.65829145728642 156.21282325562734 Q 94.07035175879396 156.21282325562734 96.4824120603015 154.33098822756912 Q 98.89447236180904 154.33098822756912 101.30653266331657 152.30006235980883 Q 103.71859296482411 152.30006235980883 106.13065326633165 150.206481511807 Q 108.54271356783919 150.206481511807 110.95477386934672 148.14235381644787 Q 113.36683417085426 148.14235381644787 115.7788944723618 146.19959449793458 Q 118.19095477386934 146.19959449793458 120.60301507537687 144.46400063683103 Q 123.01507537688441 144.46400063683103 125.42713567839195 143.00970298213994 Q 127.83919597989949 143.00970298213994 130.25125628140702 141.8944046691396 Q 132.66331658291455 141.8944046691396 135.0753768844221 141.15575766902427 Q 137.48743718592965 141.15575766902427 139.89949748743717 140.80914157498808 Q 142.3115577889447 140.80914157498808 144.72361809045225 140.8470026646387 Q 147.1356783919598 140.8470026646387 149.54773869346732 141.23979242534455 Q 151.95979899497485 141.23979242534455 154.3718592964824 141.9384231909265 Q 156.78391959798995 141.9384231909265 159.19597989949747 142.87804373173265 Q 161.608040201005 142.87804373173265 164.02010050251255 143.9828385429892 Q 166.4321608040201 143.9828385429892 168.84422110552762 145.1714789170087 Q 171.25628140703515 145.1714789170087 173.6683417085427 146.36280753288756 Q 176.08040201005025 146.36280753288756 178.49246231155777 147.48132480048986 Q 180.9045226130653 147.48132480048986 183.31658291457285 148.4620655013125 Q 185.7286432160804 148.4620655013125 188.14070351758792 149.25450665235894 Q 190.55276381909545 149.25450665235894 192.964824120603 149.82522772284403 Q 195.37688442211055 149.82522772284403 197.78894472361807 150.15914590767835 Q 200.2010050251256 150.15914590767835 202.61306532663315 150.2592639785144 Q 205.0251256281407 150.2592639785144 207.43718592964822 150.1449871339227 Q 209.84924623115575 150.1449871339227 212.2613065326633 149.84917879354884 Q 214.67336683417085 149.84917879354884 217.08542713567837 149.4142244145463 Q 219.4974874371859 149.4142244145463 221.90954773869345 148.88744930460535 Q 224.321608040201 148.88744930460535 226.73366834170852 148.3162850042596 Q 229.14572864321605 148.3162850042596 231.5577889447236 147.74359531905915 Q 233.96984924623115 147.74359531905915 236.38190954773867 147.2035562738735 Q 238.7939698492462 147.2035562738735 241.20603015075375 146.7184355735148 Q 243.6180904522613 146.7184355735148 246.03015075376882 146.29654056820812 Q 248.44221105527635 146.29654056820812 250.8542713567839 145.93150544794312 Q 253.26633165829145 145.93150544794312 255.67839195979897 145.60297636559483 Q 258.0904522613065 145.60297636559483 260.50251256281405 145.2786364507009 Q 262.9145728643216 145.2786364507009 265.3266331658291 144.9174006353608 Q 267.73869346733665 144.9174006353608 270.1507537688442 144.473511907079 Q 272.56281407035175 144.473511907079 274.9748743718593 143.90119397047852 Q 277.3869346733668 143.90119397047852 279.79899497487435 143.1594665505829 Q 282.2110552763819 143.1594665505829 284.6231155778894 142.21671268847294 Q 287.03517587939695 142.21671268847294 289.4472361809045 141.05460380385927 Q 291.85929648241205 141.05460380385927 294.2713567839196 139.67103680477217 Q 296.6834170854271 139.67103680477217 299.09547738693465 138.08181432164568 Q 301.5075376884422 138.08181432164568 303.9195979899497 136.3208981737554 Q 306.33165829145725 136.3208981737554 308.7437185929648 134.43917959520843 Q 311.15577889447235 134.43917959520843 313.5678391959799 132.5018285457075 Q 315.9798994974874 132.5018285457075 318.39195979899495 130.58439914919174 Q 320.8040201005025 130.58439914919174 323.21608040201 128.76796978487647 Q 325.62814070351754 128.76796978487647 328.0402010050251 127.13367647473174 Q 330.45226130653265 127.13367647473174 332.8643216080402 125.75705052139678 Q 335.2763819095477 125.75705052139678 337.68844221105525 124.70259159516156 Q 340.1005025125628 124.70259159516156 342.5125628140703 124.01899392456879 Q 344.92462311557784 124.01899392456879 347.3366834170854 123.73539686107614 Q 349.74874371859295 123.73539686107614 352.1608040201005 123.858955412619 Q 354.572864321608 123.858955412619 356.98492462311555 124.37392724375246 Q 359.3969849246231 124.37392724375246 361.8090452261306 125.24235784993692 Q 364.22110552763814 125.24235784993692 366.6331658291457 126.40632410747267 Q 369.04522613065325 126.40632410747267 371.4572864321608 127.79157769451791 Q 373.8693467336683 127.79157769451791 376.28140703517585 129.31232327500535 Q 378.6934673366834 129.31232327500535 381.1055276381909 130.87678018941193 Q 383.51758793969844 130.87678018941193 385.929648241206 132.39311744780616 Q 388.34170854271355 132.39311744780616 390.7537688442211 133.77532467210725 Q 393.1658291457286 133.77532467210725 395.57788944723615 134.94858838051613 Q 397.9899497487437 134.94858838051613 400.4020100502512 135.85378307105577 Q 402.81407035175874 135.85378307105577 405.2261306532663 136.45075674225814 Q 407.63819095477385 136.45075674225814 410.0502512562814 136.72018521685067 Q 412.4623115577889 136.72018521685067 414.87437185929645 136.66388141109584 Q 417.286432160804 136.66388141109584 419.6984924623115 136.3035656880118 Q 422.11055276381904 136.3035656880118 424.5226130653266 135.67822218441074 Q 426.93467336683415 135.67822218441074 429.3467336683417 134.84027416431388 Q 431.7587939698492 134.84027416431388 434.17085427135675 133.85090053704135 Q 436.5829145728643 133.85090053704135 438.9949748743718 132.77487872831557 Q 441.40703517587934 132.77487872831557 443.8190954773869 131.67537122697433 Q 446.23115577889445 131.67537122697433 448.643216080402 130.60907193143834 Q 451.0552763819095 130.60907193143834 453.46733668341705 129.62209412375836 Q 455.8793969849246 129.62209412375836 458.2914572864321 128.74691736939752 Q 460.70351758793964 128.74691736939752 463.1155778894472 128.00062114113268 Q 465.52763819095475 128.00062114113268 467.9396984924623 127.38452573617175 Q 470.3517587939698 127.38452573617175 472.76381909547734 126.88524473644826 Q 475.1758793969849 126.88524473644826 477.5879396984924 126.47703720263067 Q 479.99999999999994 126.47703720263067 482.4120603015075 126.1252413069216 Q 484.82412060301505 126.1252413069216 487.2361809045226 125.79048273505245 Q 489.6482412060301 125.79048273505245 492.06030150753764 125.43328800352214 Q 494.4723618090452 125.43328800352214 496.8844221105527 125.01869990256857 Q 499.29648241206024 125.01869990256857 501.7085427135678 124.52049222333017 Q 504.12060301507535 124.52049222333017 506.5326633165829 123.92461376043607 Q 508.9447236180904 123.92461376043607 511.35678391959794 123.23155466664963 Q 513.7688442211055 123.23155466664963 516.180904522613 122.45741651813822 Q 518.5929648241206 122.45741651813822 521.0050251256281 121.63357385021325 Q 523.4170854271356 121.63357385021325 525.8291457286432 120.80493090921715 Q 528.2412060301507 120.80493090921715 530.6532663316582 120.02689362419457 Q 533.0653266331658 120.02689362419457 535.4773869346733 119.36128398401601 Q 537.8894472361808 119.36128398401601 540.3015075376884 118.87151347321851 Q 542.713567839196 118.87151347321851 545.1256281407035 118.61739673319968 Q 547.537688442211 118.61739673319968 549.9497487437186 118.65002091169474 Q 552.3618090452261 118.65002091169474 554.7738693467336 119.00708737816873 Q 557.1859296482412 119.00708737816873 559.5979899497487 119.70911038062212 Q 562.0100502512562 119.70911038062212 564.4221105527638 120.75679421647577 Q 566.8341708542713 120.75679421647577 569.2462311557788 122.12982146558767 Q 571.6582914572864 122.12982146558767 574.0703517587939 123.78717674437263 Q 576.4824120603014 123.78717674437263 578.894472361809 125.66901177243088 Q 581.3065326633166 125.66901177243088 583.7185929648241 127.69993764019117 Q 586.1306532663316 127.69993764019117 588.5427135678392 129.793518488193 Q 590.9547738693467 129.793518488193 593.3668341708542 131.8576461835521 Q 595.7788944723618 131.8576461835521 598.1909547738693 133.80040550206542 Q 600.6030150753768 133.80040550206542 603.0150753768844 135.53599936316897 Q 605.4271356783919 135.53599936316897 607.8391959798994 136.99029701786003 Q 610.251256281407 136.99029701786003 612.6633165829145 138.1055953308604 Q 615.075376884422 138.1055953308604 617.4874371859296 138.8442423309757 Q 619.8994974874372 138.8442423309757 622.3115577889447 139.19085842501192 Q 624.7236180904522 139.19085842501192 627.1356783919598 139.1529973353613 Q 629.5477386934673 139.1529973353613 631.9597989949748 138.76020757465545 Q 634.3718592964824 138.76020757465545 636.7839195979899 138.0615768090735 Q 639.1959798994974 138.0615768090735 641.608040201005 137.12195626826735 Q 644.0201005025125 137.12195626826735 646.43216080402 136.01716145701081 Q 648.8442211055276 136.01716145701081 651.2562814070351 134.82852108299127 Q 653.6683417085426 134.82852108299127 656.0804020100502 133.6371924671124 Q 658.4924623115578 133.6371924671124 660.9045226130653 132.51867519951014 Q 663.3165829145728 132.51867519951014 665.7286432160804 131.53793449868752 Q 668.1407035175879 131.53793449868752 670.5527638190954 130.74549334764106 Q 672.964824120603 130.74549334764106 675.3768844221105 130.17477227715597 Q 677.788944723618 130.17477227715597 680.2010050251256 129.84085409232165 Q 682.6130653266331 129.84085409232165 685.0251256281406 129.7407360214856 Q 687.4371859296482 129.7407360214856 689.8492462311557 129.8550128660773 Q 692.2613065326632 129.8550128660773 694.6733668341708 130.15082120645116 Q 697.0854271356784 130.15082120645116 699.4974874371859 130.5857755854537 Q 701.9095477386934 130.5857755854537 704.321608040201 131.11255069539465 Q 706.7336683417085 131.11255069539465 709.145728643216 131.6837149957404 Q 711.5577889447236 131.6837149957404 713.9698492462311 132.25640468094085 Q 716.3819095477386 132.25640468094085 718.7939698492462 132.7964437261265 Q 721.2060301507537 132.7964437261265 723.6180904522612 133.2815644264852 Q 726.0301507537688 133.2815644264852 728.4422110552763 133.70345943179188 Q 730.8542713567838 133.70345943179188 733.2663316582914 134.06849455205688 Q 735.678391959799 134.06849455205688 738.0904522613065 134.39702363440514 Q 740.502512562814 134.39702363440514 742.9145728643216 134.72136354929913 Q 745.3266331658291 134.72136354929913 747.7386934673366 135.08259936463918 Q 750.1507537688442 135.08259936463918 752.5628140703517 135.526488092921 Q 754.9748743718592 135.526488092921 757.3869346733668 136.0988060295215 Q 759.7989949748743 136.0988060295215 762.2110552763818 136.8405334494171 Q 764.6231155778894 136.8405334494171 767.0351758793969 137.78328731152703 Q 769.4472361809044 137.78328731152703 771.859296482412 138.94539619614073 Q 774.2713567839196 138.94539619614073 776.6834170854271 140.32896319522789 Q 779.0954773869346 140.32896319522789 781.5075376884422 141.91818567835432 Q 783.9195979899497 141.91818567835432 786.3316582914572 143.67910182624456 Q 788.7437185929648 143.67910182624456 791.1557788944723 145.5608204047915 Q 793.5678391959798 145.5608204047915 795.9798994974874 147.4981714542925 Q 798.3919597989949 147.4981714542925 800.8040201005024 149.4156008508082 Q 803.21608040201 149.4156008508082 805.6281407035175 151.23203021512347 Q 808.040201005025 151.23203021512347 810.4522613065326 152.86632352526817 Q 812.8643216080402 152.86632352526817 815.2763819095477 154.24294947860324 Q 817.6884422110552 154.24294947860324 820.1005025125628 155.29740840483845 Q 822.5125628140703 155.29740840483845 824.9246231155778 155.9810060754312 Q 827.3366834170854 155.9810060754312 829.7487437185929 156.26460313892386 Q 832.1608040201004 156.26460313892386 834.572864321608 156.141044587381 Q 836.9849246231155 156.141044587381 839.396984924623 155.62607275624757 Q 841.8090452261306 155.62607275624757 844.2211055276381 154.75764215006308 Q 846.6331658291456 154.75764215006308 849.0452261306532 153.59367589252736 Q 851.4572864321608 153.59367589252736 853.8693467336683 152.20842230548212 Q 856.2814070351758 152.20842230548212 858.6934673366834 150.68767672499465 Q 861.1055276381909 150.68767672499465 863.5175879396984 149.12321981058804 Q 865.929648241206 149.12321981058804 868.3417085427135 147.60688255219384 Q 870.753768844221 147.60688255219384 873.1658291457286 146.2246753278928 Q 875.5778894472361 146.2246753278928 877.9899497487436 145.05141161948384 Q 880.4020100502512 145.05141161948384 882.8140703517587 144.14621692894423 Q 885.2261306532662 144.14621692894423 887.6381909547738 143.54924325774184 Q 890.0502512562814 143.54924325774184 892.4623115577889 143.27981478314933 Q 894.8743718592964 143.27981478314933 897.286432160804 143.33611858890416 Q 899.6984924623115 143.33611858890416 902.110552763819 143.6964343119882 Q 904.5226130653266 143.6964343119882 906.9346733668341 144.32177781558926 Q 909.3467336683416 144.32177781558926 911.7587939698492 145.1597258356861 Q 914.1708542713567 145.1597258356861 916.5829145728642 146.14909946295862 Q 918.9949748743718 146.14909946295862 921.4070351758793 147.2251212716844 Q 923.8190954773868 147.2251212716844 926.2311557788944 148.32462877302564 Q 928.643216080402 148.32462877302564 931.0552763819095 149.3909280685616 Q 933.467336683417 149.3909280685616 935.8793969849246 150.37790587624167 Q 938.2914572864321 150.37790587624167 940.7035175879396 151.25308263060242 Q 943.1155778894472 151.25308263060242 945.5276381909547 151.99937885886735 Q 947.9396984924622 151.99937885886735 950.3517587939698 152.61547426382822 Q 952.7638190954773 152.61547426382822 955.1758793969848 153.11475526355173 Q 957.5879396984924 153.11475526355173 959.9999999999999 153.52296279736933 " stroke="url(#grad)" stroke-width="2"
      opacity="0.18" fill="none">
  <animateTransform type="translate"
                    from="0 0" to="-40 0"
                    dur="9s" repeatCount="indefinite"/>
</path>

<path d="M 0 109.4925602003341 Q 2.4120603015075375 109.4925602003341 4.824120603015075 108.23627627703482 Q 7.236180904522612 108.23627627703482 9.64824120603015 107.220353095849 Q 12.060301507537687 107.220353095849 14.472361809045225 106.50240629982756 Q 16.884422110552762 106.50240629982756 19.2964824120603 106.13118984823011 Q 21.708542713567837 106.13118984823011 24.120603015075375 106.14390510163493 Q 26.532663316582912 106.14390510163493 28.94472361809045 106.56404423161982 Q 31.356783919597987 106.56404423161982 33.768844221105525 107.39988855859156 Q 36.18090452261306 107.39988855859156 38.5929648241206 108.6437478331222 Q 41.00502512562814 108.6437478331222 43.417085427135675 110.27198708704826 Q 45.82914572864321 110.27198708704826 48.24120603015075 112.24584564273052 Q 50.65326633165829 112.24584564273052 53.065326633165824 114.51301048190112 Q 55.47738693467336 114.51301048190112 57.8894472361809 117.00986575987757 Q 60.30150753768844 117.00986575987757 62.713567839195974 119.66430401995588 Q 65.12562814070351 119.66430401995588 67.53768844221105 122.39895460078415 Q 69.94974874371859 122.39895460078415 72.36180904522612 125.13466248229038 Q 74.77386934673366 125.13466248229038 77.1859296482412 127.79403759996828 Q 79.59798994974874 127.79403759996828 82.01005025125627 130.3048911934979 Q 84.42211055276381 130.3048911934979 86.83417085427135 132.60338222843424 Q 89.24623115577889 132.60338222843424 91.65829145728642 134.63671297773158 Q 94.07035175879396 134.63671297773158 96.4824120603015 136.36523758596098 Q 98.89447236180904 136.36523758596098 101.30653266331657 137.7638794991126 Q 103.71859296482411 137.7638794991126 106.13065326633165 138.822791261194 Q 108.54271356783919 138.822791261194 110.95477386934672 139.5472312857084 Q 113.36683417085426 139.5472312857084 115.7788944723618 139.95667454594764 Q 118.19095477386934 139.95667454594764 120.60301507537687 140.08321536812412 Q 123.01507537688441 140.08321536812412 125.42713567839195 139.96935839401502 Q 127.83919597989949 139.96935839401502 130.25125628140702 139.66532623110484 Q 132.66331658291455 139.66532623110484 135.0753768844221 139.22603755635424 Q 137.48743718592965 139.22603755635424 139.89949748743717 138.70792611251116 Q 142.3115577889447 138.70792611251116 144.72361809045225 138.1657782362378 Q 147.1356783919598 138.1657782362378 149.54773869346732 137.64976391247455 Q 151.95979899497485 137.64976391247455 154.3718592964824 137.20282403112273 Q 156.78391959798995 137.20282403112273 159.19597989949747 136.85855523663827 Q 161.608040201005 136.85855523663827 164.02010050251255 136.63970470998976 Q 166.4321608040201 136.63970470998976 168.84422110552762 136.55735203553732 Q 171.25628140703515 136.55735203553732 173.6683417085427 136.61081595054128 Q 176.08040201005025 136.61081595054128 178.49246231155777 136.78828244883812 Q 180.9045226130653 136.78828244883812 183.31658291457285 137.06810971643586 Q 185.7286432160804 137.06810971643586 188.14070351758792 137.42072699855615 Q 190.55276381909545 137.42072699855615 192.964824120603 137.81101087117352 Q 195.37688442211055 137.81101087117352 197.78894472361807 138.20099538629307 Q 200.2010050251256 138.20099538629307 202.61306532663315 138.55275368111288 Q 205.0251256281407 138.55275368111288 207.43718592964822 138.83127893687626 Q 209.84924623115575 138.83127893687626 212.2613065326633 139.00719258350838 Q 214.67336683417085 139.00719258350838 217.08542713567837 139.05911737088903 Q 219.4974874371859 139.05911737088903 221.90954773869345 138.9755718266397 Q 224.321608040201 138.9755718266397 226.73366834170852 138.7562696432465 Q 229.14572864321605 138.7562696432465 231.5577889447236 138.41274118184845 Q 233.96984924623115 138.41274118184845 236.38190954773867 137.96823267489432 Q 238.7939698492462 137.96823267489432 241.20603015075375 137.45687971865567 Q 243.6180904522613 137.45687971865567 246.03015075376882 136.9221929858713 Q 248.44221105527635 136.9221929858713 250.8542713567839 136.41493345467026 Q 253.26633165829145 136.41493345467026 255.67839195979897 135.99048964557738 Q 258.0904522613065 135.99048964557738 260.50251256281405 135.70589841589944 Q 262.9145728643216 135.70589841589944 265.3266331658291 135.6166721501333 Q 267.73869346733665 135.6166721501333 270.1507537688442 135.7736075046646 Q 272.56281407035175 135.7736075046646 274.9748743718593 136.2197535085811 Q 277.3869346733668 136.2197535085811 279.79899497487435 136.98770961820696 Q 282.2110552763819 136.98770961820696 284.6231155778894 138.09740764381132 Q 287.03517587939695 138.09740764381132 289.4472361809045 139.55450621003504 Q 291.85929648241205 139.55450621003504 294.2713567839196 141.349493949234 Q 296.6834170854271 141.349493949234 299.09547738693465 143.4575597311641 Q 301.5075376884422 143.4575597311641 303.9195979899497 145.83924697733673 Q 306.33165829145725 145.83924697733673 308.7437185929648 148.4418667558651 Q 311.15577889447235 148.4418667558651 313.5678391959799 151.20160322771073 Q 315.9798994974874 151.20160322771073 318.39195979899495 154.0462073777772 Q 320.8040201005025 154.0462073777772 323.21608040201 156.89814288432495 Q 325.62814070351754 156.89814288432495 328.0402010050251 159.67802322366836 Q 330.45226130653265 159.67802322366836 332.8643216080402 162.30816303849298 Q 335.2763819095477 162.30816303849298 337.68844221105525 164.71606030495408 Q 340.1005025125628 164.71606030495408 342.5125628140703 166.83762927760225 Q 344.92462311557784 166.83762927760225 347.3366834170854 168.6200173878142 Q 349.74874371859295 168.6200173878142 352.1608040201005 170.0238615005918 Q 354.572864321608 170.0238615005918 356.98492462311555 171.02486897995198 Q 359.3969849246231 171.02486897995198 361.8090452261306 171.61464522908716 Q 364.22110552763814 171.61464522908716 366.6331658291457 171.80072977400354 Q 369.04522613065325 171.80072977400354 371.4572864321608 171.6058453352829 Q 373.8693467336683 171.6058453352829 376.28140703517585 171.0664063617053 Q 378.6934673366834 171.0664063617053 381.1055276381909 170.23037288221224 Q 383.51758793969844 170.23037288221224 385.929648241206 169.15457011704711 Q 388.34170854271355 169.15457011704711 390.7537688442211 167.90162218886763 Q 393.1658291457286 167.90162218886763 395.57788944723615 166.53666797399103 Q 397.9899497487437 166.53666797399103 400.4020100502512 165.12403756974342 Q 402.81407035175874 165.12403756974342 405.2261306532663 163.72406847472058 Q 407.63819095477385 163.72406847472058 410.0502512562814 162.39023137483804 Q 412.4623115577889 162.39023137483804 414.87437185929645 161.16671693134532 Q 417.286432160804 161.16671693134532 419.6984924623115 160.08660822150213 Q 422.11055276381904 160.08660822150213 424.5226130653266 159.17072998634467 Q 426.93467336683415 159.17072998634467 429.3467336683417 158.42722746176958 Q 431.7587939698492 158.42722746176958 434.17085427135675 157.85188644522088 Q 436.5829145728643 157.85188644522088 438.9949748743718 157.42916466580726 Q 441.40703517587934 157.42916466580726 443.8190954773869 157.13386478849122 Q 446.23115577889445 157.13386478849122 448.643216080402 156.93334369572696 Q 451.0552763819095 156.93334369572696 453.46733668341705 156.79012302828949 Q 455.8793969849246 156.79012302828949 458.2914572864321 156.66474397054276 Q 460.70351758793964 156.66474397054276 463.1155778894472 156.5186961467613 Q 465.52763819095475 156.5186961467613 467.9396984924623 156.3172469733035 Q 470.3517587939698 156.3172469733035 472.76381909547734 156.032004071987 Q 475.1758793969849 156.032004071987 477.5879396984924 155.64305903498425 Q 479.99999999999994 155.64305903498425 482.4120603015075 155.14058505943822 Q 484.82412060301505 155.14058505943822 487.2361809045226 154.5257923847025 Q 489.6482412060301 154.5257923847025 492.06030150753764 153.8111823111521 Q 494.4723618090452 153.8111823111521 496.8844221105527 153.0200807993416 Q 499.29648241206024 153.0200807993416 501.7085427135678 152.18547399631913 Q 504.12060301507535 152.18547399631913 506.5326633165829 151.3482082029764 Q 508.9447236180904 151.3482082029764 511.35678391959794 150.55465353767335 Q 513.7688442211055 150.55465353767335 516.180904522613 149.8539618111208 Q 518.5929648241206 149.8539618111208 521.0050251256281 149.2950731525953 Q 523.4170854271356 149.2950731525953 525.8291457286432 148.9236413651044 Q 528.2412060301507 148.9236413651044 530.6532663316582 148.77905395951728 Q 533.0653266331658 148.77905395951728 535.4773869346733 148.89171897151755 Q 537.8894472361808 148.89171897151755 540.3015075376884 149.2807771911869 Q 542.713567839196 149.2807771911869 545.1256281407035 149.95237605765425 Q 547.537688442211 149.95237605765425 549.9497487437186 150.8986114092676 Q 552.3618090452261 150.8986114092676 554.7738693467336 152.09720717899611 Q 557.1859296482412 152.09720717899611 559.5979899497487 153.51196296746912 Q 562.0100502512562 153.51196296746912 564.4221105527638 155.09395742148834 Q 566.8341708542713 155.09395742148834 569.2462311557788 156.78345380841938 Q 571.6582914572864 156.78345380841938 574.0703517587939 158.51241539832532 Q 576.4824120603014 158.51241539832532 578.894472361809 160.2075043885536 Q 581.3065326633166 160.2075043885536 583.7185929648241 161.79341100459413 Q 586.1306532663316 161.79341100459413 588.5427135678392 163.19634058997894 Q 590.9547738693467 163.19634058997894 593.3668341708542 164.34747700590515 Q 595.7788944723618 164.34747700590515 598.1909547738693 165.18624103467334 Q 600.6030150753768 165.18624103467334 603.0150753768844 165.66317271404728 Q 605.4271356783919 165.66317271404728 607.8391959798994 165.7422860740448 Q 610.251256281407 165.7422860740448 612.6633165829145 165.40277254293753 Q 615.075376884422 165.40277254293753 617.4874371859296 164.63996382083184 Q 619.8994974874372 164.63996382083184 622.3115577889447 163.4655044019401 Q 624.7236180904522 163.4655044019401 627.1356783919598 161.906726008493 Q 629.5477386934673 161.906726008493 631.9597989949748 160.00525867986357 Q 634.3718592964824 160.00525867986357 636.7839195979899 157.81495381794957 Q 639.1959798994974 157.81495381794957 641.608040201005 155.39923090860498 Q 644.0201005025125 155.39923090860498 646.43216080402 152.82798993168325 Q 648.8442211055276 152.82798993168325 651.2562814070351 150.17425398959227 Q 653.6683417085426 150.17425398959227 656.0804020100502 147.51072020522145 Q 658.4924623115578 147.51072020522145 660.9045226130653 144.906400739396 Q 663.3165829145728 144.906400739396 665.7286432160804 142.42352966570405 Q 668.1407035175879 142.42352966570405 670.5527638190954 140.11489577225396 Q 672.964824120603 140.11489577225396 675.3768844221105 138.0217370168821 Q 677.788944723618 138.0217370168821 680.2010050251256 136.1723007024604 Q 682.6130653266331 136.1723007024604 685.0251256281406 134.58113622159553 Q 687.4371859296482 134.58113622159553 689.8492462311557 133.2491465085755 Q 692.2613065326632 133.2491465085755 694.6733668341708 132.16438238424382 Q 697.0854271356784 132.16438238424382 699.4974874371859 131.3035231052543 Q 701.9095477386934 131.3035231052543 704.321608040201 130.63394888879176 Q 706.7336683417085 130.63394888879176 709.145728643216 130.11627904583057 Q 711.5577889447236 130.11627904583057 713.9698492462311 129.70722438723948 Q 716.3819095477386 129.70722438723948 718.7939698492462 129.3625861353033 Q 721.2060301507537 129.3625861353033 723.6180904522612 129.04022657179559 Q 726.0301507537688 129.04022657179559 728.4422110552763 128.70283945224324 Q 730.8542713567838 128.70283945224324 733.2663316582914 128.3203606403266 Q 735.678391959799 128.3203606403266 738.0904522613065 127.87188075845182 Q 740.502512562814 127.87188075845182 742.9145728643216 127.34695070801803 Q 745.3266331658291 127.34695070801803 747.7386934673366 126.7462060557938 Q 750.1507537688442 126.7462060557938 752.5628140703517 126.0812755439968 Q 754.9748743718592 126.0812755439968 757.3869346733668 125.37398016599128 Q 759.7989949748743 125.37398016599128 762.2110552763818 124.65487005550631 Q 764.6231155778894 124.65487005550631 767.0351758793969 123.96118458471855 Q 769.4472361809044 123.96118458471855 771.859296482412 123.33435442289166 Q 774.2713567839196 123.33435442289166 776.6834170854271 122.81719100585873 Q 779.0954773869346 122.81719100585873 781.5075376884422 122.4509274102402 Q 783.9195979899497 122.4509274102402 786.3316582914572 122.27228397016184 Q 788.7437185929648 122.27228397016184 791.1557788944723 122.31073158418035 Q 793.5678391959798 122.31073158418035 795.9798994974874 122.58611554228996 Q 798.3919597989949 122.58611554228996 800.8040201005024 123.10678340367222 Q 803.21608040201 123.10678340367222 805.6281407035175 123.86833303192321 Q 808.040201005025 123.86833303192321 810.4522613065326 124.85306285452464 Q 812.8643216080402 124.85306285452464 815.2763819095477 126.03016763475429 Q 817.6884422110552 126.03016763475429 820.1005025125628 127.35668166956047 Q 822.5125628140703 127.35668166956047 824.9246231155778 128.779129645335 Q 827.3366834170854 128.779129645335 829.7487437185929 130.23580570432404 Q 832.1608040201004 130.23580570432404 834.572864321608 131.65956579935948 Q 836.9849246231155 131.65956579935948 839.396984924623 132.98098911602474 Q 841.8090452261306 132.98098911602474 844.2211055276381 134.13174285308423 Q 846.6331658291456 134.13174285308423 849.0452261306532 135.0479721787005 Q 851.4572864321608 135.0479721787005 853.8693467336683 135.67353443042163 Q 856.2814070351758 135.67353443042163 858.6934673366834 135.96290377451547 Q 861.1055276381909 135.96290377451547 863.5175879396984 135.8835892130085 Q 865.929648241206 135.8835892130085 868.3417085427135 135.41793412768368 Q 870.753768844221 135.41793412768368 873.1658291457286 134.5641981062801 Q 875.5778894472361 134.5641981062801 877.9899497487436 133.33685983374195 Q 880.4020100502512 133.33685983374195 882.8140703517587 131.76612127423792 Q 885.2261306532662 131.76612127423792 887.6381909547738 129.89663595294044 Q 890.0502512562814 129.89663595294044 892.4623115577889 127.78552554157739 Q 894.8743718592964 127.78552554157739 897.286432160804 125.49978689442374 Q 899.6984924623115 125.49978689442374 902.110552763819 123.11322409684355 Q 904.5226130653266 123.11322409684355 906.9346733668341 120.70306520545545 Q 909.3467336683416 120.70306520545545 911.7587939698492 118.34643980736647 Q 914.1708542713567 118.34643980736647 916.5829145728642 116.11690041215581 Q 918.9949748743718 116.11690041215581 921.4070351758793 114.08116764656903 Q 923.8190954773868 114.08116764656903 926.2311557788944 112.29626642622141 Q 928.643216080402 112.29626642622141 931.0552763819095 110.80719844486477 Q 933.467336683417 110.80719844486477 935.8793969849246 109.6452666600945 Q 938.2914572864321 109.6452666600945 940.7035175879396 108.8271316042848 Q 943.1155778894472 108.8271316042848 945.5276381909547 108.35463928930196 Q 947.9396984924622 108.35463928930196 950.3517587939698 108.21541841091349 Q 952.7638190954773 108.21541841091349 955.1758793969848 108.38420280910515 Q 957.5879396984924 108.38420280910515 959.9999999999999 108.82479599883615 " stroke="url(#grad)" stroke-width="3"
      opacity="0.35" fill="none">
  <animateTransform type="translate"
                    from="0 0" to="-22 0"
                    dur="5.5s" repeatCount="indefinite"/>
</path>

<g filter="url(#glow)">
  <path d="M 0 113.37731757758587 Q 2.4120603015075375 113.37731757758587 4.824120603015075 113.46548021006568 Q 7.236180904522612 113.46548021006568 9.64824120603015 113.72114730109375 Q 12.060301507537687 113.72114730109375 14.472361809045225 114.1771100164124 Q 16.884422110552762 114.1771100164124 19.2964824120603 114.86239469424089 Q 21.708542713567837 114.86239469424089 24.120603015075375 115.80105255914104 Q 26.532663316582912 115.80105255914104 28.94472361809045 117.0111006304081 Q 31.356783919597987 117.0111006304081 33.768844221105525 118.50365296277386 Q 36.18090452261306 118.50365296277386 38.5929648241206 120.2822748199377 Q 41.00502512562814 120.2822748199377 43.417085427135675 122.34258467330508 Q 45.82914572864321 122.34258467330508 48.24120603015075 124.67212031070095 Q 50.65326633165829 124.67212031070095 53.065326633165824 127.25047613614238 Q 55.47738693467336 127.25047613614238 57.8894472361809 130.04970926669498 Q 60.30150753768844 130.04970926669498 62.713567839195974 133.03500262048811 Q 65.12562814070351 133.03500262048811 67.53768844221105 136.1655641735735 Q 69.94974874371859 136.1655641735735 72.36180904522612 139.3957332611079 Q 74.77386934673366 139.3957332611079 77.1859296482412 142.6762575038718 Q 79.59798994974874 142.6762575038718 82.01005025125627 145.95569791244932 Q 84.42211055276381 145.95569791244932 86.83417085427135 149.18191517192477 Q 89.24623115577889 149.18191517192477 91.65829145728642 152.30358720094117 Q 94.07035175879396 152.30358720094117 96.4824120603015 155.27170691376347 Q 98.89447236180904 155.27170691376347 101.30653266331657 158.04100973437917 Q 103.71859296482411 158.04100973437917 106.13065326633165 160.57128279639625 Q 108.54271356783919 160.57128279639625 110.95477386934672 162.8285118279966 Q 113.36683417085426 162.8285118279966 115.7788944723618 164.78582732457502 Q 118.19095477386934 164.78582732457502 120.60301507537687 166.42421855572965 Q 123.01507537688441 166.42421855572965 125.42713567839195 167.73299199345587 Q 127.83919597989949 167.73299199345587 130.25125628140702 168.7099596015346 Q 132.66331658291455 168.7099596015346 135.0753768844221 169.3613517803549 Q 137.48743718592965 169.3613517803549 139.89949748743717 169.70145928730034 Q 142.3115577889447 169.70145928730034 144.72361809045225 169.75201781492592 Q 147.1356783919598 169.75201781492592 149.54773869346732 169.5413577779184 Q 151.95979899497485 169.5413577779184 154.3718592964824 169.10334992328396 Q 156.78391959798995 169.10334992328396 159.19597989949747 168.47618435294518 Q 161.608040201005 168.47618435294518 164.02010050251255 167.7010261891589 Q 166.4321608040201 167.7010261891589 168.84422110552762 166.82059522335382 Q 171.25628140703515 166.82059522335382 173.6683417085427 165.87771932482534 Q 176.08040201005025 165.87771932482534 178.49246231155777 164.91391206320486 Q 180.9045226130653 164.91391206320486 183.31658291457285 163.96802389597576 Q 185.7286432160804 163.96802389597576 188.14070351758792 163.07501343076652 Q 190.55276381909545 163.07501343076652 192.964824120603 162.2648807944674 Q 195.37688442211055 162.2648807944674 197.78894472361807 161.56179918799063 Q 200.2010050251256 161.56179918799063 202.61306532663315 160.98347348949486 Q 205.0251256281407 160.98347348949486 207.43718592964822 160.5407465474701 Q 209.84924623115575 160.5407465474701 212.2613065326633 160.237464871065 Q 214.67336683417085 160.237464871065 217.08542713567837 160.07060609632447 Q 219.4974874371859 160.07060609632447 221.90954773869345 160.03066121531074 Q 224.321608040201 160.03066121531074 226.73366834170852 160.10225543414438 Q 229.14572864321605 160.10225543414438 231.5577889447236 160.26498299978826 Q 233.96984924623115 160.26498299978826 236.38190954773867 160.4944237065891 Q 238.7939698492462 160.4944237065891 241.20603015075375 160.7633023328703 Q 243.6180904522613 160.7633023328703 246.03015075376882 161.04274719432536 Q 248.44221105527635 161.04274719432536 250.8542713567839 161.30360051396167 Q 253.26633165829145 161.30360051396167 255.67839195979897 161.517731521207 Q 258.0904522613065 161.517731521207 260.50251256281405 161.65930316837608 Q 262.9145728643216 161.65930316837608 265.3266331658291 161.70594509123174 Q 267.73869346733665 161.70594509123174 270.1507537688442 161.63978887941363 Q 272.56281407035175 161.63978887941363 274.9748743718593 161.44832673917037 Q 277.3869346733668 161.44832673917037 279.79899497487435 161.12506104616003 Q 282.2110552763819 161.12506104616003 284.6231155778894 160.66991987139522 Q 287.03517587939695 160.66991987139522 289.4472361809045 160.08942204840668 Q 291.85929648241205 160.08942204840668 294.2713567839196 159.3965844320653 Q 296.6834170854271 159.3965844320653 299.09547738693465 158.61057335562094 Q 301.5075376884422 158.61057335562094 303.9195979899497 157.7561115889536 Q 306.33165829145725 157.7561115889536 308.7437185929648 156.86266100636954 Q 311.15577889447235 156.86266100636954 313.5678391959799 155.96340936886435 Q 315.9798994974874 155.96340936886435 318.39195979899495 155.09409682101193 Q 320.8040201005025 155.09409682101193 323.21608040201 154.29172363935183 Q 325.62814070351754 154.29172363935183 328.0402010050251 153.5931852347219 Q 330.45226130653265 153.5931852347219 332.8643216080402 153.03388324492096 Q 335.2763819095477 153.03388324492096 337.68844221105525 152.64636265370396 Q 340.1005025125628 152.64636265370396 342.5125628140703 152.45902419620805 Q 344.92462311557784 152.45902419620805 347.3366834170854 152.49495888123266 Q 349.74874371859295 152.49495888123266 352.1608040201005 152.7709473613108 Q 354.572864321608 152.7709473613108 356.98492462311555 153.29666125541698 Q 359.3969849246231 153.29666125541698 361.8090452261306 154.0740965738658 Q 364.22110552763814 154.0740965738658 366.6331658291457 155.0972613550828 Q 369.04522613065325 155.0972613550828 371.4572864321608 156.35213078266764 Q 373.8693467336683 156.35213078266764 376.28140703517585 157.81687372025735 Q 378.6934673366834 157.81687372025735 381.1055276381909 159.4623451103974 Q 383.51758793969844 159.4623451103974 385.929648241206 161.2528293670654 Q 388.34170854271355 161.2528293670654 390.7537688442211 163.1470110788049 Q 393.1658291457286 163.1470110788049 395.57788944723615 165.09914134209495 Q 397.9899497487437 165.09914134209495 400.4020100502512 167.06036114542442 Q 402.81407035175874 167.06036114542442 405.2261306532663 168.98013766767383 Q 407.63819095477385 168.98013766767383 410.0502512562814 170.8077653366291 Q 412.4623115577889 170.8077653366291 414.87437185929645 172.49388115723303 Q 417.286432160804 172.49388115723303 419.6984924623115 173.9919432476609 Q 422.11055276381904 173.9919432476609 424.5226130653266 175.2596227353049 Q 426.93467336683415 175.2596227353049 429.3467336683417 176.26006212205107 Q 431.7587939698492 176.26006212205107 434.17085427135675 176.96295782505862 Q 436.5829145728643 176.96295782505862 438.9949748743718 177.34543067393474 Q 441.40703517587934 177.34543067393474 443.8190954773869 177.39265548390588 Q 446.23115577889445 177.39265548390588 448.643216080402 177.0982291688681 Q 451.0552763819095 177.0982291688681 453.46733668341705 176.46426591414226 Q 455.8793969849246 176.46426591414226 458.2914572864321 175.5012173773794 Q 460.70351758793964 175.5012173773794 463.1155778894472 174.22742539458756 Q 465.52763819095475 174.22742539458756 467.9396984924623 172.66842390189612 Q 470.3517587939698 172.66842390189612 472.76381909547734 170.856015417482 Q 475.1758793969849 170.856015417482 477.5879396984924 168.82715515841082 Q 479.99999999999994 168.82715515841082 482.4120603015075 166.62268242241416 Q 484.82412060301505 166.62268242241416 487.2361809045226 164.28594401490565 Q 489.6482412060301 164.28594401490565 492.06030150753764 161.86135806669012 Q 494.4723618090452 161.86135806669012 496.8844221105527 159.39296844383964 Q 499.29648241206024 159.39296844383964 501.7085427135678 156.92304003461481 Q 504.12060301507535 156.92304003461481 506.5326633165829 154.4907435083596 Q 508.9447236180904 154.4907435083596 511.35678391959794 152.13097473999966 Q 513.7688442211055 152.13097473999966 516.180904522613 149.87334910368259 Q 518.5929648241206 149.87334910368259 521.0050251256281 147.741404438923 Q 523.4170854271356 147.741404438923 525.8291457286432 145.7520389109212 Q 528.2412060301507 145.7520389109212 530.6532663316582 143.9152014937572 Q 533.0653266331658 143.9152014937572 535.4773869346733 142.23384370333122 Q 537.8894472361808 142.23384370333122 540.3015075376884 140.70413181999552 Q 542.713567839196 140.70413181999552 545.1256281407035 139.31590950252763 Q 547.537688442211 139.31590950252763 549.9497487437186 138.05339173720594 Q 552.3618090452261 138.05339173720594 554.7738693467336 136.89606280639276 Q 557.1859296482412 136.89606280639276 559.5979899497487 135.81974369335654 Q 562.0100502512562 135.81974369335654 564.4221105527638 134.79778832190243 Q 566.8341708542713 134.79778832190243 569.2462311557788 133.8023634740535 Q 571.6582914572864 133.8023634740535 574.0703517587939 132.8057642978397 Q 576.4824120603014 132.8057642978397 578.894472361809 131.78171611374623 Q 581.3065326633166 131.78171611374623 583.7185929648241 130.70661379467776 Q 586.1306532663316 130.70661379467776 588.5427135678392 129.56065230962793 Q 590.9547738693467 129.56065230962793 593.3668341708542 128.32880600266242 Q 595.7788944723618 128.32880600266242 598.1909547738693 127.0016196841692 Q 600.6030150753768 127.0016196841692 603.0150753768844 125.57578144427033 Q 605.4271356783919 125.57578144427033 607.8391959798994 124.0544550152884 Q 610.251256281407 124.0544550152884 612.6633165829145 122.44735822912443 Q 615.075376884422 122.44735822912443 617.4874371859296 120.77058332566926 Q 619.8994974874372 120.77058332566926 622.3115577889447 119.0461642417566 Q 624.7236180904522 119.0461642417566 627.1356783919598 117.30140521258379 Q 629.5477386934673 117.30140521258379 631.9597989949748 115.56799372086253 Q 634.3718592964824 115.56799372086253 636.7839195979899 113.88092872269428 Q 639.1959798994974 113.88092872269428 641.608040201005 112.27730188140654 Q 644.0201005025125 112.27730188140654 646.43216080402 110.79497500806944 Q 648.8442211055276 110.79497500806944 651.2562814070351 109.47120084414681 Q 653.6683417085426 109.47120084414681 656.0804020100502 108.34123658595408 Q 658.4924623115578 108.34123658595408 660.9045226130653 107.43700005981086 Q 663.3165829145728 107.43700005981086 665.7286432160804 106.7858171907148 Q 668.1407035175879 106.7858171907148 670.5527638190954 106.40930640870712 Q 672.964824120603 106.40930640870712 675.3768844221105 106.3224410099908 Q 677.788944723618 106.3224410099908 680.2010050251256 106.53282439623564 Q 682.6130653266331 106.53282439623564 685.0251256281406 107.0402057693659 Q 687.4371859296482 107.0402057693659 689.8492462311557 107.83625551898632 Q 692.2613065326632 107.83625551898632 694.6733668341708 108.90461049934278 Q 697.0854271356784 108.90461049934278 699.4974874371859 110.22118997117614 Q 701.9095477386934 110.22118997117614 704.321608040201 111.754773513545 Q 706.7336683417085 111.754773513545 709.145728643216 113.46782302610761 Q 711.5577889447236 113.46782302610761 713.9698492462311 115.31752236799562 Q 716.3819095477386 115.31752236799562 718.7939698492462 117.25700051838224 Q 721.2060301507537 117.25700051838224 723.6180904522612 119.23669766712968 Q 726.0301507537688 119.23669766712968 728.4422110552763 121.20582858070331 Q 730.8542713567838 121.20582858070331 733.2663316582914 123.11389411825444 Q 735.678391959799 123.11389411825444 738.0904522613065 124.91219001854095 Q 740.502512562814 124.91219001854095 742.9145728643216 126.55526210276814 Q 745.3266331658291 126.55526210276814 747.7386934673366 128.0022588412676 Q 750.1507537688442 128.0022588412676 752.5628140703517 129.21813575017856 Q 754.9748743718592 129.21813575017856 757.3869346733668 130.17467119437322 Q 759.7989949748743 130.17467119437322 762.2110552763818 130.85125969497923 Q 764.6231155778894 130.85125969497923 767.0351758793969 131.23545654437854 Q 769.4472361809044 131.23545654437854 771.859296482412 131.32325614713517 Q 774.2713567839196 131.32325614713517 776.6834170854271 131.11909572846105 Q 779.0954773869346 131.11909572846105 781.5075376884422 130.6355855576885 Q 783.9195979899497 130.6355855576885 786.3316582914572 129.8929762880307 Q 788.7437185929648 129.8929762880307 791.1557788944723 128.91838308285108 Q 793.5678391959798 128.91838308285108 795.9798994974874 127.74479456363505 Q 798.3919597989949 127.74479456363505 800.8040201005024 126.40990198175973 Q 803.21608040201 126.40990198175973 805.6281407035175 124.95479012629647 Q 808.040201005025 124.95479012629647 810.4522613065326 123.42253611929988 Q 812.8643216080402 123.42253611929988 815.2763819095477 121.85676525629819 Q 817.6884422110552 121.85676525629819 820.1005025125628 120.3002143187864 Q 822.5125628140703 120.3002143187864 824.9246231155778 118.79335227473504 Q 827.3366834170854 118.79335227473504 829.7487437185929 117.37310601274318 Q 832.1608040201004 117.37310601274318 834.572864321608 116.0717348080302 Q 836.9849246231155 116.0717348080302 839.396984924623 114.91589173583878 Q 841.8090452261306 114.91589173583878 844.2211055276381 113.9259034261342 Q 846.6331658291456 113.9259034261342 849.0452261306532 113.11529163617296 Q 851.4572864321608 113.11529163617296 853.8693467336683 112.49055138667337 Q 856.2814070351758 112.49055138667337 858.6934673366834 112.05119117371848 Q 861.1055276381909 112.05119117371848 863.5175879396984 111.7900313605457 Q 865.929648241206 111.7900313605457 868.3417085427135 111.69374760542495 Q 870.753768844221 111.69374760542495 873.1658291457286 111.74363742241427 Q 875.5778894472361 111.74363742241427 877.9899497487436 111.91658001192681 Q 880.4020100502512 111.91658001192681 882.8140703517587 112.18615262022385 Q 885.2261306532662 112.18615262022385 887.6381909547738 112.52386113509783 Q 890.0502512562814 112.52386113509783 892.4623115577889 112.90043859587027 Q 894.8743718592964 112.90043859587027 897.286432160804 113.28716293198755 Q 899.6984924623115 113.28716293198755 902.110552763819 113.65714462932337 Q 904.5226130653266 113.65714462932337 906.9346733668341 113.98653617800458 Q 909.3467336683416 113.98653617800458 911.7587939698492 114.2556180384753 Q 914.1708542713567 114.2556180384753 916.5829145728642 114.44972037048322 Q 918.9949748743718 114.44972037048322 921.4070351758793 114.559945741839 Q 923.8190954773868 114.559945741839 926.2311557788944 114.58366525723339 Q 928.643216080402 114.58366525723339 931.0552763819095 114.52476876467549 Q 933.467336683417 114.52476876467549 935.8793969849246 114.39365871545002 Q 938.2914572864321 114.39365871545002 940.7035175879396 114.20698655511998 Q 943.1155778894472 114.20698655511998 945.5276381909547 113.98713987655672 Q 947.9396984924622 113.98713987655672 950.3517587939698 113.76149763785186 Q 952.7638190954773 113.76149763785186 955.1758793969848 113.56147921473413 Q 957.5879396984924 113.56147921473413 959.9999999999999 113.42142061661785 " stroke="url(#grad)" stroke-width="4"
        fill="none">
    <animateTransform type="translate"
                      from="0 0" to="-10 0"
                      dur="3s" repeatCount="indefinite"/>
  </path>
</g>

<!-- BRANDING -->
<text x="50%" y="50%"
      text-anchor="middle"
      font-size="30"
      letter-spacing="5"
      fill="#ffffff"
      opacity="0.9"
      style="font-family: monospace"
      filter="url(#glow)">
  LORDZEFAN
</text>

</svg>