<svg viewBox="0 0 960 280" xmlns="http://www.w3.org/2000/svg">

<defs>
  <!-- CYBER GRADIENT -->
  <linearGradient id="grad" x1="0" y1="0" x2="1" y2="0">
    <stop offset="0%" stop-color="#ff2fdc"/>
    <stop offset="40%" stop-color="#9b5cff"/>
    <stop offset="70%" stop-color="#00f5ff"/>
    <stop offset="100%" stop-color="#00f5ff"/>
  </linearGradient>

  <!-- NEON GLOW -->
  <filter id="glow">
    <feGaussianBlur stdDeviation="4" result="b"/>
    <feMerge>
      <feMergeNode in="b"/>
      <feMergeNode in="SourceGraphic"/>
    </feMerge>
  </filter>

  <!-- CRT SCANLINE -->
  <pattern id="scanline" width="4" height="4">
    <rect width="4" height="1" fill="rgba(255,255,255,0.05)"/>
  </pattern>
</defs>

<!-- BACKGROUND -->
<rect width="100%" height="100%" fill="#05010d"/>
<rect width="100%" height="100%" fill="url(#scanline)"/>

<!-- EQUALIZER (CHAOTIC) -->
<g filter="url(#glow)">
  
      <rect x="0"
            y="244.78063802951016"
            width="14"
            height="35.219361970489835"
            fill="url(#grad)"
            opacity="0.6373333432667747">
        <animate attributeName="height"
                 dur="1.00s"
                 repeatCount="indefinite"
                 values="35.219361970489835;91.12750025029374;35.219361970489835;63.96912931866173" />
        <animate attributeName="y"
                 dur="0.45s"
                 repeatCount="indefinite"
                 values="244.78063802951016;188.87249974970626;244.78063802951016" />
      </rect>
    
      <rect x="16"
            y="248.32633445740265"
            width="14"
            height="31.673665542597362"
            fill="url(#grad)"
            opacity="0.762818422495942">
        <animate attributeName="height"
                 dur="0.69s"
                 repeatCount="indefinite"
                 values="31.673665542597362;89.51706866893603;31.673665542597362;58.57736854927633" />
        <animate attributeName="y"
                 dur="0.46s"
                 repeatCount="indefinite"
                 values="248.32633445740265;190.48293133106398;248.32633445740265" />
      </rect>
    
      <rect x="32"
            y="234.56115865441558"
            width="14"
            height="45.43884134558442"
            fill="url(#grad)"
            opacity="0.6915452692394921">
        <animate attributeName="height"
                 dur="0.57s"
                 repeatCount="indefinite"
                 values="45.43884134558442;51.69099073520555;45.43884134558442;80.65198865365083" />
        <animate attributeName="y"
                 dur="0.36s"
                 repeatCount="indefinite"
                 values="234.56115865441558;228.30900926479444;234.56115865441558" />
      </rect>
    
      <rect x="48"
            y="232.07367022418305"
            width="14"
            height="47.92632977581695"
            fill="url(#grad)"
            opacity="0.7538113813155067">
        <animate attributeName="height"
                 dur="0.50s"
                 repeatCount="indefinite"
                 values="47.92632977581695;125.96982842152569;47.92632977581695;54.844576573956246" />
        <animate attributeName="y"
                 dur="0.52s"
                 repeatCount="indefinite"
                 values="232.07367022418305;154.03017157847432;232.07367022418305" />
      </rect>
    
      <rect x="64"
            y="251.13089479933936"
            width="14"
            height="28.869105200660645"
            fill="url(#grad)"
            opacity="0.3295577139195596">
        <animate attributeName="height"
                 dur="0.31s"
                 repeatCount="indefinite"
                 values="28.869105200660645;37.560172753020964;28.869105200660645;46.4067053527793" />
        <animate attributeName="y"
                 dur="0.44s"
                 repeatCount="indefinite"
                 values="251.13089479933936;242.43982724697904;251.13089479933936" />
      </rect>
    
      <rect x="80"
            y="235.01150847218153"
            width="14"
            height="44.98849152781847"
            fill="url(#grad)"
            opacity="0.3741906849266657">
        <animate attributeName="height"
                 dur="0.85s"
                 repeatCount="indefinite"
                 values="44.98849152781847;81.20894516637262;44.98849152781847;57.25117334342926" />
        <animate attributeName="y"
                 dur="0.85s"
                 repeatCount="indefinite"
                 values="235.01150847218153;198.79105483362738;235.01150847218153" />
      </rect>
    
      <rect x="96"
            y="244.91970568210425"
            width="14"
            height="35.08029431789575"
            fill="url(#grad)"
            opacity="0.580619393998713">
        <animate attributeName="height"
                 dur="0.37s"
                 repeatCount="indefinite"
                 values="35.08029431789575;64.74359543631257;35.08029431789575;44.862508564290025" />
        <animate attributeName="y"
                 dur="0.87s"
                 repeatCount="indefinite"
                 values="244.91970568210425;215.25640456368743;244.91970568210425" />
      </rect>
    
      <rect x="112"
            y="255.81814799552578"
            width="14"
            height="24.181852004474223"
            fill="url(#grad)"
            opacity="0.6916643176989545">
        <animate attributeName="height"
                 dur="0.46s"
                 repeatCount="indefinite"
                 values="24.181852004474223;103.84658674980126;24.181852004474223;24.220527855240526" />
        <animate attributeName="y"
                 dur="0.40s"
                 repeatCount="indefinite"
                 values="255.81814799552578;176.15341325019875;255.81814799552578" />
      </rect>
    
      <rect x="128"
            y="250.88537268193934"
            width="14"
            height="29.114627318060652"
            fill="url(#grad)"
            opacity="0.45778212734335716">
        <animate attributeName="height"
                 dur="0.71s"
                 repeatCount="indefinite"
                 values="29.114627318060652;100.09815815487818;29.114627318060652;52.71982512774531" />
        <animate attributeName="y"
                 dur="0.30s"
                 repeatCount="indefinite"
                 values="250.88537268193934;179.90184184512182;250.88537268193934" />
      </rect>
    
      <rect x="144"
            y="255.54672521745712"
            width="14"
            height="24.453274782542884"
            fill="url(#grad)"
            opacity="0.5005562325974078">
        <animate attributeName="height"
                 dur="0.98s"
                 repeatCount="indefinite"
                 values="24.453274782542884;38.52623286833932;24.453274782542884;52.416771615780064" />
        <animate attributeName="y"
                 dur="0.70s"
                 repeatCount="indefinite"
                 values="255.54672521745712;241.47376713166068;255.54672521745712" />
      </rect>
    
      <rect x="160"
            y="247.4852821430303"
            width="14"
            height="32.51471785696971"
            fill="url(#grad)"
            opacity="0.4864329060563852">
        <animate attributeName="height"
                 dur="0.33s"
                 repeatCount="indefinite"
                 values="32.51471785696971;78.99195853624526;32.51471785696971;54.5783100277919" />
        <animate attributeName="y"
                 dur="0.67s"
                 repeatCount="indefinite"
                 values="247.4852821430303;201.00804146375475;247.4852821430303" />
      </rect>
    
      <rect x="176"
            y="239.89550777981927"
            width="14"
            height="40.10449222018074"
            fill="url(#grad)"
            opacity="0.5800849937381507">
        <animate attributeName="height"
                 dur="1.05s"
                 repeatCount="indefinite"
                 values="40.10449222018074;77.1175968077317;40.10449222018074;65.37194180758803" />
        <animate attributeName="y"
                 dur="0.35s"
                 repeatCount="indefinite"
                 values="239.89550777981927;202.8824031922683;239.89550777981927" />
      </rect>
    
      <rect x="192"
            y="245.94366068290327"
            width="14"
            height="34.05633931709674"
            fill="url(#grad)"
            opacity="0.6507806264178333">
        <animate attributeName="height"
                 dur="1.09s"
                 repeatCount="indefinite"
                 values="34.05633931709674;50.17499831478446;34.05633931709674;41.130120935714274" />
        <animate attributeName="y"
                 dur="0.38s"
                 repeatCount="indefinite"
                 values="245.94366068290327;229.82500168521554;245.94366068290327" />
      </rect>
    
      <rect x="208"
            y="252.80078420838234"
            width="14"
            height="27.199215791617668"
            fill="url(#grad)"
            opacity="0.5005329266553444">
        <animate attributeName="height"
                 dur="1.06s"
                 repeatCount="indefinite"
                 values="27.199215791617668;97.0786123387264;27.199215791617668;66.4665230748506" />
        <animate attributeName="y"
                 dur="0.85s"
                 repeatCount="indefinite"
                 values="252.80078420838234;182.9213876612736;252.80078420838234" />
      </rect>
    
      <rect x="224"
            y="238.73476329377158"
            width="14"
            height="41.26523670622842"
            fill="url(#grad)"
            opacity="0.4275983740145561">
        <animate attributeName="height"
                 dur="0.39s"
                 repeatCount="indefinite"
                 values="41.26523670622842;52.92494873261675;41.26523670622842;46.35961365267822" />
        <animate attributeName="y"
                 dur="0.42s"
                 repeatCount="indefinite"
                 values="238.73476329377158;227.07505126738326;238.73476329377158" />
      </rect>
    
      <rect x="240"
            y="246.6229686340067"
            width="14"
            height="33.377031365993304"
            fill="url(#grad)"
            opacity="0.6524151983636992">
        <animate attributeName="height"
                 dur="0.80s"
                 repeatCount="indefinite"
                 values="33.377031365993304;71.80241166632185;33.377031365993304;57.65181396827896" />
        <animate attributeName="y"
                 dur="0.94s"
                 repeatCount="indefinite"
                 values="246.6229686340067;208.19758833367814;246.6229686340067" />
      </rect>
    
      <rect x="256"
            y="259.4642835718154"
            width="14"
            height="20.535716428184656"
            fill="url(#grad)"
            opacity="0.7630278097952774">
        <animate attributeName="height"
                 dur="0.52s"
                 repeatCount="indefinite"
                 values="20.535716428184656;44.811341865824524;20.535716428184656;58.583765049538016" />
        <animate attributeName="y"
                 dur="0.50s"
                 repeatCount="indefinite"
                 values="259.4642835718154;235.18865813417548;259.4642835718154" />
      </rect>
    
      <rect x="272"
            y="234.4599278730366"
            width="14"
            height="45.54007212696339"
            fill="url(#grad)"
            opacity="0.6671617681903608">
        <animate attributeName="height"
                 dur="0.87s"
                 repeatCount="indefinite"
                 values="45.54007212696339;114.46034080350245;45.54007212696339;76.95157784885023" />
        <animate attributeName="y"
                 dur="0.52s"
                 repeatCount="indefinite"
                 values="234.4599278730366;165.53965919649755;234.4599278730366" />
      </rect>
    
      <rect x="288"
            y="252.149946018579"
            width="14"
            height="27.850053981421002"
            fill="url(#grad)"
            opacity="0.5331776587564447">
        <animate attributeName="height"
                 dur="0.72s"
                 repeatCount="indefinite"
                 values="27.850053981421002;68.93726209441219;27.850053981421002;39.846863108095526" />
        <animate attributeName="y"
                 dur="0.31s"
                 repeatCount="indefinite"
                 values="252.149946018579;211.06273790558782;252.149946018579" />
      </rect>
    
      <rect x="304"
            y="244.8338506351252"
            width="14"
            height="35.16614936487481"
            fill="url(#grad)"
            opacity="0.34609109979012004">
        <animate attributeName="height"
                 dur="0.83s"
                 repeatCount="indefinite"
                 values="35.16614936487481;68.2335440272042;35.16614936487481;65.34641879977434" />
        <animate attributeName="y"
                 dur="1.03s"
                 repeatCount="indefinite"
                 values="244.8338506351252;211.7664559727958;244.8338506351252" />
      </rect>
    
      <rect x="320"
            y="243.52828495865927"
            width="14"
            height="36.47171504134072"
            fill="url(#grad)"
            opacity="0.6983580941911343">
        <animate attributeName="height"
                 dur="0.67s"
                 repeatCount="indefinite"
                 values="36.47171504134072;85.17310471315722;36.47171504134072;68.6117305043353" />
        <animate attributeName="y"
                 dur="0.67s"
                 repeatCount="indefinite"
                 values="243.52828495865927;194.82689528684278;243.52828495865927" />
      </rect>
    
      <rect x="336"
            y="257.11963297825514"
            width="14"
            height="22.88036702174486"
            fill="url(#grad)"
            opacity="0.7971659712169525">
        <animate attributeName="height"
                 dur="0.81s"
                 repeatCount="indefinite"
                 values="22.88036702174486;95.24849482638393;22.88036702174486;49.6530898434505" />
        <animate attributeName="y"
                 dur="0.89s"
                 repeatCount="indefinite"
                 values="257.11963297825514;184.75150517361607;257.11963297825514" />
      </rect>
    
      <rect x="352"
            y="252.92355151317068"
            width="14"
            height="27.07644848682932"
            fill="url(#grad)"
            opacity="0.5419378583323555">
        <animate attributeName="height"
                 dur="0.31s"
                 repeatCount="indefinite"
                 values="27.07644848682932;30.915594216208078;27.07644848682932;41.526845599593194" />
        <animate attributeName="y"
                 dur="0.94s"
                 repeatCount="indefinite"
                 values="252.92355151317068;249.0844057837919;252.92355151317068" />
      </rect>
    
      <rect x="368"
            y="247.02842491103968"
            width="14"
            height="32.97157508896033"
            fill="url(#grad)"
            opacity="0.7683206805608171">
        <animate attributeName="height"
                 dur="1.08s"
                 repeatCount="indefinite"
                 values="32.97157508896033;91.3392998076059;32.97157508896033;52.16795526228865" />
        <animate attributeName="y"
                 dur="0.40s"
                 repeatCount="indefinite"
                 values="247.02842491103968;188.6607001923941;247.02842491103968" />
      </rect>
    
      <rect x="384"
            y="257.77893949391057"
            width="14"
            height="22.221060506089415"
            fill="url(#grad)"
            opacity="0.5472296336146727">
        <animate attributeName="height"
                 dur="0.64s"
                 repeatCount="indefinite"
                 values="22.221060506089415;22.772726896979293;22.221060506089415;43.0379785200238" />
        <animate attributeName="y"
                 dur="1.01s"
                 repeatCount="indefinite"
                 values="257.77893949391057;257.2272731030207;257.77893949391057" />
      </rect>
    
      <rect x="400"
            y="238.7594068944885"
            width="14"
            height="41.24059310551148"
            fill="url(#grad)"
            opacity="0.47453540430699065">
        <animate attributeName="height"
                 dur="0.67s"
                 repeatCount="indefinite"
                 values="41.24059310551148;53.18204596262056;41.24059310551148;52.20764804282511" />
        <animate attributeName="y"
                 dur="0.31s"
                 repeatCount="indefinite"
                 values="238.7594068944885;226.81795403737942;238.7594068944885" />
      </rect>
    
      <rect x="416"
            y="232.77788889845593"
            width="14"
            height="47.22211110154407"
            fill="url(#grad)"
            opacity="0.5774036046962416">
        <animate attributeName="height"
                 dur="0.91s"
                 repeatCount="indefinite"
                 values="47.22211110154407;105.5696040945813;47.22211110154407;54.18595001915472" />
        <animate attributeName="y"
                 dur="0.69s"
                 repeatCount="indefinite"
                 values="232.77788889845593;174.43039590541872;232.77788889845593" />
      </rect>
    
      <rect x="432"
            y="236.6532323460084"
            width="14"
            height="43.34676765399159"
            fill="url(#grad)"
            opacity="0.47257397424879927">
        <animate attributeName="height"
                 dur="0.62s"
                 repeatCount="indefinite"
                 values="43.34676765399159;56.79376389160236;43.34676765399159;60.36114172805077" />
        <animate attributeName="y"
                 dur="1.03s"
                 repeatCount="indefinite"
                 values="236.6532323460084;223.20623610839763;236.6532323460084" />
      </rect>
    
      <rect x="448"
            y="246.6134299917368"
            width="14"
            height="33.3865700082632"
            fill="url(#grad)"
            opacity="0.45653124664772277">
        <animate attributeName="height"
                 dur="0.86s"
                 repeatCount="indefinite"
                 values="33.3865700082632;74.84416205071625;33.3865700082632;35.60121254958173" />
        <animate attributeName="y"
                 dur="0.63s"
                 repeatCount="indefinite"
                 values="246.6134299917368;205.15583794928375;246.6134299917368" />
      </rect>
    
      <rect x="464"
            y="232.41093143731368"
            width="14"
            height="47.58906856268632"
            fill="url(#grad)"
            opacity="0.5996649474947766">
        <animate attributeName="height"
                 dur="0.67s"
                 repeatCount="indefinite"
                 values="47.58906856268632;49.136117909877726;47.58906856268632;49.52694887078677" />
        <animate attributeName="y"
                 dur="0.61s"
                 repeatCount="indefinite"
                 values="232.41093143731368;230.86388209012227;232.41093143731368" />
      </rect>
    
      <rect x="480"
            y="258.23688172727276"
            width="14"
            height="21.76311827272725"
            fill="url(#grad)"
            opacity="0.30454432362570066">
        <animate attributeName="height"
                 dur="0.45s"
                 repeatCount="indefinite"
                 values="21.76311827272725;38.77805288397083;21.76311827272725;23.770675329235047" />
        <animate attributeName="y"
                 dur="0.46s"
                 repeatCount="indefinite"
                 values="258.23688172727276;241.22194711602918;258.23688172727276" />
      </rect>
    
      <rect x="496"
            y="254.4216520935544"
            width="14"
            height="25.57834790644561"
            fill="url(#grad)"
            opacity="0.719825508154128">
        <animate attributeName="height"
                 dur="0.62s"
                 repeatCount="indefinite"
                 values="25.57834790644561;33.93526458720821;25.57834790644561;28.42896404331114" />
        <animate attributeName="y"
                 dur="0.54s"
                 repeatCount="indefinite"
                 values="254.4216520935544;246.06473541279178;254.4216520935544" />
      </rect>
    
      <rect x="512"
            y="230.7671252210913"
            width="14"
            height="49.232874778908695"
            fill="url(#grad)"
            opacity="0.6728018668668372">
        <animate attributeName="height"
                 dur="0.63s"
                 repeatCount="indefinite"
                 values="49.232874778908695;70.92223902515539;49.232874778908695;69.02832783559919" />
        <animate attributeName="y"
                 dur="0.82s"
                 repeatCount="indefinite"
                 values="230.7671252210913;209.0777609748446;230.7671252210913" />
      </rect>
    
      <rect x="528"
            y="244.17446871206837"
            width="14"
            height="35.825531287931625"
            fill="url(#grad)"
            opacity="0.3562139758947785">
        <animate attributeName="height"
                 dur="0.83s"
                 repeatCount="indefinite"
                 values="35.825531287931625;111.29571210600182;35.825531287931625;50.961643490217085" />
        <animate attributeName="y"
                 dur="0.85s"
                 repeatCount="indefinite"
                 values="244.17446871206837;168.70428789399818;244.17446871206837" />
      </rect>
    
      <rect x="544"
            y="235.36404723986504"
            width="14"
            height="44.63595276013497"
            fill="url(#grad)"
            opacity="0.5435596659176036">
        <animate attributeName="height"
                 dur="0.46s"
                 repeatCount="indefinite"
                 values="44.63595276013497;100.62976729537884;44.63595276013497;60.732531804474846" />
        <animate attributeName="y"
                 dur="0.55s"
                 repeatCount="indefinite"
                 values="235.36404723986504;179.37023270462117;235.36404723986504" />
      </rect>
    
      <rect x="560"
            y="253.2039113023399"
            width="14"
            height="26.796088697660103"
            fill="url(#grad)"
            opacity="0.6218022986179368">
        <animate attributeName="height"
                 dur="0.36s"
                 repeatCount="indefinite"
                 values="26.796088697660103;38.768816200064435;26.796088697660103;27.543915929919713" />
        <animate attributeName="y"
                 dur="0.39s"
                 repeatCount="indefinite"
                 values="253.2039113023399;241.23118379993556;253.2039113023399" />
      </rect>
    
      <rect x="576"
            y="252.10299054982332"
            width="14"
            height="27.897009450176682"
            fill="url(#grad)"
            opacity="0.6910077305889244">
        <animate attributeName="height"
                 dur="0.82s"
                 repeatCount="indefinite"
                 values="27.897009450176682;31.40648610311122;27.897009450176682;63.957764227677394" />
        <animate attributeName="y"
                 dur="0.53s"
                 repeatCount="indefinite"
                 values="252.10299054982332;248.5935138968888;252.10299054982332" />
      </rect>
    
      <rect x="592"
            y="247.28214767077378"
            width="14"
            height="32.71785232922623"
            fill="url(#grad)"
            opacity="0.7984903455761931">
        <animate attributeName="height"
                 dur="0.51s"
                 repeatCount="indefinite"
                 values="32.71785232922623;92.15474774778546;32.71785232922623;32.88019840278603" />
        <animate attributeName="y"
                 dur="0.74s"
                 repeatCount="indefinite"
                 values="247.28214767077378;187.84525225221455;247.28214767077378" />
      </rect>
    
      <rect x="608"
            y="239.4250488798733"
            width="14"
            height="40.57495112012671"
            fill="url(#grad)"
            opacity="0.37354492844903947">
        <animate attributeName="height"
                 dur="0.57s"
                 repeatCount="indefinite"
                 values="40.57495112012671;100.86225915885815;40.57495112012671;58.9342594567628" />
        <animate attributeName="y"
                 dur="0.57s"
                 repeatCount="indefinite"
                 values="239.4250488798733;179.13774084114186;239.4250488798733" />
      </rect>
    
      <rect x="624"
            y="256.0149152923659"
            width="14"
            height="23.985084707634062"
            fill="url(#grad)"
            opacity="0.6725446339405745">
        <animate attributeName="height"
                 dur="0.68s"
                 repeatCount="indefinite"
                 values="23.985084707634062;75.68671573440285;23.985084707634062;47.384395526584456" />
        <animate attributeName="y"
                 dur="0.35s"
                 repeatCount="indefinite"
                 values="256.0149152923659;204.31328426559713;256.0149152923659" />
      </rect>
    
      <rect x="640"
            y="240.4075555273974"
            width="14"
            height="39.59244447260261"
            fill="url(#grad)"
            opacity="0.3592978569982977">
        <animate attributeName="height"
                 dur="0.99s"
                 repeatCount="indefinite"
                 values="39.59244447260261;73.57368539697076;39.59244447260261;68.32577721471881" />
        <animate attributeName="y"
                 dur="0.47s"
                 repeatCount="indefinite"
                 values="240.4075555273974;206.42631460302925;240.4075555273974" />
      </rect>
    
      <rect x="656"
            y="245.08603868558635"
            width="14"
            height="34.91396131441367"
            fill="url(#grad)"
            opacity="0.5074896563901392">
        <animate attributeName="height"
                 dur="0.88s"
                 repeatCount="indefinite"
                 values="34.91396131441367;76.93226335402476;34.91396131441367;40.44444896435191" />
        <animate attributeName="y"
                 dur="0.39s"
                 repeatCount="indefinite"
                 values="245.08603868558635;203.06773664597523;245.08603868558635" />
      </rect>
    
      <rect x="672"
            y="254.90058283990166"
            width="14"
            height="25.099417160098337"
            fill="url(#grad)"
            opacity="0.6299750542474869">
        <animate attributeName="height"
                 dur="0.44s"
                 repeatCount="indefinite"
                 values="25.099417160098337;99.8653767030016;25.099417160098337;52.76043240615991" />
        <animate attributeName="y"
                 dur="0.51s"
                 repeatCount="indefinite"
                 values="254.90058283990166;180.1346232969984;254.90058283990166" />
      </rect>
    
      <rect x="688"
            y="246.99415636637872"
            width="14"
            height="33.005843633621275"
            fill="url(#grad)"
            opacity="0.4904031793702172">
        <animate attributeName="height"
                 dur="0.45s"
                 repeatCount="indefinite"
                 values="33.005843633621275;79.56549494163372;33.005843633621275;68.60222642740311" />
        <animate attributeName="y"
                 dur="0.34s"
                 repeatCount="indefinite"
                 values="246.99415636637872;200.43450505836628;246.99415636637872" />
      </rect>
    
      <rect x="704"
            y="257.97952207416023"
            width="14"
            height="22.02047792583979"
            fill="url(#grad)"
            opacity="0.5590110722302077">
        <animate attributeName="height"
                 dur="0.68s"
                 repeatCount="indefinite"
                 values="22.02047792583979;44.84524917740437;22.02047792583979;39.81299241531417" />
        <animate attributeName="y"
                 dur="0.53s"
                 repeatCount="indefinite"
                 values="257.97952207416023;235.15475082259564;257.97952207416023" />
      </rect>
    
      <rect x="720"
            y="236.0395793075919"
            width="14"
            height="43.96042069240811"
            fill="url(#grad)"
            opacity="0.6442145898952418">
        <animate attributeName="height"
                 dur="0.69s"
                 repeatCount="indefinite"
                 values="43.96042069240811;118.82452516548318;43.96042069240811;67.01788821219307" />
        <animate attributeName="y"
                 dur="0.53s"
                 repeatCount="indefinite"
                 values="236.0395793075919;161.17547483451682;236.0395793075919" />
      </rect>
    
      <rect x="736"
            y="256.70165092402635"
            width="14"
            height="23.298349075973658"
            fill="url(#grad)"
            opacity="0.3384385406027493">
        <animate attributeName="height"
                 dur="0.65s"
                 repeatCount="indefinite"
                 values="23.298349075973658;41.61976504721435;23.298349075973658;39.94403169422792" />
        <animate attributeName="y"
                 dur="0.96s"
                 repeatCount="indefinite"
                 values="256.70165092402635;238.38023495278566;256.70165092402635" />
      </rect>
    
      <rect x="752"
            y="254.66663003931825"
            width="14"
            height="25.333369960681736"
            fill="url(#grad)"
            opacity="0.6353034964415705">
        <animate attributeName="height"
                 dur="1.05s"
                 repeatCount="indefinite"
                 values="25.333369960681736;60.48026648125493;25.333369960681736;64.05297713578179" />
        <animate attributeName="y"
                 dur="0.67s"
                 repeatCount="indefinite"
                 values="254.66663003931825;219.51973351874506;254.66663003931825" />
      </rect>
    
      <rect x="768"
            y="258.32319264049346"
            width="14"
            height="21.676807359506533"
            fill="url(#grad)"
            opacity="0.32291583707651755">
        <animate attributeName="height"
                 dur="0.84s"
                 repeatCount="indefinite"
                 values="21.676807359506533;92.538453119611;21.676807359506533;56.99265827715639" />
        <animate attributeName="y"
                 dur="0.56s"
                 repeatCount="indefinite"
                 values="258.32319264049346;187.461546880389;258.32319264049346" />
      </rect>
    
      <rect x="784"
            y="248.35403248378907"
            width="14"
            height="31.645967516210916"
            fill="url(#grad)"
            opacity="0.3743705891934718">
        <animate attributeName="height"
                 dur="1.00s"
                 repeatCount="indefinite"
                 values="31.645967516210916;71.33685300051297;31.645967516210916;50.66799315296313" />
        <animate attributeName="y"
                 dur="0.87s"
                 repeatCount="indefinite"
                 values="248.35403248378907;208.66314699948703;248.35403248378907" />
      </rect>
    
      <rect x="800"
            y="257.0912899521341"
            width="14"
            height="22.908710047865902"
            fill="url(#grad)"
            opacity="0.7620925220058652">
        <animate attributeName="height"
                 dur="0.48s"
                 repeatCount="indefinite"
                 values="22.908710047865902;51.864706001660736;22.908710047865902;61.66942844083144" />
        <animate attributeName="y"
                 dur="0.99s"
                 repeatCount="indefinite"
                 values="257.0912899521341;228.13529399833925;257.0912899521341" />
      </rect>
    
      <rect x="816"
            y="255.17536673213993"
            width="14"
            height="24.824633267860072"
            fill="url(#grad)"
            opacity="0.3715137990827207">
        <animate attributeName="height"
                 dur="0.74s"
                 repeatCount="indefinite"
                 values="24.824633267860072;59.198247935521145;24.824633267860072;46.83378405322493" />
        <animate attributeName="y"
                 dur="0.99s"
                 repeatCount="indefinite"
                 values="255.17536673213993;220.80175206447885;255.17536673213993" />
      </rect>
    
      <rect x="832"
            y="237.81414717774152"
            width="14"
            height="42.18585282225848"
            fill="url(#grad)"
            opacity="0.6148668043270669">
        <animate attributeName="height"
                 dur="0.60s"
                 repeatCount="indefinite"
                 values="42.18585282225848;118.97270247899083;42.18585282225848;42.788034520973824" />
        <animate attributeName="y"
                 dur="0.81s"
                 repeatCount="indefinite"
                 values="237.81414717774152;161.0272975210092;237.81414717774152" />
      </rect>
    
      <rect x="848"
            y="256.09622598709274"
            width="14"
            height="23.903774012907256"
            fill="url(#grad)"
            opacity="0.5354777670597981">
        <animate attributeName="height"
                 dur="0.73s"
                 repeatCount="indefinite"
                 values="23.903774012907256;28.867202296631294;23.903774012907256;52.32945978416441" />
        <animate attributeName="y"
                 dur="0.84s"
                 repeatCount="indefinite"
                 values="256.09622598709274;251.1327977033687;256.09622598709274" />
      </rect>
    
      <rect x="864"
            y="256.52656859429374"
            width="14"
            height="23.473431405706283"
            fill="url(#grad)"
            opacity="0.5282029183728394">
        <animate attributeName="height"
                 dur="0.97s"
                 repeatCount="indefinite"
                 values="23.473431405706283;92.25531707184466;23.473431405706283;53.410492772490954" />
        <animate attributeName="y"
                 dur="0.31s"
                 repeatCount="indefinite"
                 values="256.52656859429374;187.74468292815533;256.52656859429374" />
      </rect>
    
      <rect x="880"
            y="245.2203606071397"
            width="14"
            height="34.77963939286032"
            fill="url(#grad)"
            opacity="0.40476347021896536">
        <animate attributeName="height"
                 dur="0.93s"
                 repeatCount="indefinite"
                 values="34.77963939286032;60.08918842212714;34.77963939286032;60.68391906576111" />
        <animate attributeName="y"
                 dur="0.80s"
                 repeatCount="indefinite"
                 values="245.2203606071397;219.91081157787286;245.2203606071397" />
      </rect>
    
      <rect x="896"
            y="244.87237309822711"
            width="14"
            height="35.12762690177287"
            fill="url(#grad)"
            opacity="0.7562176543821904">
        <animate attributeName="height"
                 dur="0.91s"
                 repeatCount="indefinite"
                 values="35.12762690177287;51.04588258053593;35.12762690177287;36.44882779405354" />
        <animate attributeName="y"
                 dur="0.33s"
                 repeatCount="indefinite"
                 values="244.87237309822711;228.95411741946407;244.87237309822711" />
      </rect>
    
      <rect x="912"
            y="243.86449429695693"
            width="14"
            height="36.13550570304305"
            fill="url(#grad)"
            opacity="0.3174219098424101">
        <animate attributeName="height"
                 dur="0.49s"
                 repeatCount="indefinite"
                 values="36.13550570304305;63.685171643032454;36.13550570304305;57.55685984316283" />
        <animate attributeName="y"
                 dur="0.35s"
                 repeatCount="indefinite"
                 values="243.86449429695693;216.31482835696755;243.86449429695693" />
      </rect>
    
      <rect x="928"
            y="234.75875971945192"
            width="14"
            height="45.24124028054809"
            fill="url(#grad)"
            opacity="0.5908362623552221">
        <animate attributeName="height"
                 dur="0.71s"
                 repeatCount="indefinite"
                 values="45.24124028054809;89.46746544731243;45.24124028054809;60.50901373409438" />
        <animate attributeName="y"
                 dur="0.99s"
                 repeatCount="indefinite"
                 values="234.75875971945192;190.53253455268757;234.75875971945192" />
      </rect>
    
      <rect x="944"
            y="244.82226804566432"
            width="14"
            height="35.177731954335684"
            fill="url(#grad)"
            opacity="0.5127697965361817">
        <animate attributeName="height"
                 dur="0.97s"
                 repeatCount="indefinite"
                 values="35.177731954335684;44.97122329521095;35.177731954335684;65.56178974737486" />
        <animate attributeName="y"
                 dur="0.65s"
                 repeatCount="indefinite"
                 values="244.82226804566432;235.02877670478904;244.82226804566432" />
      </rect>
    
</g>

<!-- TRUE PARALLAX WAVES -->
<path d="M 0 146.11993824261486 Q 2.4120603015075375 146.11993824261486 4.824120603015075 146.63724598246984 Q 7.236180904522612 146.63724598246984 9.64824120603015 147.260624580117 Q 12.060301507537687 147.260624580117 14.472361809045225 148.02449049577106 Q 16.884422110552762 148.02449049577106 19.2964824120603 148.95257867596231 Q 21.708542713567837 148.95257867596231 24.120603015075375 150.05455386513268 Q 26.532663316582912 150.05455386513268 28.94472361809045 151.32374614292473 Q 31.356783919597987 151.32374614292473 33.768844221105525 152.73622682571084 Q 36.18090452261306 152.73622682571084 38.5929648241206 154.25133338444917 Q 41.00502512562814 154.25133338444917 43.417085427135675 155.81363504827743 Q 45.82914572864321 155.81363504827743 48.24120603015075 157.356213621339 Q 50.65326633165829 157.356213621339 53.065326633165824 158.805026109008 Q 55.47738693467336 158.805026109008 57.8894472361809 160.0840256858872 Q 60.30150753768844 160.0840256858872 62.713567839195974 161.1206525961773 Q 65.12562814070351 161.1206525961773 67.53768844221105 161.85127203064587 Q 69.94974874371859 161.85127203064587 72.36180904522612 162.22613474414462 Q 74.77386934673366 162.22613474414462 77.1859296482412 162.2134684002812 Q 79.59798994974874 162.2134684002812 82.01005025125627 161.80237093635094 Q 84.42211055276381 161.80237093635094 86.83417085427135 161.00426674557522 Q 89.24623115577889 161.00426674557522 91.65829145728642 159.85279520595876 Q 94.07035175879396 159.85279520595876 96.4824120603015 158.40212054385537 Q 98.89447236180904 158.40212054385537 101.30653266331657 156.72377284297704 Q 103.71859296482411 156.72377284297704 106.13065326633165 154.90224271310467 Q 108.54271356783919 154.90224271310467 110.95477386934672 153.02964786411715 Q 113.36683417085426 153.02964786411715 115.7788944723618 151.19986106771924 Q 118.19095477386934 151.19986106771924 120.60301507537687 149.5025301350095 Q 123.01507537688441 149.5025301350095 125.42713567839195 148.01742836532685 Q 127.83919597989949 148.01742836532685 130.25125628140702 146.80954782745712 Q 132.66331658291455 146.80954782745712 135.0753768844221 145.92528988679004 Q 137.48743718592965 145.92528988679004 139.89949748743717 145.39002216745524 Q 142.3115577889447 145.39002216745524 144.72361809045225 145.20716535766647 Q 147.1356783919598 145.20716535766647 149.54773869346732 145.3588552625197 Q 151.95979899497485 145.3588552625197 154.3718592964824 145.80810456649206 Q 156.78391959798995 145.80810456649206 159.19597989949747 146.50227438992437 Q 161.608040201005 146.50227438992437 164.02010050251255 147.37756687669994 Q 166.4321608040201 147.37756687669994 168.84422110552762 148.36417445660226 Q 171.25628140703515 148.36417445660226 173.6683417085427 149.39167495336193 Q 176.08040201005025 149.39167495336193 178.49246231155777 150.39424790890612 Q 180.9045226130653 150.39424790890612 183.31658291457285 151.31530732079733 Q 185.7286432160804 151.31530732079733 188.14070351758792 152.11119773019888 Q 190.55276381909545 152.11119773019888 192.964824120603 152.7536800101955 Q 195.37688442211055 152.7536800101955 197.78894472361807 153.2310338586806 Q 200.2010050251256 153.2310338586806 202.61306532663315 153.54771779121995 Q 205.0251256281407 153.54771779121995 207.43718592964822 153.72264522381653 Q 209.84924623115575 153.72264522381653 212.2613065326633 153.78624759911344 Q 214.67336683417085 153.78624759911344 217.08542713567837 153.77659345850537 Q 219.4974874371859 153.77659345850537 221.90954773869345 153.7349080784674 Q 224.321608040201 153.7349080784674 226.73366834170852 153.7008857409703 Q 229.14572864321605 153.7008857409703 231.5577889447236 153.70820213057956 Q 233.96984924623115 153.70820213057956 236.38190954773867 153.7806165456769 Q 238.7939698492462 153.7806165456769 241.20603015075375 153.92900403922346 Q 243.6180904522613 153.92900403922346 246.03015075376882 154.1495802695329 Q 248.44221105527635 154.1495802695329 250.8542713567839 154.42348297084496 Q 253.26633165829145 154.42348297084496 255.67839195979897 154.71776150094638 Q 258.0904522613065 154.71776150094638 260.50251256281405 154.98770893502103 Q 262.9145728643216 154.98770893502103 265.3266331658291 155.1803590689194 Q 267.73869346733665 155.1803590689194 270.1507537688442 155.23887250892733 Q 272.56281407035175 155.23887250892733 274.9748743718593 155.10745969589482 Q 277.3869346733668 155.10745969589482 279.79899497487435 154.73644044169185 Q 282.2110552763819 154.73644044169185 284.6231155778894 154.08702331726272 Q 287.03517587939695 154.08702331726272 289.4472361809045 153.13540544650138 Q 291.85929648241205 153.13540544650138 294.2713567839196 151.8758426855877 Q 296.6834170854271 151.8758426855877 299.09547738693465 150.32241799014773 Q 301.5075376884422 150.32241799014773 303.9195979899497 148.50933590957084 Q 306.33165829145725 148.50933590957084 308.7437185929648 146.4896857267386 Q 311.15577889447235 146.4896857267386 313.5678391959799 144.33273574396912 Q 315.9798994974874 144.33273574396912 318.39195979899495 142.11993711406313 Q 320.8040201005025 142.11993711406313 323.21608040201 139.93991824357408 Q 325.62814070351754 139.93991824357408 328.0402010050251 137.88283200013495 Q 330.45226130653265 137.88283200013495 332.8643216080402 136.0344712624828 Q 335.2763819095477 136.0344712624828 337.68844221105525 134.47058948041453 Q 340.1005025125628 134.47058948041453 342.5125628140703 133.25185011713663 Q 344.92462311557784 133.25185011713663 347.3366834170854 132.41978305855582 Q 349.74874371859295 132.41978305855582 352.1608040201005 131.99405082687346 Q 354.572864321608 131.99405082687346 356.98492462311555 131.9712285887636 Q 359.3969849246231 131.9712285887636 361.8090452261306 132.32518722388915 Q 364.22110552763814 132.32518722388915 366.6331658291457 133.00904709293107 Q 369.04522613065325 133.00904709293107 371.4572864321608 133.9585511345777 Q 373.8693467336683 133.9585511345777 376.28140703517585 135.09659883798213 Q 378.6934673366834 135.09659883798213 381.1055276381909 136.33859584615539 Q 383.51758793969844 136.33859584615539 385.929648241206 137.59821420603387 Q 388.34170854271355 137.59821420603387 390.7537688442211 138.7931302127283 Q 393.1658291457286 138.7931302127283 395.57788944723615 139.85031251585556 Q 397.9899497487437 139.85031251585556 400.4020100502512 140.71047211356264 Q 402.81407035175874 140.71047211356264 405.2261306532663 141.33135488128403 Q 407.63819095477385 141.33135488128403 410.0502512562814 141.6896508255808 Q 412.4623115577889 141.6896508255808 414.87437185929645 141.7814048500249 Q 417.286432160804 141.7814048500249 419.6984924623115 141.62093266886632 Q 422.11055276381904 141.62093266886632 424.5226130653266 141.23836317075163 Q 426.93467336683415 141.23836317075163 429.3467336683417 140.67603570055215 Q 431.7587939698492 140.67603570055215 434.17085427135675 139.98406892915318 Q 436.5829145728643 139.98406892915318 438.9949748743718 139.21548028180834 Q 441.40703517587934 139.21548028180834 443.8190954773869 138.42126643373518 Q 446.23115577889445 138.42126643373518 448.643216080402 137.64585375477884 Q 451.0552763819095 137.64585375477884 453.46733668341705 136.923293038586 Q 455.8793969849246 136.923293038586 458.2914572864321 136.2745082564892 Q 460.70351758793964 136.2745082564892 463.1155778894472 135.70581969706308 Q 465.52763819095475 135.70581969706308 467.9396984924623 135.20885492670055 Q 470.3517587939698 135.20885492670055 472.76381909547734 134.76184516675397 Q 475.1758793969849 134.76184516675397 477.5879396984924 134.33218926655573 Q 479.99999999999994 134.33218926655573 482.4120603015075 133.8800617573851 Q 484.82412060301505 133.8800617573851 487.2361809045226 133.36275401753016 Q 489.6482412060301 133.36275401753016 492.06030150753764 132.73937541988298 Q 494.4723618090452 132.73937541988298 496.8844221105527 131.97550950422897 Q 499.29648241206024 131.97550950422897 501.7085427135678 131.0474213240377 Q 504.12060301507535 131.0474213240377 506.5326633165829 129.94544613486735 Q 508.9447236180904 129.94544613486735 511.35678391959794 128.67625385707527 Q 513.7688442211055 128.67625385707527 516.180904522613 127.26377317428914 Q 518.5929648241206 127.26377317428914 521.0050251256281 125.7486666155508 Q 523.4170854271356 125.7486666155508 525.8291457286432 124.18636495172257 Q 528.2412060301507 124.18636495172257 530.6532663316582 122.64378637866096 Q 533.0653266331658 122.64378637866096 535.4773869346733 121.19497389099197 Q 537.8894472361808 121.19497389099197 540.3015075376884 119.91597431411276 Q 542.713567839196 119.91597431411276 545.1256281407035 118.8793474038227 Q 547.537688442211 118.8793474038227 549.9497487437186 118.14872796935413 Q 552.3618090452261 118.14872796935413 554.7738693467336 117.77386525585538 Q 557.1859296482412 117.77386525585538 559.5979899497487 117.78653159971881 Q 562.0100502512562 117.78653159971881 564.4221105527638 118.19762906364903 Q 566.8341708542713 118.19762906364903 569.2462311557788 118.99573325442476 Q 571.6582914572864 118.99573325442476 574.0703517587939 120.14720479404122 Q 576.4824120603014 120.14720479404122 578.894472361809 121.59787945614461 Q 581.3065326633166 121.59787945614461 583.7185929648241 123.27622715702294 Q 586.1306532663316 123.27622715702294 588.5427135678392 125.09775728689533 Q 590.9547738693467 125.09775728689533 593.3668341708542 126.97035213588285 Q 595.7788944723618 126.97035213588285 598.1909547738693 128.80013893228076 Q 600.6030150753768 128.80013893228076 603.0150753768844 130.49746986499053 Q 605.4271356783919 130.49746986499053 607.8391959798994 131.98257163467312 Q 610.251256281407 131.98257163467312 612.6633165829145 133.19045217254285 Q 615.075376884422 133.19045217254285 617.4874371859296 134.07471011320993 Q 619.8994974874372 134.07471011320993 622.3115577889447 134.60997783254476 Q 624.7236180904522 134.60997783254476 627.1356783919598 134.79283464233353 Q 629.5477386934673 134.79283464233353 631.9597989949748 134.64114473748032 Q 634.3718592964824 134.64114473748032 636.7839195979899 134.19189543350794 Q 639.1959798994974 134.19189543350794 641.608040201005 133.49772561007563 Q 644.0201005025125 133.49772561007563 646.43216080402 132.62243312330006 Q 648.8442211055276 132.62243312330006 651.2562814070351 131.63582554339774 Q 653.6683417085426 131.63582554339774 656.0804020100502 130.60832504663804 Q 658.4924623115578 130.60832504663804 660.9045226130653 129.60575209109388 Q 663.3165829145728 129.60575209109388 665.7286432160804 128.68469267920267 Q 668.1407035175879 128.68469267920267 670.5527638190954 127.88880226980115 Q 672.964824120603 127.88880226980115 675.3768844221105 127.24631998980449 Q 677.788944723618 127.24631998980449 680.2010050251256 126.76896614131942 Q 682.6130653266331 126.76896614131942 685.0251256281406 126.45228220878005 Q 687.4371859296482 126.45228220878005 689.8492462311557 126.27735477618347 Q 692.2613065326632 126.27735477618347 694.6733668341708 126.21375240088658 Q 697.0854271356784 126.21375240088658 699.4974874371859 126.22340654149461 Q 701.9095477386934 126.22340654149461 704.321608040201 126.26509192153256 Q 706.7336683417085 126.26509192153256 709.145728643216 126.29911425902968 Q 711.5577889447236 126.29911425902968 713.9698492462311 126.29179786942044 Q 716.3819095477386 126.29179786942044 718.7939698492462 126.2193834543231 Q 721.2060301507537 126.2193834543231 723.6180904522612 126.07099596077654 Q 726.0301507537688 126.07099596077654 728.4422110552763 125.85041973046712 Q 730.8542713567838 125.85041973046712 733.2663316582914 125.57651702915504 Q 735.678391959799 125.57651702915504 738.0904522613065 125.28223849905362 Q 740.502512562814 125.28223849905362 742.9145728643216 125.01229106497897 Q 745.3266331658291 125.01229106497897 747.7386934673366 124.8196409310806 Q 750.1507537688442 124.8196409310806 752.5628140703517 124.76112749107266 Q 754.9748743718592 124.76112749107266 757.3869346733668 124.89254030410518 Q 759.7989949748743 124.89254030410518 762.2110552763818 125.26355955830817 Q 764.6231155778894 125.26355955830817 767.0351758793969 125.91297668273728 Q 769.4472361809044 125.91297668273728 771.859296482412 126.8645945534986 Q 774.2713567839196 126.8645945534986 776.6834170854271 128.12415731441232 Q 779.0954773869346 128.12415731441232 781.5075376884422 129.67758200985227 Q 783.9195979899497 129.67758200985227 786.3316582914572 131.4906640904291 Q 788.7437185929648 131.4906640904291 791.1557788944723 133.51031427326132 Q 793.5678391959798 133.51031427326132 795.9798994974874 135.66726425603088 Q 798.3919597989949 135.66726425603088 800.8040201005024 137.8800628859368 Q 803.21608040201 137.8800628859368 805.6281407035175 140.06008175642586 Q 808.040201005025 140.06008175642586 810.4522613065326 142.11716799986496 Q 812.8643216080402 142.11716799986496 815.2763819095477 143.96552873751722 Q 817.6884422110552 143.96552873751722 820.1005025125628 145.52941051958547 Q 822.5125628140703 145.52941051958547 824.9246231155778 146.74814988286337 Q 827.3366834170854 146.74814988286337 829.7487437185929 147.58021694144415 Q 832.1608040201004 147.58021694144415 834.572864321608 148.00594917312654 Q 836.9849246231155 148.00594917312654 839.396984924623 148.0287714112364 Q 841.8090452261306 148.0287714112364 844.2211055276381 147.67481277611085 Q 846.6331658291456 147.67481277611085 849.0452261306532 146.99095290706896 Q 851.4572864321608 146.99095290706896 853.8693467336683 146.04144886542232 Q 856.2814070351758 146.04144886542232 858.6934673366834 144.90340116201787 Q 861.1055276381909 144.90340116201787 863.5175879396984 143.66140415384461 Q 865.929648241206 143.66140415384461 868.3417085427135 142.4017857939661 Q 870.753768844221 142.4017857939661 873.1658291457286 141.20686978727176 Q 875.5778894472361 141.20686978727176 877.9899497487436 140.14968748414438 Q 880.4020100502512 140.14968748414438 882.8140703517587 139.28952788643733 Q 885.2261306532662 139.28952788643733 887.6381909547738 138.668645118716 Q 890.0502512562814 138.668645118716 892.4623115577889 138.31034917441923 Q 894.8743718592964 138.31034917441923 897.286432160804 138.2185951499751 Q 899.6984924623115 138.2185951499751 902.110552763819 138.3790673311337 Q 904.5226130653266 138.3790673311337 906.9346733668341 138.76163682924837 Q 909.3467336683416 138.76163682924837 911.7587939698492 139.32396429944782 Q 914.1708542713567 139.32396429944782 916.5829145728642 140.01593107084682 Q 918.9949748743718 140.01593107084682 921.4070351758793 140.78451971819166 Q 923.8190954773868 140.78451971819166 926.2311557788944 141.57873356626482 Q 928.643216080402 141.57873356626482 931.0552763819095 142.35414624522113 Q 933.467336683417 142.35414624522113 935.8793969849246 143.076706961414 Q 938.2914572864321 143.076706961414 940.7035175879396 143.7254917435108 Q 943.1155778894472 143.7254917435108 945.5276381909547 144.29418030293692 Q 947.9396984924622 144.29418030293692 950.3517587939698 144.79114507329942 Q 952.7638190954773 144.79114507329942 955.1758793969848 145.23815483324603 Q 957.5879396984924 145.23815483324603 959.9999999999999 145.66781073344427 " stroke="url(#grad)" stroke-width="2"
      opacity="0.18" fill="none">
  <animateTransform type="translate"
                    from="0 0" to="-40 0"
                    dur="9s" repeatCount="indefinite"/>
</path>

<path d="M 0 139.5338700774043 Q 2.4120603015075375 139.5338700774043 4.824120603015075 140.1492426037938 Q 7.236180904522612 140.1492426037938 9.64824120603015 140.90877510979706 Q 12.060301507537687 140.90877510979706 14.472361809045225 141.84880575337348 Q 16.884422110552762 141.84880575337348 19.2964824120603 142.99825533200934 Q 21.708542713567837 142.99825533200934 24.120603015075375 144.37624291734954 Q 26.532663316582912 144.37624291734954 28.94472361809045 145.99020861126036 Q 31.356783919597987 145.99020861126036 33.768844221105525 147.83465962718626 Q 36.18090452261306 147.83465962718626 38.5929648241206 149.89062181043252 Q 41.00502512562814 149.89062181043252 43.417085427135675 152.12583988141608 Q 45.82914572864321 152.12583988141608 48.24120603015075 154.49572826028623 Q 50.65326633165829 154.49572826028623 53.065326633165824 156.94503259961317 Q 55.47738693467336 156.94503259961317 57.8894472361809 159.41012242417702 Q 60.30150753768844 159.41012242417702 62.713567839195974 161.82179975577168 Q 65.12562814070351 161.82179975577168 67.53768844221105 164.10847925944768 Q 69.94974874371859 164.10847925944768 72.36180904522612 166.19957392022036 Q 74.77386934673366 166.19957392022036 77.1859296482412 168.02890775128705 Q 79.59798994974874 168.02890775128705 82.01005025125627 169.53797425555362 Q 84.42211055276381 169.53797425555362 86.83417085427135 170.67886648561 Q 89.24623115577889 170.67886648561 91.65829145728642 171.41672120165254 Q 94.07035175879396 171.41672120165254 96.4824120603015 171.73154491544278 Q 98.89447236180904 171.73154491544278 101.30653266331657 171.61932215839437 Q 103.71859296482411 171.61932215839437 106.13065326633165 171.09234434990657 Q 108.54271356783919 171.09234434990657 110.95477386934672 170.1787390917628 Q 113.36683417085426 170.1787390917628 115.7788944723618 168.9212223108061 Q 118.19095477386934 168.9212223108061 120.60301507537687 167.37513708634023 Q 123.01507537688441 167.37513708634023 125.42713567839195 165.60588096636238 Q 127.83919597989949 165.60588096636238 130.25125628140702 163.68585602257377 Q 132.66331658291455 163.68585602257377 135.0753768844221 161.69110104639014 Q 137.48743718592965 161.69110104639014 139.89949748743717 159.69778177621583 Q 142.3115577889447 159.69778177621583 144.72361809045225 157.77872197588735 Q 147.1356783919598 157.77872197588735 149.54773869346732 156.0001551869287 Q 151.95979899497485 156.0001551869287 154.3718592964824 154.41886423037081 Q 156.78391959798995 154.41886423037081 159.19597989949747 153.07985375046422 Q 161.608040201005 153.07985375046422 164.02010050251255 152.01467148201954 Q 166.4321608040201 152.01467148201954 168.84422110552762 151.2404581240476 Q 171.25628140703515 151.2404581240476 173.6683417085427 150.7597656923137 Q 176.08040201005025 150.7597656923137 178.49246231155777 150.56114220931988 Q 180.9045226130653 150.56114220931988 183.31658291457285 150.6204388866493 Q 185.7286432160804 150.6204388866493 188.14070351758792 150.90275685591627 Q 190.55276381909545 150.90275685591627 192.964824120603 151.36491615831144 Q 195.37688442211055 151.36491615831144 197.78894472361807 151.95830199118845 Q 200.2010050251256 151.95830199118845 202.61306532663315 152.63192364651363 Q 205.0251256281407 152.63192364651363 207.43718592964822 153.33551122112758 Q 209.84924623115575 153.33551122112758 212.2613065326633 154.02247458278478 Q 214.67336683417085 154.02247458278478 217.08542713567837 154.65255824824575 Q 219.4974874371859 154.65255824824575 221.90954773869345 155.19404423880243 Q 224.321608040201 155.19404423880243 226.73366834170852 155.6253815819059 Q 229.14572864321605 155.6253815819059 231.5577889447236 155.93615442929445 Q 233.96984924623115 155.93615442929445 236.38190954773867 156.12733889639898 Q 238.7939698492462 156.12733889639898 241.20603015075375 156.21083956248847 Q 243.6180904522613 156.21083956248847 246.03015075376882 156.20833782534356 Q 248.44221105527635 156.20833782534356 250.8542713567839 156.1495236756356 Q 253.26633165829145 156.1495236756356 255.67839195979897 156.06981774775778 Q 258.0904522613065 156.06981774775778 260.50251256281405 156.0077197461382 Q 262.9145728643216 156.0077197461382 265.3266331658291 156.0019409061659 Q 267.73869346733665 156.0019409061659 270.1507537688442 156.08849082094076 Q 272.56281407035175 156.08849082094076 274.9748743718593 156.29789203720566 Q 277.3869346733668 156.29789203720566 279.79899497487435 156.6526891175723 Q 282.2110552763819 156.6526891175723 284.6231155778894 157.16540274649532 Q 287.03517587939695 157.16540274649532 289.4472361809045 157.8370548127399 Q 291.85929648241205 157.8370548127399 294.2713567839196 158.65635859398947 Q 296.6834170854271 158.65635859398947 299.09547738693465 159.59963096143005 Q 301.5075376884422 159.59963096143005 303.9195979899497 160.63144297687634 Q 306.33165829145725 160.63144297687634 308.7437185929648 161.70598362299683 Q 311.15577889447235 161.70598362299683 313.5678391959799 162.7690710020878 Q 315.9798994974874 162.7690710020878 318.39195979899495 163.7607084091483 Q 320.8040201005025 163.7607084091483 323.21608040201 164.61805128959088 Q 325.62814070351754 164.61805128959088 328.0402010050251 165.27862698596675 Q 330.45226130653265 165.27862698596675 332.8643216080402 165.68363371575765 Q 335.2763819095477 165.68363371575765 337.68844221105525 165.78113928158044 Q 340.1005025125628 165.78113928158044 342.5125628140703 165.52900394897628 Q 344.92462311557784 165.52900394897628 347.3366834170854 164.89736554326137 Q 349.74874371859295 164.89736554326137 352.1608040201005 163.87054738890077 Q 354.572864321608 163.87054738890077 356.98492462311555 162.44828002073237 Q 359.3969849246231 162.44828002073237 361.8090452261306 160.64616398644284 Q 364.22110552763814 160.64616398644284 366.6331658291457 158.49534154719618 Q 369.04522613065325 158.49534154719618 371.4572864321608 156.04138745374757 Q 373.8693467336683 156.04138745374757 376.28140703517585 153.34247090856726 Q 378.6934673366834 153.34247090856726 381.1055276381909 150.4668800224535 Q 383.51758793969844 150.4668800224535 385.929648241206 147.49003438772505 Q 388.34170854271355 147.49003438772505 390.7537688442211 144.4911389375874 Q 393.1658291457286 144.4911389375874 395.57788944723615 141.54965153204736 Q 397.9899497487437 141.54965153204736 400.4020100502512 138.74174664858833 Q 402.81407035175874 138.74174664858833 405.2261306532663 136.13695761715869 Q 407.63819095477385 136.13695761715869 410.0502512562814 133.79517002289188 Q 412.4623115577889 133.79517002289188 414.87437185929645 131.76411974802386 Q 417.286432160804 131.76411974802386 419.6984924623115 130.0775216910256 Q 422.11055276381904 130.0775216910256 424.5226130653266 128.75392099486612 Q 426.93467336683415 128.75392099486612 429.3467336683417 127.79631951761131 Q 431.7587939698492 127.79631951761131 434.17085427135675 127.1925884348045 Q 436.5829145728643 127.1925884348045 438.9949748743718 126.91663557084244 Q 441.40703517587934 126.91663557084244 443.8190954773869 126.93025563479965 Q 446.23115577889445 126.93025563479965 448.643216080402 127.18555519831958 Q 451.0552763819095 127.18555519831958 453.46733668341705 127.62781398524112 Q 455.8793969849246 127.62781398524112 458.2914572864321 128.19862149364224 Q 460.70351758793964 128.19862149364224 463.1155778894472 128.83911436238938 Q 465.52763819095475 128.83911436238938 467.9396984924623 129.49313595276655 Q 470.3517587939698 129.49313595276655 472.76381909547734 130.1101455334889 Q 475.1758793969849 130.1101455334889 477.5879396984924 130.64771988183853 Q 479.99999999999994 130.64771988183853 482.4120603015075 131.07351416739988 Q 484.82412060301505 131.07351416739988 487.2361809045226 131.36658031457347 Q 489.6482412060301 131.36658031457347 492.06030150753764 131.51797789156572 Q 494.4723618090452 131.51797789156572 496.8844221105527 131.5306528892529 Q 499.29648241206024 131.5306528892529 501.7085427135678 131.41860128609886 Q 504.12060301507535 131.41860128609886 506.5326633165829 131.2053747330944 Q 508.9447236180904 131.2053747330944 511.35678391959794 130.92202278645925 Q 513.7688442211055 130.92202278645925 516.180904522613 130.6045978041422 Q 518.5929648241206 130.6045978041422 521.0050251256281 130.29137314518033 Q 523.4170854271356 130.29137314518033 525.8291457286432 130.0199413079779 Q 528.2412060301507 130.0199413079779 530.6532663316582 129.82436522812583 Q 533.0653266331658 129.82436522812583 535.4773869346733 129.73255276543355 Q 537.8894472361808 129.73255276543355 540.3015075376884 129.7640116237227 Q 542.713567839196 129.7640116237227 545.1256281407035 129.92812027934886 Q 547.537688442211 129.92812027934886 549.9497487437186 130.22302115290304 Q 552.3618090452261 130.22302115290304 554.7738693467336 130.63520687756602 Q 557.1859296482412 130.63520687756602 559.5979899497487 131.13983106801703 Q 562.0100502512562 131.13983106801703 564.4221105527638 131.7017336737516 Q 566.8341708542713 131.7017336737516 569.2462311557788 132.27713011375738 Q 571.6582914572864 132.27713011375738 574.0703517587939 132.81587521721843 Q 576.4824120603014 132.81587521721843 578.894472361809 133.26417967020814 Q 581.3065326633166 133.26417967020814 583.7185929648241 133.56763005734746 Q 586.1306532663316 133.56763005734746 588.5427135678392 133.6743451860045 Q 590.9547738693467 133.6743451860045 593.3668341708542 133.5380922312922 Q 595.7788944723618 133.5380922312922 598.1909547738693 133.1211868740124 Q 600.6030150753768 133.1211868740124 603.0150753768844 132.3970120107993 Q 605.4271356783919 132.3970120107993 607.8391959798994 131.3520092450675 Q 610.251256281407 131.3520092450675 612.6633165829145 129.98702515710693 Q 615.075376884422 129.98702515710693 617.4874371859296 128.3179287873387 Q 619.8994974874372 128.3179287873387 622.3115577889447 126.3754559646765 Q 624.7236180904522 126.3754559646765 627.1356783919598 124.20427792301086 Q 629.5477386934673 124.20427792301086 631.9597989949748 121.86133377698297 Q 634.3718592964824 121.86133377698297 636.7839195979899 119.4135065570854 Q 639.1959798994974 119.4135065570854 641.608040201005 116.93475842488365 Q 644.0201005025125 116.93475842488365 646.43216080402 114.50287042241217 Q 648.8442211055276 114.50287042241217 651.2562814070351 112.19595401491779 Q 653.6683417085426 112.19595401491779 656.0804020100502 110.08891455182098 Q 658.4924623115578 110.08891455182098 660.9045226130653 108.25004988207897 Q 663.3165829145728 108.25004988207897 665.7286432160804 106.7379605379802 Q 668.1407035175879 106.7379605379802 670.5527638190954 105.59893151259487 Q 672.964824120603 105.59893151259487 675.3768844221105 104.86492059324432 Q 677.788944723618 104.86492059324432 680.2010050251256 104.55225584569835 Q 682.6130653266331 104.55225584569835 685.0251256281406 104.66110694187577 Q 687.4371859296482 104.66110694187577 689.8492462311557 105.17575366181043 Q 692.2613065326632 105.17575366181043 694.6733668341708 106.06563234215332 Q 697.0854271356784 106.06563234215332 699.4974874371859 107.28709961676118 Q 701.9095477386934 107.28709961676118 704.321608040201 108.7858147645939 Q 706.7336683417085 108.7858147645939 709.145728643216 110.49960942243295 Q 711.5577889447236 110.49960942243295 713.9698492462311 112.361688108352 Q 716.3819095477386 112.361688108352 718.7939698492462 114.30398630960113 Q 721.2060301507537 114.30398630960113 723.6180904522612 116.26050571299463 Q 726.0301507537688 116.26050571299463 728.4422110552763 118.1704488694009 Q 730.8542713567838 118.1704488694009 733.2663316582914 119.98098801372291 Q 735.678391959799 119.98098801372291 738.0904522613065 121.64952419972867 Q 740.502512562814 121.64952419972867 742.9145728643216 123.14532215133818 Q 745.3266331658291 123.14532215133818 747.7386934673366 124.4504416455938 Q 750.1507537688442 124.4504416455938 752.5628140703517 125.55992585614703 Q 754.9748743718592 125.55992585614703 757.3869346733668 126.48124869898287 Q 759.7989949748743 126.48124869898287 762.2110552763818 127.23306452603634 Q 764.6231155778894 127.23306452603634 767.0351758793969 127.84334221927585 Q 769.4472361809044 127.84334221927585 771.859296482412 128.34699970635106 Q 774.2713567839196 128.34699970635106 776.6834170854271 128.7831822727313 Q 779.0954773869346 128.7831822727313 781.5075376884422 129.1923472768095 Q 783.9195979899497 129.1923472768095 786.3316582914572 129.6133279281326 Q 788.7437185929648 129.6133279281326 791.1557788944723 130.08054911934758 Q 793.5678391959798 130.08054911934758 795.9798994974874 130.62155890441275 Q 798.3919597989949 130.62155890441275 800.8040201005024 131.25502062416774 Q 803.21608040201 131.25502062416774 805.6281407035175 131.9892839409762 Q 808.040201005025 131.9892839409762 810.4522613065326 132.82161965473998 Q 812.8643216080402 132.82161965473998 815.2763819095477 133.73816500030372 Q 817.6884422110552 133.73816500030372 820.1005025125628 134.71458530407048 Q 822.5125628140703 134.71458530407048 824.9246231155778 135.71741668599606 Q 827.3366834170854 135.71741668599606 829.7487437185929 136.70601523361503 Q 832.1608040201004 136.70601523361503 834.572864321608 137.635002942492 Q 836.9849246231155 137.635002942492 839.396984924623 138.4570716794419 Q 841.8090452261306 138.4570716794419 844.2211055276381 139.12598511069666 Q 846.6331658291456 139.12598511069666 849.0452261306532 139.59960614887794 Q 851.4572864321608 139.59960614887794 853.8693467336683 139.84277471759532 Q 856.2814070351758 139.84277471759532 858.6934673366834 139.8298676841963 Q 861.1055276381909 139.8298676841963 863.5175879396984 139.54688929920832 Q 865.929648241206 139.54688929920832 868.3417085427135 138.99296551117314 Q 870.753768844221 138.99296551117314 873.1658291457286 138.1811477291339 Q 875.5778894472361 138.1811477291339 877.9899497487436 137.13846921406952 Q 880.4020100502512 137.13846921406952 882.8140703517587 135.90523822549767 Q 885.2261306532662 135.90523822549767 887.6381909547738 134.53359407326107 Q 890.0502512562814 134.53359407326107 892.4623115577889 133.0853930073593 Q 894.8743718592964 133.0853930073593 897.286432160804 131.62952816611718 Q 899.6984924623115 131.62952816611718 902.110552763819 130.23881953048488 Q 904.5226130653266 130.23881953048488 906.9346733668341 128.98663423942352 Q 909.3467336683416 128.98663423942352 911.7587939698492 127.94341334922576 Q 914.1708542713567 127.94341334922576 916.5829145728642 127.17328728607232 Q 918.9949748743718 127.17328728607232 921.4070351758793 126.73095848966716 Q 923.8190954773868 126.73095848966716 926.2311557788944 126.65901626559402 Q 928.643216080402 126.65901626559402 931.0552763819095 126.98582637975838 Q 933.467336683417 126.98582637975838 935.8793969849246 127.72410766032877 Q 938.2914572864321 127.72410766032877 940.7035175879396 128.87027147004895 Q 943.1155778894472 128.87027147004895 945.5276381909547 130.40455936163875 Q 947.9396984924622 130.40455936163875 950.3517587939698 132.29197174671222 Q 952.7638190954773 132.29197174671222 955.1758793969848 134.48393831616178 Q 957.5879396984924 134.48393831616178 959.9999999999999 136.92064154778433 " stroke="url(#grad)" stroke-width="3"
      opacity="0.35" fill="none">
  <animateTransform type="translate"
                    from="0 0" to="-22 0"
                    dur="5.5s" repeatCount="indefinite"/>
</path>

<g filter="url(#glow)">
  <path d="M 0 139.60971320906856 Q 2.4120603015075375 139.60971320906856 4.824120603015075 136.28908069628008 Q 7.236180904522612 136.28908069628008 9.64824120603015 133.02201793703998 Q 12.060301507537687 133.02201793703998 14.472361809045225 129.8593874272548 Q 16.884422110552762 129.8593874272548 19.2964824120603 126.84906326288257 Q 21.708542713567837 126.84906326288257 24.120603015075375 124.03456665677126 Q 26.532663316582912 124.03456665677126 28.94472361809045 121.45384718762071 Q 31.356783919597987 121.45384718762071 33.768844221105525 119.138250323018 Q 36.18090452261306 119.138250323018 38.5929648241206 117.1117052572001 Q 41.00502512562814 117.1117052572001 43.417085427135675 115.39015941926512 Q 45.82914572864321 115.39015941926512 48.24120603015075 113.98127741017029 Q 50.65326633165829 113.98127741017029 53.065326633165824 112.88441292033386 Q 55.47738693467336 112.88441292033386 57.8894472361809 112.09085268871767 Q 60.30150753768844 112.09085268871767 62.713567839195974 111.58432212353983 Q 65.12562814070351 111.58432212353983 67.53768844221105 111.34173314694878 Q 69.94974874371859 111.34173314694878 72.36180904522612 111.33414647008655 Q 74.77386934673366 111.33414647008655 77.1859296482412 111.52791314499501 Q 79.59798994974874 111.52791314499501 82.01005025125627 111.88595413441092 Q 84.42211055276381 111.88595413441092 86.83417085427135 112.36913200376492 Q 89.24623115577889 112.36913200376492 91.65829145728642 112.93766583366377 Q 94.07035175879396 112.93766583366377 96.4824120603015 113.55253918000523 Q 98.89447236180904 113.55253918000523 101.30653266331657 114.17685141537497 Q 103.71859296482411 114.17685141537497 106.13065326633165 114.77706504925793 Q 108.54271356783919 114.77706504925793 110.95477386934672 115.32410556337453 Q 113.36683417085426 115.32410556337453 115.7788944723618 115.79427577034542 Q 118.19095477386934 115.79427577034542 120.60301507537687 116.16995351286043 Q 123.01507537688441 116.16995351286043 125.42713567839195 116.44004942325861 Q 127.83919597989949 116.44004942325861 130.25125628140702 116.60021017794125 Q 132.66331658291455 116.60021017794125 135.0753768844221 116.65276189672608 Q 137.48743718592965 116.65276189672608 139.89949748743717 116.60639772586762 Q 142.3115577889447 116.60639772586762 144.72361809045225 116.47562287080227 Q 147.1356783919598 116.47562287080227 149.54773869346732 116.27997908238318 Q 151.95979899497485 116.27997908238318 154.3718592964824 116.0430785376303 Q 156.78391959798995 116.0430785376303 159.19597989949747 115.79148391055412 Q 161.608040201005 115.79148391055412 164.02010050251255 115.55347695669298 Q 166.4321608040201 115.55347695669298 168.84422110552762 115.35776194009806 Q 171.25628140703515 115.35776194009806 173.6683417085427 115.2321525712396 Q 176.08040201005025 115.2321525712396 178.49246231155777 115.20229171553008 Q 180.9045226130653 115.20229171553008 183.31658291457285 115.29045195386705 Q 185.7286432160804 115.29045195386705 188.14070351758792 115.51446217068876 Q 190.55276381909545 115.51446217068876 192.964824120603 115.88680081483407 Q 195.37688442211055 115.88680081483407 197.78894472361807 116.41389048507267 Q 200.2010050251256 116.41389048507267 202.61306532663315 117.09562124864414 Q 205.0251256281407 117.09562124864414 207.43718592964822 117.92512186511287 Q 209.84924623115575 117.92512186511287 212.2613065326633 118.88878915226591 Q 214.67336683417085 118.88878915226591 217.08542713567837 119.96657641356782 Q 219.4974874371859 119.96657641356782 221.90954773869345 121.13253247944452 Q 224.321608040201 121.13253247944452 226.73366834170852 122.35557383092929 Q 229.14572864321605 122.35557383092929 231.5577889447236 123.60046379759558 Q 233.96984924623115 123.60046379759558 236.38190954773867 124.82896525446792 Q 238.7939698492462 124.82896525446792 241.20603015075375 126.00112685487944 Q 243.6180904522613 126.00112685487944 246.03015075376882 127.07665785646984 Q 248.44221105527635 127.07665785646984 250.8542713567839 128.01634320432214 Q 253.26633165829145 128.01634320432214 255.67839195979897 128.78344885109453 Q 258.0904522613065 128.78344885109453 260.50251256281405 129.3450673808722 Q 262.9145728643216 129.3450673808722 265.3266331658291 129.67335586057493 Q 267.73869346733665 129.67335586057493 270.1507537688442 129.74662140661206 Q 272.56281407035175 129.74662140661206 274.9748743718593 129.55021510108895 Q 277.3869346733668 129.55021510108895 279.79899497487435 129.0772014411278 Q 282.2110552763819 129.0772014411278 284.6231155778894 128.3287782268959 Q 287.03517587939695 128.3287782268959 289.4472361809045 127.31443041722761 Q 291.85929648241205 127.31443041722761 294.2713567839196 126.05181070273714 Q 296.6834170854271 126.05181070273714 299.09547738693465 124.56634904019768 Q 301.5075376884422 124.56634904019768 303.9195979899497 122.89060282405563 Q 306.33165829145725 122.89060282405563 308.7437185929648 121.06336840863048 Q 311.15577889447235 121.06336840863048 313.5678391959799 119.12858301899928 Q 315.9798994974874 119.12858301899928 318.39195979899495 117.13405340604056 Q 320.8040201005025 117.13405340604056 323.21608040201 115.13005365335842 Q 325.62814070351754 115.13005365335842 328.0402010050251 113.16783911718184 Q 330.45226130653265 113.16783911718184 332.8643216080402 111.29812641338373 Q 335.2763819095477 111.29812641338373 337.68844221105525 109.56959055492203 Q 340.1005025125628 109.56959055492203 342.5125628140703 108.02742974628089 Q 344.92462311557784 108.02742974628089 347.3366834170854 106.71204597992019 Q 349.74874371859295 106.71204597992019 352.1608040201005 105.65788553669543 Q 354.572864321608 105.65788553669543 356.98492462311555 104.8924779103784 Q 359.3969849246231 104.8924779103784 361.8090452261306 104.43570475281476 Q 364.22110552763814 104.43570475281476 366.6331658291457 104.29932241522684 Q 369.04522613065325 104.29932241522684 371.4572864321608 104.48675282573927 Q 373.8693467336683 104.48675282573927 376.28140703517585 104.99314810505321 Q 378.6934673366834 104.99314810505321 381.1055276381909 105.8057248106505 Q 383.51758793969844 105.8057248106505 385.929648241206 106.90435435027867 Q 388.34170854271355 106.90435435027867 390.7537688442211 108.26238724717608 Q 393.1658291457286 108.26238724717608 395.57788944723615 109.84768088443784 Q 397.9899497487437 109.84768088443784 400.4020100502512 111.62379338741918 Q 402.81407035175874 111.62379338741918 405.2261306532663 113.55130066586256 Q 407.63819095477385 113.55130066586256 410.0502512562814 115.58918952902124 Q 412.4623115577889 115.58918952902124 414.87437185929645 117.69627735071802 Q 417.286432160804 117.69627735071802 419.6984924623115 119.8326080810451 Q 422.11055276381904 119.8326080810451 424.5226130653266 121.9607754990663 Q 426.93467336683415 121.9607754990663 429.3467336683417 124.04712743524222 Q 431.7587939698492 124.04712743524222 434.17085427135675 126.06280916067452 Q 436.5829145728643 126.06280916067452 438.9949748743718 127.98461008213643 Q 441.40703517587934 127.98461008213643 443.8190954773869 129.7955850845566 Q 446.23115577889445 129.7955850845566 448.643216080402 131.48543006892245 Q 451.0552763819095 131.48543006892245 453.46733668341705 133.0506001507663 Q 455.8793969849246 133.0506001507663 458.2914572864321 134.49416829475066 Q 460.70351758793964 134.49416829475066 463.1155778894472 135.82543153282415 Q 465.52763819095475 135.82543153282415 467.9396984924623 137.05928101341277 Q 470.3517587939698 137.05928101341277 472.76381909547734 138.21536063336117 Q 475.1758793969849 138.21536063336117 477.5879396984924 139.3170466103629 Q 479.99999999999994 139.3170466103629 482.4120603015075 140.3902867909314 Q 484.82412060301505 140.3902867909314 487.2361809045226 141.4623435286912 Q 489.6482412060301 141.4623435286912 492.06030150753764 142.56048743074388 Q 494.4723618090452 142.56048743074388 496.8844221105527 143.7106910329972 Q 499.29648241206024 143.7106910329972 501.7085427135678 144.93637146597317 Q 504.12060301507535 144.93637146597317 506.5326633165829 146.25722941072934 Q 508.9447236180904 146.25722941072934 511.35678391959794 147.68822818278707 Q 513.7688442211055 147.68822818278707 516.180904522613 149.23875174343843 Q 518.5929648241206 149.23875174343843 521.0050251256281 150.91197400166064 Q 523.4170854271356 150.91197400166064 525.8291457286432 152.70446416496114 Q 528.2412060301507 152.70446416496114 530.6532663316582 154.60604439428786 Q 533.0653266331658 154.60604439428786 535.4773869346733 156.59990691913978 Q 537.8894472361808 156.59990691913978 540.3015075376884 158.66298839797287 Q 542.713567839196 158.66298839797287 545.1256281407035 160.76658999947585 Q 547.537688442211 160.76658999947585 549.9497487437186 162.87722276383062 Q 552.3618090452261 162.87722276383062 554.7738693467336 164.95764959741405 Q 557.1859296482412 164.95764959741405 559.5979899497487 166.9680880522333 Q 562.0100502512562 166.9680880522333 564.4221105527638 168.8675320999408 Q 566.8341708542713 168.8675320999408 569.2462311557788 170.61514664221332 Q 571.6582914572864 170.61514664221332 574.0703517587939 172.17168566511708 Q 576.4824120603014 172.17168566511708 578.894472361809 173.50088384750444 Q 581.3065326633166 173.50088384750444 583.7185929648241 174.57077211368195 Q 586.1306532663316 174.57077211368195 588.5427135678392 175.35487005676626 Q 590.9547738693467 175.35487005676626 593.3668341708542 175.8332122672845 Q 595.7788944723618 175.8332122672845 598.1909547738693 175.99317123839884 Q 600.6030150753768 175.99317123839884 603.0150753768844 175.83004648713958 Q 605.4271356783919 175.83004648713958 607.8391959798994 175.34739758548568 Q 610.251256281407 175.34739758548568 612.6633165829145 174.55710765271778 Q 615.075376884422 174.55710765271778 617.4874371859296 173.4791732092981 Q 619.8994974874372 173.4791732092981 622.3115577889447 172.14122580318931 Q 624.7236180904522 172.14122580318931 627.1356783919598 170.5778001567074 Q 629.5477386934673 170.5778001567074 631.9597989949748 168.82937241639772 Q 634.3718592964824 168.82937241639772 636.7839195979899 166.94120010834797 Q 639.1959798994974 166.94120010834797 641.608040201005 164.9620023237976 Q 644.0201005025125 164.9620023237976 646.43216080402 162.9425242405354 Q 648.8442211055276 162.9425242405354 651.2562814070351 160.93403412740258 Q 653.6683417085426 160.93403412740258 656.0804020100502 158.9868033395398 Q 658.4924623115578 158.9868033395398 660.9045226130653 157.14862040748562 Q 663.3165829145728 157.14862040748562 665.7286432160804 155.46338913282355 Q 668.1407035175879 155.46338913282355 670.5527638190954 153.9698576687849 Q 672.964824120603 153.9698576687849 675.3768844221105 152.7005209896241 Q 677.788944723618 152.7005209896241 680.2010050251256 151.6807330991536 Q 682.6130653266331 151.6807330991536 685.0251256281406 150.9280580102166 Q 687.4371859296482 150.9280580102166 689.8492462311557 150.45188020134356 Q 692.2613065326632 150.45188020134356 694.6733668341708 150.25328621814185 Q 697.0854271356784 150.25328621814185 699.4974874371859 150.3252196539328 Q 701.9095477386934 150.3252196539328 704.321608040201 150.65290224941123 Q 706.7336683417085 150.65290224941123 709.145728643216 151.21450462932273 Q 711.5577889447236 151.21450462932273 713.9698492462311 151.9820415701883 Q 716.3819095477386 151.9820415701883 718.7939698492462 152.92245897050338 Q 721.2060301507537 152.92245897050338 723.6180904522612 153.99887314512054 Q 726.0301507537688 153.99887314512054 728.4422110552763 155.17191791855885 Q 730.8542713567838 155.17191791855885 733.2663316582914 156.40115142789398 Q 735.678391959799 156.40115142789398 738.0904522613065 157.64647268865343 Q 740.502512562814 157.64647268865343 742.9145728643216 158.86949789027204 Q 745.3266331658291 158.86949789027204 747.7386934673366 160.03484807192444 Q 750.1507537688442 160.03484807192444 752.5628140703517 161.11130322298015 Q 754.9748743718592 161.11130322298015 757.3869346733668 162.07278283245464 Q 759.7989949748743 162.07278283245464 762.2110552763818 162.89911930001145 Q 764.6231155778894 162.89911930001145 767.0351758793969 163.57659818887782 Q 769.4472361809044 163.57659818887782 771.859296482412 164.09824777831423 Q 774.2713567839196 164.09824777831423 776.6834170854271 164.4638694577892 Q 779.0954773869346 164.4638694577892 781.5075376884422 164.6798098731118 Q 783.9195979899497 164.6798098731118 786.3316582914572 164.75848505292865 Q 788.7437185929648 164.75848505292865 791.1557788944723 164.7176756805901 Q 793.5678391959798 164.7176756805901 795.9798994974874 164.5796209135001 Q 798.3919597989949 164.5796209135001 800.8040201005024 164.36994539673108 Q 803.21608040201 164.36994539673108 805.6281407035175 164.11646011228981 Q 808.040201005025 164.11646011228981 810.4522613065326 163.84788223683987 Q 812.8643216080402 163.84788223683987 815.2763819095477 163.59252208783542 Q 817.6884422110552 163.59252208783542 820.1005025125628 163.37698641756833 Q 822.5125628140703 163.37698641756833 824.9246231155778 163.2249467246622 Q 827.3366834170854 163.2249467246622 829.7487437185929 163.15601891405566 Q 832.1608040201004 163.15601891405566 834.572864321608 163.18479663264557 Q 836.9849246231155 163.18479663264557 839.396984924623 163.32007508087733 Q 841.8090452261306 163.32007508087733 844.2211055276381 163.56429524718527 Q 846.6331658291456 163.56429524718527 849.0452261306532 163.9132305760289 Q 851.4572864321608 163.9132305760289 853.8693467336683 164.35592934360173 Q 856.2814070351758 164.35592934360173 858.6934673366834 164.87491678892263 Q 861.1055276381909 164.87491678892263 863.5175879396984 165.44665166029253 Q 865.929648241206 165.44665166029253 868.3417085427135 166.04222262221165 Q 870.753768844221 166.04222262221165 873.1658291457286 166.62826125404308 Q 875.5778894472361 166.62826125404308 877.9899497487436 167.16804046958393 Q 880.4020100502512 167.16804046958393 882.8140703517587 167.62272037822905 Q 885.2261306532662 167.62272037822905 887.6381909547738 167.95269813690908 Q 890.0502512562814 167.95269813690908 892.4623115577889 168.1190144034781 Q 894.8743718592964 168.1190144034781 897.286432160804 168.08476673850257 Q 899.6984924623115 168.08476673850257 902.110552763819 167.8164797959392 Q 904.5226130653266 167.8164797959392 906.9346733668341 167.28538341424317 Q 909.3467336683416 167.28538341424317 911.7587939698492 166.46855272528418 Q 914.1708542713567 166.46855272528418 916.5829145728642 165.3498690348673 Q 918.9949748743718 165.3498690348673 921.4070351758793 163.92076633363735 Q 923.8190954773868 163.92076633363735 926.2311557788944 162.1807356565827 Q 928.643216080402 162.1807356565827 931.0552763819095 160.1375678646212 Q 933.467336683417 160.1375678646212 935.8793969849246 157.80732447882593 Q 938.2914572864321 157.80732447882593 940.7035175879396 155.21403563774868 Q 943.1155778894472 155.21403563774868 945.5276381909547 152.38913373832014 Q 947.9396984924622 152.38913373832014 950.3517587939698 149.3706405263352 Q 952.7638190954773 149.3706405263352 955.1758793969848 146.20213399885495 Q 957.5879396984924 146.20213399885495 959.9999999999999 142.93152916466576 " stroke="url(#grad)" stroke-width="4"
        fill="none">
    <animateTransform type="translate"
                      from="0 0" to="-10 0"
                      dur="3s" repeatCount="indefinite"/>
  </path>
</g>

<!-- BRANDING -->
<text x="50%" y="50%"
      text-anchor="middle"
      font-size="30"
      letter-spacing="5"
      fill="#ffffff"
      opacity="0.9"
      style="font-family: monospace"
      filter="url(#glow)">
  LORDZEFAN
</text>

</svg>