<svg viewBox="0 0 960 260" xmlns="http://www.w3.org/2000/svg">

<defs>
  <!-- CYBERPUNK GRADIENT -->
  <linearGradient id="grad" x1="0" y1="0" x2="1" y2="0">
    <stop offset="0%" stop-color="#ff2fdc"/>
    <stop offset="40%" stop-color="#9b5cff"/>
    <stop offset="70%" stop-color="#00f5ff"/>
    <stop offset="100%" stop-color="#00f5ff"/>
  </linearGradient>

  <!-- NEON GLOW -->
  <filter id="glow">
    <feGaussianBlur stdDeviation="4" result="b"/>
    <feMerge>
      <feMergeNode in="b"/>
      <feMergeNode in="SourceGraphic"/>
    </feMerge>
  </filter>

  <!-- CRT SCANLINE -->
  <pattern id="scanline" width="4" height="4" patternUnits="userSpaceOnUse">
    <rect width="4" height="1" fill="rgba(255,255,255,0.04)"/>
  </pattern>
</defs>

<!-- BACKGROUND -->
<rect width="100%" height="100%" fill="#05010d"/>
<rect width="100%" height="100%" fill="url(#scanline)"/>

<!-- EQUALIZER -->
<g filter="url(#glow)">
  
      <rect x="0"
            y="181.52271119520682"
            width="14.142857142857142"
            height="78.47728880479318"
            fill="url(#grad)"
            opacity="0.55">
        <animate attributeName="height"
                 dur="0.5454545454545454s"
                 repeatCount="indefinite"
                 values="78.47728880479318;48.42837688005058;78.47728880479318" />
        <animate attributeName="y"
                 dur="0.5454545454545454s"
                 repeatCount="indefinite"
                 values="181.52271119520682;211.57162311994944;181.52271119520682" />
      </rect>
    
      <rect x="17.142857142857142"
            y="217.55786522487577"
            width="14.142857142857142"
            height="42.44213477512423"
            fill="url(#grad)"
            opacity="0.55">
        <animate attributeName="height"
                 dur="0.5454545454545454s"
                 repeatCount="indefinite"
                 values="42.44213477512423;35.89253716101767;42.44213477512423" />
        <animate attributeName="y"
                 dur="0.5454545454545454s"
                 repeatCount="indefinite"
                 values="217.55786522487577;224.10746283898231;217.55786522487577" />
      </rect>
    
      <rect x="34.285714285714285"
            y="195.84351717449397"
            width="14.142857142857142"
            height="64.15648282550605"
            fill="url(#grad)"
            opacity="0.55">
        <animate attributeName="height"
                 dur="0.5454545454545454s"
                 repeatCount="indefinite"
                 values="64.15648282550605;87.35861299765513;64.15648282550605" />
        <animate attributeName="y"
                 dur="0.5454545454545454s"
                 repeatCount="indefinite"
                 values="195.84351717449397;172.64138700234486;195.84351717449397" />
      </rect>
    
      <rect x="51.42857142857143"
            y="198.8479753895682"
            width="14.142857142857142"
            height="61.152024610431795"
            fill="url(#grad)"
            opacity="0.55">
        <animate attributeName="height"
                 dur="0.5454545454545454s"
                 repeatCount="indefinite"
                 values="61.152024610431795;27.043122450744985;61.152024610431795" />
        <animate attributeName="y"
                 dur="0.5454545454545454s"
                 repeatCount="indefinite"
                 values="198.8479753895682;232.956877549255;198.8479753895682" />
      </rect>
    
      <rect x="68.57142857142857"
            y="228.7036579073568"
            width="14.142857142857142"
            height="31.29634209264318"
            fill="url(#grad)"
            opacity="0.55">
        <animate attributeName="height"
                 dur="0.5454545454545454s"
                 repeatCount="indefinite"
                 values="31.29634209264318;76.72664880689597;31.29634209264318" />
        <animate attributeName="y"
                 dur="0.5454545454545454s"
                 repeatCount="indefinite"
                 values="228.7036579073568;183.27335119310402;228.7036579073568" />
      </rect>
    
      <rect x="85.71428571428571"
            y="173.29547691869425"
            width="14.142857142857142"
            height="86.70452308130577"
            fill="url(#grad)"
            opacity="0.55">
        <animate attributeName="height"
                 dur="0.5454545454545454s"
                 repeatCount="indefinite"
                 values="86.70452308130577;72.42914150741986;86.70452308130577" />
        <animate attributeName="y"
                 dur="0.5454545454545454s"
                 repeatCount="indefinite"
                 values="173.29547691869425;187.57085849258016;173.29547691869425" />
      </rect>
    
      <rect x="102.85714285714286"
            y="209.23782865671245"
            width="14.142857142857142"
            height="50.762171343287534"
            fill="url(#grad)"
            opacity="0.55">
        <animate attributeName="height"
                 dur="0.5454545454545454s"
                 repeatCount="indefinite"
                 values="50.762171343287534;32.52031231618137;50.762171343287534" />
        <animate attributeName="y"
                 dur="0.5454545454545454s"
                 repeatCount="indefinite"
                 values="209.23782865671245;227.47968768381864;209.23782865671245" />
      </rect>
    
      <rect x="120"
            y="212.69622717974158"
            width="14.142857142857142"
            height="47.3037728202584"
            fill="url(#grad)"
            opacity="0.55">
        <animate attributeName="height"
                 dur="0.5454545454545454s"
                 repeatCount="indefinite"
                 values="47.3037728202584;30.846580136909076;47.3037728202584" />
        <animate attributeName="y"
                 dur="0.5454545454545454s"
                 repeatCount="indefinite"
                 values="212.69622717974158;229.15341986309093;212.69622717974158" />
      </rect>
    
      <rect x="137.14285714285714"
            y="205.41610409375207"
            width="14.142857142857142"
            height="54.583895906247925"
            fill="url(#grad)"
            opacity="0.55">
        <animate attributeName="height"
                 dur="0.5454545454545454s"
                 repeatCount="indefinite"
                 values="54.583895906247925;75.61041475660645;54.583895906247925" />
        <animate attributeName="y"
                 dur="0.5454545454545454s"
                 repeatCount="indefinite"
                 values="205.41610409375207;184.38958524339355;205.41610409375207" />
      </rect>
    
      <rect x="154.28571428571428"
            y="193.7430575241134"
            width="14.142857142857142"
            height="66.2569424758866"
            fill="url(#grad)"
            opacity="0.55">
        <animate attributeName="height"
                 dur="0.5454545454545454s"
                 repeatCount="indefinite"
                 values="66.2569424758866;38.2773803374255;66.2569424758866" />
        <animate attributeName="y"
                 dur="0.5454545454545454s"
                 repeatCount="indefinite"
                 values="193.7430575241134;221.72261966257452;193.7430575241134" />
      </rect>
    
      <rect x="171.42857142857142"
            y="173.83026872744455"
            width="14.142857142857142"
            height="86.16973127255544"
            fill="url(#grad)"
            opacity="0.55">
        <animate attributeName="height"
                 dur="0.5454545454545454s"
                 repeatCount="indefinite"
                 values="86.16973127255544;74.79252978682183;86.16973127255544" />
        <animate attributeName="y"
                 dur="0.5454545454545454s"
                 repeatCount="indefinite"
                 values="173.83026872744455;185.20747021317817;173.83026872744455" />
      </rect>
    
      <rect x="188.57142857142856"
            y="185.35351401232572"
            width="14.142857142857142"
            height="74.64648598767427"
            fill="url(#grad)"
            opacity="0.55">
        <animate attributeName="height"
                 dur="0.5454545454545454s"
                 repeatCount="indefinite"
                 values="74.64648598767427;43.52878743792034;74.64648598767427" />
        <animate attributeName="y"
                 dur="0.5454545454545454s"
                 repeatCount="indefinite"
                 values="185.35351401232572;216.47121256207964;185.35351401232572" />
      </rect>
    
      <rect x="205.71428571428572"
            y="188.0881879276105"
            width="14.142857142857142"
            height="71.9118120723895"
            fill="url(#grad)"
            opacity="0.55">
        <animate attributeName="height"
                 dur="0.5454545454545454s"
                 repeatCount="indefinite"
                 values="71.9118120723895;42.06284418866932;71.9118120723895" />
        <animate attributeName="y"
                 dur="0.5454545454545454s"
                 repeatCount="indefinite"
                 values="188.0881879276105;217.93715581133068;188.0881879276105" />
      </rect>
    
      <rect x="222.85714285714286"
            y="234.04487395259926"
            width="14.142857142857142"
            height="25.95512604740073"
            fill="url(#grad)"
            opacity="0.55">
        <animate attributeName="height"
                 dur="0.5454545454545454s"
                 repeatCount="indefinite"
                 values="25.95512604740073;29.79732371468762;25.95512604740073" />
        <animate attributeName="y"
                 dur="0.5454545454545454s"
                 repeatCount="indefinite"
                 values="234.04487395259926;230.20267628531238;234.04487395259926" />
      </rect>
    
      <rect x="240"
            y="222.34635443302142"
            width="14.142857142857142"
            height="37.65364556697859"
            fill="url(#grad)"
            opacity="0.55">
        <animate attributeName="height"
                 dur="0.5454545454545454s"
                 repeatCount="indefinite"
                 values="37.65364556697859;58.54454821792628;37.65364556697859" />
        <animate attributeName="y"
                 dur="0.5454545454545454s"
                 repeatCount="indefinite"
                 values="222.34635443302142;201.45545178207374;222.34635443302142" />
      </rect>
    
      <rect x="257.1428571428571"
            y="190.22173720811318"
            width="14.142857142857142"
            height="69.77826279188682"
            fill="url(#grad)"
            opacity="0.55">
        <animate attributeName="height"
                 dur="0.5454545454545454s"
                 repeatCount="indefinite"
                 values="69.77826279188682;61.343433562102085;69.77826279188682" />
        <animate attributeName="y"
                 dur="0.5454545454545454s"
                 repeatCount="indefinite"
                 values="190.22173720811318;198.6565664378979;190.22173720811318" />
      </rect>
    
      <rect x="274.2857142857143"
            y="211.9836104517106"
            width="14.142857142857142"
            height="48.016389548289396"
            fill="url(#grad)"
            opacity="0.55">
        <animate attributeName="height"
                 dur="0.5454545454545454s"
                 repeatCount="indefinite"
                 values="48.016389548289396;25.059126887710377;48.016389548289396" />
        <animate attributeName="y"
                 dur="0.5454545454545454s"
                 repeatCount="indefinite"
                 values="211.9836104517106;234.94087311228964;211.9836104517106" />
      </rect>
    
      <rect x="291.42857142857144"
            y="213.07737873165425"
            width="14.142857142857142"
            height="46.92262126834575"
            fill="url(#grad)"
            opacity="0.55">
        <animate attributeName="height"
                 dur="0.5454545454545454s"
                 repeatCount="indefinite"
                 values="46.92262126834575;77.565500071083;46.92262126834575" />
        <animate attributeName="y"
                 dur="0.5454545454545454s"
                 repeatCount="indefinite"
                 values="213.07737873165425;182.434499928917;213.07737873165425" />
      </rect>
    
      <rect x="308.57142857142856"
            y="227.89120640086674"
            width="14.142857142857142"
            height="32.10879359913325"
            fill="url(#grad)"
            opacity="0.55">
        <animate attributeName="height"
                 dur="0.5454545454545454s"
                 repeatCount="indefinite"
                 values="32.10879359913325;69.27028900462989;32.10879359913325" />
        <animate attributeName="y"
                 dur="0.5454545454545454s"
                 repeatCount="indefinite"
                 values="227.89120640086674;190.7297109953701;227.89120640086674" />
      </rect>
    
      <rect x="325.7142857142857"
            y="223.9940959745561"
            width="14.142857142857142"
            height="36.0059040254439"
            fill="url(#grad)"
            opacity="0.55">
        <animate attributeName="height"
                 dur="0.5454545454545454s"
                 repeatCount="indefinite"
                 values="36.0059040254439;72.74435894828477;36.0059040254439" />
        <animate attributeName="y"
                 dur="0.5454545454545454s"
                 repeatCount="indefinite"
                 values="223.9940959745561;187.25564105171523;223.9940959745561" />
      </rect>
    
      <rect x="342.85714285714283"
            y="206.5512412707242"
            width="14.142857142857142"
            height="53.4487587292758"
            fill="url(#grad)"
            opacity="0.55">
        <animate attributeName="height"
                 dur="0.5454545454545454s"
                 repeatCount="indefinite"
                 values="53.4487587292758;89.95261299307658;53.4487587292758" />
        <animate attributeName="y"
                 dur="0.5454545454545454s"
                 repeatCount="indefinite"
                 values="206.5512412707242;170.04738700692343;206.5512412707242" />
      </rect>
    
      <rect x="360"
            y="205.76365256236616"
            width="14.142857142857142"
            height="54.23634743763383"
            fill="url(#grad)"
            opacity="0.55">
        <animate attributeName="height"
                 dur="0.5454545454545454s"
                 repeatCount="indefinite"
                 values="54.23634743763383;67.82471919434983;54.23634743763383" />
        <animate attributeName="y"
                 dur="0.5454545454545454s"
                 repeatCount="indefinite"
                 values="205.76365256236616;192.17528080565017;205.76365256236616" />
      </rect>
    
      <rect x="377.1428571428571"
            y="237.89494656648156"
            width="14.142857142857142"
            height="22.105053433518425"
            fill="url(#grad)"
            opacity="0.55">
        <animate attributeName="height"
                 dur="0.5454545454545454s"
                 repeatCount="indefinite"
                 values="22.105053433518425;44.581670262269526;22.105053433518425" />
        <animate attributeName="y"
                 dur="0.5454545454545454s"
                 repeatCount="indefinite"
                 values="237.89494656648156;215.41832973773046;237.89494656648156" />
      </rect>
    
      <rect x="394.2857142857143"
            y="234.72346650585158"
            width="14.142857142857142"
            height="25.276533494148435"
            fill="url(#grad)"
            opacity="0.55">
        <animate attributeName="height"
                 dur="0.5454545454545454s"
                 repeatCount="indefinite"
                 values="25.276533494148435;23.951778271971335;25.276533494148435" />
        <animate attributeName="y"
                 dur="0.5454545454545454s"
                 repeatCount="indefinite"
                 values="234.72346650585158;236.04822172802866;234.72346650585158" />
      </rect>
    
      <rect x="411.42857142857144"
            y="219.26670387165424"
            width="14.142857142857142"
            height="40.73329612834576"
            fill="url(#grad)"
            opacity="0.55">
        <animate attributeName="height"
                 dur="0.5454545454545454s"
                 repeatCount="indefinite"
                 values="40.73329612834576;20.159518590507933;40.73329612834576" />
        <animate attributeName="y"
                 dur="0.5454545454545454s"
                 repeatCount="indefinite"
                 values="219.26670387165424;239.84048140949207;219.26670387165424" />
      </rect>
    
      <rect x="428.57142857142856"
            y="191.21535561833872"
            width="14.142857142857142"
            height="68.78464438166128"
            fill="url(#grad)"
            opacity="0.55">
        <animate attributeName="height"
                 dur="0.5454545454545454s"
                 repeatCount="indefinite"
                 values="68.78464438166128;75.07280156505871;68.78464438166128" />
        <animate attributeName="y"
                 dur="0.5454545454545454s"
                 repeatCount="indefinite"
                 values="191.21535561833872;184.9271984349413;191.21535561833872" />
      </rect>
    
      <rect x="445.7142857142857"
            y="227.21258003111342"
            width="14.142857142857142"
            height="32.787419968886596"
            fill="url(#grad)"
            opacity="0.55">
        <animate attributeName="height"
                 dur="0.5454545454545454s"
                 repeatCount="indefinite"
                 values="32.787419968886596;36.59628986256744;32.787419968886596" />
        <animate attributeName="y"
                 dur="0.5454545454545454s"
                 repeatCount="indefinite"
                 values="227.21258003111342;223.40371013743257;227.21258003111342" />
      </rect>
    
      <rect x="462.85714285714283"
            y="180.37292780962986"
            width="14.142857142857142"
            height="79.62707219037014"
            fill="url(#grad)"
            opacity="0.55">
        <animate attributeName="height"
                 dur="0.5454545454545454s"
                 repeatCount="indefinite"
                 values="79.62707219037014;56.67865471714382;79.62707219037014" />
        <animate attributeName="y"
                 dur="0.5454545454545454s"
                 repeatCount="indefinite"
                 values="180.37292780962986;203.32134528285619;180.37292780962986" />
      </rect>
    
      <rect x="480"
            y="212.9781595236979"
            width="14.142857142857142"
            height="47.021840476302074"
            fill="url(#grad)"
            opacity="0.55">
        <animate attributeName="height"
                 dur="0.5454545454545454s"
                 repeatCount="indefinite"
                 values="47.021840476302074;72.10344013497141;47.021840476302074" />
        <animate attributeName="y"
                 dur="0.5454545454545454s"
                 repeatCount="indefinite"
                 values="212.9781595236979;187.8965598650286;212.9781595236979" />
      </rect>
    
      <rect x="497.1428571428571"
            y="197.8739667859054"
            width="14.142857142857142"
            height="62.12603321409459"
            fill="url(#grad)"
            opacity="0.55">
        <animate attributeName="height"
                 dur="0.5454545454545454s"
                 repeatCount="indefinite"
                 values="62.12603321409459;54.181601342658915;62.12603321409459" />
        <animate attributeName="y"
                 dur="0.5454545454545454s"
                 repeatCount="indefinite"
                 values="197.8739667859054;205.81839865734108;197.8739667859054" />
      </rect>
    
      <rect x="514.2857142857142"
            y="225.31277446518231"
            width="14.142857142857142"
            height="34.687225534817685"
            fill="url(#grad)"
            opacity="0.55">
        <animate attributeName="height"
                 dur="0.5454545454545454s"
                 repeatCount="indefinite"
                 values="34.687225534817685;63.398913774335504;34.687225534817685" />
        <animate attributeName="y"
                 dur="0.5454545454545454s"
                 repeatCount="indefinite"
                 values="225.31277446518231;196.6010862256645;225.31277446518231" />
      </rect>
    
      <rect x="531.4285714285714"
            y="235.5898358692022"
            width="14.142857142857142"
            height="24.41016413079779"
            fill="url(#grad)"
            opacity="0.55">
        <animate attributeName="height"
                 dur="0.5454545454545454s"
                 repeatCount="indefinite"
                 values="24.41016413079779;85.32010631268359;24.41016413079779" />
        <animate attributeName="y"
                 dur="0.5454545454545454s"
                 repeatCount="indefinite"
                 values="235.5898358692022;174.6798936873164;235.5898358692022" />
      </rect>
    
      <rect x="548.5714285714286"
            y="209.83137255479113"
            width="14.142857142857142"
            height="50.168627445208855"
            fill="url(#grad)"
            opacity="0.55">
        <animate attributeName="height"
                 dur="0.5454545454545454s"
                 repeatCount="indefinite"
                 values="50.168627445208855;63.51664288456243;50.168627445208855" />
        <animate attributeName="y"
                 dur="0.5454545454545454s"
                 repeatCount="indefinite"
                 values="209.83137255479113;196.48335711543757;209.83137255479113" />
      </rect>
    
      <rect x="565.7142857142857"
            y="234.0951594599926"
            width="14.142857142857142"
            height="25.9048405400074"
            fill="url(#grad)"
            opacity="0.55">
        <animate attributeName="height"
                 dur="0.5454545454545454s"
                 repeatCount="indefinite"
                 values="25.9048405400074;81.73127286357067;25.9048405400074" />
        <animate attributeName="y"
                 dur="0.5454545454545454s"
                 repeatCount="indefinite"
                 values="234.0951594599926;178.26872713642933;234.0951594599926" />
      </rect>
    
      <rect x="582.8571428571429"
            y="212.4515259719363"
            width="14.142857142857142"
            height="47.5484740280637"
            fill="url(#grad)"
            opacity="0.55">
        <animate attributeName="height"
                 dur="0.5454545454545454s"
                 repeatCount="indefinite"
                 values="47.5484740280637;64.75115068164808;47.5484740280637" />
        <animate attributeName="y"
                 dur="0.5454545454545454s"
                 repeatCount="indefinite"
                 values="212.4515259719363;195.24884931835192;212.4515259719363" />
      </rect>
    
      <rect x="600"
            y="229.56993084224584"
            width="14.142857142857142"
            height="30.43006915775416"
            fill="url(#grad)"
            opacity="0.55">
        <animate attributeName="height"
                 dur="0.5454545454545454s"
                 repeatCount="indefinite"
                 values="30.43006915775416;83.16962324893825;30.43006915775416" />
        <animate attributeName="y"
                 dur="0.5454545454545454s"
                 repeatCount="indefinite"
                 values="229.56993084224584;176.83037675106175;229.56993084224584" />
      </rect>
    
      <rect x="617.1428571428571"
            y="182.2047763997869"
            width="14.142857142857142"
            height="77.79522360021309"
            fill="url(#grad)"
            opacity="0.55">
        <animate attributeName="height"
                 dur="0.5454545454545454s"
                 repeatCount="indefinite"
                 values="77.79522360021309;72.67202460591984;77.79522360021309" />
        <animate attributeName="y"
                 dur="0.5454545454545454s"
                 repeatCount="indefinite"
                 values="182.2047763997869;187.32797539408017;182.2047763997869" />
      </rect>
    
      <rect x="634.2857142857142"
            y="175.10029201164087"
            width="14.142857142857142"
            height="84.89970798835911"
            fill="url(#grad)"
            opacity="0.55">
        <animate attributeName="height"
                 dur="0.5454545454545454s"
                 repeatCount="indefinite"
                 values="84.89970798835911;24.280564713213547;84.89970798835911" />
        <animate attributeName="y"
                 dur="0.5454545454545454s"
                 repeatCount="indefinite"
                 values="175.10029201164087;235.71943528678645;175.10029201164087" />
      </rect>
    
      <rect x="651.4285714285714"
            y="178.156319829554"
            width="14.142857142857142"
            height="81.84368017044599"
            fill="url(#grad)"
            opacity="0.55">
        <animate attributeName="height"
                 dur="0.5454545454545454s"
                 repeatCount="indefinite"
                 values="81.84368017044599;75.03289461914353;81.84368017044599" />
        <animate attributeName="y"
                 dur="0.5454545454545454s"
                 repeatCount="indefinite"
                 values="178.156319829554;184.96710538085648;178.156319829554" />
      </rect>
    
      <rect x="668.5714285714286"
            y="172.56835929271466"
            width="14.142857142857142"
            height="87.43164070728533"
            fill="url(#grad)"
            opacity="0.55">
        <animate attributeName="height"
                 dur="0.5454545454545454s"
                 repeatCount="indefinite"
                 values="87.43164070728533;76.69509718162205;87.43164070728533" />
        <animate attributeName="y"
                 dur="0.5454545454545454s"
                 repeatCount="indefinite"
                 values="172.56835929271466;183.30490281837797;172.56835929271466" />
      </rect>
    
      <rect x="685.7142857142857"
            y="218.03023471005116"
            width="14.142857142857142"
            height="41.96976528994884"
            fill="url(#grad)"
            opacity="0.55">
        <animate attributeName="height"
                 dur="0.5454545454545454s"
                 repeatCount="indefinite"
                 values="41.96976528994884;72.48689997435548;41.96976528994884" />
        <animate attributeName="y"
                 dur="0.5454545454545454s"
                 repeatCount="indefinite"
                 values="218.03023471005116;187.51310002564452;218.03023471005116" />
      </rect>
    
      <rect x="702.8571428571429"
            y="182.17399160508126"
            width="14.142857142857142"
            height="77.82600839491873"
            fill="url(#grad)"
            opacity="0.55">
        <animate attributeName="height"
                 dur="0.5454545454545454s"
                 repeatCount="indefinite"
                 values="77.82600839491873;53.429312256570725;77.82600839491873" />
        <animate attributeName="y"
                 dur="0.5454545454545454s"
                 repeatCount="indefinite"
                 values="182.17399160508126;206.5706877434293;182.17399160508126" />
      </rect>
    
      <rect x="720"
            y="224.33110362268127"
            width="14.142857142857142"
            height="35.66889637731873"
            fill="url(#grad)"
            opacity="0.55">
        <animate attributeName="height"
                 dur="0.5454545454545454s"
                 repeatCount="indefinite"
                 values="35.66889637731873;76.96666244155348;35.66889637731873" />
        <animate attributeName="y"
                 dur="0.5454545454545454s"
                 repeatCount="indefinite"
                 values="224.33110362268127;183.03333755844653;224.33110362268127" />
      </rect>
    
      <rect x="737.1428571428571"
            y="220.3385212598777"
            width="14.142857142857142"
            height="39.6614787401223"
            fill="url(#grad)"
            opacity="0.55">
        <animate attributeName="height"
                 dur="0.5454545454545454s"
                 repeatCount="indefinite"
                 values="39.6614787401223;32.73986704657213;39.6614787401223" />
        <animate attributeName="y"
                 dur="0.5454545454545454s"
                 repeatCount="indefinite"
                 values="220.3385212598777;227.26013295342787;220.3385212598777" />
      </rect>
    
      <rect x="754.2857142857142"
            y="175.22304576296557"
            width="14.142857142857142"
            height="84.77695423703445"
            fill="url(#grad)"
            opacity="0.55">
        <animate attributeName="height"
                 dur="0.5454545454545454s"
                 repeatCount="indefinite"
                 values="84.77695423703445;28.599386266938414;84.77695423703445" />
        <animate attributeName="y"
                 dur="0.5454545454545454s"
                 repeatCount="indefinite"
                 values="175.22304576296557;231.4006137330616;175.22304576296557" />
      </rect>
    
      <rect x="771.4285714285714"
            y="193.0675227497464"
            width="14.142857142857142"
            height="66.93247725025361"
            fill="url(#grad)"
            opacity="0.55">
        <animate attributeName="height"
                 dur="0.5454545454545454s"
                 repeatCount="indefinite"
                 values="66.93247725025361;89.97617013075775;66.93247725025361" />
        <animate attributeName="y"
                 dur="0.5454545454545454s"
                 repeatCount="indefinite"
                 values="193.0675227497464;170.02382986924226;193.0675227497464" />
      </rect>
    
      <rect x="788.5714285714286"
            y="181.09211374998335"
            width="14.142857142857142"
            height="78.90788625001665"
            fill="url(#grad)"
            opacity="0.55">
        <animate attributeName="height"
                 dur="0.5454545454545454s"
                 repeatCount="indefinite"
                 values="78.90788625001665;58.41739834674574;78.90788625001665" />
        <animate attributeName="y"
                 dur="0.5454545454545454s"
                 repeatCount="indefinite"
                 values="181.09211374998335;201.58260165325424;181.09211374998335" />
      </rect>
    
      <rect x="805.7142857142857"
            y="203.44803799336358"
            width="14.142857142857142"
            height="56.551962006636415"
            fill="url(#grad)"
            opacity="0.55">
        <animate attributeName="height"
                 dur="0.5454545454545454s"
                 repeatCount="indefinite"
                 values="56.551962006636415;34.10757612376514;56.551962006636415" />
        <animate attributeName="y"
                 dur="0.5454545454545454s"
                 repeatCount="indefinite"
                 values="203.44803799336358;225.89242387623486;203.44803799336358" />
      </rect>
    
      <rect x="822.8571428571429"
            y="212.71715062699485"
            width="14.142857142857142"
            height="47.28284937300515"
            fill="url(#grad)"
            opacity="0.55">
        <animate attributeName="height"
                 dur="0.5454545454545454s"
                 repeatCount="indefinite"
                 values="47.28284937300515;47.15528774000665;47.28284937300515" />
        <animate attributeName="y"
                 dur="0.5454545454545454s"
                 repeatCount="indefinite"
                 values="212.71715062699485;212.84471225999334;212.71715062699485" />
      </rect>
    
      <rect x="840"
            y="211.85609483745185"
            width="14.142857142857142"
            height="48.14390516254814"
            fill="url(#grad)"
            opacity="0.55">
        <animate attributeName="height"
                 dur="0.5454545454545454s"
                 repeatCount="indefinite"
                 values="48.14390516254814;24.742373911241486;48.14390516254814" />
        <animate attributeName="y"
                 dur="0.5454545454545454s"
                 repeatCount="indefinite"
                 values="211.85609483745185;235.2576260887585;211.85609483745185" />
      </rect>
    
      <rect x="857.1428571428571"
            y="187.49831673630354"
            width="14.142857142857142"
            height="72.50168326369648"
            fill="url(#grad)"
            opacity="0.55">
        <animate attributeName="height"
                 dur="0.5454545454545454s"
                 repeatCount="indefinite"
                 values="72.50168326369648;69.8240075430004;72.50168326369648" />
        <animate attributeName="y"
                 dur="0.5454545454545454s"
                 repeatCount="indefinite"
                 values="187.49831673630354;190.1759924569996;187.49831673630354" />
      </rect>
    
      <rect x="874.2857142857142"
            y="177.01226359696295"
            width="14.142857142857142"
            height="82.98773640303706"
            fill="url(#grad)"
            opacity="0.55">
        <animate attributeName="height"
                 dur="0.5454545454545454s"
                 repeatCount="indefinite"
                 values="82.98773640303706;52.70437132448575;82.98773640303706" />
        <animate attributeName="y"
                 dur="0.5454545454545454s"
                 repeatCount="indefinite"
                 values="177.01226359696295;207.29562867551425;177.01226359696295" />
      </rect>
    
      <rect x="891.4285714285714"
            y="219.03516882124612"
            width="14.142857142857142"
            height="40.964831178753876"
            fill="url(#grad)"
            opacity="0.55">
        <animate attributeName="height"
                 dur="0.5454545454545454s"
                 repeatCount="indefinite"
                 values="40.964831178753876;85.24203758503366;40.964831178753876" />
        <animate attributeName="y"
                 dur="0.5454545454545454s"
                 repeatCount="indefinite"
                 values="219.03516882124612;174.75796241496636;219.03516882124612" />
      </rect>
    
      <rect x="908.5714285714286"
            y="173.18691091185178"
            width="14.142857142857142"
            height="86.81308908814822"
            fill="url(#grad)"
            opacity="0.55">
        <animate attributeName="height"
                 dur="0.5454545454545454s"
                 repeatCount="indefinite"
                 values="86.81308908814822;53.081317765639696;86.81308908814822" />
        <animate attributeName="y"
                 dur="0.5454545454545454s"
                 repeatCount="indefinite"
                 values="173.18691091185178;206.9186822343603;173.18691091185178" />
      </rect>
    
      <rect x="925.7142857142857"
            y="223.6149310917785"
            width="14.142857142857142"
            height="36.3850689082215"
            fill="url(#grad)"
            opacity="0.55">
        <animate attributeName="height"
                 dur="0.5454545454545454s"
                 repeatCount="indefinite"
                 values="36.3850689082215;86.05090008204108;36.3850689082215" />
        <animate attributeName="y"
                 dur="0.5454545454545454s"
                 repeatCount="indefinite"
                 values="223.6149310917785;173.9490999179589;223.6149310917785" />
      </rect>
    
      <rect x="942.8571428571428"
            y="220.283473053331"
            width="14.142857142857142"
            height="39.716526946669006"
            fill="url(#grad)"
            opacity="0.55">
        <animate attributeName="height"
                 dur="0.5454545454545454s"
                 repeatCount="indefinite"
                 values="39.716526946669006;69.54720419155183;39.716526946669006" />
        <animate attributeName="y"
                 dur="0.5454545454545454s"
                 repeatCount="indefinite"
                 values="220.283473053331;190.45279580844817;220.283473053331" />
      </rect>
    
</g>

<!-- WAVES -->
<path d="M 0 139.28999762123337 Q 2.6815642458100557 139.28999762123337 5.363128491620111 139.57110128349407 Q 8.044692737430168 139.57110128349407 10.726256983240223 139.86720427014492 Q 13.40782122905028 139.86720427014492 16.089385474860336 140.19251808949025 Q 18.77094972067039 140.19251808949025 21.452513966480446 140.5594086968799 Q 24.1340782122905 140.5594086968799 26.815642458100555 140.97763702821678 Q 29.497206703910614 140.97763702821678 32.17877094972067 141.45371647660673 Q 34.86033519553072 141.45371647660673 37.54189944134078 141.9904176779442 Q 40.22346368715084 141.9904176779442 42.90502793296089 142.586444481072 Q 45.58659217877094 142.586444481072 48.268156424581 143.23629742015098 Q 50.94972067039106 143.23629742015098 53.63128491620111 143.93033271217473 Q 56.31284916201117 143.93033271217473 58.99441340782123 144.65501613476985 Q 61.675977653631286 144.65501613476985 64.35754189944134 145.3933624786923 Q 67.0391061452514 145.3933624786923 69.72067039106145 146.12554299584139 Q 72.4022346368715 146.12554299584139 75.08379888268156 146.82963574054168 Q 77.76536312849161 146.82963574054168 80.44692737430167 147.48248726005357 Q 83.12849162011173 147.48248726005357 85.81005586592178 148.06064901345127 Q 88.49162011173183 148.06064901345127 91.1731843575419 148.54134841032624 Q 93.85474860335195 148.54134841032624 96.536312849162 148.9034526170869 Q 99.21787709497207 148.9034526170869 101.89944134078212 149.1283833576527 Q 104.58100558659217 149.1283833576527 107.26256983240222 149.2009428362208 Q 109.94413407821227 149.2009428362208 112.62569832402234 149.11001455206804 Q 115.3072625698324 149.11001455206804 117.98882681564245 148.8491080034946 Q 120.6703910614525 148.8491080034946 123.35195530726256 148.41672286420388 Q 126.03351955307262 148.41672286420388 128.7150837988827 147.8165158753698 Q 131.39664804469274 147.8165158753698 134.0782122905028 147.0572620981123 Q 136.75977653631284 147.0572620981123 139.4413407821229 146.15261094930287 Q 142.12290502793294 146.15261094930287 144.804469273743 145.12064621719253 Q 147.48603351955308 145.12064621719253 150.16759776536313 143.9832676409776 Q 152.84916201117318 143.9832676409776 155.53072625698323 142.76541927547396 Q 158.21229050279328 142.76541927547396 160.89385474860333 141.49419641653887 Q 163.57541899441338 141.49419641653887 166.25698324022346 140.19786804984955 Q 168.9385474860335 140.19786804984955 171.62011173184356 138.90485537972947 Q 174.30167597765362 138.90485537972947 176.98324022346367 137.64270883990054 Q 179.66480446927375 137.64270883990054 182.3463687150838 136.4371260044873 Q 185.02793296089385 136.4371260044873 187.7094972067039 135.31105100513616 Q 190.39106145251395 135.31105100513616 193.072625698324 134.28389249820881 Q 195.75418994413405 134.28389249820881 198.43575418994413 133.3708920703342 Q 201.11731843575419 133.3708920703342 203.79888268156424 132.58266844619163 Q 206.4804469273743 132.58266844619163 209.16201117318434 131.92495525384098 Q 211.8435754189944 131.92495525384098 214.52513966480444 131.3985417419175 Q 217.20670391061452 131.3985417419175 219.88826815642457 130.9994170938979 Q 222.56983240223462 130.9994170938979 225.25139664804468 130.71911022846987 Q 227.93296089385473 130.71911022846987 230.61452513966478 130.54520859292506 Q 233.29608938547483 130.54520859292506 235.9776536312849 130.46203181300544 Q 238.65921787709496 130.46203181300544 241.340782122905 130.45142948985324 Q 244.02234636871506 130.45142948985324 246.7039106145251 130.49366721776357 Q 249.3854748603352 130.49366721776357 252.06703910614524 130.56836126102635 Q 254.7486033519553 130.56836126102635 257.4301675977654 130.6554204307392 Q 260.1117318435754 130.6554204307392 262.7932960893855 130.7359536234842 Q 265.47486033519556 130.7359536234842 268.1564245810056 130.79310322405442 Q 270.8379888268156 130.79310322405442 273.5195530726257 130.8127680553023 Q 276.20111731843576 130.8127680553023 278.8826815642458 130.78418462488995 Q 281.5642458100558 130.78418462488995 284.2458100558659 130.7003418471818 Q 286.92737430167597 130.7003418471818 289.608938547486 130.55821192520202 Q 292.29050279329607 130.55821192520202 294.97206703910615 130.35878833188724 Q 297.6536312849162 130.35878833188724 300.33519553072625 130.10693046864685 Q 303.01675977653633 130.10693046864685 305.69832402234636 129.81102322265255 Q 308.3798882681564 129.81102322265255 311.06145251396646 129.48246791243028 Q 313.74301675977654 129.48246791243028 316.42458100558656 129.13502864090765 Q 319.1061452513966 129.13502864090765 321.78770949720666 128.78406453523797 Q 324.46927374301674 128.78406453523797 327.1508379888268 128.44568345959757 Q 329.8324022346369 128.44568345959757 332.5139664804469 128.1358563162265 Q 335.19553072625695 128.1358563162265 337.877094972067 127.86953284595609 Q 340.5586592178771 127.86953284595609 343.24022346368713 127.65979982303891 Q 345.92178770949715 127.65979982303891 348.60335195530723 127.5171207104493 Q 351.2849162011173 127.5171207104493 353.96648044692733 127.44869228061239 Q 356.64804469273736 127.44869228061239 359.32960893854744 127.45794856839721 Q 362.0111731843575 127.45794856839721 364.6927374301676 127.54423603302709 Q 367.3743016759777 127.54423603302709 370.0558659217877 127.7026762475275 Q 372.7374301675977 127.7026762475275 375.4189944134078 127.92422413960061 Q 378.1005586592179 127.92422413960061 380.7821229050279 128.19592113998877 Q 383.4636871508379 128.19592113998877 386.145251396648 128.50133393362617 Q 388.8268156424581 128.50133393362617 391.5083798882681 128.82116123525483 Q 394.1899441340782 128.82116123525483 396.87150837988827 129.1339834880743 Q 399.5530726256983 129.1339834880743 402.23463687150837 129.41712394216873 Q 404.91620111731845 129.41712394216873 407.5977653631285 129.6475844925959 Q 410.2793296089385 129.6475844925959 412.9608938547486 129.8030161693039 Q 415.64245810055866 129.8030161693039 418.3240223463687 129.86268242731444 Q 421.0055865921787 129.86268242731444 423.6871508379888 129.80837346460052 Q 426.36871508379886 129.80837346460052 429.0502793296089 129.62523169592427 Q 431.73184357541896 129.62523169592427 434.41340782122904 129.3024521531444 Q 437.09497206703907 129.3024521531444 439.77653631284915 128.83382680960588 Q 442.4581005586592 128.83382680960588 445.13966480446925 128.21810841236712 Q 447.82122905027927 128.21810841236712 450.50279329608935 127.45917706593652 Q 453.18435754189943 127.45917706593652 455.86592178770945 126.56600121261414 Q 458.5474860335195 126.56600121261414 461.22905027932956 125.55239343269203 Q 463.91061452513964 125.55239343269203 466.5921787709497 124.43657026129276 Q 469.2737430167598 124.43657026129276 471.9553072625698 123.24053360620356 Q 474.63687150837984 123.24053360620356 477.3184357541899 121.98929898807371 Q 480 121.98929898807371 482.68156424581 120.71000237876665 Q 485.36312849162005 120.71000237876665 488.0446927374301 119.43092260058069 Q 490.7262569832402 119.43092260058069 493.4078212290502 118.18045984309124 Q 496.0893854748603 118.18045984309124 498.7709497206704 116.9861126995059 Q 501.4525139664804 116.9861126995059 504.1340782122905 115.8734961408286 Q 506.81564245810057 115.8734961408286 509.4972067039106 114.86544103361791 Q 512.1787709497207 114.86544103361791 514.8603351955308 113.98121224517654 Q 517.5418994413408 113.98121224517654 520.2234636871508 113.23587722428809 Q 522.9050279329608 113.23587722428809 525.586592178771 112.6398504211603 Q 528.268156424581 112.6398504211603 530.949720670391 112.19863130163228 Q 533.6312849162011 112.19863130163228 536.3128491620112 111.91274534965997 Q 538.9944134078212 111.91274534965997 541.6759776536312 111.77788870293867 Q 544.3575418994412 111.77788870293867 547.0391061452514 111.78526831030383 Q 549.7206703910615 111.78526831030383 552.4022346368715 111.92212111739477 Q 555.0837988826815 111.92212111739477 557.7653631284916 112.17238814353308 Q 560.4469273743016 112.17238814353308 563.1284916201117 112.51751273994643 Q 565.8100558659218 112.51751273994643 568.4916201117318 112.93732710247399 Q 571.1731843575419 112.93732710247399 573.8547486033519 113.4109874764376 Q 576.536312849162 113.4109874764376 579.217877094972 113.91791659391694 Q 581.899441340782 113.91791659391694 584.5810055865921 114.4387118046388 Q 587.2625698324023 114.4387118046388 589.9441340782123 114.9559791019445 Q 592.6256983240223 114.9559791019445 595.3072625698323 115.45505672614871 Q 597.9888268156424 115.45505672614871 600.6703910614525 115.92459709427311 Q 603.3519553072625 115.92459709427311 606.0335195530726 116.35698223356383 Q 608.7150837988827 116.35698223356383 611.3966480446927 116.74855540284695 Q 614.0782122905027 116.74855540284695 616.7597765363128 117.09965984005302 Q 619.4413407821228 117.09965984005302 622.1229050279329 117.41448421298864 Q 624.804469273743 117.41448421298864 627.4860335195531 117.70072299381135 Q 630.1675977653631 117.70072299381135 632.8491620111731 117.96906824578623 Q 635.5307262569831 117.96906824578623 638.2122905027933 118.23255684045128 Q 640.8938547486033 118.23255684045128 643.5754189944133 118.50580358346112 Q 646.2569832402235 118.50580358346112 648.9385474860335 118.80415583422523 Q 651.6201117318435 118.80415583422523 654.3016759776536 119.14280873350667 Q 656.9832402234637 119.14280873350667 659.6648044692737 119.5359219490956 Q 662.3463687150838 119.5359219490956 665.0279329608938 119.99577883322118 Q 667.7094972067039 119.99577883322118 670.3910614525139 120.53202705669852 Q 673.0726256983239 120.53202705669852 675.754189944134 121.15103622357447 Q 678.4357541899441 121.15103622357447 681.1173184357541 121.85540283189808 Q 683.7988826815642 121.85540283189808 686.4804469273743 122.64362645604065 Q 689.1620111731843 122.64362645604065 691.8435754189944 123.50997346794227 Q 694.5251396648044 123.50997346794227 697.2067039106145 124.44453631991718 Q 699.8882681564246 124.44453631991718 702.5698324022346 125.43348774381062 Q 705.2513966480446 125.43348774381062 707.9329608938547 126.45952056052623 Q 710.6145251396647 126.45952056052623 713.2960893854748 127.50245552031109 Q 715.9776536312849 127.50245552031109 718.6592178770949 128.53999207106932 Q 721.340782122905 128.53999207106932 724.022346368715 129.54857051014676 Q 726.7039106145251 129.54857051014676 729.3854748603352 130.50430889816167 Q 732.0670391061452 130.50430889816167 734.7486033519552 131.38397462573747 Q 737.4301675977654 131.38397462573747 740.1117318435754 132.16594878026467 Q 742.7932960893854 132.16594878026467 745.4748603351954 132.83114153880732 Q 748.1564245810055 132.83114153880732 750.8379888268156 133.3638187141109 Q 753.5195530726257 133.3638187141109 756.2011173184358 133.7523032229144 Q 758.8826815642458 133.7523032229144 761.5642458100558 133.98952047287776 Q 764.2458100558658 133.98952047287776 766.927374301676 134.0733632505859 Q 769.608938547486 134.0733632505859 772.290502793296 134.00685935301473 Q 774.9720670391062 134.00685935301473 777.6536312849162 133.79813360627807 Q 780.3351955307262 133.79813360627807 783.0167597765362 133.46016469364463 Q 785.6983240223462 133.46016469364463 788.3798882681564 133.01034598835133 Q 791.0614525139665 133.01034598835133 793.7430167597765 132.46986797433357 Q 796.4245810055866 132.46986797433357 799.1061452513966 131.8629474750176 Q 801.7877094972066 131.8629474750176 804.4692737430167 131.215935464762 Q 807.1508379888268 131.215935464762 809.8324022346368 130.55634042447716 Q 812.5139664804469 130.55634042447716 815.195530726257 129.91180779700966 Q 817.877094972067 129.91180779700966 820.558659217877 129.30909794304003 Q 823.240223463687 129.30909794304003 825.9217877094972 128.7731050146696 Q 828.6033519553073 128.7731050146696 831.2849162011173 128.3259573513854 Q 833.9664804469273 128.3259573513854 836.6480446927374 127.98623644117086 Q 839.3296089385474 127.98623644117086 842.0111731843575 127.76834633383507 Q 844.6927374301675 127.76834633383507 847.3743016759776 127.68205886920518 Q 850.0558659217877 127.68205886920518 852.7374301675977 127.73225247425576 Q 855.4189944134077 127.73225247425576 858.1005586592178 127.91885392223408 Q 860.7821229050278 127.91885392223408 863.4636871508379 128.23698369771972 Q 866.1452513966481 128.23698369771972 868.8268156424581 128.67729685536997 Q 871.5083798882681 128.67729685536997 874.1899441340781 129.2265028779813 Q 876.8715083798882 129.2265028779813 879.5530726256983 129.86804039600045 Q 882.2346368715083 129.86804039600045 884.9162011173183 130.58287605783124 Q 887.5977653631285 130.58287605783124 890.2793296089385 131.3503916233293 Q 892.9608938547485 131.3503916233293 895.6424581005587 132.14931971745995 Q 898.3240223463687 132.14931971745995 901.0055865921787 132.95868678368942 Q 903.6871508379888 132.95868678368942 906.3687150837989 133.75872169769096 Q 909.0502793296089 133.75872169769096 911.7318435754189 134.53169024224104 Q 914.4134078212289 134.53169024224104 917.0949720670391 135.26261912507235 Q 919.7765363128491 135.26261912507235 922.4581005586591 135.93987828816185 Q 925.1396648044692 135.93987828816185 927.8212290502793 136.5555966854006 Q 930.5027932960893 136.5555966854006 933.1843575418994 137.10589421228022 Q 935.8659217877095 137.10589421228022 938.5474860335195 137.5909207255512 Q 941.2290502793296 137.5909207255512 943.9106145251396 138.01470172959947 Q 946.5921787709497 138.01470172959947 949.2737430167597 138.38479894971113 Q 951.9553072625697 138.38479894971113 954.6368715083798 138.7118022805603 Q 957.3184357541899 138.7118022805603 959.9999999999999 139.00867712785154 " stroke="url(#grad)" stroke-width="2"
      opacity="0.25" fill="none">
  <animateTransform type="translate" from="0 0" to="-24 0"
                    dur="7s" repeatCount="indefinite"/>
</path>

<path d="M 0 127.606561814258 Q 2.6815642458100557 127.606561814258 5.363128491620111 128.20564517688155 Q 8.044692737430168 128.20564517688155 10.726256983240223 128.9043516363959 Q 13.40782122905028 128.9043516363959 16.089385474860336 129.72924988129375 Q 18.77094972067039 129.72924988129375 21.452513966480446 130.7030100251684 Q 24.1340782122905 130.7030100251684 26.815642458100555 131.8430585924606 Q 29.497206703910614 131.8430585924606 32.17877094972067 133.160445476052 Q 34.86033519553072 133.160445476052 37.54189944134078 134.65897610726313 Q 40.22346368715084 134.65897610726313 42.90502793296089 136.334650639944 Q 45.58659217877094 136.334650639944 48.268156424581 138.17543864252016 Q 50.94972067039106 138.17543864252016 53.63128491620111 140.16140319548308 Q 56.31284916201117 140.16140319548308 58.99441340782123 142.26517304408046 Q 61.675977653631286 142.26517304408046 64.35754189944134 144.45274622301224 Q 67.0391061452514 144.45274622301224 69.72067039106145 146.6845940177469 Q 72.4022346368715 146.6845940177469 75.08379888268156 148.91702089235184 Q 77.76536312849161 148.91702089235184 80.44692737430167 151.10372467607988 Q 83.12849162011173 151.10372467607988 85.81005586592178 153.1974923575245 Q 88.49162011173183 153.1974923575245 91.1731843575419 155.15196067890537 Q 93.85474860335195 155.15196067890537 96.536312849162 156.92336762553433 Q 99.21787709497207 156.92336762553433 101.89944134078212 158.47222100501742 Q 104.58100558659217 158.47222100501742 107.26256983240222 159.76481360617638 Q 109.94413407821227 159.76481360617638 112.62569832402234 160.77452077858638 Q 115.3072625698324 160.77452077858638 117.98882681564245 161.48282540632678 Q 120.6703910614525 161.48282540632678 123.35195530726256 161.8800267690006 Q 126.03351955307262 161.8800267690006 128.7150837988827 161.96560319015538 Q 131.39664804469274 161.96560319015538 134.0782122905028 161.7482130864378 Q 136.75977653631284 161.7482130864378 139.4413407821229 161.24533441167387 Q 142.12290502793294 161.24533441167387 144.804469273743 160.48255787097793 Q 147.48603351955308 160.48255787097793 150.16759776536313 159.49256399336687 Q 152.84916201117318 159.49256399336687 155.53072625698323 158.3138275587111 Q 158.21229050279328 158.3138275587111 160.89385474860333 156.98910439470208 Q 163.57541899441338 156.98910439470208 166.25698324022346 155.56376469270865 Q 168.9385474860335 155.56376469270865 171.62011173184356 154.0840433428979 Q 174.30167597765362 154.0840433428979 176.98324022346367 152.59528108510816 Q 179.66480446927375 152.59528108510816 182.3463687150838 151.1402303722324 Q 185.02793296089385 151.1402303722324 187.7094972067039 149.7574967462061 Q 190.39106145251395 149.7574967462061 193.072625698324 148.48018037135049 Q 195.75418994413405 148.48018037135049 198.43575418994413 147.3347734273637 Q 201.11731843575419 147.3347734273637 203.79888268156424 146.34035772761553 Q 206.4804469273743 146.34035772761553 209.16201117318434 145.5081336947324 Q 211.8435754189944 145.5081336947324 214.52513966480444 144.841297274345 Q 217.20670391061452 144.841297274345 219.88826815642457 144.33526613601097 Q 222.56983240223462 144.33526613601097 225.25139664804468 143.97824126368315 Q 227.93296089385473 143.97824126368315 230.61452513966478 143.75207544280076 Q 233.29608938547483 143.75207544280076 235.9776536312849 143.63340684431589 Q 238.65921787709496 143.63340684431589 241.340782122905 143.59500446812254 Q 244.02234636871506 143.59500446812254 246.7039106145251 143.60726313767984 Q 249.3854748603352 143.60726313767984 252.06703910614524 143.63977942846532 Q 254.7486033519553 143.63977942846532 257.4301675977654 143.66293663849535 Q 260.1117318435754 143.66293663849535 262.7932960893855 143.64942680972348 Q 265.47486033519556 143.64942680972348 268.1564245810056 143.57564088575793 Q 270.8379888268156 143.57564088575793 273.5195530726257 143.42286420598856 Q 276.20111731843576 143.42286420598856 278.8826815642458 143.17822341776963 Q 281.5642458100558 143.17822341776963 284.2458100558659 142.83534214449335 Q 286.92737430167597 142.83534214449335 289.608938547486 142.3946758819507 Q 292.29050279329607 142.3946758819507 294.97206703910615 141.8635110298074 Q 297.6536312849162 141.8635110298074 300.33519553072625 141.25562806390639 Q 303.01675977653633 141.25562806390639 305.69832402234636 140.5906439539343 Q 308.3798882681564 140.5906439539343 311.06145251396646 139.89306336525237 Q 313.74301675977654 139.89306336525237 316.42458100558656 139.19108131797356 Q 319.1061452513966 139.19108131797356 321.78770949720666 138.51519123216738 Q 324.46927374301674 138.51519123216738 327.1508379888268 137.89666116914177 Q 329.8324022346369 137.89666116914177 332.5139664804469 137.36594719280694 Q 335.19553072625695 137.36594719280694 337.877094972067 136.95111585107907 Q 340.5586592178771 136.95111585107907 343.24022346368713 136.67634767708694 Q 345.92178770949715 136.67634767708694 348.60335195530723 136.56059033470567 Q 351.2849162011173 136.56059033470567 353.96648044692733 136.61642372287568 Q 356.64804469273736 136.61642372287568 359.32960893854744 136.84919028152433 Q 362.0111731843575 136.84919028152433 364.6927374301676 137.256432303048 Q 367.3743016759777 137.256432303048 370.0558659217877 137.82766474550007 Q 372.7374301675977 137.82766474550007 375.4189944134078 138.54449744726193 Q 378.1005586592179 138.54449744726193 380.7821229050279 139.3811053952472 Q 383.4636871508379 139.3811053952472 386.145251396648 140.30503046574046 Q 388.8268156424581 140.30503046574046 391.5083798882681 141.2782835047802 Q 394.1899441340782 141.2782835047802 396.87150837988827 142.25870238027196 Q 399.5530726256983 142.25870238027196 402.23463687150837 143.20151030035842 Q 404.91620111731845 143.20151030035842 407.5977653631285 144.06100974913554 Q 410.2793296089385 144.06100974913554 412.9608938547486 144.7923412345399 Q 415.64245810055866 144.7923412345399 418.3240223463687 145.3532329457083 Q 421.0055865921787 145.3532329457083 423.6871508379888 145.70566751659558 Q 426.36871508379886 145.70566751659558 429.0502793296089 145.81739538804752 Q 431.73184357541896 145.81739538804752 434.41340782122904 145.6632306114143 Q 437.09497206703907 145.6632306114143 439.77653631284915 145.2260740694643 Q 442.4581005586592 145.2260740694643 445.13966480446925 144.4976206097911 Q 447.82122905027927 144.4976206097911 450.50279329608935 143.47871999294946 Q 453.18435754189943 143.47871999294946 455.86592178770945 142.17937627072524 Q 458.5474860335195 142.17937627072524 461.22905027932956 140.61838559076637 Q 463.91061452513964 140.61838559076637 466.5921787709497 138.82262780467588 Q 469.2737430167598 138.82262780467588 471.9553072625698 136.82604196999958 Q 474.63687150837984 136.82604196999958 477.3184357541899 134.668329243854 Q 480 134.668329243854 482.68156424581 132.393438185742 Q 485.36312849162005 132.393438185742 488.0446927374301 130.04789662024928 Q 490.7262569832402 130.04789662024928 493.4078212290502 127.67906056176744 Q 496.0893854748603 127.67906056176744 498.7709497206704 125.33335399944947 Q 501.4525139664804 125.33335399944947 504.1340782122905 123.0545734408215 Q 506.81564245810057 123.0545734408215 509.4972067039106 120.88232801575012 Q 512.1787709497207 120.88232801575012 514.8603351955308 118.85067978706873 Q 517.5418994413408 118.85067978706873 520.2234636871508 116.98703997164338 Q 522.9050279329608 116.98703997164338 525.586592178771 115.31136543896255 Q 528.268156424581 115.31136543896255 530.949720670391 113.83568662060054 Q 533.6312849162011 113.83568662060054 536.3128491620112 112.56398341272765 Q 538.9944134078212 112.56398341272765 541.6759776536312 111.49241042190945 Q 544.3575418994412 111.49241042190945 547.0391061452514 110.609857657731 Q 549.7206703910615 110.609857657731 552.4022346368715 109.89881818041638 Q 555.0837988826815 109.89881818041638 557.7653631284916 109.33652090477898 Q 560.4469273743016 109.33652090477898 563.1284916201117 108.89627532392012 Q 565.8100558659218 108.89627532392012 568.4916201117318 108.54896584534467 Q 571.1731843575419 108.54896584534467 573.8547486033519 108.26462712293134 Q 576.536312849162 108.26462712293134 579.217877094972 108.01402849372244 Q 581.899441340782 108.01402849372244 584.5810055865921 107.77019552899269 Q 587.2625698324023 107.77019552899269 589.9441340782123 107.50979978561291 Q 592.6256983240223 107.50979978561291 595.3072625698323 107.21435395829289 Q 597.9888268156424 107.21435395829289 600.6703910614525 106.87115851476672 Q 603.3519553072625 106.87115851476672 606.0335195530726 106.4739571520929 Q 608.7150837988827 106.4739571520929 611.3966480446927 106.02327154672393 Q 614.0782122905027 106.02327154672393 616.7597765363128 105.52640030535149 Q 619.4413407821228 105.52640030535149 622.1229050279329 104.99708212233624 Q 624.804469273743 104.99708212233624 627.4860335195531 104.45483824827886 Q 630.1675977653631 104.45483824827886 632.8491620111731 103.92402380846985 Q 635.5307262569831 103.92402380846985 638.2122905027933 103.43263064415807 Q 640.8938547486033 103.43263064415807 643.5754189944133 103.01089560529792 Q 646.2569832402235 103.01089560529792 648.9385474860335 102.68977710442218 Q 651.6201117318435 102.68977710442218 654.3016759776536 102.49936885526536 Q 656.9832402234637 102.49936885526536 659.6648044692737 102.46732279563508 Q 662.3463687150838 102.46732279563508 665.0279329608938 102.61735309375749 Q 667.7094972067039 102.61735309375749 670.3910614525139 102.96788986200463 Q 673.0726256983239 102.96788986200463 675.754189944134 103.53094489177022 Q 678.4357541899441 103.53094489177022 681.1173184357541 104.31124265154281 Q 683.7988826815642 104.31124265154281 686.4804469273743 105.30565835129097 Q 689.1620111731843 105.30565835129097 691.8435754189944 106.50299156838827 Q 694.5251396648044 106.50299156838827 697.2067039106145 107.8840893338657 Q 699.8882681564246 107.8840893338657 702.5698324022346 109.42231732997892 Q 705.2513966480446 109.42231732997892 707.9329608938547 111.08436261706004 Q 710.6145251396647 111.08436261706004 713.2960893854748 112.83133675536253 Q 715.9776536312849 112.83133675536253 718.6592178770949 114.62013495281495 Q 721.340782122905 114.62013495281495 724.022346368715 116.40499553187745 Q 726.7039106145251 116.40499553187745 729.3854748603352 118.13919506518931 Q 732.0670391061452 118.13919506518931 734.7486033519552 119.77680837337141 Q 737.4301675977654 119.77680837337141 740.1117318435754 121.27445948076144 Q 742.7932960893854 121.27445948076144 745.4748603351954 122.59298972428662 Q 748.1564245810055 122.59298972428662 750.8379888268156 123.69897250603134 Q 753.5195530726257 123.69897250603134 756.2011173184358 124.56601053089075 Q 758.8826815642458 124.56601053089075 761.5642458100558 125.17576050332386 Q 764.2458100558658 125.17576050332386 766.927374301676 125.51864177660015 Q 769.608938547486 125.51864177660015 772.290502793296 125.5941988549286 Q 774.9720670391062 125.5941988549286 777.6536312849162 125.41110236198188 Q 780.3351955307262 125.41110236198188 783.0167597765362 124.98678847010372 Q 785.6983240223462 124.98678847010372 788.3798882681564 124.3467521653225 Q 791.0614525139665 124.3467521653225 793.7430167597765 123.52352443658435 Q 796.4245810055866 123.52352443658435 799.1061452513966 122.55537688489564 Q 801.7877094972066 122.55537688489564 804.4692737430167 121.48480876783262 Q 807.1508379888268 121.48480876783262 809.8324022346368 120.35688062798906 Q 812.5139664804469 120.35688062798906 815.195530726257 119.2174650053563 Q 817.877094972067 119.2174650053563 820.558659217877 118.11148802966417 Q 823.240223463687 118.11148802966417 825.9217877094972 117.08123578890296 Q 828.6033519553073 117.08123578890296 831.2849162011173 116.16479627350506 Q 833.9664804469273 116.16479627350506 836.6480446927374 115.39470154024502 Q 839.3296089385474 115.39470154024502 842.0111731843575 114.79682579738217 Q 844.6927374301675 114.79682579738217 847.3743016759776 114.38958377585848 Q 850.0558659217877 114.38958377585848 852.7374301675977 114.18346051762063 Q 855.4189944134077 114.18346051762063 858.1005586592178 114.18088916094877 Q 860.7821229050278 114.18088916094877 863.4636871508379 114.37647807074265 Q 866.1452513966481 114.37647807074265 868.8268156424581 114.75757341500274 Q 871.5083798882681 114.75757341500274 874.1899441340781 115.30512869338307 Q 876.8715083798882 115.30512869338307 879.5530726256983 115.99483941685887 Q 882.2346368715083 115.99483941685887 884.9162011173183 116.79848969964151 Q 887.5977653631285 116.79848969964151 890.2793296089385 117.68544845373363 Q 892.9608938547485 117.68544845373363 895.6424581005587 118.6242465672968 Q 898.3240223463687 118.6242465672968 901.0055865921787 119.58416317354845 Q 903.6871508379888 119.58416317354845 906.3687150837989 120.53674901741455 Q 909.0502793296089 120.53674901741455 911.7318435754189 121.4572180037417 Q 914.4134078212289 121.4572180037417 917.0949720670391 122.325644125465 Q 919.7765363128491 122.325644125465 922.4581005586591 123.12790985162924 Q 925.1396648044692 123.12790985162924 927.8212290502793 123.85636331130236 Q 930.5027932960893 123.85636331130236 933.1843575418994 124.51015474392983 Q 935.8659217877095 124.51015474392983 938.5474860335195 125.09523712106405 Q 941.2290502793296 125.09523712106405 943.9106145251396 125.62403094324375 Q 946.5921787709497 125.62403094324375 949.2737430167597 126.11476831458091 Q 951.9553072625697 126.11476831458091 954.6368715083798 126.59054583183715 Q 957.3184357541899 126.59054583183715 959.9999999999999 127.0781289590152 " stroke="url(#grad)" stroke-width="3"
      opacity="0.45" fill="none">
  <animateTransform type="translate" from="0 0" to="-14 0"
                    dur="4.5s" repeatCount="indefinite"/>
</path>

<g filter="url(#glow)">
  <path d="M 0 98.91105388423591 Q 2.6815642458100557 98.91105388423591 5.363128491620111 95.85395241122215 Q 8.044692737430168 95.85395241122215 10.726256983240223 92.98109840044319 Q 13.40782122905028 92.98109840044319 16.089385474860336 90.35692136358097 Q 18.77094972067039 90.35692136358097 21.452513966480446 88.0399218954872 Q 24.1340782122905 88.0399218954872 26.815642458100555 86.08048304904055 Q 29.497206703910614 86.08048304904055 32.17877094972067 84.5189908950594 Q 34.86033519553072 84.5189908950594 37.54189944134078 83.38434316020792 Q 40.22346368715084 83.38434316020792 42.90502793296089 82.6929083943914 Q 45.58659217877094 82.6929083943914 48.268156424581 82.44797897782587 Q 50.94972067039106 82.44797897782587 53.63128491620111 82.63974026735801 Q 56.31284916201117 82.63974026735801 58.99441340782123 83.24575621371706 Q 61.675977653631286 83.24575621371706 64.35754189944134 84.2319498098597 Q 67.0391061452514 84.2319498098597 69.72067039106145 85.55403570912102 Q 72.4022346368715 85.55403570912102 75.08379888268156 87.15934319264079 Q 77.76536312849161 87.15934319264079 80.44692737430167 88.98895119926175 Q 83.12849162011173 88.98895119926175 85.81005586592178 90.98004407096545 Q 88.49162011173183 90.98004407096545 91.1731843575419 93.06838757739565 Q 93.85474860335195 93.06838757739565 96.536312849162 95.19082005529592 Q 99.21787709497207 95.19082005529592 101.89944134078212 97.28765333360599 Q 104.58100558659217 97.28765333360599 107.26256983240222 99.30488251433052 Q 109.94413407821227 99.30488251433052 112.62569832402234 101.1961124458579 Q 115.3072625698324 101.1961124458579 117.98882681564245 102.92412147152857 Q 120.6703910614525 102.92412147152857 123.35195530726256 104.46199920089559 Q 126.03351955307262 104.46199920089559 128.7150837988827 105.79381392441967 Q 131.39664804469274 105.79381392441967 134.0782122905028 106.91478604665753 Q 136.75977653631284 106.91478604665753 139.4413407821229 107.83096563913602 Q 142.12290502793294 107.83096563913602 144.804469273743 108.55843396103761 Q 147.48603351955308 108.55843396103761 150.16759776536313 109.12206961231942 Q 152.84916201117318 109.12206961231942 155.53072625698323 109.55393896006044 Q 158.21229050279328 109.55393896006044 160.89385474860333 109.8913867859157 Q 163.57541899441338 109.8913867859157 166.25698324022346 110.17491602912708 Q 168.9385474860335 110.17491602912708 171.62011173184356 110.44595448258318 Q 174.30167597765362 110.44595448258318 176.98324022346367 110.74461094892719 Q 179.66480446927375 110.74461094892719 182.3463687150838 111.10752347968503 Q 185.02793296089385 111.10752347968503 187.7094972067039 111.56589790155726 Q 190.39106145251395 111.56589790155726 193.072625698324 112.14382607785065 Q 195.75418994413405 112.14382607785065 198.43575418994413 112.85696064704594 Q 201.11731843575419 112.85696064704594 203.79888268156424 113.7116068852985 Q 206.4804469273743 113.7116068852985 209.16201117318434 114.70427356435388 Q 211.8435754189944 114.70427356435388 214.52513966480444 115.82170404749381 Q 217.20670391061452 115.82170404749381 219.88826815642457 117.04138729153503 Q 222.56983240223462 117.04138729153503 225.25139664804468 118.33252685193968 Q 227.93296089385473 118.33252685193968 230.61452513966478 119.65742537006764 Q 233.29608938547483 119.65742537006764 235.9776536312849 120.97322326422177 Q 238.65921787709496 120.97322326422177 241.340782122905 122.23391427577096 Q 244.02234636871506 122.23391427577096 246.7039106145251 123.3925478471145 Q 249.3854748603352 123.3925478471145 252.06703910614524 124.40351958982635 Q 254.7486033519553 124.40351958982635 257.4301675977654 125.2248467260973 Q 260.1117318435754 125.2248467260973 262.7932960893855 125.82032555156769 Q 265.47486033519556 125.82032555156769 268.1564245810056 126.16147267100321 Q 270.8379888268156 126.16147267100321 273.5195530726257 126.22916079942868 Q 276.20111731843576 126.22916079942868 278.8826815642458 126.01487290965133 Q 281.5642458100558 126.01487290965133 284.2458100558659 125.5215148788874 Q 286.92737430167597 125.5215148788874 289.608938547486 124.7637458303194 Q 292.29050279329607 124.7637458303194 294.97206703910615 123.76780625035802 Q 297.6536312849162 123.76780625035802 300.33519553072625 122.57084577852797 Q 303.01675977653633 122.57084577852797 305.69832402234636 121.21977436224236 Q 308.3798882681564 121.21977436224236 311.06145251396646 119.76968129150592 Q 313.74301675977654 119.76968129150592 316.42458100558656 118.2818855688385 Q 319.1061452513966 118.2818855688385 321.78770949720666 116.82169729906735 Q 324.46927374301674 116.82169729906735 327.1508379888268 115.45598259152622 Q 329.8324022346369 115.45598259152622 332.5139664804469 114.25063329190645 Q 335.19553072625695 114.25063329190645 337.877094972067 113.26804731425885 Q 340.5586592178771 113.26804731425885 343.24022346368713 112.56472522759722 Q 345.92178770949715 112.56472522759722 348.60335195530723 112.18908406747889 Q 351.2849162011173 112.18908406747889 353.96648044692733 112.17958029120678 Q 356.64804469273736 112.17958029120678 359.32960893854744 112.56322076667227 Q 362.0111731843575 112.56322076667227 364.6927374301676 113.35452424347079 Q 367.3743016759777 113.35452424347079 370.0558659217877 114.55497661366809 Q 372.7374301675977 114.55497661366809 375.4189944134078 116.15300225904757 Q 378.1005586592179 116.15300225904757 380.7821229050279 118.12445181383937 Q 383.4636871508379 118.12445181383937 386.145251396648 120.43358470047723 Q 388.8268156424581 120.43358470047723 391.5083798882681 123.03450377455391 Q 394.1899441340782 123.03450377455391 396.87150837988827 125.87298025597482 Q 399.5530726256983 125.87298025597482 402.23463687150837 128.8885906571139 Q 404.91620111731845 128.8885906571139 407.5977653631285 132.0170743587246 Q 410.2793296089385 132.0170743587246 412.9608938547486 135.1928113949261 Q 415.64245810055866 135.1928113949261 418.3240223463687 138.3513152809461 Q 421.0055865921787 138.3513152809461 423.6871508379888 141.43163555230802 Q 426.36871508379886 141.43163555230802 429.0502793296089 144.37856908361013 Q 431.73184357541896 144.37856908361013 434.41340782122904 147.1445880216996 Q 437.09497206703907 147.1445880216996 439.77653631284915 149.69140491426327 Q 442.4581005586592 149.69140491426327 445.13966480446925 151.99111177959605 Q 447.82122905027927 151.99111177959605 450.50279329608935 154.0268487367073 Q 453.18435754189943 154.0268487367073 455.86592178770945 155.792978569343 Q 458.5474860335195 155.792978569343 461.22905027932956 157.29476532373886 Q 463.91061452513964 157.29476532373886 466.5921787709497 158.5475767869563 Q 469.2737430167598 158.5475767869563 471.9553072625698 159.57565150925782 Q 474.63687150837984 159.57565150925782 477.3184357541899 160.4104900102556 Q 480 160.4104900102556 482.68156424581 161.0889461157641 Q 485.36312849162005 161.0889461157641 488.0446927374301 161.65110729896475 Q 490.7262569832402 161.65110729896475 493.4078212290502 162.1380618826472 Q 496.0893854748603 162.1380618826472 498.7709497206704 162.58965560890937 Q 501.4525139664804 162.58965560890937 504.1340782122905 163.04234019878407 Q 506.81564245810057 163.04234019878407 509.4972067039106 163.5272121055462 Q 512.1787709497207 163.5272121055462 514.8603351955308 164.06833090939875 Q 517.5418994413408 164.06833090939875 520.2234636871508 164.6813940953728 Q 522.9050279329608 164.6813940953728 525.586592178771 165.3728288611893 Q 528.268156424581 165.3728288611893 530.949720670391 166.1393428266323 Q 533.6312849162011 166.1393428266323 536.3128491620112 166.96795488722873 Q 538.9944134078212 166.96795488722873 541.6759776536312 167.8365058805542 Q 544.3575418994412 167.8365058805542 547.0391061452514 168.71462716263062 Q 549.7206703910615 168.71462716263062 552.4022346368715 169.56512457396937 Q 555.0837988826815 169.56512457396937 557.7653631284916 170.3457165175461 Q 560.4469273743016 170.3457165175461 563.1284916201117 171.01104880073825 Q 565.8100558659218 171.01104880073825 568.4916201117318 171.51489621884767 Q 571.1731843575419 171.51489621884767 573.8547486033519 171.81245213951394 Q 576.536312849162 171.81245213951394 579.217877094972 171.86260297221375 Q 581.899441340782 171.86260297221375 584.5810055865921 171.63008457212277 Q 587.2625698324023 171.63008457212277 589.9441340782123 171.08742233108273 Q 592.6256983240223 171.08742233108273 595.3072625698323 170.21656574968392 Q 597.9888268156424 170.21656574968392 600.6703910614525 169.0101412728907 Q 603.3519553072625 169.0101412728907 606.0335195530726 167.4722635435237 Q 608.7150837988827 167.4722635435237 611.3966480446927 165.6188642711222 Q 614.0782122905027 165.6188642711222 616.7597765363128 163.47751879875574 Q 619.4413407821228 163.47751879875574 622.1229050279329 161.0867722665927 Q 624.804469273743 161.0867722665927 627.4860335195531 158.49498906647207 Q 630.1675977653631 158.49498906647207 632.8491620111731 155.7587701045902 Q 635.5307262569831 155.7587701045902 638.2122905027933 152.9410013297527 Q 640.8938547486033 152.9410013297527 643.5754189944133 150.10861321408433 Q 646.2569832402235 150.10861321408433 648.9385474860335 147.3301436810598 Q 651.6201117318435 147.3301436810598 654.3016759776536 144.67320580050725 Q 656.9832402234637 144.67320580050725 659.6648044692737 142.2019660235631 Q 662.3463687150838 142.2019660235631 665.0279329608938 139.97473861458627 Q 667.7094972067039 139.97473861458627 670.3910614525139 138.0417972530295 Q 673.0726256983239 138.0417972530295 675.754189944134 136.44349572660752 Q 678.4357541899441 136.44349572660752 681.1173184357541 135.20877660853478 Q 683.7988826815642 135.20877660853478 686.4804469273743 134.35413037028223 Q 689.1620111731843 134.35413037028223 691.8435754189944 133.88304824010427 Q 694.5251396648044 133.88304824010427 697.2067039106145 133.7859911070929 Q 699.8882681564246 133.7859911070929 702.5698324022346 134.04087480273623 Q 705.2513966480446 134.04087480273623 707.9329608938547 134.61405012055064 Q 710.6145251396647 134.61405012055064 713.2960893854748 135.46173491302278 Q 715.9776536312849 135.46173491302278 718.6592178770949 136.53183644596513 Q 721.340782122905 136.53183644596513 724.022346368715 137.76608572422901 Q 726.7039106145251 137.76608572422901 729.3854748603352 139.10239244269857 Q 732.0670391061452 139.10239244269857 734.7486033519552 140.47732012708323 Q 737.4301675977654 140.47732012708323 740.1117318435754 141.8285763014124 Q 742.7932960893854 141.8285763014124 745.4748603351954 143.09741235416104 Q 748.1564245810055 143.09741235416104 750.8379888268156 144.23083217441004 Q 753.5195530726257 144.23083217441004 756.2011173184358 145.1835173961132 Q 758.8826815642458 145.1835173961132 761.5642458100558 145.91938983476794 Q 764.2458100558658 145.91938983476794 766.927374301676 146.41274786553188 Q 769.608938547486 146.41274786553188 772.290502793296 146.64893236522244 Q 774.9720670391062 146.64893236522244 777.6536312849162 146.62449859505523 Q 780.3351955307262 146.62449859505523 783.0167597765362 146.34689212720076 Q 785.6983240223462 146.34689212720076 788.3798882681564 145.83364866526733 Q 791.0614525139665 145.83364866526733 793.7430167597765 145.1111584254037 Q 796.4245810055866 145.1111584254037 799.1061452513966 144.2130547209746 Q 801.7877094972066 144.2130547209746 804.4692737430167 143.17830270093265 Q 807.1508379888268 143.17830270093265 809.8324022346368 142.04907711866068 Q 812.5139664804469 142.04907711866068 815.195530726257 140.86852699118396 Q 817.877094972067 140.86852699118396 820.558659217877 139.67852965823147 Q 823.240223463687 139.67852965823147 825.9217877094972 138.51753686667408 Q 828.6033519553073 138.51753686667408 831.2849162011173 137.41861108710785 Q 833.9664804469273 137.41861108710785 836.6480446927374 136.40774151325138 Q 839.3296089385474 136.40774151325138 842.0111731843575 135.50251648890844 Q 844.6927374301675 135.50251648890844 847.3743016759776 134.71121301210994 Q 850.0558659217877 134.71121301210994 852.7374301675977 134.0323451907901 Q 855.4189944134077 134.0323451907901 858.1005586592178 133.45469289553915 Q 860.7821229050278 133.45469289553915 863.4636871508379 132.9578102804319 Q 866.1452513966481 132.9578102804319 868.8268156424581 132.5129922720131 Q 871.5083798882681 132.5129922720131 874.1899441340781 132.08465650853648 Q 876.8715083798882 132.08465650853648 879.5530726256983 131.63207945421206 Q 882.2346368715083 131.63207945421206 884.9162011173183 131.1114093428861 Q 887.5977653631285 131.1114093428861 890.2793296089385 130.4778659310885 Q 892.9608938547485 130.4778659310885 895.6424581005587 129.6880283219835 Q 898.3240223463687 129.6880283219835 901.0055865921787 128.70210774656357 Q 903.6871508379888 128.70210774656357 906.3687150837989 127.4861023534207 Q 909.0502793296089 127.4861023534207 911.7318435754189 126.01373576180315 Q 914.4134078212289 126.01373576180315 917.0949720670391 124.26809017384222 Q 919.7765363128491 124.26809017384222 922.4581005586591 122.242857830156 Q 925.1396648044692 122.242857830156 927.8212290502793 119.94315096482323 Q 930.5027932960893 119.94315096482323 933.1843575418994 117.38582945883456 Q 935.8659217877095 117.38582945883456 938.5474860335195 114.59932627607026 Q 941.2290502793296 114.59932627607026 943.9106145251396 111.62297258198996 Q 946.5921787709497 111.62297258198996 949.2737430167597 108.50584624055341 Q 951.9553072625697 108.50584624055341 954.6368715083798 105.30518820765182 Q 957.3184357541899 105.30518820765182 959.9999999999999 102.08445027955756 " stroke="url(#grad)" stroke-width="4"
        fill="none">
    <animateTransform type="translate" from="0 0" to="-7 0"
                      dur="2.6s" repeatCount="indefinite"/>
  </path>
</g>

<!-- BRANDING -->
<text x="50%" y="48%"
      text-anchor="middle"
      font-size="28"
      letter-spacing="4"
      fill="#ffffff"
      opacity="0.85"
      style="font-family: monospace"
      filter="url(#glow)">
  LORDZEFAN
  <animateTransform
    type="scale"
    from="1"
    to="1.04"
    dur="0.5454545454545454s"
    repeatCount="indefinite"
    additive="sum"/>
</text>

</svg>