<svg viewBox="0 0 900 220" xmlns="http://www.w3.org/2000/svg">

  <defs>
    <!-- Cyberpunk Gradient -->
    <linearGradient id="cyberGradient" x1="0" y1="0" x2="1" y2="0">
      <stop offset="0%" stop-color="#ff2fdc"/>
      <stop offset="45%" stop-color="#9b5cff"/>
      <stop offset="75%" stop-color="#00f5ff"/>
      <stop offset="100%" stop-color="#00f5ff"/>
    </linearGradient>

    <!-- Neon Glow -->
    <filter id="neonGlow">
      <feGaussianBlur stdDeviation="4" result="blur"/>
      <feMerge>
        <feMergeNode in="blur"/>
        <feMergeNode in="SourceGraphic"/>
      </feMerge>
    </filter>

    <!-- Beat Pulse -->
    <animateTransform id="pulse"
      attributeName="transform"
      type="scale"
      from="1"
      to="1.03"
      dur="0.5s"
      repeatCount="indefinite"
      additive="sum" />
  </defs>

  <!-- Background -->
  <rect width="100%" height="100%" fill="#05010d"/>

  <!-- Equalizer -->
  <g filter="url(#neonGlow)">
    
      <rect x="0"
            y="183.25635410809943"
            width="15.75"
            height="36.74364589190056"
            fill="url(#cyberGradient)"
            opacity="0.55">
        <animate attributeName="height"
                 dur="0.5s"
                 repeatCount="indefinite"
                 values="36.74364589190056;51.81808227909139;36.74364589190056" />
        <animate attributeName="y"
                 dur="0.5s"
                 repeatCount="indefinite"
                 values="183.25635410809943;168.18191772090861;183.25635410809943" />
      </rect>
    
      <rect x="18.75"
            y="192.6316365668365"
            width="15.75"
            height="27.368363433163484"
            fill="url(#cyberGradient)"
            opacity="0.55">
        <animate attributeName="height"
                 dur="0.5s"
                 repeatCount="indefinite"
                 values="27.368363433163484;48.630406035115854;27.368363433163484" />
        <animate attributeName="y"
                 dur="0.5s"
                 repeatCount="indefinite"
                 values="192.6316365668365;171.36959396488413;192.6316365668365" />
      </rect>
    
      <rect x="37.5"
            y="187.28345161953467"
            width="15.75"
            height="32.716548380465326"
            fill="url(#cyberGradient)"
            opacity="0.55">
        <animate attributeName="height"
                 dur="0.5s"
                 repeatCount="indefinite"
                 values="32.716548380465326;23.904183118314055;32.716548380465326" />
        <animate attributeName="y"
                 dur="0.5s"
                 repeatCount="indefinite"
                 values="187.28345161953467;196.09581688168595;187.28345161953467" />
      </rect>
    
      <rect x="56.25"
            y="187.5779170194858"
            width="15.75"
            height="32.42208298051421"
            fill="url(#cyberGradient)"
            opacity="0.55">
        <animate attributeName="height"
                 dur="0.5s"
                 repeatCount="indefinite"
                 values="32.42208298051421;25.61155459884281;32.42208298051421" />
        <animate attributeName="y"
                 dur="0.5s"
                 repeatCount="indefinite"
                 values="187.5779170194858;194.38844540115718;187.5779170194858" />
      </rect>
    
      <rect x="75"
            y="152.60124748193522"
            width="15.75"
            height="67.39875251806477"
            fill="url(#cyberGradient)"
            opacity="0.55">
        <animate attributeName="height"
                 dur="0.5s"
                 repeatCount="indefinite"
                 values="67.39875251806477;23.860376860281022;67.39875251806477" />
        <animate attributeName="y"
                 dur="0.5s"
                 repeatCount="indefinite"
                 values="152.60124748193522;196.139623139719;152.60124748193522" />
      </rect>
    
      <rect x="93.75"
            y="196.79753653912454"
            width="15.75"
            height="23.20246346087547"
            fill="url(#cyberGradient)"
            opacity="0.55">
        <animate attributeName="height"
                 dur="0.5s"
                 repeatCount="indefinite"
                 values="23.20246346087547;55.738622108775;23.20246346087547" />
        <animate attributeName="y"
                 dur="0.5s"
                 repeatCount="indefinite"
                 values="196.79753653912454;164.261377891225;196.79753653912454" />
      </rect>
    
      <rect x="112.5"
            y="165.54589490878823"
            width="15.75"
            height="54.45410509121176"
            fill="url(#cyberGradient)"
            opacity="0.55">
        <animate attributeName="height"
                 dur="0.5s"
                 repeatCount="indefinite"
                 values="54.45410509121176;30.22993179542347;54.45410509121176" />
        <animate attributeName="y"
                 dur="0.5s"
                 repeatCount="indefinite"
                 values="165.54589490878823;189.77006820457652;165.54589490878823" />
      </rect>
    
      <rect x="131.25"
            y="170.63921137116427"
            width="15.75"
            height="49.360788628835735"
            fill="url(#cyberGradient)"
            opacity="0.55">
        <animate attributeName="height"
                 dur="0.5s"
                 repeatCount="indefinite"
                 values="49.360788628835735;78.82392410487596;49.360788628835735" />
        <animate attributeName="y"
                 dur="0.5s"
                 repeatCount="indefinite"
                 values="170.63921137116427;141.17607589512403;170.63921137116427" />
      </rect>
    
      <rect x="150"
            y="140.68524017899887"
            width="15.75"
            height="79.31475982100113"
            fill="url(#cyberGradient)"
            opacity="0.55">
        <animate attributeName="height"
                 dur="0.5s"
                 repeatCount="indefinite"
                 values="79.31475982100113;45.6802946275289;79.31475982100113" />
        <animate attributeName="y"
                 dur="0.5s"
                 repeatCount="indefinite"
                 values="140.68524017899887;174.3197053724711;140.68524017899887" />
      </rect>
    
      <rect x="168.75"
            y="153.8371420152148"
            width="15.75"
            height="66.1628579847852"
            fill="url(#cyberGradient)"
            opacity="0.55">
        <animate attributeName="height"
                 dur="0.5s"
                 repeatCount="indefinite"
                 values="66.1628579847852;39.7298144536758;66.1628579847852" />
        <animate attributeName="y"
                 dur="0.5s"
                 repeatCount="indefinite"
                 values="153.8371420152148;180.2701855463242;153.8371420152148" />
      </rect>
    
      <rect x="187.5"
            y="141.18609847062316"
            width="15.75"
            height="78.81390152937682"
            fill="url(#cyberGradient)"
            opacity="0.55">
        <animate attributeName="height"
                 dur="0.5s"
                 repeatCount="indefinite"
                 values="78.81390152937682;46.044090439209796;78.81390152937682" />
        <animate attributeName="y"
                 dur="0.5s"
                 repeatCount="indefinite"
                 values="141.18609847062316;173.9559095607902;141.18609847062316" />
      </rect>
    
      <rect x="206.25"
            y="184.55799463984843"
            width="15.75"
            height="35.44200536015157"
            fill="url(#cyberGradient)"
            opacity="0.55">
        <animate attributeName="height"
                 dur="0.5s"
                 repeatCount="indefinite"
                 values="35.44200536015157;35.456743959130506;35.44200536015157" />
        <animate attributeName="y"
                 dur="0.5s"
                 repeatCount="indefinite"
                 values="184.55799463984843;184.5432560408695;184.55799463984843" />
      </rect>
    
      <rect x="225"
            y="165.5284315995171"
            width="15.75"
            height="54.471568400482916"
            fill="url(#cyberGradient)"
            opacity="0.55">
        <animate attributeName="height"
                 dur="0.5s"
                 repeatCount="indefinite"
                 values="54.471568400482916;68.39215835434966;54.471568400482916" />
        <animate attributeName="y"
                 dur="0.5s"
                 repeatCount="indefinite"
                 values="165.5284315995171;151.60784164565035;165.5284315995171" />
      </rect>
    
      <rect x="243.75"
            y="141.08406556216033"
            width="15.75"
            height="78.91593443783967"
            fill="url(#cyberGradient)"
            opacity="0.55">
        <animate attributeName="height"
                 dur="0.5s"
                 repeatCount="indefinite"
                 values="78.91593443783967;46.5302104898123;78.91593443783967" />
        <animate attributeName="y"
                 dur="0.5s"
                 repeatCount="indefinite"
                 values="141.08406556216033;173.4697895101877;141.08406556216033" />
      </rect>
    
      <rect x="262.5"
            y="144.4345683750759"
            width="15.75"
            height="75.56543162492409"
            fill="url(#cyberGradient)"
            opacity="0.55">
        <animate attributeName="height"
                 dur="0.5s"
                 repeatCount="indefinite"
                 values="75.56543162492409;53.217356697005705;75.56543162492409" />
        <animate attributeName="y"
                 dur="0.5s"
                 repeatCount="indefinite"
                 values="144.4345683750759;166.7826433029943;144.4345683750759" />
      </rect>
    
      <rect x="281.25"
            y="183.10901289581602"
            width="15.75"
            height="36.89098710418397"
            fill="url(#cyberGradient)"
            opacity="0.55">
        <animate attributeName="height"
                 dur="0.5s"
                 repeatCount="indefinite"
                 values="36.89098710418397;20.611320338860203;36.89098710418397" />
        <animate attributeName="y"
                 dur="0.5s"
                 repeatCount="indefinite"
                 values="183.10901289581602;199.3886796611398;183.10901289581602" />
      </rect>
    
      <rect x="300"
            y="185.18943934512276"
            width="15.75"
            height="34.81056065487725"
            fill="url(#cyberGradient)"
            opacity="0.55">
        <animate attributeName="height"
                 dur="0.5s"
                 repeatCount="indefinite"
                 values="34.81056065487725;78.52312397478167;34.81056065487725" />
        <animate attributeName="y"
                 dur="0.5s"
                 repeatCount="indefinite"
                 values="185.18943934512276;141.47687602521833;185.18943934512276" />
      </rect>
    
      <rect x="318.75"
            y="152.00380058140155"
            width="15.75"
            height="67.99619941859847"
            fill="url(#cyberGradient)"
            opacity="0.55">
        <animate attributeName="height"
                 dur="0.5s"
                 repeatCount="indefinite"
                 values="67.99619941859847;55.24421670762748;67.99619941859847" />
        <animate attributeName="y"
                 dur="0.5s"
                 repeatCount="indefinite"
                 values="152.00380058140155;164.7557832923725;152.00380058140155" />
      </rect>
    
      <rect x="337.5"
            y="177.57171139777392"
            width="15.75"
            height="42.42828860222609"
            fill="url(#cyberGradient)"
            opacity="0.55">
        <animate attributeName="height"
                 dur="0.5s"
                 repeatCount="indefinite"
                 values="42.42828860222609;53.42454632657047;42.42828860222609" />
        <animate attributeName="y"
                 dur="0.5s"
                 repeatCount="indefinite"
                 values="177.57171139777392;166.57545367342954;177.57171139777392" />
      </rect>
    
      <rect x="356.25"
            y="185.34930274772142"
            width="15.75"
            height="34.65069725227859"
            fill="url(#cyberGradient)"
            opacity="0.55">
        <animate attributeName="height"
                 dur="0.5s"
                 repeatCount="indefinite"
                 values="34.65069725227859;30.071827924952732;34.65069725227859" />
        <animate attributeName="y"
                 dur="0.5s"
                 repeatCount="indefinite"
                 values="185.34930274772142;189.92817207504726;185.34930274772142" />
      </rect>
    
      <rect x="375"
            y="140.19504366483415"
            width="15.75"
            height="79.80495633516584"
            fill="url(#cyberGradient)"
            opacity="0.55">
        <animate attributeName="height"
                 dur="0.5s"
                 repeatCount="indefinite"
                 values="79.80495633516584;52.159903260692545;79.80495633516584" />
        <animate attributeName="y"
                 dur="0.5s"
                 repeatCount="indefinite"
                 values="140.19504366483415;167.84009673930746;140.19504366483415" />
      </rect>
    
      <rect x="393.75"
            y="146.4011985805172"
            width="15.75"
            height="73.59880141948283"
            fill="url(#cyberGradient)"
            opacity="0.55">
        <animate attributeName="height"
                 dur="0.5s"
                 repeatCount="indefinite"
                 values="73.59880141948283;26.707685769550906;73.59880141948283" />
        <animate attributeName="y"
                 dur="0.5s"
                 repeatCount="indefinite"
                 values="146.4011985805172;193.2923142304491;146.4011985805172" />
      </rect>
    
      <rect x="412.5"
            y="152.82809596277232"
            width="15.75"
            height="67.17190403722768"
            fill="url(#cyberGradient)"
            opacity="0.55">
        <animate attributeName="height"
                 dur="0.5s"
                 repeatCount="indefinite"
                 values="67.17190403722768;70.91302669259574;67.17190403722768" />
        <animate attributeName="y"
                 dur="0.5s"
                 repeatCount="indefinite"
                 values="152.82809596277232;149.08697330740426;152.82809596277232" />
      </rect>
    
      <rect x="431.25"
            y="186.98445446891063"
            width="15.75"
            height="33.01554553108938"
            fill="url(#cyberGradient)"
            opacity="0.55">
        <animate attributeName="height"
                 dur="0.5s"
                 repeatCount="indefinite"
                 values="33.01554553108938;29.11621176664535;33.01554553108938" />
        <animate attributeName="y"
                 dur="0.5s"
                 repeatCount="indefinite"
                 values="186.98445446891063;190.88378823335466;186.98445446891063" />
      </rect>
    
      <rect x="450"
            y="161.98755001853954"
            width="15.75"
            height="58.01244998146046"
            fill="url(#cyberGradient)"
            opacity="0.55">
        <animate attributeName="height"
                 dur="0.5s"
                 repeatCount="indefinite"
                 values="58.01244998146046;41.52923968806434;58.01244998146046" />
        <animate attributeName="y"
                 dur="0.5s"
                 repeatCount="indefinite"
                 values="161.98755001853954;178.47076031193566;161.98755001853954" />
      </rect>
    
      <rect x="468.75"
            y="180.01836055775098"
            width="15.75"
            height="39.98163944224902"
            fill="url(#cyberGradient)"
            opacity="0.55">
        <animate attributeName="height"
                 dur="0.5s"
                 repeatCount="indefinite"
                 values="39.98163944224902;49.395755193136495;39.98163944224902" />
        <animate attributeName="y"
                 dur="0.5s"
                 repeatCount="indefinite"
                 values="180.01836055775098;170.6042448068635;180.01836055775098" />
      </rect>
    
      <rect x="487.5"
            y="197.76909495711922"
            width="15.75"
            height="22.230905042880778"
            fill="url(#cyberGradient)"
            opacity="0.55">
        <animate attributeName="height"
                 dur="0.5s"
                 repeatCount="indefinite"
                 values="22.230905042880778;79.15874862595746;22.230905042880778" />
        <animate attributeName="y"
                 dur="0.5s"
                 repeatCount="indefinite"
                 values="197.76909495711922;140.84125137404254;197.76909495711922" />
      </rect>
    
      <rect x="506.25"
            y="183.59449609908995"
            width="15.75"
            height="36.40550390091006"
            fill="url(#cyberGradient)"
            opacity="0.55">
        <animate attributeName="height"
                 dur="0.5s"
                 repeatCount="indefinite"
                 values="36.40550390091006;74.40974225387892;36.40550390091006" />
        <animate attributeName="y"
                 dur="0.5s"
                 repeatCount="indefinite"
                 values="183.59449609908995;145.5902577461211;183.59449609908995" />
      </rect>
    
      <rect x="525"
            y="142.36310950884376"
            width="15.75"
            height="77.63689049115625"
            fill="url(#cyberGradient)"
            opacity="0.55">
        <animate attributeName="height"
                 dur="0.5s"
                 repeatCount="indefinite"
                 values="77.63689049115625;33.53972774128259;77.63689049115625" />
        <animate attributeName="y"
                 dur="0.5s"
                 repeatCount="indefinite"
                 values="142.36310950884376;186.4602722587174;142.36310950884376" />
      </rect>
    
      <rect x="543.75"
            y="144.19249915893317"
            width="15.75"
            height="75.80750084106681"
            fill="url(#cyberGradient)"
            opacity="0.55">
        <animate attributeName="height"
                 dur="0.5s"
                 repeatCount="indefinite"
                 values="75.80750084106681;53.986594272391805;75.80750084106681" />
        <animate attributeName="y"
                 dur="0.5s"
                 repeatCount="indefinite"
                 values="144.19249915893317;166.0134057276082;144.19249915893317" />
      </rect>
    
      <rect x="562.5"
            y="161.80528020746172"
            width="15.75"
            height="58.19471979253827"
            fill="url(#cyberGradient)"
            opacity="0.55">
        <animate attributeName="height"
                 dur="0.5s"
                 repeatCount="indefinite"
                 values="58.19471979253827;32.212667213719634;58.19471979253827" />
        <animate attributeName="y"
                 dur="0.5s"
                 repeatCount="indefinite"
                 values="161.80528020746172;187.78733278628036;161.80528020746172" />
      </rect>
    
      <rect x="581.25"
            y="188.8722320294869"
            width="15.75"
            height="31.127767970513098"
            fill="url(#cyberGradient)"
            opacity="0.55">
        <animate attributeName="height"
                 dur="0.5s"
                 repeatCount="indefinite"
                 values="31.127767970513098;60.627646769121185;31.127767970513098" />
        <animate attributeName="y"
                 dur="0.5s"
                 repeatCount="indefinite"
                 values="188.8722320294869;159.37235323087882;188.8722320294869" />
      </rect>
    
      <rect x="600"
            y="152.81740216269114"
            width="15.75"
            height="67.18259783730886"
            fill="url(#cyberGradient)"
            opacity="0.55">
        <animate attributeName="height"
                 dur="0.5s"
                 repeatCount="indefinite"
                 values="67.18259783730886;74.12227519744394;67.18259783730886" />
        <animate attributeName="y"
                 dur="0.5s"
                 repeatCount="indefinite"
                 values="152.81740216269114;145.87772480255606;152.81740216269114" />
      </rect>
    
      <rect x="618.75"
            y="144.84335587514298"
            width="15.75"
            height="75.15664412485702"
            fill="url(#cyberGradient)"
            opacity="0.55">
        <animate attributeName="height"
                 dur="0.5s"
                 repeatCount="indefinite"
                 values="75.15664412485702;57.692308502909036;75.15664412485702" />
        <animate attributeName="y"
                 dur="0.5s"
                 repeatCount="indefinite"
                 values="144.84335587514298;162.30769149709096;144.84335587514298" />
      </rect>
    
      <rect x="637.5"
            y="170.89240156914514"
            width="15.75"
            height="49.10759843085486"
            fill="url(#cyberGradient)"
            opacity="0.55">
        <animate attributeName="height"
                 dur="0.5s"
                 repeatCount="indefinite"
                 values="49.10759843085486;20.226177165623174;49.10759843085486" />
        <animate attributeName="y"
                 dur="0.5s"
                 repeatCount="indefinite"
                 values="170.89240156914514;199.77382283437683;170.89240156914514" />
      </rect>
    
      <rect x="656.25"
            y="181.41321991907043"
            width="15.75"
            height="38.58678008092958"
            fill="url(#cyberGradient)"
            opacity="0.55">
        <animate attributeName="height"
                 dur="0.5s"
                 repeatCount="indefinite"
                 values="38.58678008092958;45.758827692744;38.58678008092958" />
        <animate attributeName="y"
                 dur="0.5s"
                 repeatCount="indefinite"
                 values="181.41321991907043;174.241172307256;181.41321991907043" />
      </rect>
    
      <rect x="675"
            y="152.39820781062573"
            width="15.75"
            height="67.60179218937427"
            fill="url(#cyberGradient)"
            opacity="0.55">
        <animate attributeName="height"
                 dur="0.5s"
                 repeatCount="indefinite"
                 values="67.60179218937427;42.7056558649923;67.60179218937427" />
        <animate attributeName="y"
                 dur="0.5s"
                 repeatCount="indefinite"
                 values="152.39820781062573;177.2943441350077;152.39820781062573" />
      </rect>
    
      <rect x="693.75"
            y="146.5526129318591"
            width="15.75"
            height="73.4473870681409"
            fill="url(#cyberGradient)"
            opacity="0.55">
        <animate attributeName="height"
                 dur="0.5s"
                 repeatCount="indefinite"
                 values="73.4473870681409;27.99315918999386;73.4473870681409" />
        <animate attributeName="y"
                 dur="0.5s"
                 repeatCount="indefinite"
                 values="146.5526129318591;192.00684081000614;146.5526129318591" />
      </rect>
    
      <rect x="712.5"
            y="143.5298141405809"
            width="15.75"
            height="76.4701858594191"
            fill="url(#cyberGradient)"
            opacity="0.55">
        <animate attributeName="height"
                 dur="0.5s"
                 repeatCount="indefinite"
                 values="76.4701858594191;54.12769267700706;76.4701858594191" />
        <animate attributeName="y"
                 dur="0.5s"
                 repeatCount="indefinite"
                 values="143.5298141405809;165.87230732299292;143.5298141405809" />
      </rect>
    
      <rect x="731.25"
            y="142.06476745117328"
            width="15.75"
            height="77.93523254882672"
            fill="url(#cyberGradient)"
            opacity="0.55">
        <animate attributeName="height"
                 dur="0.5s"
                 repeatCount="indefinite"
                 values="77.93523254882672;48.754361458497456;77.93523254882672" />
        <animate attributeName="y"
                 dur="0.5s"
                 repeatCount="indefinite"
                 values="142.06476745117328;171.24563854150256;142.06476745117328" />
      </rect>
    
      <rect x="750"
            y="147.1876876952565"
            width="15.75"
            height="72.81231230474351"
            fill="url(#cyberGradient)"
            opacity="0.55">
        <animate attributeName="height"
                 dur="0.5s"
                 repeatCount="indefinite"
                 values="72.81231230474351;45.78829498936448;72.81231230474351" />
        <animate attributeName="y"
                 dur="0.5s"
                 repeatCount="indefinite"
                 values="147.1876876952565;174.2117050106355;147.1876876952565" />
      </rect>
    
      <rect x="768.75"
            y="190.5073428948888"
            width="15.75"
            height="29.492657105111185"
            fill="url(#cyberGradient)"
            opacity="0.55">
        <animate attributeName="height"
                 dur="0.5s"
                 repeatCount="indefinite"
                 values="29.492657105111185;63.69250527373484;29.492657105111185" />
        <animate attributeName="y"
                 dur="0.5s"
                 repeatCount="indefinite"
                 values="190.5073428948888;156.30749472626516;190.5073428948888" />
      </rect>
    
      <rect x="787.5"
            y="140.9946674527675"
            width="15.75"
            height="79.00533254723251"
            fill="url(#cyberGradient)"
            opacity="0.55">
        <animate attributeName="height"
                 dur="0.5s"
                 repeatCount="indefinite"
                 values="79.00533254723251;69.10467789025441;79.00533254723251" />
        <animate attributeName="y"
                 dur="0.5s"
                 repeatCount="indefinite"
                 values="140.9946674527675;150.8953221097456;140.9946674527675" />
      </rect>
    
      <rect x="806.25"
            y="190.76219998785592"
            width="15.75"
            height="29.237800012144092"
            fill="url(#cyberGradient)"
            opacity="0.55">
        <animate attributeName="height"
                 dur="0.5s"
                 repeatCount="indefinite"
                 values="29.237800012144092;46.93058382876357;29.237800012144092" />
        <animate attributeName="y"
                 dur="0.5s"
                 repeatCount="indefinite"
                 values="190.76219998785592;173.06941617123644;190.76219998785592" />
      </rect>
    
      <rect x="825"
            y="173.68940247753494"
            width="15.75"
            height="46.31059752246507"
            fill="url(#cyberGradient)"
            opacity="0.55">
        <animate attributeName="height"
                 dur="0.5s"
                 repeatCount="indefinite"
                 values="46.31059752246507;65.36902734670699;46.31059752246507" />
        <animate attributeName="y"
                 dur="0.5s"
                 repeatCount="indefinite"
                 values="173.68940247753494;154.63097265329301;173.68940247753494" />
      </rect>
    
      <rect x="843.75"
            y="162.02300969942576"
            width="15.75"
            height="57.976990300574236"
            fill="url(#cyberGradient)"
            opacity="0.55">
        <animate attributeName="height"
                 dur="0.5s"
                 repeatCount="indefinite"
                 values="57.976990300574236;55.334019363221636;57.976990300574236" />
        <animate attributeName="y"
                 dur="0.5s"
                 repeatCount="indefinite"
                 values="162.02300969942576;164.66598063677836;162.02300969942576" />
      </rect>
    
      <rect x="862.5"
            y="160.66606587467533"
            width="15.75"
            height="59.33393412532467"
            fill="url(#cyberGradient)"
            opacity="0.55">
        <animate attributeName="height"
                 dur="0.5s"
                 repeatCount="indefinite"
                 values="59.33393412532467;44.49832689740681;59.33393412532467" />
        <animate attributeName="y"
                 dur="0.5s"
                 repeatCount="indefinite"
                 values="160.66606587467533;175.5016731025932;160.66606587467533" />
      </rect>
    
      <rect x="881.25"
            y="195.11142832535415"
            width="15.75"
            height="24.88857167464583"
            fill="url(#cyberGradient)"
            opacity="0.55">
        <animate attributeName="height"
                 dur="0.5s"
                 repeatCount="indefinite"
                 values="24.88857167464583;36.65815757509705;24.88857167464583" />
        <animate attributeName="y"
                 dur="0.5s"
                 repeatCount="indefinite"
                 values="195.11142832535415;183.34184242490295;195.11142832535415" />
      </rect>
    
  </g>

  <!-- Back Wave -->
  <path d="M 0 104.6313246351549 Q 2.830188679245283 104.6313246351549 5.660377358490566 104.03149648221232 Q 8.49056603773585 104.03149648221232 11.320754716981131 103.40197967867601 Q 14.150943396226415 103.40197967867601 16.9811320754717 102.77251726044038 Q 19.81132075471698 102.77251726044038 22.641509433962263 102.17056948671315 Q 25.471698113207545 102.17056948671315 28.301886792452827 101.6198610997905 Q 31.132075471698112 101.6198610997905 33.9622641509434 101.13917708221754 Q 36.79245283018868 101.13917708221754 39.62264150943396 100.74147201678477 Q 42.45283018867924 100.74147201678477 45.283018867924525 100.43334024421486 Q 48.11320754716981 100.43334024421486 50.94339622641509 100.21487352280049 Q 53.77358490566037 100.21487352280049 56.60377358490565 100.07991096366908 Q 59.433962264150935 100.07991096366908 62.264150943396224 100.01666386385796 Q 65.09433962264151 100.01666386385796 67.9245283018868 100.00867691768029 Q 70.75471698113208 100.00867691768029 73.58490566037736 100.03606832915929 Q 76.41509433962264 100.03606832915929 79.24528301886792 100.07697562735757 Q 82.0754716981132 100.07697562735757 84.90566037735849 100.1091223752818 Q 87.73584905660377 100.1091223752818 90.56603773584905 100.11141410674179 Q 93.39622641509433 100.11141410674179 96.22641509433961 100.06547010543049 Q 99.0566037735849 100.06547010543049 101.88679245283018 99.95700115310268 Q 104.71698113207546 99.95700115310268 107.54716981132074 99.77695192543626 Q 110.37735849056602 99.77695192543626 113.2075471698113 99.52233983186652 Q 116.03773584905659 99.52233983186652 118.86792452830188 99.19673905297208 Q 121.69811320754717 99.19673905297208 124.52830188679245 98.8103783862932 Q 127.35849056603772 98.8103783862932 130.188679245283 98.37984316800498 Q 133.0188679245283 98.37984316800498 135.8490566037736 97.9273937925565 Q 138.67924528301887 97.9273937925565 141.50943396226415 97.47993497023701 Q 144.33962264150944 97.47993497023701 147.16981132075472 97.06768964308172 Q 150 97.06768964308172 152.83018867924528 96.72264832288046 Q 155.66037735849056 96.72264832288046 158.49056603773585 96.47687758330612 Q 161.32075471698113 96.47687758330612 164.1509433962264 96.36077980699734 Q 166.9811320754717 96.36077980699734 169.81132075471697 96.40139958724689 Q 172.64150943396226 96.40139958724689 175.47169811320754 96.62087022210149 Q 178.30188679245282 96.62087022210149 181.1320754716981 97.03508661605687 Q 183.96226415094338 97.03508661605687 186.79245283018867 97.65267900616723 Q 189.62264150943395 97.65267900616723 192.45283018867923 98.47434590430757 Q 195.2830188679245 98.47434590430757 198.1132075471698 99.49258537279502 Q 200.94339622641508 99.49258537279502 203.77358490566036 100.69184228373982 Q 206.60377358490564 100.69184228373982 209.43396226415092 102.04906673207371 Q 212.2641509433962 102.04906673207371 215.09433962264148 103.53465651345145 Q 217.92452830188677 103.53465651345145 220.75471698113205 105.11373576477419 Q 223.58490566037733 105.11373576477419 226.4150943396226 106.74770364142262 Q 229.2452830188679 106.74770364142262 232.0754716981132 108.39597227357515 Q 234.9056603773585 108.39597227357515 237.73584905660377 110.01780300875399 Q 240.56603773584905 110.01780300875399 243.39622641509433 111.57414467148898 Q 246.22641509433961 111.57414467148898 249.0566037735849 113.0293775431383 Q 251.88679245283018 113.0293775431383 254.71698113207546 114.352871985843 Q 257.5471698113207 114.352871985843 260.377358490566 115.52028081566218 Q 263.2075471698113 115.52028081566218 266.03773584905656 116.51449910938713 Q 268.86792452830184 116.51449910938713 271.6981132075472 117.32624330356236 Q 274.52830188679246 117.32624330356236 277.35849056603774 117.9542222113689 Q 280.188679245283 117.9542222113689 283.0188679245283 118.4048947994167 Q 285.8490566037736 118.4048947994167 288.6792452830189 118.69183200909701 Q 291.50943396226415 118.69183200909701 294.33962264150944 118.83472134123153 Q 297.1698113207547 118.83472134123153 300 118.8580721700563 Q 302.8301886792453 118.8580721700563 305.66037735849056 118.78969575633025 Q 308.49056603773585 118.78969575633025 311.3207547169811 118.65904581258236 Q 314.1509433962264 118.65904581258236 316.9811320754717 118.49551258740176 Q 319.811320754717 118.49551258740176 322.64150943396226 118.32676539530885 Q 325.47169811320754 118.32676539530885 328.3018867924528 118.17723522427261 Q 331.1320754716981 118.17723522427261 333.9622641509434 118.06682069496048 Q 336.79245283018867 118.06682069496048 339.62264150943395 118.00988769473321 Q 342.45283018867923 118.00988769473321 345.2830188679245 118.01461618933337 Q 348.1132075471698 118.01461618933337 350.9433962264151 118.08272796383177 Q 353.77358490566036 118.08272796383177 356.60377358490564 118.20960746099196 Q 359.4339622641509 118.20960746099196 362.2641509433962 118.38480566987178 Q 365.0943396226415 118.38480566987178 367.92452830188677 118.59289540464006 Q 370.75471698113205 118.59289540464006 373.58490566037733 118.81462650373618 Q 376.4150943396226 118.81462650373618 379.2452830188679 119.02831257275248 Q 382.0754716981132 119.02831257275248 384.90566037735846 119.21136782964533 Q 387.73584905660374 119.21136782964533 390.566037735849 119.34190411376166 Q 393.3962264150943 119.34190411376166 396.2264150943396 119.40029466304341 Q 399.05660377358487 119.40029466304341 401.88679245283015 119.37061303950065 Q 404.71698113207543 119.37061303950065 407.5471698113207 119.24186249432078 Q 410.377358490566 119.24186249432078 413.2075471698113 119.00892272869794 Q 416.03773584905656 119.00892272869794 418.86792452830184 118.67315677884233 Q 421.6981132075471 118.67315677884233 424.5283018867924 118.24263975989653 Q 427.3584905660377 118.24263975989653 430.18867924528297 117.73199239022051 Q 433.01886792452825 117.73199239022051 435.84905660377353 117.16182440987384 Q 438.6792452830188 117.16182440987384 441.5094339622641 116.55781497385851 Q 444.3396226415094 116.55781497385851 447.16981132075466 115.94947762220431 Q 449.99999999999994 115.94947762220431 452.8301886792452 115.3686753648451 Q 455.66037735849056 115.3686753648451 458.49056603773585 114.84796577127935 Q 461.3207547169811 114.84796577127935 464.1509433962264 114.41886592257416 Q 466.9811320754717 114.41886592257416 469.811320754717 114.11013210757473 Q 472.64150943396226 114.11013210757473 475.47169811320754 113.9461489402871 Q 478.3018867924528 113.9461489402871 481.1320754716981 113.94551714415532 Q 483.9622641509434 113.94551714415532 486.79245283018867 114.1199188829258 Q 489.62264150943395 114.1199188829258 492.45283018867923 114.47332478129621 Q 495.2830188679245 114.47332478129621 498.1132075471698 115.0015884775684 Q 500.9433962264151 115.0015884775684 503.77358490566036 115.69245368829988 Q 506.60377358490564 115.69245368829988 509.4339622641509 116.5259764866355 Q 512.2641509433962 116.5259764866355 515.0943396226414 117.47534302550548 Q 517.9245283018868 117.47534302550548 520.754716981132 118.50804150931995 Q 523.5849056603772 118.50804150931995 526.4150943396226 119.58732801134704 Q 529.2452830188679 119.58732801134704 532.0754716981131 120.67390980483555 Q 534.9056603773583 120.67390980483555 537.7358490566037 121.72775810007062 Q 540.566037735849 121.72775810007062 543.3962264150944 122.70995510426208 Q 546.2264150943397 122.70995510426208 549.0566037735849 123.58447852944965 Q 551.8867924528302 123.58447852944965 554.7169811320755 124.31983016300151 Q 557.5471698113208 124.31983016300151 560.377358490566 124.89042369247258 Q 563.2075471698113 124.89042369247258 566.0377358490566 125.27766016813348 Q 568.867924528302 125.27766016813348 571.6981132075472 125.47063656493678 Q 574.5283018867924 125.47063656493678 577.3584905660377 125.46645292981097 Q 580.1886792452831 125.46645292981097 583.0188679245283 125.27010546687517 Q 585.8490566037735 125.27010546687517 588.6792452830189 124.89397541844737 Q 591.5094339622642 124.89397541844737 594.3396226415094 124.35694550511542 Q 597.1698113207547 124.35694550511542 600 123.68319578911141 Q 602.8301886792453 123.68319578911141 605.6603773584906 122.90074801762589 Q 608.4905660377358 122.90074801762589 611.3207547169811 122.03984084369414 Q 614.1509433962265 122.03984084369414 616.9811320754717 121.13122708236608 Q 619.8113207547169 121.13122708236608 622.6415094339623 120.2044878630577 Q 625.4716981132076 120.2044878630577 628.3018867924528 119.28645698899886 Q 631.132075471698 119.28645698899886 633.9622641509434 118.39984210572639 Q 636.7924528301887 118.39984210572639 639.622641509434 117.56211779191375 Q 642.4528301886792 117.56211779191375 645.2830188679245 116.78475006083578 Q 648.1132075471698 116.78475006083578 650.9433962264151 116.07279287115082 Q 653.7735849056603 116.07279287115082 656.6037735849056 115.42487614326045 Q 659.433962264151 115.42487614326045 662.2641509433962 114.8335826359414 Q 665.0943396226414 114.8335826359414 667.9245283018868 114.2861890877987 Q 670.7547169811321 114.2861890877987 673.5849056603773 113.76572648871749 Q 676.4150943396226 113.76572648871749 679.2452830188679 113.25229635857738 Q 682.0754716981132 113.25229635857738 684.9056603773585 112.72456547293318 Q 687.7358490566037 112.72456547293318 690.566037735849 112.16135138999586 Q 693.3962264150944 112.16135138999586 696.2264150943396 111.54320596049591 Q 699.0566037735848 111.54320596049591 701.8867924528302 110.85390402986148 Q 704.7169811320755 110.85390402986148 707.5471698113207 110.08174977021118 Q 710.3773584905659 110.08174977021118 713.2075471698113 109.22062321919448 Q 716.0377358490566 109.22062321919448 718.8679245283018 108.27070409253189 Q 721.6981132075471 108.27070409253189 724.5283018867924 107.23882797465438 Q 727.3584905660377 107.23882797465438 730.188679245283 106.13845057753073 Q 733.0188679245282 106.13845057753073 735.8490566037735 104.98921775027873 Q 738.6792452830189 104.98921775027873 741.5094339622641 103.81616110153955 Q 744.3396226415093 103.81616110153955 747.1698113207547 102.64856023176823 Q 750 102.64856023176823 752.8301886792452 101.51853148943735 Q 755.6603773584905 101.51853148943735 758.4905660377358 100.45941881147662 Q 761.3207547169811 100.45941881147662 764.1509433962264 99.50407371206522 Q 766.9811320754716 99.50407371206522 769.8113207547169 98.68311820159438 Q 772.6415094339623 98.68311820159438 775.4716981132075 98.02328596981101 Q 778.3018867924527 98.02328596981101 781.132075471698 97.54593345962323 Q 783.9622641509434 97.54593345962323 786.7924528301886 97.26580368713066 Q 789.6226415094338 97.26580368713066 792.4528301886792 97.1901123052668 Q 795.2830188679245 97.1901123052668 798.1132075471697 97.31800819275777 Q 800.943396226415 97.31800819275777 803.7735849056603 97.64044072006405 Q 806.6037735849056 97.64044072006405 809.4339622641509 98.14044390412786 Q 812.2641509433961 98.14044390412786 815.0943396226414 98.79382511912436 Q 817.9245283018868 98.79382511912436 820.754716981132 99.57022412000748 Q 823.5849056603772 99.57022412000748 826.4150943396226 100.43448806407069 Q 829.2452830188679 100.43448806407069 832.0754716981131 101.3482910867412 Q 834.9056603773583 101.3482910867412 837.7358490566037 102.2719137433544 Q 840.566037735849 102.2719137433544 843.3962264150942 103.16608899687489 Q 846.2264150943395 103.16608899687489 849.0566037735848 103.99381788665198 Q 851.8867924528302 103.99381788665198 854.7169811320754 104.72205974939897 Q 857.5471698113206 104.72205974939897 860.3773584905659 105.32320878389595 Q 863.2075471698113 105.32320878389595 866.0377358490565 105.77628047322109 Q 868.8679245283017 105.77628047322109 871.6981132075471 106.06774725601433 Q 874.5283018867924 106.06774725601433 877.3584905660376 106.19198199615765 Q 880.1886792452829 106.19198199615765 883.0188679245282 106.15128918277924 Q 885.8490566037735 106.15128918277924 888.6792452830188 105.95552622211105 Q 891.509433962264 105.95552622211105 894.3396226415093 105.6213394248913 Q 897.1698113207547 105.6213394248913 899.9999999999999 105.17106012430405 "
        stroke="url(#cyberGradient)"
        stroke-width="2"
        opacity="0.25"
        fill="none">
    <animateTransform
      attributeName="transform"
      type="translate"
      from="0 0"
      to="-20 0"
      dur="6s"
      repeatCount="indefinite"/>
  </path>

  <!-- Mid Wave -->
  <path d="M 0 126.20060577230157 Q 2.830188679245283 126.20060577230157 5.660377358490566 125.86949903512325 Q 8.49056603773585 125.86949903512325 11.320754716981131 125.5416883838402 Q 14.150943396226415 125.5416883838402 16.9811320754717 125.25372333322815 Q 19.81132075471698 125.25372333322815 22.641509433962263 125.03696714854136 Q 25.471698113207545 125.03696714854136 28.301886792452827 124.91529430222141 Q 31.132075471698112 124.91529430222141 33.9622641509434 124.9032369681398 Q 36.79245283018868 124.9032369681398 39.62264150943396 125.00469095343655 Q 42.45283018867924 125.00469095343655 45.283018867924525 125.21225997559199 Q 48.11320754716981 125.21225997559199 50.94339622641509 125.5072812360347 Q 53.77358490566037 125.5072812360347 56.60377358490565 125.86053681771732 Q 59.433962264150935 125.86053681771732 62.264150943396224 126.23361667670594 Q 65.09433962264151 126.23361667670594 67.9245283018868 126.5808620605468 Q 70.75471698113208 126.5808620605468 73.58490566037736 126.85178512302355 Q 76.41509433962264 126.85178512302355 79.24528301886792 126.99383315665321 Q 82.0754716981132 126.99383315665321 84.90566037735849 126.95534575646906 Q 87.73584905660377 126.95534575646906 90.56603773584905 126.68854148718944 Q 93.39622641509433 126.68854148718944 96.22641509433961 126.15236791456613 Q 99.0566037735849 126.15236791456613 101.88679245283018 125.31505534533473 Q 104.71698113207546 125.31505534533473 107.54716981132074 124.15622995524208 Q 110.37735849056602 124.15622995524208 113.2075471698113 122.66846533806104 Q 116.03773584905659 122.66846533806104 118.86792452830188 120.85818160358426 Q 121.69811320754717 120.85818160358426 124.52830188679245 118.74583633924907 Q 127.35849056603772 118.74583633924907 130.188679245283 116.36539009588682 Q 133.0188679245283 116.36539009588682 135.8490566037736 113.76306845500179 Q 138.67924528301887 113.76306845500179 141.50943396226415 110.99548101549105 Q 144.33962264150944 110.99548101549105 147.16981132075472 108.12719269461067 Q 150 108.12719269461067 152.83018867924528 105.22787264067924 Q 155.66037735849056 105.22787264067924 158.49056603773585 102.36916915608373 Q 161.32075471698113 102.36916915608373 164.1509433962264 99.62147405537792 Q 166.9811320754717 99.62147405537792 169.81132075471697 97.05074600588055 Q 172.64150943396226 97.05074600588055 175.47169811320754 94.71555927868013 Q 178.30188679245282 94.71555927868013 181.1320754716981 92.6645321467881 Q 183.96226415094338 92.6645321467881 186.79245283018867 90.93426857437456 Q 189.62264150943395 90.93426857437456 192.45283018867923 89.54791897918257 Q 195.2830188679245 89.54791897918257 198.1132075471698 88.51443225204476 Q 200.94339622641508 88.51443225204476 203.77358490566036 87.82853373108951 Q 206.60377358490564 87.82853373108951 209.43396226415092 87.4714245153635 Q 212.2641509433962 87.4714245153635 215.09433962264148 87.41215852452534 Q 217.92452830188677 87.41215852452534 220.75471698113205 87.60961720969337 Q 223.58490566037733 87.60961720969337 226.4150943396226 88.01496979938102 Q 229.2452830188679 88.01496979938102 232.0754716981132 88.57448117930986 Q 234.9056603773585 88.57448117930986 237.73584905660377 89.2325113661739 Q 240.56603773584905 89.2325113661739 243.39622641509433 89.93454103065832 Q 246.22641509433961 89.93454103065832 249.0566037735849 90.63005716444496 Q 251.88679245283018 90.63005716444496 254.71698113207546 91.27514177456317 Q 257.5471698113207 91.27514177456317 260.377358490566 91.83462392594137 Q 263.2075471698113 91.83462392594137 266.03773584905656 92.28368056158155 Q 268.86792452830184 92.28368056158155 271.6981132075472 92.60880290837277 Q 274.52830188679246 92.60880290837277 277.35849056603774 92.80808117850384 Q 280.188679245283 92.80808117850384 283.0188679245283 92.89079870611717 Q 285.8490566037736 92.89079870611717 288.6792452830189 92.87636548215598 Q 291.50943396226415 92.87636548215598 294.33962264150944 92.7926581127661 Q 297.1698113207547 92.7926581127661 300 92.67386647235949 Q 302.8301886792453 92.67386647235949 305.66037735849056 92.55797490824018 Q 308.49056603773585 92.55797490824018 311.3207547169811 92.48402625066626 Q 314.1509433962264 92.48402625066626 316.9811320754717 92.48932896047366 Q 319.811320754717 92.48932896047366 322.64150943396226 92.60677083746064 Q 325.47169811320754 92.60677083746064 328.3018867924528 92.86239664656668 Q 331.1320754716981 92.86239664656668 333.9622641509434 93.27339213319962 Q 336.79245283018867 93.27339213319962 339.62264150943395 93.84659402068182 Q 342.45283018867923 93.84659402068182 345.2830188679245 94.5776159818473 Q 348.1132075471698 94.5776159818473 350.9433962264151 95.4506458965454 Q 353.77358490566036 95.4506458965454 356.60377358490564 96.43893187256826 Q 359.4339622641509 96.43893187256826 362.2641509433962 97.50593562033647 Q 365.0943396226415 97.50593562033647 367.92452830188677 98.60709399195753 Q 370.75471698113205 98.60709399195753 373.58490566037733 99.69209492327983 Q 376.4150943396226 99.69209492327983 379.2452830188679 100.70754457717071 Q 382.0754716981132 100.70754457717071 384.90566037735846 101.59987981844668 Q 387.73584905660374 101.59987981844668 390.566037735849 102.31836552290444 Q 393.3962264150943 102.31836552290444 396.2264150943396 102.8180104579798 Q 399.05660377358487 102.8180104579798 401.88679245283015 103.06223890424965 Q 404.71698113207543 103.06223890424965 407.5471698113207 103.02516764050242 Q 410.377358490566 103.02516764050242 413.2075471698113 102.69335871678064 Q 416.03773584905656 102.69335871678064 418.86792452830184 102.06694645413049 Q 421.6981132075471 102.06694645413049 424.5283018867924 101.160070801969 Q 427.3584905660377 101.160070801969 430.18867924528297 100.00058670452334 Q 433.01886792452825 100.00058670452334 435.84905660377353 98.62905841459296 Q 438.6792452830188 98.62905841459296 441.5094339622641 97.09708658498064 Q 444.3396226415094 97.09708658498064 447.16981132075466 95.4650523248124 Q 449.99999999999994 95.4650523248124 452.8301886792452 93.79939422769843 Q 455.66037735849056 93.79939422769843 458.49056603773585 92.16955990848717 Q 461.3207547169811 92.16955990848717 464.1509433962264 90.64479141834762 Q 466.9811320754717 90.64479141834762 469.811320754717 89.29091306079832 Q 472.64150943396226 89.29091306079832 475.47169811320754 88.16729009870909 Q 478.3018867924528 88.16729009870909 481.1320754716981 87.32411762468377 Q 483.9622641509434 87.32411762468377 486.79245283018867 86.80018097086105 Q 489.62264150943395 86.80018097086105 492.45283018867923 86.62120344320518 Q 495.2830188679245 86.62120344320518 498.1132075471698 86.79886528752871 Q 500.9433962264151 86.79886528752871 503.77358490566036 87.33054138339092 Q 506.60377358490564 87.33054138339092 509.4339622641509 88.19976622031567 Q 512.2641509433962 88.19976622031567 515.0943396226414 89.37739537968007 Q 517.9245283018868 89.37739537968007 520.754716981132 90.8233951867036 Q 523.5849056603772 90.8233951867036 526.4150943396226 92.48915847286254 Q 529.2452830188679 92.48915847286254 532.0754716981131 94.32021634968473 Q 534.9056603773583 94.32021634968473 537.7358490566037 96.25919507539767 Q 540.566037735849 96.25919507539767 543.3962264150944 98.24885463206732 Q 546.2264150943397 98.24885463206732 549.0566037735849 100.2350421964741 Q 551.8867924528302 100.2350421964741 554.7169811320755 102.16939945784758 Q 557.5471698113208 102.16939945784758 560.377358490566 104.01167737609842 Q 563.2075471698113 104.01167737609842 566.0377358490566 105.73153466193894 Q 568.867924528302 105.73153466193894 571.6981132075472 107.3097257277562 Q 574.5283018867924 107.3097257277562 577.3584905660377 108.7386184639332 Q 580.1886792452831 108.7386184639332 583.0188679245283 110.02202001515349 Q 585.8490566037735 110.02202001515349 588.6792452830189 111.17432766425499 Q 591.5094339622642 111.17432766425499 594.3396226415094 112.2190598163757 Q 597.1698113207547 112.2190598163757 600 113.18685681172728 Q 602.8301886792453 113.18685681172728 605.6603773584906 114.11307095520684 Q 608.4905660377358 114.11307095520684 611.3207547169811 115.03508809116673 Q 614.1509433962265 115.03508809116673 616.9811320754717 115.98953800100809 Q 619.8113207547169 115.98953800100809 622.6415094339623 117.00955703215246 Q 625.4716981132076 117.00955703215246 628.3018867924528 118.12226334074549 Q 631.132075471698 118.12226334074549 633.9622641509434 119.34659311633258 Q 636.7924528301887 119.34659311633258 639.622641509434 120.69162582226716 Q 642.4528301886792 120.69162582226716 645.2830188679245 122.15549895981829 Q 648.1132075471698 122.15549895981829 650.9433962264151 123.72497967486044 Q 653.7735849056603 123.72497967486044 656.6037735849056 125.3757235161609 Q 659.433962264151 125.3757235161609 662.2641509433962 127.07321187866292 Q 665.0943396226414 127.07321187866292 667.9245283018868 128.77432127766247 Q 670.7547169811321 128.77432127766247 673.5849056603773 130.429441733917 Q 676.4150943396226 130.429441733917 679.2452830188679 131.98503020061895 Q 682.0754716981132 131.98503020061895 684.9056603773585 133.38645987707974 Q 687.7358490566037 133.38645987707974 690.566037735849 134.5810088316383 Q 693.3962264150944 134.5810088316383 696.2264150943396 135.52082257531524 Q 699.0566037735848 135.52082257531524 701.8867924528302 136.16568558830463 Q 704.7169811320755 136.16568558830463 707.5471698113207 136.48544629853163 Q 710.3773584905659 136.48544629853163 713.2075471698113 136.4619581350578 Q 716.0377358490566 136.4619581350578 718.8679245283018 136.09042504177674 Q 721.6981132075471 136.09042504177674 724.5283018867924 135.38007182850652 Q 727.3584905660377 135.38007182850652 730.188679245283 134.35409620207054 Q 733.0188679245282 134.35409620207054 735.8490566037735 133.04889825584982 Q 738.6792452830189 133.04889825584982 741.5094339622641 131.51262246145797 Q 744.3396226415093 131.51262246145797 747.1698113207547 129.8030846399835 Q 750 129.8030846399835 752.8301886792452 127.98518993175442 Q 755.6603773584905 127.98518993175442 758.4905660377358 126.12797558542186 Q 761.3207547169811 126.12797558542186 764.1509433962264 124.30143291746703 Q 766.9811320754716 124.30143291746703 769.8113207547169 122.5732749202696 Q 772.6415094339623 122.5732749202696 775.4716981132075 121.00581905149915 Q 778.3018867924527 121.00581905149915 781.132075471698 119.65314855025099 Q 783.9622641509434 119.65314855025099 786.7924528301886 118.55870053545989 Q 789.6226415094338 118.55870053545989 792.4528301886792 117.75340597931816 Q 795.2830188679245 117.75340597931816 798.1132075471697 117.25447668681223 Q 800.943396226415 117.25447668681223 803.7735849056603 117.06489930027232 Q 806.6037735849056 117.06489930027232 809.4339622641509 117.17365801639147 Q 812.2641509433961 117.17365801639147 815.0943396226414 117.55666826040675 Q 817.9245283018868 117.55666826040675 820.754716981132 118.1783651761757 Q 823.5849056603772 118.1783651761757 826.4150943396226 118.99385557038221 Q 829.2452830188679 118.99385557038221 832.0754716981131 119.95151182694319 Q 834.9056603773583 119.95151182694319 837.7358490566037 120.99586293430286 Q 840.566037735849 120.99586293430286 843.3962264150942 122.07062242070955 Q 846.2264150943395 122.07062242070955 849.0566037735848 123.12168650398718 Q 851.8867924528302 123.12168650398718 854.7169811320754 124.09993847632472 Q 857.5471698113206 124.09993847632472 860.3773584905659 124.96370709637691 Q 863.2075471698113 124.96370709637691 866.0377358490565 125.68074688657764 Q 868.8679245283017 125.68074688657764 871.6981132075471 126.22963560686868 Q 874.5283018867924 126.22963560686868 877.3584905660376 126.6005172711258 Q 880.1886792452829 126.6005172711258 883.0188679245282 126.79515604822619 Q 885.8490566037735 126.79515604822619 888.6792452830188 126.8263051913806 Q 891.509433962264 126.8263051913806 894.3396226415093 126.71643361283154 Q 897.1698113207547 126.71643361283154 899.9999999999999 126.4958887315772 "
        stroke="url(#cyberGradient)"
        stroke-width="3"
        opacity="0.45"
        fill="none">
    <animateTransform
      attributeName="transform"
      type="translate"
      from="0 0"
      to="-12 0"
      dur="4s"
      repeatCount="indefinite"/>
  </path>

  <!-- Front Wave -->
  <g filter="url(#neonGlow)">
    <path d="M 0 77.48409813651095 Q 2.830188679245283 77.48409813651095 5.660377358490566 74.28119258068746 Q 8.49056603773585 74.28119258068746 11.320754716981131 71.32583472539513 Q 14.150943396226415 71.32583472539513 16.9811320754717 68.70772571568614 Q 19.81132075471698 68.70772571568614 22.641509433962263 66.50614062431092 Q 25.471698113207545 66.50614062431092 28.301886792452827 64.7861552578434 Q 31.132075471698112 64.7861552578434 33.9622641509434 63.59556164874699 Q 36.79245283018868 63.59556164874699 39.62264150943396 62.962636012242506 Q 42.45283018867924 62.962636012242506 45.283018867924525 62.89487722123172 Q 48.11320754716981 62.89487722123172 50.94339622641509 63.378781676029554 Q 53.77358490566037 63.378781676029554 56.60377358490565 64.3806646814459 Q 59.433962264150935 64.3806646814459 62.264150943396224 65.84848215254542 Q 65.09433962264151 65.84848215254542 67.9245283018868 67.71455274159383 Q 70.75471698113208 67.71455274159383 73.58490566037736 69.89903225991995 Q 76.41509433962264 69.89903225991995 79.24528301886792 72.31395220299854 Q 82.0754716981132 72.31395220299854 84.90566037735849 74.86760446819514 Q 87.73584905660377 74.86760446819514 90.56603773584905 77.46903660449419 Q 93.39622641509433 77.46903660449419 96.22641509433961 80.03241711396102 Q 99.0566037735849 80.03241711396102 101.88679245283018 82.48103868420415 Q 104.71698113207546 82.48103868420415 107.54716981132074 84.75074829148454 Q 110.37735849056602 84.75074829148454 113.2075471698113 86.79262569704619 Q 116.03773584905659 86.79262569704619 118.86792452830188 88.5747741516039 Q 121.69811320754717 88.5747741516039 124.52830188679245 90.08313677719283 Q 127.35849056603772 90.08313677719283 130.188679245283 91.32130635967742 Q 133.0188679245283 91.32130635967742 135.8490566037736 92.3093521546964 Q 138.67924528301887 92.3093521546964 141.50943396226415 93.08174169399693 Q 144.33962264150944 93.08174169399693 147.16981132075472 93.68448547187995 Q 150 93.68448547187995 152.83018867924528 94.17167503745401 Q 155.66037735849056 94.17167503745401 158.49056603773585 94.6016180651448 Q 161.32075471698113 94.6016180651448 164.1509433962264 95.03279560389116 Q 166.9811320754717 95.03279560389116 169.81132075471697 95.51987572848819 Q 172.64150943396226 95.51987572848819 175.47169811320754 96.11001374719471 Q 178.30188679245282 96.11001374719471 181.1320754716981 96.83965219614423 Q 183.96226415094338 96.83965219614423 186.79245283018867 97.73200502362955 Q 189.62264150943395 97.73200502362955 192.45283018867923 98.79537124580128 Q 195.2830188679245 98.79537124580128 198.1132075471698 100.02237611984799 Q 200.94339622641508 100.02237611984799 203.77358490566036 101.39018516099462 Q 206.60377358490564 101.39018516099462 209.43396226415092 102.86168105932472 Q 212.2641509433962 102.86168105932472 215.09433962264148 104.38753880674325 Q 217.92452830188677 104.38753880674325 220.75471698113205 105.90908316994009 Q 223.58490566037733 105.90908316994009 226.4150943396226 107.36176789128324 Q 229.2452830188679 107.36176789128324 232.0754716981132 108.67908016040663 Q 234.9056603773585 108.67908016040663 237.73584905660377 109.79664897592993 Q 240.56603773584905 109.79664897592993 243.39622641509433 110.65632340628596 Q 246.22641509433961 110.65632340628596 249.0566037735849 111.20998717655401 Q 251.88679245283018 111.20998717655401 254.71698113207546 111.42288944870586 Q 257.5471698113207 111.42288944870586 260.377358490566 111.27629739874502 Q 263.2075471698113 111.27629739874502 266.03773584905656 110.76931281755515 Q 268.86792452830184 110.76931281755515 271.6981132075472 109.91974046093206 Q 274.52830188679246 109.91974046093206 277.35849056603774 108.76394774368406 Q 280.188679245283 108.76394774368406 283.0188679245283 107.3557107539221 Q 285.8490566037736 107.3557107539221 288.6792452830189 105.76409740131734 Q 291.50943396226415 105.76409740131734 294.33962264150944 104.07049172407463 Q 297.1698113207547 104.07049172407463 300 102.36491102318266 Q 302.8301886792453 102.36491102318266 305.66037735849056 100.74180693380893 Q 308.49056603773585 100.74180693380893 311.3207547169811 99.2955705979586 Q 314.1509433962264 99.2955705979586 316.9811320754717 98.11597915673234 Q 319.811320754717 98.11597915673234 322.64150943396226 97.28382488254638 Q 325.47169811320754 97.28382488254638 328.3018867924528 96.86695918292045 Q 331.1320754716981 96.86695918292045 333.9622641509434 96.91696191622972 Q 336.79245283018867 96.91696191622972 339.62264150943395 97.46661315460051 Q 342.45283018867923 97.46661315460051 345.2830188679245 98.52830153303049 Q 348.1132075471698 98.52830153303049 350.9433962264151 100.09345299411561 Q 353.77358490566036 100.09345299411561 356.60377358490564 102.13300883591089 Q 359.4339622641509 102.13300883591089 362.2641509433962 104.59892550971954 Q 365.0943396226415 104.59892550971954 367.92452830188677 107.4266136938786 Q 370.75471698113205 107.4266136938786 373.58490566037733 110.53818380243081 Q 376.4150943396226 110.53818380243081 379.2452830188679 113.84632203590422 Q 382.0754716981132 113.84632203590422 384.90566037735846 117.25858770331588 Q 387.73584905660374 117.25858770331588 390.566037735849 120.6819006641122 Q 393.3962264150943 120.6819006641122 396.2264150943396 124.02697854573388 Q 399.05660377358487 124.02697854573388 401.88679245283015 127.2124873766341 Q 404.71698113207543 127.2124873766341 407.5471698113207 130.16868619891378 Q 410.377358490566 130.16868619891378 413.2075471698113 132.84037513892636 Q 416.03773584905656 132.84037513892636 418.86792452830184 135.1889957072022 Q 421.6981132075471 135.1889957072022 424.5283018867924 137.1937795883586 Q 427.3584905660377 137.1937795883586 430.18867924528297 138.85189523409684 Q 433.01886792452825 138.85189523409684 435.84905660377353 140.17759724965936 Q 438.6792452830188 140.17759724965936 441.5094339622641 141.20043878535924 Q 444.3396226415094 141.20043878535924 447.16981132075466 141.96265885680478 Q 449.99999999999994 141.96265885680478 452.8301886792452 142.51590186348903 Q 455.66037735849056 142.51590186348903 458.49056603773585 142.91746305304167 Q 461.3207547169811 142.91746305304167 464.1509433962264 143.22627927773033 Q 466.9811320754717 143.22627927773033 469.811320754717 143.49889770435166 Q 472.64150943396226 143.49889770435166 475.47169811320754 143.7856554431897 Q 478.3018867924528 143.7856554431897 481.1320754716981 144.12729035202116 Q 483.9622641509434 144.12729035202116 486.79245283018867 144.55217826411135 Q 489.62264150943395 144.55217826411135 492.45283018867923 145.07435598295996 Q 495.2830188679245 145.07435598295996 498.1132075471698 145.69244458322646 Q 500.9433962264151 145.69244458322646 503.77358490566036 146.38953635172135 Q 506.60377358490564 146.38953635172135 509.4339622641509 147.13405394431553 Q 512.2641509433962 147.13405394431553 515.0943396226414 147.8815350708632 Q 517.9245283018868 147.8815350708632 520.754716981132 148.57724332590678 Q 523.5849056603772 148.57724332590678 526.4150943396226 149.1594585913459 Q 529.2452830188679 149.1594585913459 532.0754716981131 149.56326137748425 Q 534.9056603773583 149.56326137748425 537.7358490566037 149.72459672018593 Q 540.566037735849 149.72459672018593 543.3962264150944 149.58438642301547 Q 546.2264150943397 149.58438642301547 549.0566037735849 149.09245447323934 Q 551.8867924528302 149.09245447323934 554.7169811320755 148.21103960605626 Q 557.5471698113208 148.21103960605626 560.377358490566 146.9176907532876 Q 563.2075471698113 146.9176907532876 566.0377358490566 145.20737430295384 Q 568.867924528302 145.20737430295384 571.6981132075472 143.09366489316824 Q 574.5283018867924 143.09366489316824 577.3584905660377 140.6089415130676 Q 580.1886792452831 140.6089415130676 583.0188679245283 137.80356522752288 Q 585.8490566037735 137.80356522752288 588.6792452830189 134.7440708728133 Q 591.5094339622642 134.7440708728133 594.3396226415094 131.51045949438415 Q 597.1698113207547 131.51045949438415 600 128.19272810860286 Q 602.8301886792453 128.19272810860286 605.6603773584906 124.8868158138119 Q 608.4905660377358 124.8868158138119 611.3207547169811 121.69017800235582 Q 614.1509433962265 121.69017800235582 616.9811320754717 118.69722161951746 Q 619.8113207547169 118.69722161951746 622.6415094339623 115.99484289727327 Q 625.4716981132076 115.99484289727327 628.3018867924528 113.6583042805562 Q 631.132075471698 113.6583042805562 633.9622641509434 111.74766960831394 Q 636.7924528301887 111.74766960831394 639.622641509434 110.3049869715729 Q 642.4528301886792 110.3049869715729 645.2830188679245 109.35236866705705 Q 648.1132075471698 109.35236866705705 650.9433962264151 108.89106949001656 Q 653.7735849056603 108.89106949001656 656.6037735849056 108.901610906506 Q 659.433962264151 108.901610906506 662.2641509433962 109.34494236071305 Q 665.0943396226414 109.34494236071305 667.9245283018868 110.16457519638217 Q 670.7547169811321 110.16457519638217 673.5849056603773 111.28957246378903 Q 676.4150943396226 111.28957246378903 679.2452830188679 112.63823210871675 Q 682.0754716981132 112.63823210871675 684.9056603773585 114.12226420586421 Q 687.7358490566037 114.12226420586421 690.566037735849 115.65123702094462 Q 693.3962264150944 115.65123702094462 696.2264150943396 117.13705317367625 Q 699.0566037735848 117.13705317367625 701.8867924528302 118.49821675594536 Q 704.7169811320755 118.49821675594536 707.5471698113207 119.66366494142957 Q 710.3773584905659 119.66366494142957 713.2075471698113 120.57596268839663 Q 716.0377358490566 120.57596268839663 718.8679245283018 121.19369518724237 Q 721.6981132075471 121.19369518724237 724.5283018867924 121.49293773460978 Q 727.3584905660377 121.49293773460978 730.188679245283 121.46773422856505 Q 733.0188679245282 121.46773422856505 735.8490566037735 121.12957062031647 Q 738.6792452830189 121.12957062031647 741.5094339622641 120.50588537527408 Q 744.3396226415093 120.50588537527408 747.1698113207547 119.63771220842474 Q 750 119.63771220842474 752.8301886792452 118.57659812555147 Q 755.6603773584905 118.57659812555147 758.4905660377358 117.38097948570827 Q 761.3207547169811 117.38097948570827 764.1509433962264 116.11222821366034 Q 766.9811320754716 116.11222821366034 769.8113207547169 114.830597815758 Q 772.6415094339623 114.830597815758 775.4716981132075 113.59130353025327 Q 778.3018867924527 113.59130353025327 781.132075471698 112.44096252681912 Q 783.9622641509434 112.44096252681912 786.7924528301886 111.41459903899816 Q 789.6226415094338 111.41459903899816 792.4528301886792 110.53338684539949 Q 795.2830188679245 110.53338684539949 798.1132075471697 109.80325942219739 Q 800.943396226415 109.80325942219739 803.7735849056603 109.21446871562398 Q 806.6037735849056 109.21446871562398 809.4339622641509 108.74211957688873 Q 812.2641509433961 108.74211957688873 815.0943396226414 108.34765146277078 Q 817.9245283018868 108.34765146277078 820.754716981132 107.98118511774034 Q 823.5849056603772 107.98118511774034 826.4150943396226 107.58460261708639 Q 829.2452830188679 107.58460261708639 832.0754716981131 107.09518711282992 Q 834.9056603773583 107.09518711282992 837.7358490566037 106.44961622918346 Q 840.566037735849 106.44961622918346 843.3962264150942 105.58808211247921 Q 846.2264150943395 105.58808211247921 849.0566037735848 104.4583028285047 Q 851.8867924528302 104.4583028285047 854.7169811320754 103.019194595615 Q 857.5471698113206 103.019194595615 860.3773584905659 101.24399199662807 Q 863.2075471698113 101.24399199662807 866.0377358490565 99.12263286587114 Q 868.8679245283017 99.12263286587114 871.6981132075471 96.66326437993945 Q 874.5283018867924 96.66326437993945 877.3584905660376 93.89277480177688 Q 880.1886792452829 93.89277480177688 883.0188679245282 90.85630869840253 Q 885.8490566037735 90.85630869840253 888.6792452830188 87.61577933030289 Q 891.509433962264 87.61577933030289 894.3396226415093 84.24744721151527 Q 897.1698113207547 84.24744721151527 899.9999999999999 80.83868550946616 "
          stroke="url(#cyberGradient)"
          stroke-width="4"
          fill="none">
      <animateTransform
        attributeName="transform"
        type="translate"
        from="0 0"
        to="-6 0"
        dur="2.5s"
        repeatCount="indefinite"/>
    </path>
  </g>

</svg>