<svg viewBox="0 0 960 280" xmlns="http://www.w3.org/2000/svg">

<defs>
  <linearGradient id="grad" x1="0" y1="0" x2="1" y2="0">
    <stop offset="0%" stop-color="#ff2fdc"/>
    <stop offset="40%" stop-color="#9b5cff"/>
    <stop offset="70%" stop-color="#00f5ff"/>
    <stop offset="100%" stop-color="#00f5ff"/>
  </linearGradient>

  <filter id="glow">
    <feGaussianBlur stdDeviation="4" result="b"/>
    <feMerge>
      <feMergeNode in="b"/>
      <feMergeNode in="SourceGraphic"/>
    </feMerge>
  </filter>
</defs>

<rect width="100%" height="100%" fill="#05010d"/>

<!-- EQUALIZER -->
<g filter="url(#glow)">

<rect x="0"
      y="250"
      width="14"
      height="30"
      fill="url(#grad)"
      opacity="0.4798869355211375">
  <animate attributeName="height"
    dur="3.429948736620194s"
    repeatCount="indefinite"
    values="30;90;30"
    keyTimes="0;0.5;1"
    calcMode="spline"
    keySplines="0.4 0 0.6 1;0.4 0 0.6 1"/>
  <animate attributeName="y"
    dur="3.429948736620194s"
    repeatCount="indefinite"
    values="250;190;250"
    keyTimes="0;0.5;1"
    calcMode="spline"
    keySplines="0.4 0 0.6 1;0.4 0 0.6 1"/>
</rect>

<rect x="16"
      y="250"
      width="14"
      height="30"
      fill="url(#grad)"
      opacity="0.48546094532031187">
  <animate attributeName="height"
    dur="4.82112620509918s"
    repeatCount="indefinite"
    values="30;90;30"
    keyTimes="0;0.5;1"
    calcMode="spline"
    keySplines="0.4 0 0.6 1;0.4 0 0.6 1"/>
  <animate attributeName="y"
    dur="4.82112620509918s"
    repeatCount="indefinite"
    values="250;190;250"
    keyTimes="0;0.5;1"
    calcMode="spline"
    keySplines="0.4 0 0.6 1;0.4 0 0.6 1"/>
</rect>

<rect x="32"
      y="250"
      width="14"
      height="30"
      fill="url(#grad)"
      opacity="0.6611908288494666">
  <animate attributeName="height"
    dur="3.2617166031441247s"
    repeatCount="indefinite"
    values="30;90;30"
    keyTimes="0;0.5;1"
    calcMode="spline"
    keySplines="0.4 0 0.6 1;0.4 0 0.6 1"/>
  <animate attributeName="y"
    dur="3.2617166031441247s"
    repeatCount="indefinite"
    values="250;190;250"
    keyTimes="0;0.5;1"
    calcMode="spline"
    keySplines="0.4 0 0.6 1;0.4 0 0.6 1"/>
</rect>

<rect x="48"
      y="250"
      width="14"
      height="30"
      fill="url(#grad)"
      opacity="0.7154521764950406">
  <animate attributeName="height"
    dur="4.610029764718476s"
    repeatCount="indefinite"
    values="30;90;30"
    keyTimes="0;0.5;1"
    calcMode="spline"
    keySplines="0.4 0 0.6 1;0.4 0 0.6 1"/>
  <animate attributeName="y"
    dur="4.610029764718476s"
    repeatCount="indefinite"
    values="250;190;250"
    keyTimes="0;0.5;1"
    calcMode="spline"
    keySplines="0.4 0 0.6 1;0.4 0 0.6 1"/>
</rect>

<rect x="64"
      y="250"
      width="14"
      height="30"
      fill="url(#grad)"
      opacity="0.49853670691294866">
  <animate attributeName="height"
    dur="3.9061697610141968s"
    repeatCount="indefinite"
    values="30;90;30"
    keyTimes="0;0.5;1"
    calcMode="spline"
    keySplines="0.4 0 0.6 1;0.4 0 0.6 1"/>
  <animate attributeName="y"
    dur="3.9061697610141968s"
    repeatCount="indefinite"
    values="250;190;250"
    keyTimes="0;0.5;1"
    calcMode="spline"
    keySplines="0.4 0 0.6 1;0.4 0 0.6 1"/>
</rect>

<rect x="80"
      y="250"
      width="14"
      height="30"
      fill="url(#grad)"
      opacity="0.4565628172049852">
  <animate attributeName="height"
    dur="3.7165522792884884s"
    repeatCount="indefinite"
    values="30;90;30"
    keyTimes="0;0.5;1"
    calcMode="spline"
    keySplines="0.4 0 0.6 1;0.4 0 0.6 1"/>
  <animate attributeName="y"
    dur="3.7165522792884884s"
    repeatCount="indefinite"
    values="250;190;250"
    keyTimes="0;0.5;1"
    calcMode="spline"
    keySplines="0.4 0 0.6 1;0.4 0 0.6 1"/>
</rect>

<rect x="96"
      y="250"
      width="14"
      height="30"
      fill="url(#grad)"
      opacity="0.7724876759817145">
  <animate attributeName="height"
    dur="3.917677889530686s"
    repeatCount="indefinite"
    values="30;90;30"
    keyTimes="0;0.5;1"
    calcMode="spline"
    keySplines="0.4 0 0.6 1;0.4 0 0.6 1"/>
  <animate attributeName="y"
    dur="3.917677889530686s"
    repeatCount="indefinite"
    values="250;190;250"
    keyTimes="0;0.5;1"
    calcMode="spline"
    keySplines="0.4 0 0.6 1;0.4 0 0.6 1"/>
</rect>

<rect x="112"
      y="250"
      width="14"
      height="30"
      fill="url(#grad)"
      opacity="0.49143247681756325">
  <animate attributeName="height"
    dur="4.631092618997858s"
    repeatCount="indefinite"
    values="30;90;30"
    keyTimes="0;0.5;1"
    calcMode="spline"
    keySplines="0.4 0 0.6 1;0.4 0 0.6 1"/>
  <animate attributeName="y"
    dur="4.631092618997858s"
    repeatCount="indefinite"
    values="250;190;250"
    keyTimes="0;0.5;1"
    calcMode="spline"
    keySplines="0.4 0 0.6 1;0.4 0 0.6 1"/>
</rect>

<rect x="128"
      y="250"
      width="14"
      height="30"
      fill="url(#grad)"
      opacity="0.6435437753525398">
  <animate attributeName="height"
    dur="4.050800186360041s"
    repeatCount="indefinite"
    values="30;90;30"
    keyTimes="0;0.5;1"
    calcMode="spline"
    keySplines="0.4 0 0.6 1;0.4 0 0.6 1"/>
  <animate attributeName="y"
    dur="4.050800186360041s"
    repeatCount="indefinite"
    values="250;190;250"
    keyTimes="0;0.5;1"
    calcMode="spline"
    keySplines="0.4 0 0.6 1;0.4 0 0.6 1"/>
</rect>

<rect x="144"
      y="250"
      width="14"
      height="30"
      fill="url(#grad)"
      opacity="0.4454692796079993">
  <animate attributeName="height"
    dur="3.866077292263881s"
    repeatCount="indefinite"
    values="30;90;30"
    keyTimes="0;0.5;1"
    calcMode="spline"
    keySplines="0.4 0 0.6 1;0.4 0 0.6 1"/>
  <animate attributeName="y"
    dur="3.866077292263881s"
    repeatCount="indefinite"
    values="250;190;250"
    keyTimes="0;0.5;1"
    calcMode="spline"
    keySplines="0.4 0 0.6 1;0.4 0 0.6 1"/>
</rect>

<rect x="160"
      y="250"
      width="14"
      height="30"
      fill="url(#grad)"
      opacity="0.5136376890193145">
  <animate attributeName="height"
    dur="3.537416032544637s"
    repeatCount="indefinite"
    values="30;90;30"
    keyTimes="0;0.5;1"
    calcMode="spline"
    keySplines="0.4 0 0.6 1;0.4 0 0.6 1"/>
  <animate attributeName="y"
    dur="3.537416032544637s"
    repeatCount="indefinite"
    values="250;190;250"
    keyTimes="0;0.5;1"
    calcMode="spline"
    keySplines="0.4 0 0.6 1;0.4 0 0.6 1"/>
</rect>

<rect x="176"
      y="250"
      width="14"
      height="30"
      fill="url(#grad)"
      opacity="0.7927450105611255">
  <animate attributeName="height"
    dur="3.843065835164348s"
    repeatCount="indefinite"
    values="30;90;30"
    keyTimes="0;0.5;1"
    calcMode="spline"
    keySplines="0.4 0 0.6 1;0.4 0 0.6 1"/>
  <animate attributeName="y"
    dur="3.843065835164348s"
    repeatCount="indefinite"
    values="250;190;250"
    keyTimes="0;0.5;1"
    calcMode="spline"
    keySplines="0.4 0 0.6 1;0.4 0 0.6 1"/>
</rect>

<rect x="192"
      y="250"
      width="14"
      height="30"
      fill="url(#grad)"
      opacity="0.5065206969485686">
  <animate attributeName="height"
    dur="3.6433843997397246s"
    repeatCount="indefinite"
    values="30;90;30"
    keyTimes="0;0.5;1"
    calcMode="spline"
    keySplines="0.4 0 0.6 1;0.4 0 0.6 1"/>
  <animate attributeName="y"
    dur="3.6433843997397246s"
    repeatCount="indefinite"
    values="250;190;250"
    keyTimes="0;0.5;1"
    calcMode="spline"
    keySplines="0.4 0 0.6 1;0.4 0 0.6 1"/>
</rect>

<rect x="208"
      y="250"
      width="14"
      height="30"
      fill="url(#grad)"
      opacity="0.669743280391051">
  <animate attributeName="height"
    dur="3.890151835535217s"
    repeatCount="indefinite"
    values="30;90;30"
    keyTimes="0;0.5;1"
    calcMode="spline"
    keySplines="0.4 0 0.6 1;0.4 0 0.6 1"/>
  <animate attributeName="y"
    dur="3.890151835535217s"
    repeatCount="indefinite"
    values="250;190;250"
    keyTimes="0;0.5;1"
    calcMode="spline"
    keySplines="0.4 0 0.6 1;0.4 0 0.6 1"/>
</rect>

<rect x="224"
      y="250"
      width="14"
      height="30"
      fill="url(#grad)"
      opacity="0.7048673436702466">
  <animate attributeName="height"
    dur="4.936695377077045s"
    repeatCount="indefinite"
    values="30;90;30"
    keyTimes="0;0.5;1"
    calcMode="spline"
    keySplines="0.4 0 0.6 1;0.4 0 0.6 1"/>
  <animate attributeName="y"
    dur="4.936695377077045s"
    repeatCount="indefinite"
    values="250;190;250"
    keyTimes="0;0.5;1"
    calcMode="spline"
    keySplines="0.4 0 0.6 1;0.4 0 0.6 1"/>
</rect>

<rect x="240"
      y="250"
      width="14"
      height="30"
      fill="url(#grad)"
      opacity="0.6348091052004255">
  <animate attributeName="height"
    dur="4.1080972488814265s"
    repeatCount="indefinite"
    values="30;90;30"
    keyTimes="0;0.5;1"
    calcMode="spline"
    keySplines="0.4 0 0.6 1;0.4 0 0.6 1"/>
  <animate attributeName="y"
    dur="4.1080972488814265s"
    repeatCount="indefinite"
    values="250;190;250"
    keyTimes="0;0.5;1"
    calcMode="spline"
    keySplines="0.4 0 0.6 1;0.4 0 0.6 1"/>
</rect>

<rect x="256"
      y="250"
      width="14"
      height="30"
      fill="url(#grad)"
      opacity="0.6456054572782364">
  <animate attributeName="height"
    dur="4.57036157191272s"
    repeatCount="indefinite"
    values="30;90;30"
    keyTimes="0;0.5;1"
    calcMode="spline"
    keySplines="0.4 0 0.6 1;0.4 0 0.6 1"/>
  <animate attributeName="y"
    dur="4.57036157191272s"
    repeatCount="indefinite"
    values="250;190;250"
    keyTimes="0;0.5;1"
    calcMode="spline"
    keySplines="0.4 0 0.6 1;0.4 0 0.6 1"/>
</rect>

<rect x="272"
      y="250"
      width="14"
      height="30"
      fill="url(#grad)"
      opacity="0.7952606536186531">
  <animate attributeName="height"
    dur="4.640755778331469s"
    repeatCount="indefinite"
    values="30;90;30"
    keyTimes="0;0.5;1"
    calcMode="spline"
    keySplines="0.4 0 0.6 1;0.4 0 0.6 1"/>
  <animate attributeName="y"
    dur="4.640755778331469s"
    repeatCount="indefinite"
    values="250;190;250"
    keyTimes="0;0.5;1"
    calcMode="spline"
    keySplines="0.4 0 0.6 1;0.4 0 0.6 1"/>
</rect>

<rect x="288"
      y="250"
      width="14"
      height="30"
      fill="url(#grad)"
      opacity="0.5259408020297776">
  <animate attributeName="height"
    dur="4.250074758142264s"
    repeatCount="indefinite"
    values="30;90;30"
    keyTimes="0;0.5;1"
    calcMode="spline"
    keySplines="0.4 0 0.6 1;0.4 0 0.6 1"/>
  <animate attributeName="y"
    dur="4.250074758142264s"
    repeatCount="indefinite"
    values="250;190;250"
    keyTimes="0;0.5;1"
    calcMode="spline"
    keySplines="0.4 0 0.6 1;0.4 0 0.6 1"/>
</rect>

<rect x="304"
      y="250"
      width="14"
      height="30"
      fill="url(#grad)"
      opacity="0.42692794796959144">
  <animate attributeName="height"
    dur="4.488080098181964s"
    repeatCount="indefinite"
    values="30;90;30"
    keyTimes="0;0.5;1"
    calcMode="spline"
    keySplines="0.4 0 0.6 1;0.4 0 0.6 1"/>
  <animate attributeName="y"
    dur="4.488080098181964s"
    repeatCount="indefinite"
    values="250;190;250"
    keyTimes="0;0.5;1"
    calcMode="spline"
    keySplines="0.4 0 0.6 1;0.4 0 0.6 1"/>
</rect>

<rect x="320"
      y="250"
      width="14"
      height="30"
      fill="url(#grad)"
      opacity="0.7595101773219982">
  <animate attributeName="height"
    dur="3.3170558287225984s"
    repeatCount="indefinite"
    values="30;90;30"
    keyTimes="0;0.5;1"
    calcMode="spline"
    keySplines="0.4 0 0.6 1;0.4 0 0.6 1"/>
  <animate attributeName="y"
    dur="3.3170558287225984s"
    repeatCount="indefinite"
    values="250;190;250"
    keyTimes="0;0.5;1"
    calcMode="spline"
    keySplines="0.4 0 0.6 1;0.4 0 0.6 1"/>
</rect>

<rect x="336"
      y="258"
      width="14"
      height="22"
      fill="url(#grad)"
      opacity="0.550245654885617">
  <animate attributeName="height"
    dur="1.991736191506365s"
    repeatCount="indefinite"
    values="22;80;22"
    keyTimes="0;0.5;1"
    calcMode="spline"
    keySplines="0.4 0 0.6 1;0.4 0 0.6 1"/>
  <animate attributeName="y"
    dur="1.991736191506365s"
    repeatCount="indefinite"
    values="258;200;258"
    keyTimes="0;0.5;1"
    calcMode="spline"
    keySplines="0.4 0 0.6 1;0.4 0 0.6 1"/>
</rect>

<rect x="352"
      y="258"
      width="14"
      height="22"
      fill="url(#grad)"
      opacity="0.7303870145406053">
  <animate attributeName="height"
    dur="2.044619232358615s"
    repeatCount="indefinite"
    values="22;80;22"
    keyTimes="0;0.5;1"
    calcMode="spline"
    keySplines="0.4 0 0.6 1;0.4 0 0.6 1"/>
  <animate attributeName="y"
    dur="2.044619232358615s"
    repeatCount="indefinite"
    values="258;200;258"
    keyTimes="0;0.5;1"
    calcMode="spline"
    keySplines="0.4 0 0.6 1;0.4 0 0.6 1"/>
</rect>

<rect x="368"
      y="258"
      width="14"
      height="22"
      fill="url(#grad)"
      opacity="0.5204900327508639">
  <animate attributeName="height"
    dur="2.649260370545669s"
    repeatCount="indefinite"
    values="22;80;22"
    keyTimes="0;0.5;1"
    calcMode="spline"
    keySplines="0.4 0 0.6 1;0.4 0 0.6 1"/>
  <animate attributeName="y"
    dur="2.649260370545669s"
    repeatCount="indefinite"
    values="258;200;258"
    keyTimes="0;0.5;1"
    calcMode="spline"
    keySplines="0.4 0 0.6 1;0.4 0 0.6 1"/>
</rect>

<rect x="384"
      y="258"
      width="14"
      height="22"
      fill="url(#grad)"
      opacity="0.7549320757048198">
  <animate attributeName="height"
    dur="2.5728470763185363s"
    repeatCount="indefinite"
    values="22;80;22"
    keyTimes="0;0.5;1"
    calcMode="spline"
    keySplines="0.4 0 0.6 1;0.4 0 0.6 1"/>
  <animate attributeName="y"
    dur="2.5728470763185363s"
    repeatCount="indefinite"
    values="258;200;258"
    keyTimes="0;0.5;1"
    calcMode="spline"
    keySplines="0.4 0 0.6 1;0.4 0 0.6 1"/>
</rect>

<rect x="400"
      y="258"
      width="14"
      height="22"
      fill="url(#grad)"
      opacity="0.577641451666311">
  <animate attributeName="height"
    dur="2.7552394760417545s"
    repeatCount="indefinite"
    values="22;80;22"
    keyTimes="0;0.5;1"
    calcMode="spline"
    keySplines="0.4 0 0.6 1;0.4 0 0.6 1"/>
  <animate attributeName="y"
    dur="2.7552394760417545s"
    repeatCount="indefinite"
    values="258;200;258"
    keyTimes="0;0.5;1"
    calcMode="spline"
    keySplines="0.4 0 0.6 1;0.4 0 0.6 1"/>
</rect>

<rect x="416"
      y="258"
      width="14"
      height="22"
      fill="url(#grad)"
      opacity="0.6118442334258247">
  <animate attributeName="height"
    dur="2.1367809359575936s"
    repeatCount="indefinite"
    values="22;80;22"
    keyTimes="0;0.5;1"
    calcMode="spline"
    keySplines="0.4 0 0.6 1;0.4 0 0.6 1"/>
  <animate attributeName="y"
    dur="2.1367809359575936s"
    repeatCount="indefinite"
    values="258;200;258"
    keyTimes="0;0.5;1"
    calcMode="spline"
    keySplines="0.4 0 0.6 1;0.4 0 0.6 1"/>
</rect>

<rect x="432"
      y="258"
      width="14"
      height="22"
      fill="url(#grad)"
      opacity="0.7041596898871594">
  <animate attributeName="height"
    dur="1.9511533385773385s"
    repeatCount="indefinite"
    values="22;80;22"
    keyTimes="0;0.5;1"
    calcMode="spline"
    keySplines="0.4 0 0.6 1;0.4 0 0.6 1"/>
  <animate attributeName="y"
    dur="1.9511533385773385s"
    repeatCount="indefinite"
    values="258;200;258"
    keyTimes="0;0.5;1"
    calcMode="spline"
    keySplines="0.4 0 0.6 1;0.4 0 0.6 1"/>
</rect>

<rect x="448"
      y="258"
      width="14"
      height="22"
      fill="url(#grad)"
      opacity="0.5296615006621204">
  <animate attributeName="height"
    dur="2.044601101679395s"
    repeatCount="indefinite"
    values="22;80;22"
    keyTimes="0;0.5;1"
    calcMode="spline"
    keySplines="0.4 0 0.6 1;0.4 0 0.6 1"/>
  <animate attributeName="y"
    dur="2.044601101679395s"
    repeatCount="indefinite"
    values="258;200;258"
    keyTimes="0;0.5;1"
    calcMode="spline"
    keySplines="0.4 0 0.6 1;0.4 0 0.6 1"/>
</rect>

<rect x="464"
      y="258"
      width="14"
      height="22"
      fill="url(#grad)"
      opacity="0.6564870673695529">
  <animate attributeName="height"
    dur="2.121642173251583s"
    repeatCount="indefinite"
    values="22;80;22"
    keyTimes="0;0.5;1"
    calcMode="spline"
    keySplines="0.4 0 0.6 1;0.4 0 0.6 1"/>
  <animate attributeName="y"
    dur="2.121642173251583s"
    repeatCount="indefinite"
    values="258;200;258"
    keyTimes="0;0.5;1"
    calcMode="spline"
    keySplines="0.4 0 0.6 1;0.4 0 0.6 1"/>
</rect>

<rect x="480"
      y="258"
      width="14"
      height="22"
      fill="url(#grad)"
      opacity="0.6749490963526734">
  <animate attributeName="height"
    dur="2.227854246161269s"
    repeatCount="indefinite"
    values="22;80;22"
    keyTimes="0;0.5;1"
    calcMode="spline"
    keySplines="0.4 0 0.6 1;0.4 0 0.6 1"/>
  <animate attributeName="y"
    dur="2.227854246161269s"
    repeatCount="indefinite"
    values="258;200;258"
    keyTimes="0;0.5;1"
    calcMode="spline"
    keySplines="0.4 0 0.6 1;0.4 0 0.6 1"/>
</rect>

<rect x="496"
      y="258"
      width="14"
      height="22"
      fill="url(#grad)"
      opacity="0.6141117217563682">
  <animate attributeName="height"
    dur="2.1671486163353206s"
    repeatCount="indefinite"
    values="22;80;22"
    keyTimes="0;0.5;1"
    calcMode="spline"
    keySplines="0.4 0 0.6 1;0.4 0 0.6 1"/>
  <animate attributeName="y"
    dur="2.1671486163353206s"
    repeatCount="indefinite"
    values="258;200;258"
    keyTimes="0;0.5;1"
    calcMode="spline"
    keySplines="0.4 0 0.6 1;0.4 0 0.6 1"/>
</rect>

<rect x="512"
      y="258"
      width="14"
      height="22"
      fill="url(#grad)"
      opacity="0.5533252880946689">
  <animate attributeName="height"
    dur="2.612155521386973s"
    repeatCount="indefinite"
    values="22;80;22"
    keyTimes="0;0.5;1"
    calcMode="spline"
    keySplines="0.4 0 0.6 1;0.4 0 0.6 1"/>
  <animate attributeName="y"
    dur="2.612155521386973s"
    repeatCount="indefinite"
    values="258;200;258"
    keyTimes="0;0.5;1"
    calcMode="spline"
    keySplines="0.4 0 0.6 1;0.4 0 0.6 1"/>
</rect>

<rect x="528"
      y="258"
      width="14"
      height="22"
      fill="url(#grad)"
      opacity="0.5959271283872998">
  <animate attributeName="height"
    dur="2.5529986908920277s"
    repeatCount="indefinite"
    values="22;80;22"
    keyTimes="0;0.5;1"
    calcMode="spline"
    keySplines="0.4 0 0.6 1;0.4 0 0.6 1"/>
  <animate attributeName="y"
    dur="2.5529986908920277s"
    repeatCount="indefinite"
    values="258;200;258"
    keyTimes="0;0.5;1"
    calcMode="spline"
    keySplines="0.4 0 0.6 1;0.4 0 0.6 1"/>
</rect>

<rect x="544"
      y="258"
      width="14"
      height="22"
      fill="url(#grad)"
      opacity="0.7076993334836663">
  <animate attributeName="height"
    dur="1.6023443168991653s"
    repeatCount="indefinite"
    values="22;80;22"
    keyTimes="0;0.5;1"
    calcMode="spline"
    keySplines="0.4 0 0.6 1;0.4 0 0.6 1"/>
  <animate attributeName="y"
    dur="1.6023443168991653s"
    repeatCount="indefinite"
    values="258;200;258"
    keyTimes="0;0.5;1"
    calcMode="spline"
    keySplines="0.4 0 0.6 1;0.4 0 0.6 1"/>
</rect>

<rect x="560"
      y="258"
      width="14"
      height="22"
      fill="url(#grad)"
      opacity="0.5718931506472371">
  <animate attributeName="height"
    dur="1.684177293186841s"
    repeatCount="indefinite"
    values="22;80;22"
    keyTimes="0;0.5;1"
    calcMode="spline"
    keySplines="0.4 0 0.6 1;0.4 0 0.6 1"/>
  <animate attributeName="y"
    dur="1.684177293186841s"
    repeatCount="indefinite"
    values="258;200;258"
    keyTimes="0;0.5;1"
    calcMode="spline"
    keySplines="0.4 0 0.6 1;0.4 0 0.6 1"/>
</rect>

<rect x="576"
      y="258"
      width="14"
      height="22"
      fill="url(#grad)"
      opacity="0.4514303052771229">
  <animate attributeName="height"
    dur="2.83638051972886s"
    repeatCount="indefinite"
    values="22;80;22"
    keyTimes="0;0.5;1"
    calcMode="spline"
    keySplines="0.4 0 0.6 1;0.4 0 0.6 1"/>
  <animate attributeName="y"
    dur="2.83638051972886s"
    repeatCount="indefinite"
    values="258;200;258"
    keyTimes="0;0.5;1"
    calcMode="spline"
    keySplines="0.4 0 0.6 1;0.4 0 0.6 1"/>
</rect>

<rect x="592"
      y="258"
      width="14"
      height="22"
      fill="url(#grad)"
      opacity="0.5081009567403063">
  <animate attributeName="height"
    dur="1.630422555284918s"
    repeatCount="indefinite"
    values="22;80;22"
    keyTimes="0;0.5;1"
    calcMode="spline"
    keySplines="0.4 0 0.6 1;0.4 0 0.6 1"/>
  <animate attributeName="y"
    dur="1.630422555284918s"
    repeatCount="indefinite"
    values="258;200;258"
    keyTimes="0;0.5;1"
    calcMode="spline"
    keySplines="0.4 0 0.6 1;0.4 0 0.6 1"/>
</rect>

<rect x="608"
      y="258"
      width="14"
      height="22"
      fill="url(#grad)"
      opacity="0.7248002262680557">
  <animate attributeName="height"
    dur="2.9672270084929537s"
    repeatCount="indefinite"
    values="22;80;22"
    keyTimes="0;0.5;1"
    calcMode="spline"
    keySplines="0.4 0 0.6 1;0.4 0 0.6 1"/>
  <animate attributeName="y"
    dur="2.9672270084929537s"
    repeatCount="indefinite"
    values="258;200;258"
    keyTimes="0;0.5;1"
    calcMode="spline"
    keySplines="0.4 0 0.6 1;0.4 0 0.6 1"/>
</rect>

<rect x="624"
      y="258"
      width="14"
      height="22"
      fill="url(#grad)"
      opacity="0.6665067664882451">
  <animate attributeName="height"
    dur="2.4669378444002446s"
    repeatCount="indefinite"
    values="22;80;22"
    keyTimes="0;0.5;1"
    calcMode="spline"
    keySplines="0.4 0 0.6 1;0.4 0 0.6 1"/>
  <animate attributeName="y"
    dur="2.4669378444002446s"
    repeatCount="indefinite"
    values="258;200;258"
    keyTimes="0;0.5;1"
    calcMode="spline"
    keySplines="0.4 0 0.6 1;0.4 0 0.6 1"/>
</rect>

<rect x="640"
      y="265"
      width="14"
      height="15"
      fill="url(#grad)"
      opacity="0.44350151111871894">
  <animate attributeName="height"
    dur="1.2931224929963638s"
    repeatCount="indefinite"
    values="15;60;15"
    keyTimes="0;0.5;1"
    calcMode="spline"
    keySplines="0.4 0 0.6 1;0.4 0 0.6 1"/>
  <animate attributeName="y"
    dur="1.2931224929963638s"
    repeatCount="indefinite"
    values="265;220;265"
    keyTimes="0;0.5;1"
    calcMode="spline"
    keySplines="0.4 0 0.6 1;0.4 0 0.6 1"/>
</rect>

<rect x="656"
      y="265"
      width="14"
      height="15"
      fill="url(#grad)"
      opacity="0.5034462988515512">
  <animate attributeName="height"
    dur="1.2763304126008148s"
    repeatCount="indefinite"
    values="15;60;15"
    keyTimes="0;0.5;1"
    calcMode="spline"
    keySplines="0.4 0 0.6 1;0.4 0 0.6 1"/>
  <animate attributeName="y"
    dur="1.2763304126008148s"
    repeatCount="indefinite"
    values="265;220;265"
    keyTimes="0;0.5;1"
    calcMode="spline"
    keySplines="0.4 0 0.6 1;0.4 0 0.6 1"/>
</rect>

<rect x="672"
      y="265"
      width="14"
      height="15"
      fill="url(#grad)"
      opacity="0.7883635881983593">
  <animate attributeName="height"
    dur="1.282176095559389s"
    repeatCount="indefinite"
    values="15;60;15"
    keyTimes="0;0.5;1"
    calcMode="spline"
    keySplines="0.4 0 0.6 1;0.4 0 0.6 1"/>
  <animate attributeName="y"
    dur="1.282176095559389s"
    repeatCount="indefinite"
    values="265;220;265"
    keyTimes="0;0.5;1"
    calcMode="spline"
    keySplines="0.4 0 0.6 1;0.4 0 0.6 1"/>
</rect>

<rect x="688"
      y="265"
      width="14"
      height="15"
      fill="url(#grad)"
      opacity="0.7536059819913294">
  <animate attributeName="height"
    dur="1.7634544203402849s"
    repeatCount="indefinite"
    values="15;60;15"
    keyTimes="0;0.5;1"
    calcMode="spline"
    keySplines="0.4 0 0.6 1;0.4 0 0.6 1"/>
  <animate attributeName="y"
    dur="1.7634544203402849s"
    repeatCount="indefinite"
    values="265;220;265"
    keyTimes="0;0.5;1"
    calcMode="spline"
    keySplines="0.4 0 0.6 1;0.4 0 0.6 1"/>
</rect>

<rect x="704"
      y="265"
      width="14"
      height="15"
      fill="url(#grad)"
      opacity="0.5975520037150202">
  <animate attributeName="height"
    dur="1.1130586467717218s"
    repeatCount="indefinite"
    values="15;60;15"
    keyTimes="0;0.5;1"
    calcMode="spline"
    keySplines="0.4 0 0.6 1;0.4 0 0.6 1"/>
  <animate attributeName="y"
    dur="1.1130586467717218s"
    repeatCount="indefinite"
    values="265;220;265"
    keyTimes="0;0.5;1"
    calcMode="spline"
    keySplines="0.4 0 0.6 1;0.4 0 0.6 1"/>
</rect>

<rect x="720"
      y="265"
      width="14"
      height="15"
      fill="url(#grad)"
      opacity="0.7578059405340828">
  <animate attributeName="height"
    dur="1.7167936765454501s"
    repeatCount="indefinite"
    values="15;60;15"
    keyTimes="0;0.5;1"
    calcMode="spline"
    keySplines="0.4 0 0.6 1;0.4 0 0.6 1"/>
  <animate attributeName="y"
    dur="1.7167936765454501s"
    repeatCount="indefinite"
    values="265;220;265"
    keyTimes="0;0.5;1"
    calcMode="spline"
    keySplines="0.4 0 0.6 1;0.4 0 0.6 1"/>
</rect>

<rect x="736"
      y="265"
      width="14"
      height="15"
      fill="url(#grad)"
      opacity="0.5070186630653598">
  <animate attributeName="height"
    dur="1.4598507941961119s"
    repeatCount="indefinite"
    values="15;60;15"
    keyTimes="0;0.5;1"
    calcMode="spline"
    keySplines="0.4 0 0.6 1;0.4 0 0.6 1"/>
  <animate attributeName="y"
    dur="1.4598507941961119s"
    repeatCount="indefinite"
    values="265;220;265"
    keyTimes="0;0.5;1"
    calcMode="spline"
    keySplines="0.4 0 0.6 1;0.4 0 0.6 1"/>
</rect>

<rect x="752"
      y="265"
      width="14"
      height="15"
      fill="url(#grad)"
      opacity="0.4687770669484689">
  <animate attributeName="height"
    dur="1.5926548898632524s"
    repeatCount="indefinite"
    values="15;60;15"
    keyTimes="0;0.5;1"
    calcMode="spline"
    keySplines="0.4 0 0.6 1;0.4 0 0.6 1"/>
  <animate attributeName="y"
    dur="1.5926548898632524s"
    repeatCount="indefinite"
    values="265;220;265"
    keyTimes="0;0.5;1"
    calcMode="spline"
    keySplines="0.4 0 0.6 1;0.4 0 0.6 1"/>
</rect>

<rect x="768"
      y="265"
      width="14"
      height="15"
      fill="url(#grad)"
      opacity="0.7716633709063149">
  <animate attributeName="height"
    dur="0.8670971832045495s"
    repeatCount="indefinite"
    values="15;60;15"
    keyTimes="0;0.5;1"
    calcMode="spline"
    keySplines="0.4 0 0.6 1;0.4 0 0.6 1"/>
  <animate attributeName="y"
    dur="0.8670971832045495s"
    repeatCount="indefinite"
    values="265;220;265"
    keyTimes="0;0.5;1"
    calcMode="spline"
    keySplines="0.4 0 0.6 1;0.4 0 0.6 1"/>
</rect>

<rect x="784"
      y="265"
      width="14"
      height="15"
      fill="url(#grad)"
      opacity="0.6158840184900013">
  <animate attributeName="height"
    dur="1.1949367524673535s"
    repeatCount="indefinite"
    values="15;60;15"
    keyTimes="0;0.5;1"
    calcMode="spline"
    keySplines="0.4 0 0.6 1;0.4 0 0.6 1"/>
  <animate attributeName="y"
    dur="1.1949367524673535s"
    repeatCount="indefinite"
    values="265;220;265"
    keyTimes="0;0.5;1"
    calcMode="spline"
    keySplines="0.4 0 0.6 1;0.4 0 0.6 1"/>
</rect>

<rect x="800"
      y="265"
      width="14"
      height="15"
      fill="url(#grad)"
      opacity="0.5047643214873343">
  <animate attributeName="height"
    dur="1.6481285824352716s"
    repeatCount="indefinite"
    values="15;60;15"
    keyTimes="0;0.5;1"
    calcMode="spline"
    keySplines="0.4 0 0.6 1;0.4 0 0.6 1"/>
  <animate attributeName="y"
    dur="1.6481285824352716s"
    repeatCount="indefinite"
    values="265;220;265"
    keyTimes="0;0.5;1"
    calcMode="spline"
    keySplines="0.4 0 0.6 1;0.4 0 0.6 1"/>
</rect>

<rect x="816"
      y="265"
      width="14"
      height="15"
      fill="url(#grad)"
      opacity="0.77357591452173">
  <animate attributeName="height"
    dur="1.2348785827280375s"
    repeatCount="indefinite"
    values="15;60;15"
    keyTimes="0;0.5;1"
    calcMode="spline"
    keySplines="0.4 0 0.6 1;0.4 0 0.6 1"/>
  <animate attributeName="y"
    dur="1.2348785827280375s"
    repeatCount="indefinite"
    values="265;220;265"
    keyTimes="0;0.5;1"
    calcMode="spline"
    keySplines="0.4 0 0.6 1;0.4 0 0.6 1"/>
</rect>

<rect x="832"
      y="265"
      width="14"
      height="15"
      fill="url(#grad)"
      opacity="0.7922945861585906">
  <animate attributeName="height"
    dur="1.6375332756737269s"
    repeatCount="indefinite"
    values="15;60;15"
    keyTimes="0;0.5;1"
    calcMode="spline"
    keySplines="0.4 0 0.6 1;0.4 0 0.6 1"/>
  <animate attributeName="y"
    dur="1.6375332756737269s"
    repeatCount="indefinite"
    values="265;220;265"
    keyTimes="0;0.5;1"
    calcMode="spline"
    keySplines="0.4 0 0.6 1;0.4 0 0.6 1"/>
</rect>

<rect x="848"
      y="265"
      width="14"
      height="15"
      fill="url(#grad)"
      opacity="0.6799576845454562">
  <animate attributeName="height"
    dur="1.1985323065412503s"
    repeatCount="indefinite"
    values="15;60;15"
    keyTimes="0;0.5;1"
    calcMode="spline"
    keySplines="0.4 0 0.6 1;0.4 0 0.6 1"/>
  <animate attributeName="y"
    dur="1.1985323065412503s"
    repeatCount="indefinite"
    values="265;220;265"
    keyTimes="0;0.5;1"
    calcMode="spline"
    keySplines="0.4 0 0.6 1;0.4 0 0.6 1"/>
</rect>

<rect x="864"
      y="265"
      width="14"
      height="15"
      fill="url(#grad)"
      opacity="0.7561045110725236">
  <animate attributeName="height"
    dur="1.4894648548529625s"
    repeatCount="indefinite"
    values="15;60;15"
    keyTimes="0;0.5;1"
    calcMode="spline"
    keySplines="0.4 0 0.6 1;0.4 0 0.6 1"/>
  <animate attributeName="y"
    dur="1.4894648548529625s"
    repeatCount="indefinite"
    values="265;220;265"
    keyTimes="0;0.5;1"
    calcMode="spline"
    keySplines="0.4 0 0.6 1;0.4 0 0.6 1"/>
</rect>

<rect x="880"
      y="265"
      width="14"
      height="15"
      fill="url(#grad)"
      opacity="0.43356044742736294">
  <animate attributeName="height"
    dur="1.2325917055076685s"
    repeatCount="indefinite"
    values="15;60;15"
    keyTimes="0;0.5;1"
    calcMode="spline"
    keySplines="0.4 0 0.6 1;0.4 0 0.6 1"/>
  <animate attributeName="y"
    dur="1.2325917055076685s"
    repeatCount="indefinite"
    values="265;220;265"
    keyTimes="0;0.5;1"
    calcMode="spline"
    keySplines="0.4 0 0.6 1;0.4 0 0.6 1"/>
</rect>

<rect x="896"
      y="265"
      width="14"
      height="15"
      fill="url(#grad)"
      opacity="0.6089290124401696">
  <animate attributeName="height"
    dur="1.1995585579206887s"
    repeatCount="indefinite"
    values="15;60;15"
    keyTimes="0;0.5;1"
    calcMode="spline"
    keySplines="0.4 0 0.6 1;0.4 0 0.6 1"/>
  <animate attributeName="y"
    dur="1.1995585579206887s"
    repeatCount="indefinite"
    values="265;220;265"
    keyTimes="0;0.5;1"
    calcMode="spline"
    keySplines="0.4 0 0.6 1;0.4 0 0.6 1"/>
</rect>

<rect x="912"
      y="265"
      width="14"
      height="15"
      fill="url(#grad)"
      opacity="0.5018843689564091">
  <animate attributeName="height"
    dur="1.6137096407310936s"
    repeatCount="indefinite"
    values="15;60;15"
    keyTimes="0;0.5;1"
    calcMode="spline"
    keySplines="0.4 0 0.6 1;0.4 0 0.6 1"/>
  <animate attributeName="y"
    dur="1.6137096407310936s"
    repeatCount="indefinite"
    values="265;220;265"
    keyTimes="0;0.5;1"
    calcMode="spline"
    keySplines="0.4 0 0.6 1;0.4 0 0.6 1"/>
</rect>

<rect x="928"
      y="265"
      width="14"
      height="15"
      fill="url(#grad)"
      opacity="0.6433923764494949">
  <animate attributeName="height"
    dur="1.6041879370083532s"
    repeatCount="indefinite"
    values="15;60;15"
    keyTimes="0;0.5;1"
    calcMode="spline"
    keySplines="0.4 0 0.6 1;0.4 0 0.6 1"/>
  <animate attributeName="y"
    dur="1.6041879370083532s"
    repeatCount="indefinite"
    values="265;220;265"
    keyTimes="0;0.5;1"
    calcMode="spline"
    keySplines="0.4 0 0.6 1;0.4 0 0.6 1"/>
</rect>

<rect x="944"
      y="265"
      width="14"
      height="15"
      fill="url(#grad)"
      opacity="0.5264420055065084">
  <animate attributeName="height"
    dur="1.5781393011939784s"
    repeatCount="indefinite"
    values="15;60;15"
    keyTimes="0;0.5;1"
    calcMode="spline"
    keySplines="0.4 0 0.6 1;0.4 0 0.6 1"/>
  <animate attributeName="y"
    dur="1.5781393011939784s"
    repeatCount="indefinite"
    values="265;220;265"
    keyTimes="0;0.5;1"
    calcMode="spline"
    keySplines="0.4 0 0.6 1;0.4 0 0.6 1"/>
</rect>

</g>

<!-- VERTICAL WAVES -->

<g opacity="0.18" >
  <path d="M 0 140 Q 2.1818181818181817 140 4.363636363636363 138.94686853229678 Q 6.545454545454545 138.94686853229678 8.727272727272727 137.89811159088464 Q 10.909090909090908 137.89811159088464 13.09090909090909 136.85807434196192 Q 15.272727272727272 136.85807434196192 17.454545454545453 135.83104344471306 Q 19.636363636363633 135.83104344471306 21.818181818181817 134.82121832916897 Q 24 134.82121832916897 26.18181818181818 133.83268310734547 Q 28.36363636363636 133.83268310734547 30.545454545454543 132.86937932151594 Q 32.72727272727273 132.86937932151594 34.90909090909091 131.93507972734037 Q 37.090909090909086 131.93507972734037 39.272727272727266 131.03336330198889 Q 41.45454545454545 131.03336330198889 43.63636363636363 130.16759165842245 Q 45.81818181818182 130.16759165842245 48 129.34088703668877 Q 50.18181818181818 129.34088703668877 52.36363636363636 128.55611203153725 Q 54.54545454545454 128.55611203153725 56.72727272727272 127.8158512029329 Q 58.90909090909091 127.8158512029329 61.090909090909086 127.12239470225481 Q 63.27272727272727 127.12239470225481 65.45454545454545 126.47772403219471 Q 67.63636363636363 126.47772403219471 69.81818181818181 125.88350004273994 Q 71.99999999999999 125.88350004273994 74.18181818181817 125.34105324924201 Q 76.36363636363635 125.34105324924201 78.54545454545453 124.85137654156154 Q 80.72727272727272 124.85137654156154 82.9090909090909 124.41512033576403 Q 85.09090909090908 124.41512033576403 87.27272727272727 124.03259020194938 Q 89.45454545454544 124.03259020194938 91.63636363636363 123.70374698366146 Q 93.81818181818181 123.70374698366146 96 123.42820940607601 Q 98.18181818181817 123.42820940607601 100.36363636363636 123.20525915193855 Q 102.54545454545453 123.20525915193855 104.72727272727272 123.0338483661541 Q 106.90909090909089 123.0338483661541 109.09090909090908 122.91260953214842 Q 111.27272727272725 122.91260953214842 113.45454545454544 122.83986764575732 Q 115.63636363636363 122.83986764575732 117.81818181818181 122.81365459558336 Q 119.99999999999999 122.81365459558336 122.18181818181817 122.83172564261233 Q 124.36363636363635 122.83172564261233 126.54545454545453 122.89157787652145 Q 128.72727272727272 122.89157787652145 130.9090909090909 122.99047051165309 Q 133.09090909090907 122.99047051165309 135.27272727272725 123.12544687217476 Q 137.45454545454544 123.12544687217476 139.63636363636363 123.29335790359949 Q 141.8181818181818 123.29335790359949 144 123.49088703668878 Q 146.18181818181816 123.49088703668878 148.36363636363635 123.71457621988775 Q 150.54545454545453 123.71457621988775 152.72727272727272 123.96085292791705 Q 154.90909090909088 123.96085292791705 157.09090909090907 124.22605794703597 Q 159.27272727272725 124.22605794703597 161.45454545454544 124.5064737318443 Q 163.63636363636363 124.5064737318443 165.8181818181818 124.79835312434975 Q 167.99999999999997 124.79835312434975 170.18181818181816 125.09794822342374 Q 172.36363636363635 125.09794822342374 174.54545454545453 125.40153919171968 Q 176.72727272727272 125.40153919171968 178.9090909090909 125.70546278764174 Q 181.09090909090907 125.70546278764174 183.27272727272725 126.00614041202616 Q 185.45454545454544 126.00614041202616 187.63636363636363 126.30010546281402 Q 189.8181818181818 126.30010546281402 192 126.58402979612981 Q 194.18181818181816 126.58402979612981 196.36363636363635 126.85474909879434 Q 198.54545454545453 126.85474909879434 200.72727272727272 127.10928698534624 Q 202.90909090909088 127.10928698534624 205.09090909090907 127.34487764206422 Q 207.27272727272725 127.34487764206422 209.45454545454544 127.55898685120239 Q 211.63636363636363 127.55898685120239 213.8181818181818 127.74933124059612 Q 215.99999999999997 127.74933124059612 218.18181818181816 127.91389561687667 Q 220.36363636363635 127.91389561687667 222.54545454545453 128.0509482546551 Q 224.7272727272727 128.0509482546551 226.90909090909088 128.15905402909388 Q 229.09090909090907 128.15905402909388 231.27272727272725 128.23708529517003 Q 233.45454545454544 128.23708529517003 235.63636363636363 128.28423043352754 Q 237.81818181818178 128.28423043352754 239.99999999999997 128.3 Q 242.18181818181816 128.3 244.36363636363635 128.28423043352754 Q 246.54545454545453 128.28423043352754 248.72727272727272 128.23708529517003 Q 250.90909090909088 128.23708529517003 253.09090909090907 128.15905402909388 Q 255.27272727272725 128.15905402909388 257.45454545454544 128.0509482546551 Q 259.6363636363636 128.0509482546551 261.8181818181818 127.91389561687667 Q 264 127.91389561687667 266.1818181818182 127.74933124059612 Q 268.3636363636363 127.74933124059612 270.5454545454545 127.55898685120239 Q 272.7272727272727 127.55898685120239 274.9090909090909 127.34487764206422 Q 277.09090909090907 127.34487764206422 279.27272727272725 127.10928698534624 Q 281.45454545454544 127.10928698534624 283.6363636363636 126.85474909879434 Q 285.8181818181818 126.85474909879434 288 126.58402979612981 Q 290.18181818181813 126.58402979612981 292.3636363636363 126.30010546281402 Q 294.5454545454545 126.30010546281402 296.7272727272727 126.00614041202616 Q 298.9090909090909 126.00614041202616 301.09090909090907 125.70546278764174 Q 303.27272727272725 125.70546278764174 305.45454545454544 125.40153919171968 Q 307.6363636363636 125.40153919171968 309.8181818181818 125.09794822342374 Q 311.99999999999994 125.09794822342374 314.18181818181813 124.79835312434975 Q 316.3636363636363 124.79835312434975 318.5454545454545 124.5064737318443 Q 320.7272727272727 124.5064737318443 322.9090909090909 124.22605794703595 Q 325.09090909090907 124.22605794703595 327.27272727272725 123.96085292791705 Q 329.45454545454544 123.96085292791705 331.6363636363636 123.71457621988776 Q 333.8181818181818 123.71457621988776 336 123.49088703668878 Q 338.18181818181813 123.49088703668878 340.3636363636363 123.29335790359949 Q 342.5454545454545 123.29335790359949 344.7272727272727 123.12544687217478 Q 346.9090909090909 123.12544687217478 349.09090909090907 122.99047051165309 Q 351.27272727272725 122.99047051165309 353.45454545454544 122.89157787652145 Q 355.6363636363636 122.89157787652145 357.8181818181818 122.83172564261233 Q 359.99999999999994 122.83172564261233 362.18181818181813 122.81365459558336 Q 364.3636363636363 122.81365459558336 366.5454545454545 122.83986764575732 Q 368.7272727272727 122.83986764575732 370.9090909090909 122.91260953214842 Q 373.09090909090907 122.91260953214842 375.27272727272725 123.0338483661541 Q 377.45454545454544 123.0338483661541 379.6363636363636 123.20525915193855 Q 381.8181818181818 123.20525915193855 384 123.42820940607601 Q 386.18181818181813 123.42820940607601 388.3636363636363 123.70374698366146 Q 390.5454545454545 123.70374698366146 392.7272727272727 124.03259020194938 Q 394.9090909090909 124.03259020194938 397.09090909090907 124.41512033576403 Q 399.27272727272725 124.41512033576403 401.45454545454544 124.85137654156154 Q 403.6363636363636 124.85137654156154 405.8181818181818 125.34105324924201 Q 407.99999999999994 125.34105324924201 410.18181818181813 125.88350004273993 Q 412.3636363636363 125.88350004273993 414.5454545454545 126.47772403219471 Q 416.7272727272727 126.47772403219471 418.9090909090909 127.12239470225481 Q 421.09090909090907 127.12239470225481 423.27272727272725 127.8158512029329 Q 425.45454545454544 127.8158512029329 427.6363636363636 128.55611203153722 Q 429.81818181818176 128.55611203153722 431.99999999999994 129.34088703668877 Q 434.18181818181813 129.34088703668877 436.3636363636363 130.16759165842242 Q 438.5454545454545 130.16759165842242 440.7272727272727 131.03336330198889 Q 442.9090909090909 131.03336330198889 445.09090909090907 131.93507972734037 Q 447.27272727272725 131.93507972734037 449.45454545454544 132.86937932151594 Q 451.63636363636357 132.86937932151594 453.81818181818176 133.83268310734547 Q 455.99999999999994 133.83268310734547 458.18181818181813 134.821218329169 Q 460.3636363636363 134.821218329169 462.5454545454545 135.83104344471306 Q 464.7272727272727 135.83104344471306 466.9090909090909 136.85807434196192 Q 469.09090909090907 136.85807434196192 471.27272727272725 137.89811159088464 Q 473.45454545454544 137.89811159088464 475.6363636363636 138.94686853229678 Q 477.81818181818176 138.94686853229678 479.99999999999994 140 Q 482.18181818181813 140 484.3636363636363 141.0531314677032 Q 486.5454545454545 141.0531314677032 488.7272727272727 142.10188840911533 Q 490.9090909090909 142.10188840911533 493.09090909090907 143.14192565803808 Q 495.27272727272725 143.14192565803808 497.45454545454544 144.16895655528694 Q 499.63636363636357 144.16895655528694 501.81818181818176 145.178781670831 Q 503.99999999999994 145.178781670831 506.18181818181813 146.16731689265453 Q 508.3636363636363 146.16731689265453 510.5454545454545 147.13062067848406 Q 512.7272727272727 147.13062067848406 514.9090909090909 148.06492027265963 Q 517.0909090909091 148.06492027265963 519.2727272727273 148.96663669801111 Q 521.4545454545455 148.96663669801111 523.6363636363636 149.83240834157755 Q 525.8181818181819 149.83240834157755 528 150.65911296331123 Q 530.1818181818182 150.65911296331123 532.3636363636364 151.44388796846275 Q 534.5454545454545 151.44388796846275 536.7272727272726 152.18414879706708 Q 538.9090909090909 152.18414879706708 541.090909090909 152.8776052977452 Q 543.2727272727273 152.8776052977452 545.4545454545454 153.52227596780529 Q 547.6363636363636 153.52227596780529 549.8181818181818 154.11649995726006 Q 552 154.11649995726006 554.1818181818181 154.658946750758 Q 556.3636363636364 154.658946750758 558.5454545454545 155.14862345843846 Q 560.7272727272727 155.14862345843846 562.9090909090909 155.58487966423596 Q 565.0909090909091 155.58487966423596 567.2727272727273 155.96740979805062 Q 569.4545454545455 155.96740979805062 571.6363636363636 156.29625301633854 Q 573.8181818181819 156.29625301633854 576 156.571790593924 Q 578.1818181818182 156.571790593924 580.3636363636364 156.79474084806145 Q 582.5454545454545 156.79474084806145 584.7272727272726 156.9661516338459 Q 586.9090909090909 156.9661516338459 589.090909090909 157.08739046785158 Q 591.2727272727273 157.08739046785158 593.4545454545454 157.16013235424268 Q 595.6363636363636 157.16013235424268 597.8181818181818 157.18634540441664 Q 600 157.18634540441664 602.1818181818181 157.16827435738767 Q 604.3636363636364 157.16827435738767 606.5454545454545 157.10842212347856 Q 608.7272727272727 157.10842212347856 610.9090909090909 157.0095294883469 Q 613.0909090909091 157.0095294883469 615.2727272727273 156.87455312782524 Q 617.4545454545455 156.87455312782524 619.6363636363636 156.70664209640051 Q 621.8181818181819 156.70664209640051 624 156.50911296331122 Q 626.1818181818181 156.50911296331122 628.3636363636363 156.28542378011224 Q 630.5454545454545 156.28542378011224 632.7272727272726 156.03914707208295 Q 634.9090909090909 156.03914707208295 637.090909090909 155.77394205296403 Q 639.2727272727273 155.77394205296403 641.4545454545454 155.4935262681557 Q 643.6363636363636 155.4935262681557 645.8181818181818 155.20164687565025 Q 648 155.20164687565025 650.1818181818181 154.90205177657626 Q 652.3636363636364 154.90205177657626 654.5454545454545 154.59846080828032 Q 656.7272727272727 154.59846080828032 658.9090909090909 154.29453721235825 Q 661.0909090909091 154.29453721235825 663.2727272727273 153.99385958797384 Q 665.4545454545455 153.99385958797384 667.6363636363636 153.699894537186 Q 669.8181818181819 153.699894537186 672 153.4159702038702 Q 674.1818181818181 153.4159702038702 676.3636363636363 153.14525090120566 Q 678.5454545454545 153.14525090120566 680.7272727272726 152.89071301465376 Q 682.9090909090909 152.89071301465376 685.090909090909 152.6551223579358 Q 687.2727272727273 152.6551223579358 689.4545454545454 152.44101314879762 Q 691.6363636363636 152.44101314879762 693.8181818181818 152.25066875940388 Q 696 152.25066875940388 698.1818181818181 152.0861043831233 Q 700.3636363636364 152.0861043831233 702.5454545454545 151.9490517453449 Q 704.7272727272727 151.9490517453449 706.9090909090909 151.84094597090612 Q 709.0909090909091 151.84094597090612 711.2727272727273 151.76291470482997 Q 713.4545454545455 151.76291470482997 715.6363636363636 151.71576956647246 Q 717.8181818181819 151.71576956647246 720 151.7 Q 722.1818181818181 151.7 724.3636363636363 151.71576956647246 Q 726.5454545454545 151.71576956647246 728.7272727272726 151.76291470482997 Q 730.9090909090909 151.76291470482997 733.090909090909 151.84094597090612 Q 735.2727272727273 151.84094597090612 737.4545454545454 151.9490517453449 Q 739.6363636363636 151.9490517453449 741.8181818181818 152.0861043831233 Q 744 152.0861043831233 746.1818181818181 152.25066875940388 Q 748.3636363636364 152.25066875940388 750.5454545454545 152.44101314879762 Q 752.7272727272727 152.44101314879762 754.9090909090909 152.6551223579358 Q 757.0909090909091 152.6551223579358 759.2727272727273 152.89071301465376 Q 761.4545454545455 152.89071301465376 763.6363636363636 153.14525090120566 Q 765.8181818181819 153.14525090120566 768 153.4159702038702 Q 770.1818181818181 153.4159702038702 772.3636363636363 153.69989453718597 Q 774.5454545454545 153.69989453718597 776.7272727272726 153.99385958797384 Q 778.9090909090909 153.99385958797384 781.090909090909 154.29453721235825 Q 783.2727272727273 154.29453721235825 785.4545454545454 154.59846080828032 Q 787.6363636363636 154.59846080828032 789.8181818181818 154.90205177657626 Q 792 154.90205177657626 794.1818181818181 155.20164687565025 Q 796.3636363636364 155.20164687565025 798.5454545454545 155.4935262681557 Q 800.7272727272727 155.4935262681557 802.9090909090909 155.77394205296403 Q 805.0909090909091 155.77394205296403 807.2727272727273 156.03914707208295 Q 809.4545454545455 156.03914707208295 811.6363636363636 156.28542378011224 Q 813.8181818181818 156.28542378011224 815.9999999999999 156.50911296331122 Q 818.1818181818181 156.50911296331122 820.3636363636363 156.70664209640051 Q 822.5454545454545 156.70664209640051 824.7272727272726 156.8745531278252 Q 826.9090909090909 156.8745531278252 829.090909090909 157.0095294883469 Q 831.2727272727273 157.0095294883469 833.4545454545454 157.10842212347856 Q 835.6363636363636 157.10842212347856 837.8181818181818 157.16827435738767 Q 840 157.16827435738767 842.1818181818181 157.18634540441664 Q 844.3636363636364 157.18634540441664 846.5454545454545 157.16013235424268 Q 848.7272727272727 157.16013235424268 850.9090909090909 157.08739046785158 Q 853.0909090909091 157.08739046785158 855.2727272727273 156.9661516338459 Q 857.4545454545455 156.9661516338459 859.6363636363636 156.79474084806145 Q 861.8181818181818 156.79474084806145 863.9999999999999 156.571790593924 Q 866.1818181818181 156.571790593924 868.3636363636363 156.29625301633854 Q 870.5454545454545 156.29625301633854 872.7272727272726 155.96740979805065 Q 874.9090909090909 155.96740979805065 877.090909090909 155.58487966423596 Q 879.2727272727273 155.58487966423596 881.4545454545454 155.14862345843846 Q 883.6363636363636 155.14862345843846 885.8181818181818 154.658946750758 Q 888 154.658946750758 890.1818181818181 154.11649995726006 Q 892.3636363636364 154.11649995726006 894.5454545454545 153.5222759678053 Q 896.7272727272727 153.5222759678053 898.9090909090909 152.8776052977452 Q 901.0909090909091 152.8776052977452 903.2727272727273 152.1841487970671 Q 905.4545454545454 152.1841487970671 907.6363636363635 151.44388796846275 Q 909.8181818181818 151.44388796846275 911.9999999999999 150.65911296331123 Q 914.1818181818181 150.65911296331123 916.3636363636363 149.83240834157755 Q 918.5454545454545 149.83240834157755 920.7272727272726 148.96663669801111 Q 922.9090909090909 148.96663669801111 925.090909090909 148.06492027265966 Q 927.2727272727273 148.06492027265966 929.4545454545454 147.13062067848406 Q 931.6363636363636 147.13062067848406 933.8181818181818 146.16731689265453 Q 936 146.16731689265453 938.1818181818181 145.17878167083103 Q 940.3636363636364 145.17878167083103 942.5454545454545 144.16895655528694 Q 944.7272727272727 144.16895655528694 946.9090909090909 143.1419256580381 Q 949.0909090909091 143.1419256580381 951.2727272727273 142.10188840911533 Q 953.4545454545454 142.10188840911533 955.6363636363635 141.05313146770322 Q 957.8181818181818 141.05313146770322 959.9999999999999 140 "
        stroke="url(#grad)"
        stroke-width="3"
        fill="none">
    <animateTransform
      attributeName="transform"
      type="translate"
      from="0 -6"
      to="0 6"
      dur="6s"
      repeatCount="indefinite"
      direction="alternate"/>
  </path>
</g>
<g opacity="0.35" >
  <path d="M 0 140 Q 2.1818181818181817 140 4.363636363636363 139.2979123548645 Q 6.545454545454545 139.2979123548645 8.727272727272727 138.59874106058976 Q 10.909090909090908 138.59874106058976 13.09090909090909 137.90538289464126 Q 15.272727272727272 137.90538289464126 17.454545454545453 137.22069562980872 Q 19.636363636363633 137.22069562980872 21.818181818181817 136.54747888611266 Q 24 136.54747888611266 26.18181818181818 135.88845540489697 Q 28.36363636363636 135.88845540489697 30.545454545454543 135.24625288101063 Q 32.72727272727273 135.24625288101063 34.90909090909091 134.62338648489356 Q 37.090909090909086 134.62338648489356 39.272727272727266 134.02224220132592 Q 41.45454545454545 134.02224220132592 43.63636363636363 133.44506110561497 Q 45.81818181818182 133.44506110561497 48 132.89392469112585 Q 50.18181818181818 132.89392469112585 52.36363636363636 132.37074135435816 Q 54.54545454545454 132.37074135435816 56.72727272727272 131.8772341352886 Q 58.90909090909091 131.8772341352886 61.090909090909086 131.4149298015032 Q 63.27272727272727 131.4149298015032 65.45454545454545 130.98514935479648 Q 67.63636363636363 130.98514935479648 69.81818181818181 130.5890000284933 Q 71.99999999999999 130.5890000284933 74.18181818181817 130.227368832828 Q 76.36363636363635 130.227368832828 78.54545454545453 129.90091769437436 Q 80.72727272727272 129.90091769437436 82.9090909090909 129.6100802238427 Q 85.09090909090908 129.6100802238427 87.27272727272727 129.3550601346329 Q 89.45454545454544 129.3550601346329 91.63636363636363 129.13583132244096 Q 93.81818181818181 129.13583132244096 96 128.95213960405067 Q 98.18181818181817 128.95213960405067 100.36363636363636 128.80350610129238 Q 102.54545454545453 128.80350610129238 104.72727272727272 128.68923224410273 Q 106.90909090909089 128.68923224410273 109.09090909090908 128.6084063547656 Q 111.27272727272725 128.6084063547656 113.45454545454544 128.55991176383822 Q 115.63636363636363 128.55991176383822 117.81818181818181 128.54243639705558 Q 119.99999999999999 128.54243639705558 122.18181818181817 128.55448376174155 Q 124.36363636363635 128.55448376174155 126.54545454545453 128.5943852510143 Q 128.72727272727272 128.5943852510143 130.9090909090909 128.6603136744354 Q 133.09090909090907 128.6603136744354 135.27272727272725 128.75029791478318 Q 137.45454545454544 128.75029791478318 139.63636363636363 128.86223860239966 Q 141.8181818181818 128.86223860239966 144 128.99392469112584 Q 146.18181818181816 128.99392469112584 148.36363636363635 129.1430508132585 Q 150.54545454545453 129.1430508132585 152.72727272727272 129.30723528527804 Q 154.90909090909088 129.30723528527804 157.09090909090907 129.4840386313573 Q 159.27272727272725 129.4840386313573 161.45454545454544 129.6709824878962 Q 163.63636363636363 129.6709824878962 165.8181818181818 129.8655687495665 Q 167.99999999999997 129.8655687495665 170.18181818181816 130.06529881561582 Q 172.36363636363635 130.06529881561582 174.54545454545453 130.26769279447979 Q 176.72727272727272 130.26769279447979 178.9090909090909 130.47030852509448 Q 181.09090909090907 130.47030852509448 183.27272727272725 130.6707602746841 Q 185.45454545454544 130.6707602746841 187.63636363636363 130.86673697520934 Q 189.8181818181818 130.86673697520934 192 131.05601986408655 Q 194.18181818181816 131.05601986408655 196.36363636363635 131.23649939919622 Q 198.54545454545453 131.23649939919622 200.72727272727272 131.40619132356414 Q 202.90909090909088 131.40619132356414 205.09090909090907 131.56325176137614 Q 207.27272727272725 131.56325176137614 209.45454545454544 131.70599123413493 Q 211.63636363636363 131.70599123413493 213.8181818181818 131.83288749373074 Q 215.99999999999997 131.83288749373074 218.18181818181816 131.94259707791778 Q 220.36363636363635 131.94259707791778 222.54545454545453 132.0339655031034 Q 224.7272727272727 132.0339655031034 226.90909090909088 132.10603601939593 Q 229.09090909090907 132.10603601939593 231.27272727272725 132.1580568634467 Q 233.45454545454544 132.1580568634467 235.63636363636363 132.18948695568503 Q 237.81818181818178 132.18948695568503 239.99999999999997 132.2 Q 242.18181818181816 132.2 244.36363636363635 132.18948695568503 Q 246.54545454545453 132.18948695568503 248.72727272727272 132.1580568634467 Q 250.90909090909088 132.1580568634467 253.09090909090907 132.10603601939593 Q 255.27272727272725 132.10603601939593 257.45454545454544 132.0339655031034 Q 259.6363636363636 132.0339655031034 261.8181818181818 131.94259707791778 Q 264 131.94259707791778 266.1818181818182 131.83288749373074 Q 268.3636363636363 131.83288749373074 270.5454545454545 131.70599123413493 Q 272.7272727272727 131.70599123413493 274.9090909090909 131.56325176137614 Q 277.09090909090907 131.56325176137614 279.27272727272725 131.40619132356417 Q 281.45454545454544 131.40619132356417 283.6363636363636 131.23649939919622 Q 285.8181818181818 131.23649939919622 288 131.05601986408655 Q 290.18181818181813 131.05601986408655 292.3636363636363 130.86673697520934 Q 294.5454545454545 130.86673697520934 296.7272727272727 130.6707602746841 Q 298.9090909090909 130.6707602746841 301.09090909090907 130.47030852509448 Q 303.27272727272725 130.47030852509448 305.45454545454544 130.26769279447979 Q 307.6363636363636 130.26769279447979 309.8181818181818 130.06529881561582 Q 311.99999999999994 130.06529881561582 314.18181818181813 129.8655687495665 Q 316.3636363636363 129.8655687495665 318.5454545454545 129.6709824878962 Q 320.7272727272727 129.6709824878962 322.9090909090909 129.4840386313573 Q 325.09090909090907 129.4840386313573 327.27272727272725 129.30723528527804 Q 329.45454545454544 129.30723528527804 331.6363636363636 129.1430508132585 Q 333.8181818181818 129.1430508132585 336 128.99392469112584 Q 338.18181818181813 128.99392469112584 340.3636363636363 128.86223860239966 Q 342.5454545454545 128.86223860239966 344.7272727272727 128.75029791478318 Q 346.9090909090909 128.75029791478318 349.09090909090907 128.6603136744354 Q 351.27272727272725 128.6603136744354 353.45454545454544 128.5943852510143 Q 355.6363636363636 128.5943852510143 357.8181818181818 128.55448376174155 Q 359.99999999999994 128.55448376174155 362.18181818181813 128.54243639705558 Q 364.3636363636363 128.54243639705558 366.5454545454545 128.55991176383822 Q 368.7272727272727 128.55991176383822 370.9090909090909 128.6084063547656 Q 373.09090909090907 128.6084063547656 375.27272727272725 128.68923224410273 Q 377.45454545454544 128.68923224410273 379.6363636363636 128.80350610129238 Q 381.8181818181818 128.80350610129238 384 128.95213960405067 Q 386.18181818181813 128.95213960405067 388.3636363636363 129.13583132244096 Q 390.5454545454545 129.13583132244096 392.7272727272727 129.3550601346329 Q 394.9090909090909 129.3550601346329 397.09090909090907 129.6100802238427 Q 399.27272727272725 129.6100802238427 401.45454545454544 129.90091769437436 Q 403.6363636363636 129.90091769437436 405.8181818181818 130.227368832828 Q 407.99999999999994 130.227368832828 410.18181818181813 130.58900002849327 Q 412.3636363636363 130.58900002849327 414.5454545454545 130.98514935479648 Q 416.7272727272727 130.98514935479648 418.9090909090909 131.4149298015032 Q 421.09090909090907 131.4149298015032 423.27272727272725 131.8772341352886 Q 425.45454545454544 131.8772341352886 427.6363636363636 132.37074135435816 Q 429.81818181818176 132.37074135435816 431.99999999999994 132.89392469112585 Q 434.18181818181813 132.89392469112585 436.3636363636363 133.44506110561494 Q 438.5454545454545 133.44506110561494 440.7272727272727 134.02224220132592 Q 442.9090909090909 134.02224220132592 445.09090909090907 134.62338648489356 Q 447.27272727272725 134.62338648489356 449.45454545454544 135.24625288101063 Q 451.63636363636357 135.24625288101063 453.81818181818176 135.88845540489697 Q 455.99999999999994 135.88845540489697 458.18181818181813 136.54747888611266 Q 460.3636363636363 136.54747888611266 462.5454545454545 137.2206956298087 Q 464.7272727272727 137.2206956298087 466.9090909090909 137.90538289464126 Q 469.09090909090907 137.90538289464126 471.27272727272725 138.59874106058976 Q 473.45454545454544 138.59874106058976 475.6363636363636 139.29791235486454 Q 477.81818181818176 139.29791235486454 479.99999999999994 140 Q 482.18181818181813 140 484.3636363636363 140.70208764513546 Q 486.5454545454545 140.70208764513546 488.7272727272727 141.40125893941024 Q 490.9090909090909 141.40125893941024 493.09090909090907 142.0946171053587 Q 495.27272727272725 142.0946171053587 497.45454545454544 142.77930437019128 Q 499.63636363636357 142.77930437019128 501.81818181818176 143.45252111388734 Q 503.99999999999994 143.45252111388734 506.18181818181813 144.111544595103 Q 508.3636363636363 144.111544595103 510.5454545454545 144.75374711898937 Q 512.7272727272727 144.75374711898937 514.9090909090909 145.3766135151064 Q 517.0909090909091 145.3766135151064 519.2727272727273 145.97775779867408 Q 521.4545454545455 145.97775779867408 523.6363636363636 146.55493889438503 Q 525.8181818181819 146.55493889438503 528 147.10607530887415 Q 530.1818181818182 147.10607530887415 532.3636363636364 147.62925864564184 Q 534.5454545454545 147.62925864564184 536.7272727272726 148.1227658647114 Q 538.9090909090909 148.1227658647114 541.090909090909 148.5850701984968 Q 543.2727272727273 148.5850701984968 545.4545454545454 149.01485064520352 Q 547.6363636363636 149.01485064520352 549.8181818181818 149.41099997150673 Q 552 149.41099997150673 554.1818181818181 149.772631167172 Q 556.3636363636364 149.772631167172 558.5454545454545 150.09908230562564 Q 560.7272727272727 150.09908230562564 562.9090909090909 150.3899197761573 Q 565.0909090909091 150.3899197761573 567.2727272727273 150.6449398653671 Q 569.4545454545455 150.6449398653671 571.6363636363636 150.86416867755904 Q 573.8181818181819 150.86416867755904 576 151.04786039594933 Q 578.1818181818182 151.04786039594933 580.3636363636364 151.19649389870762 Q 582.5454545454545 151.19649389870762 584.7272727272726 151.31076775589727 Q 586.9090909090909 151.31076775589727 589.090909090909 151.3915936452344 Q 591.2727272727273 151.3915936452344 593.4545454545454 151.44008823616178 Q 595.6363636363636 151.44008823616178 597.8181818181818 151.45756360294442 Q 600 151.45756360294442 602.1818181818181 151.44551623825845 Q 604.3636363636364 151.44551623825845 606.5454545454545 151.4056147489857 Q 608.7272727272727 151.4056147489857 610.9090909090909 151.3396863255646 Q 613.0909090909091 151.3396863255646 615.2727272727273 151.24970208521682 Q 617.4545454545455 151.24970208521682 619.6363636363636 151.13776139760034 Q 621.8181818181819 151.13776139760034 624 151.00607530887416 Q 626.1818181818181 151.00607530887416 628.3636363636363 150.8569491867415 Q 630.5454545454545 150.8569491867415 632.7272727272726 150.69276471472196 Q 634.9090909090909 150.69276471472196 637.090909090909 150.5159613686427 Q 639.2727272727273 150.5159613686427 641.4545454545454 150.3290175121038 Q 643.6363636363636 150.3290175121038 645.8181818181818 150.1344312504335 Q 648 150.1344312504335 650.1818181818181 149.93470118438415 Q 652.3636363636364 149.93470118438415 654.5454545454545 149.73230720552021 Q 656.7272727272727 149.73230720552021 658.9090909090909 149.5296914749055 Q 661.0909090909091 149.5296914749055 663.2727272727273 149.32923972531592 Q 665.4545454545455 149.32923972531592 667.6363636363636 149.13326302479066 Q 669.8181818181819 149.13326302479066 672 148.94398013591345 Q 674.1818181818181 148.94398013591345 676.3636363636363 148.76350060080378 Q 678.5454545454545 148.76350060080378 680.7272727272726 148.59380867643583 Q 682.9090909090909 148.59380867643583 685.090909090909 148.43674823862386 Q 687.2727272727273 148.43674823862386 689.4545454545454 148.29400876586507 Q 691.6363636363636 148.29400876586507 693.8181818181818 148.16711250626926 Q 696 148.16711250626926 698.1818181818181 148.05740292208222 Q 700.3636363636364 148.05740292208222 702.5454545454545 147.9660344968966 Q 704.7272727272727 147.9660344968966 706.9090909090909 147.89396398060407 Q 709.0909090909091 147.89396398060407 711.2727272727273 147.8419431365533 Q 713.4545454545455 147.8419431365533 715.6363636363636 147.81051304431497 Q 717.8181818181819 147.81051304431497 720 147.8 Q 722.1818181818181 147.8 724.3636363636363 147.81051304431497 Q 726.5454545454545 147.81051304431497 728.7272727272726 147.8419431365533 Q 730.9090909090909 147.8419431365533 733.090909090909 147.89396398060407 Q 735.2727272727273 147.89396398060407 737.4545454545454 147.9660344968966 Q 739.6363636363636 147.9660344968966 741.8181818181818 148.05740292208222 Q 744 148.05740292208222 746.1818181818181 148.16711250626926 Q 748.3636363636364 148.16711250626926 750.5454545454545 148.29400876586507 Q 752.7272727272727 148.29400876586507 754.9090909090909 148.43674823862386 Q 757.0909090909091 148.43674823862386 759.2727272727273 148.59380867643583 Q 761.4545454545455 148.59380867643583 763.6363636363636 148.76350060080378 Q 765.8181818181819 148.76350060080378 768 148.94398013591345 Q 770.1818181818181 148.94398013591345 772.3636363636363 149.13326302479066 Q 774.5454545454545 149.13326302479066 776.7272727272726 149.3292397253159 Q 778.9090909090909 149.3292397253159 781.090909090909 149.5296914749055 Q 783.2727272727273 149.5296914749055 785.4545454545454 149.73230720552021 Q 787.6363636363636 149.73230720552021 789.8181818181818 149.93470118438415 Q 792 149.93470118438415 794.1818181818181 150.1344312504335 Q 796.3636363636364 150.1344312504335 798.5454545454545 150.3290175121038 Q 800.7272727272727 150.3290175121038 802.9090909090909 150.51596136864268 Q 805.0909090909091 150.51596136864268 807.2727272727273 150.69276471472196 Q 809.4545454545455 150.69276471472196 811.6363636363636 150.8569491867415 Q 813.8181818181818 150.8569491867415 815.9999999999999 151.00607530887413 Q 818.1818181818181 151.00607530887413 820.3636363636363 151.13776139760034 Q 822.5454545454545 151.13776139760034 824.7272727272726 151.24970208521682 Q 826.9090909090909 151.24970208521682 829.090909090909 151.3396863255646 Q 831.2727272727273 151.3396863255646 833.4545454545454 151.4056147489857 Q 835.6363636363636 151.4056147489857 837.8181818181818 151.44551623825845 Q 840 151.44551623825845 842.1818181818181 151.45756360294442 Q 844.3636363636364 151.45756360294442 846.5454545454545 151.44008823616178 Q 848.7272727272727 151.44008823616178 850.9090909090909 151.3915936452344 Q 853.0909090909091 151.3915936452344 855.2727272727273 151.31076775589727 Q 857.4545454545455 151.31076775589727 859.6363636363636 151.19649389870762 Q 861.8181818181818 151.19649389870762 863.9999999999999 151.04786039594933 Q 866.1818181818181 151.04786039594933 868.3636363636363 150.86416867755904 Q 870.5454545454545 150.86416867755904 872.7272727272726 150.6449398653671 Q 874.9090909090909 150.6449398653671 877.090909090909 150.3899197761573 Q 879.2727272727273 150.3899197761573 881.4545454545454 150.09908230562564 Q 883.6363636363636 150.09908230562564 885.8181818181818 149.772631167172 Q 888 149.772631167172 890.1818181818181 149.4109999715067 Q 892.3636363636364 149.4109999715067 894.5454545454545 149.01485064520352 Q 896.7272727272727 149.01485064520352 898.9090909090909 148.5850701984968 Q 901.0909090909091 148.5850701984968 903.2727272727273 148.1227658647114 Q 905.4545454545454 148.1227658647114 907.6363636363635 147.62925864564184 Q 909.8181818181818 147.62925864564184 911.9999999999999 147.10607530887415 Q 914.1818181818181 147.10607530887415 916.3636363636363 146.55493889438503 Q 918.5454545454545 146.55493889438503 920.7272727272726 145.97775779867408 Q 922.9090909090909 145.97775779867408 925.090909090909 145.37661351510644 Q 927.2727272727273 145.37661351510644 929.4545454545454 144.7537471189894 Q 931.6363636363636 144.7537471189894 933.8181818181818 144.11154459510303 Q 936 144.11154459510303 938.1818181818181 143.45252111388734 Q 940.3636363636364 143.45252111388734 942.5454545454545 142.77930437019128 Q 944.7272727272727 142.77930437019128 946.9090909090909 142.09461710535874 Q 949.0909090909091 142.09461710535874 951.2727272727273 141.4012589394102 Q 953.4545454545454 141.4012589394102 955.6363636363635 140.7020876451355 Q 957.8181818181818 140.7020876451355 959.9999999999999 140 "
        stroke="url(#grad)"
        stroke-width="3"
        fill="none">
    <animateTransform
      attributeName="transform"
      type="translate"
      from="0 -6"
      to="0 6"
      dur="4s"
      repeatCount="indefinite"
      direction="alternate"/>
  </path>
</g>
<g opacity="1" filter="url(#glow)">
  <path d="M 0 140 Q 2.1818181818181817 140 4.363636363636363 139.5319415699097 Q 6.545454545454545 139.5319415699097 8.727272727272727 139.0658273737265 Q 10.909090909090908 139.0658273737265 13.09090909090909 138.60358859642753 Q 15.272727272727272 138.60358859642753 17.454545454545453 138.14713041987247 Q 19.636363636363633 138.14713041987247 21.818181818181817 137.69831925740843 Q 24 137.69831925740843 26.18181818181818 137.25897026993132 Q 28.36363636363636 137.25897026993132 30.545454545454543 136.83083525400707 Q 32.72727272727273 136.83083525400707 34.90909090909091 136.41559098992906 Q 37.090909090909086 136.41559098992906 39.272727272727266 136.01482813421728 Q 41.45454545454545 136.01482813421728 43.63636363636363 135.63004073707663 Q 45.81818181818182 135.63004073707663 48 135.26261646075056 Q 50.18181818181818 135.26261646075056 52.36363636363636 134.9138275695721 Q 54.54545454545454 134.9138275695721 56.72727272727272 134.58482275685907 Q 58.90909090909091 134.58482275685907 61.090909090909086 134.2766198676688 Q 63.27272727272727 134.2766198676688 65.45454545454545 133.99009956986433 Q 67.63636363636363 133.99009956986433 69.81818181818181 133.72600001899553 Q 71.99999999999999 133.72600001899553 74.18181818181817 133.48491255521867 Q 76.36363636363635 133.48491255521867 78.54545454545453 133.26727846291624 Q 80.72727272727272 133.26727846291624 82.9090909090909 133.07338681589513 Q 85.09090909090908 133.07338681589513 87.27272727272727 132.9033734230886 Q 89.45454545454544 132.9033734230886 91.63636363636363 132.75722088162732 Q 93.81818181818181 132.75722088162732 96 132.63475973603377 Q 98.18181818181817 132.63475973603377 100.36363636363636 132.53567073419492 Q 102.54545454545453 132.53567073419492 104.72727272727272 132.45948816273517 Q 106.90909090909089 132.45948816273517 109.09090909090908 132.4056042365104 Q 111.27272727272725 132.4056042365104 113.45454545454544 132.37327450922547 Q 115.63636363636363 132.37327450922547 117.81818181818181 132.36162426470372 Q 119.99999999999999 132.36162426470372 122.18181818181817 132.36965584116103 Q 124.36363636363635 132.36965584116103 126.54545454545453 132.39625683400953 Q 128.72727272727272 132.39625683400953 130.9090909090909 132.44020911629025 Q 133.09090909090907 132.44020911629025 135.27272727272725 132.50019860985546 Q 137.45454545454544 132.50019860985546 139.63636363636363 132.5748257349331 Q 141.8181818181818 132.5748257349331 144 132.66261646075057 Q 146.18181818181816 132.66261646075057 148.36363636363635 132.76203387550567 Q 150.54545454545453 132.76203387550567 152.72727272727272 132.87149019018534 Q 154.90909090909088 132.87149019018534 157.09090909090907 132.98935908757153 Q 159.27272727272725 132.98935908757153 161.45454545454544 133.11398832526413 Q 163.63636363636363 133.11398832526413 165.8181818181818 133.243712499711 Q 167.99999999999997 133.243712499711 170.18181818181816 133.37686587707722 Q 172.36363636363635 133.37686587707722 174.54545454545453 133.51179519631987 Q 176.72727272727272 133.51179519631987 178.9090909090909 133.646872350063 Q 181.09090909090907 133.646872350063 183.27272727272725 133.7805068497894 Q 185.45454545454544 133.7805068497894 187.63636363636363 133.9111579834729 Q 189.8181818181818 133.9111579834729 192 134.0373465760577 Q 194.18181818181816 134.0373465760577 196.36363636363635 134.15766626613083 Q 198.54545454545453 134.15766626613083 200.72727272727272 134.27079421570943 Q 202.90909090909088 134.27079421570943 205.09090909090907 134.37550117425076 Q 207.27272727272725 134.37550117425076 209.45454545454544 134.47066082275663 Q 211.63636363636363 134.47066082275663 213.8181818181818 134.55525832915384 Q 215.99999999999997 134.55525832915384 218.18181818181816 134.6283980519452 Q 220.36363636363635 134.6283980519452 222.54545454545453 134.68931033540227 Q 224.7272727272727 134.68931033540227 226.90909090909088 134.73735734626396 Q 229.09090909090907 134.73735734626396 231.27272727272725 134.77203790896445 Q 233.45454545454544 134.77203790896445 235.63636363636363 134.79299130379002 Q 237.81818181818178 134.79299130379002 239.99999999999997 134.8 Q 242.18181818181816 134.8 244.36363636363635 134.79299130379002 Q 246.54545454545453 134.79299130379002 248.72727272727272 134.77203790896445 Q 250.90909090909088 134.77203790896445 253.09090909090907 134.73735734626393 Q 255.27272727272725 134.73735734626393 257.45454545454544 134.68931033540227 Q 259.6363636363636 134.68931033540227 261.8181818181818 134.6283980519452 Q 264 134.6283980519452 266.1818181818182 134.55525832915384 Q 268.3636363636363 134.55525832915384 270.5454545454545 134.47066082275663 Q 272.7272727272727 134.47066082275663 274.9090909090909 134.37550117425076 Q 277.09090909090907 134.37550117425076 279.27272727272725 134.27079421570943 Q 281.45454545454544 134.27079421570943 283.6363636363636 134.15766626613083 Q 285.8181818181818 134.15766626613083 288 134.0373465760577 Q 290.18181818181813 134.0373465760577 292.3636363636363 133.9111579834729 Q 294.5454545454545 133.9111579834729 296.7272727272727 133.7805068497894 Q 298.9090909090909 133.7805068497894 301.09090909090907 133.646872350063 Q 303.27272727272725 133.646872350063 305.45454545454544 133.51179519631987 Q 307.6363636363636 133.51179519631987 309.8181818181818 133.37686587707722 Q 311.99999999999994 133.37686587707722 314.18181818181813 133.243712499711 Q 316.3636363636363 133.243712499711 318.5454545454545 133.11398832526413 Q 320.7272727272727 133.11398832526413 322.9090909090909 132.98935908757153 Q 325.09090909090907 132.98935908757153 327.27272727272725 132.87149019018534 Q 329.45454545454544 132.87149019018534 331.6363636363636 132.76203387550567 Q 333.8181818181818 132.76203387550567 336 132.66261646075057 Q 338.18181818181813 132.66261646075057 340.3636363636363 132.5748257349331 Q 342.5454545454545 132.5748257349331 344.7272727272727 132.50019860985546 Q 346.9090909090909 132.50019860985546 349.09090909090907 132.44020911629025 Q 351.27272727272725 132.44020911629025 353.45454545454544 132.39625683400953 Q 355.6363636363636 132.39625683400953 357.8181818181818 132.36965584116103 Q 359.99999999999994 132.36965584116103 362.18181818181813 132.36162426470372 Q 364.3636363636363 132.36162426470372 366.5454545454545 132.37327450922547 Q 368.7272727272727 132.37327450922547 370.9090909090909 132.4056042365104 Q 373.09090909090907 132.4056042365104 375.27272727272725 132.45948816273517 Q 377.45454545454544 132.45948816273517 379.6363636363636 132.53567073419492 Q 381.8181818181818 132.53567073419492 384 132.63475973603377 Q 386.18181818181813 132.63475973603377 388.3636363636363 132.75722088162732 Q 390.5454545454545 132.75722088162732 392.7272727272727 132.9033734230886 Q 394.9090909090909 132.9033734230886 397.09090909090907 133.07338681589513 Q 399.27272727272725 133.07338681589513 401.45454545454544 133.26727846291624 Q 403.6363636363636 133.26727846291624 405.8181818181818 133.48491255521867 Q 407.99999999999994 133.48491255521867 410.18181818181813 133.72600001899553 Q 412.3636363636363 133.72600001899553 414.5454545454545 133.99009956986433 Q 416.7272727272727 133.99009956986433 418.9090909090909 134.2766198676688 Q 421.09090909090907 134.2766198676688 423.27272727272725 134.58482275685907 Q 425.45454545454544 134.58482275685907 427.6363636363636 134.9138275695721 Q 429.81818181818176 134.9138275695721 431.99999999999994 135.26261646075056 Q 434.18181818181813 135.26261646075056 436.3636363636363 135.63004073707663 Q 438.5454545454545 135.63004073707663 440.7272727272727 136.01482813421728 Q 442.9090909090909 136.01482813421728 445.09090909090907 136.41559098992906 Q 447.27272727272725 136.41559098992906 449.45454545454544 136.83083525400707 Q 451.63636363636357 136.83083525400707 453.81818181818176 137.25897026993132 Q 455.99999999999994 137.25897026993132 458.18181818181813 137.69831925740843 Q 460.3636363636363 137.69831925740843 462.5454545454545 138.14713041987247 Q 464.7272727272727 138.14713041987247 466.9090909090909 138.60358859642753 Q 469.09090909090907 138.60358859642753 471.27272727272725 139.0658273737265 Q 473.45454545454544 139.0658273737265 475.6363636363636 139.5319415699097 Q 477.81818181818176 139.5319415699097 479.99999999999994 140 Q 482.18181818181813 140 484.3636363636363 140.4680584300903 Q 486.5454545454545 140.4680584300903 488.7272727272727 140.9341726262735 Q 490.9090909090909 140.9341726262735 493.09090909090907 141.39641140357247 Q 495.27272727272725 141.39641140357247 497.45454545454544 141.85286958012753 Q 499.63636363636357 141.85286958012753 501.81818181818176 142.30168074259154 Q 503.99999999999994 142.30168074259154 506.18181818181813 142.74102973006868 Q 508.3636363636363 142.74102973006868 510.5454545454545 143.16916474599293 Q 512.7272727272727 143.16916474599293 514.9090909090909 143.58440901007094 Q 517.0909090909091 143.58440901007094 519.2727272727273 143.98517186578272 Q 521.4545454545455 143.98517186578272 523.6363636363636 144.36995926292335 Q 525.8181818181819 144.36995926292335 528 144.73738353924944 Q 530.1818181818182 144.73738353924944 532.3636363636364 145.0861724304279 Q 534.5454545454545 145.0861724304279 536.7272727272726 145.41517724314093 Q 538.9090909090909 145.41517724314093 541.090909090909 145.7233801323312 Q 543.2727272727273 145.7233801323312 545.4545454545454 146.00990043013567 Q 547.6363636363636 146.00990043013567 549.8181818181818 146.27399998100447 Q 552 146.27399998100447 554.1818181818181 146.51508744478133 Q 556.3636363636364 146.51508744478133 558.5454545454545 146.73272153708376 Q 560.7272727272727 146.73272153708376 562.9090909090909 146.92661318410487 Q 565.0909090909091 146.92661318410487 567.2727272727273 147.0966265769114 Q 569.4545454545455 147.0966265769114 571.6363636363636 147.24277911837268 Q 573.8181818181819 147.24277911837268 576 147.3652402639662 Q 578.1818181818182 147.3652402639662 580.3636363636364 147.46432926580508 Q 582.5454545454545 147.46432926580508 584.7272727272726 147.54051183726483 Q 586.9090909090909 147.54051183726483 589.090909090909 147.5943957634896 Q 591.2727272727273 147.5943957634896 593.4545454545454 147.62672549077453 Q 595.6363636363636 147.62672549077453 597.8181818181818 147.63837573529628 Q 600 147.63837573529628 602.1818181818181 147.63034415883897 Q 604.3636363636364 147.63034415883897 606.5454545454545 147.60374316599047 Q 608.7272727272727 147.60374316599047 610.9090909090909 147.55979088370975 Q 613.0909090909091 147.55979088370975 615.2727272727273 147.49980139014454 Q 617.4545454545455 147.49980139014454 619.6363636363636 147.4251742650669 Q 621.8181818181819 147.4251742650669 624 147.33738353924943 Q 626.1818181818181 147.33738353924943 628.3636363636363 147.23796612449433 Q 630.5454545454545 147.23796612449433 632.7272727272726 147.12850980981466 Q 634.9090909090909 147.12850980981466 637.090909090909 147.01064091242847 Q 639.2727272727273 147.01064091242847 641.4545454545454 146.88601167473587 Q 643.6363636363636 146.88601167473587 645.8181818181818 146.756287500289 Q 648 146.756287500289 650.1818181818181 146.62313412292278 Q 652.3636363636364 146.62313412292278 654.5454545454545 146.48820480368016 Q 656.7272727272727 146.48820480368016 658.9090909090909 146.353127649937 Q 661.0909090909091 146.353127649937 663.2727272727273 146.2194931502106 Q 665.4545454545455 146.2194931502106 667.6363636363636 146.0888420165271 Q 669.8181818181819 146.0888420165271 672 145.9626534239423 Q 674.1818181818181 145.9626534239423 676.3636363636363 145.84233373386917 Q 678.5454545454545 145.84233373386917 680.7272727272726 145.72920578429057 Q 682.9090909090909 145.72920578429057 685.090909090909 145.62449882574924 Q 687.2727272727273 145.62449882574924 689.4545454545454 145.52933917724337 Q 691.6363636363636 145.52933917724337 693.8181818181818 145.44474167084616 Q 696 145.44474167084616 698.1818181818181 145.3716019480548 Q 700.3636363636364 145.3716019480548 702.5454545454545 145.31068966459773 Q 704.7272727272727 145.31068966459773 706.9090909090909 145.26264265373607 Q 709.0909090909091 145.26264265373607 711.2727272727273 145.22796209103555 Q 713.4545454545455 145.22796209103555 715.6363636363636 145.20700869620998 Q 717.8181818181819 145.20700869620998 720 145.2 Q 722.1818181818181 145.2 724.3636363636363 145.20700869620998 Q 726.5454545454545 145.20700869620998 728.7272727272726 145.22796209103555 Q 730.9090909090909 145.22796209103555 733.090909090909 145.26264265373607 Q 735.2727272727273 145.26264265373607 737.4545454545454 145.31068966459773 Q 739.6363636363636 145.31068966459773 741.8181818181818 145.3716019480548 Q 744 145.3716019480548 746.1818181818181 145.44474167084616 Q 748.3636363636364 145.44474167084616 750.5454545454545 145.52933917724337 Q 752.7272727272727 145.52933917724337 754.9090909090909 145.62449882574924 Q 757.0909090909091 145.62449882574924 759.2727272727273 145.72920578429057 Q 761.4545454545455 145.72920578429057 763.6363636363636 145.84233373386917 Q 765.8181818181819 145.84233373386917 768 145.9626534239423 Q 770.1818181818181 145.9626534239423 772.3636363636363 146.0888420165271 Q 774.5454545454545 146.0888420165271 776.7272727272726 146.2194931502106 Q 778.9090909090909 146.2194931502106 781.090909090909 146.353127649937 Q 783.2727272727273 146.353127649937 785.4545454545454 146.48820480368013 Q 787.6363636363636 146.48820480368013 789.8181818181818 146.62313412292278 Q 792 146.62313412292278 794.1818181818181 146.756287500289 Q 796.3636363636364 146.756287500289 798.5454545454545 146.88601167473587 Q 800.7272727272727 146.88601167473587 802.9090909090909 147.01064091242847 Q 805.0909090909091 147.01064091242847 807.2727272727273 147.12850980981466 Q 809.4545454545455 147.12850980981466 811.6363636363636 147.23796612449433 Q 813.8181818181818 147.23796612449433 815.9999999999999 147.33738353924943 Q 818.1818181818181 147.33738353924943 820.3636363636363 147.4251742650669 Q 822.5454545454545 147.4251742650669 824.7272727272726 147.49980139014454 Q 826.9090909090909 147.49980139014454 829.090909090909 147.55979088370972 Q 831.2727272727273 147.55979088370972 833.4545454545454 147.60374316599047 Q 835.6363636363636 147.60374316599047 837.8181818181818 147.63034415883897 Q 840 147.63034415883897 842.1818181818181 147.63837573529628 Q 844.3636363636364 147.63837573529628 846.5454545454545 147.62672549077453 Q 848.7272727272727 147.62672549077453 850.9090909090909 147.5943957634896 Q 853.0909090909091 147.5943957634896 855.2727272727273 147.54051183726483 Q 857.4545454545455 147.54051183726483 859.6363636363636 147.46432926580508 Q 861.8181818181818 147.46432926580508 863.9999999999999 147.36524026396623 Q 866.1818181818181 147.36524026396623 868.3636363636363 147.24277911837268 Q 870.5454545454545 147.24277911837268 872.7272727272726 147.0966265769114 Q 874.9090909090909 147.0966265769114 877.090909090909 146.92661318410487 Q 879.2727272727273 146.92661318410487 881.4545454545454 146.73272153708376 Q 883.6363636363636 146.73272153708376 885.8181818181818 146.51508744478133 Q 888 146.51508744478133 890.1818181818181 146.27399998100447 Q 892.3636363636364 146.27399998100447 894.5454545454545 146.0099004301357 Q 896.7272727272727 146.0099004301357 898.9090909090909 145.7233801323312 Q 901.0909090909091 145.7233801323312 903.2727272727273 145.41517724314093 Q 905.4545454545454 145.41517724314093 907.6363636363635 145.0861724304279 Q 909.8181818181818 145.0861724304279 911.9999999999999 144.73738353924944 Q 914.1818181818181 144.73738353924944 916.3636363636363 144.36995926292335 Q 918.5454545454545 144.36995926292335 920.7272727272726 143.98517186578272 Q 922.9090909090909 143.98517186578272 925.090909090909 143.58440901007097 Q 927.2727272727273 143.58440901007097 929.4545454545454 143.16916474599293 Q 931.6363636363636 143.16916474599293 933.8181818181818 142.74102973006868 Q 936 142.74102973006868 938.1818181818181 142.30168074259157 Q 940.3636363636364 142.30168074259157 942.5454545454545 141.85286958012753 Q 944.7272727272727 141.85286958012753 946.9090909090909 141.3964114035725 Q 949.0909090909091 141.3964114035725 951.2727272727273 140.9341726262735 Q 953.4545454545454 140.9341726262735 955.6363636363635 140.46805843009034 Q 957.8181818181818 140.46805843009034 959.9999999999999 140 "
        stroke="url(#grad)"
        stroke-width="4"
        fill="none">
    <animateTransform
      attributeName="transform"
      type="translate"
      from="0 -6"
      to="0 6"
      dur="2.8s"
      repeatCount="indefinite"
      direction="alternate"/>
  </path>
</g>

<!-- BRAND -->
<text x="50%" y="50%"
      text-anchor="middle"
      dominant-baseline="middle"
      font-size="32"
      letter-spacing="6"
      fill="#ffffff"
      opacity="0.9"
      style="font-family: monospace"
      filter="url(#glow)">
  LORDZEFAN
</text>

</svg>