<svg viewBox="0 0 960 280" xmlns="http://www.w3.org/2000/svg">

<defs>
  <!-- CYBER GRADIENT -->
  <linearGradient id="grad" x1="0" y1="0" x2="1" y2="0">
    <stop offset="0%" stop-color="#ff2fdc"/>
    <stop offset="40%" stop-color="#9b5cff"/>
    <stop offset="70%" stop-color="#00f5ff"/>
    <stop offset="100%" stop-color="#00f5ff"/>
  </linearGradient>

  <!-- NEON GLOW -->
  <filter id="glow">
    <feGaussianBlur stdDeviation="4" result="b"/>
    <feMerge>
      <feMergeNode in="b"/>
      <feMergeNode in="SourceGraphic"/>
    </feMerge>
  </filter>

  <!-- CRT SCANLINE -->
  <pattern id="scanline" width="4" height="4">
    <rect width="4" height="1" fill="rgba(255,255,255,0.05)"/>
  </pattern>
</defs>

<!-- BACKGROUND -->
<rect width="100%" height="100%" fill="#05010d"/>
<rect width="100%" height="100%" fill="url(#scanline)"/>

<!-- EQUALIZER (CHAOTIC) -->
<g filter="url(#glow)">
  
      <rect x="0"
            y="233.60405889865245"
            width="14"
            height="46.39594110134753"
            fill="url(#grad)"
            opacity="0.5295901461299795">
        <animate attributeName="height"
                 dur="0.83s"
                 repeatCount="indefinite"
                 values="46.39594110134753;55.82678833440177;46.39594110134753;54.47244619449822" />
        <animate attributeName="y"
                 dur="0.82s"
                 repeatCount="indefinite"
                 values="233.60405889865245;224.17321166559822;233.60405889865245" />
      </rect>
    
      <rect x="16"
            y="242.9555278740943"
            width="14"
            height="37.0444721259057"
            fill="url(#grad)"
            opacity="0.6389128840965606">
        <animate attributeName="height"
                 dur="0.59s"
                 repeatCount="indefinite"
                 values="37.0444721259057;83.503271607804;37.0444721259057;75.60981222287904" />
        <animate attributeName="y"
                 dur="0.58s"
                 repeatCount="indefinite"
                 values="242.9555278740943;196.49672839219602;242.9555278740943" />
      </rect>
    
      <rect x="32"
            y="257.37723481085817"
            width="14"
            height="22.622765189141848"
            fill="url(#grad)"
            opacity="0.4480964734019733">
        <animate attributeName="height"
                 dur="0.72s"
                 repeatCount="indefinite"
                 values="22.622765189141848;65.45553470321818;22.622765189141848;53.340346845265" />
        <animate attributeName="y"
                 dur="0.53s"
                 repeatCount="indefinite"
                 values="257.37723481085817;214.54446529678182;257.37723481085817" />
      </rect>
    
      <rect x="48"
            y="241.53607342211902"
            width="14"
            height="38.46392657788098"
            fill="url(#grad)"
            opacity="0.7450974525906231">
        <animate attributeName="height"
                 dur="1.02s"
                 repeatCount="indefinite"
                 values="38.46392657788098;97.41209912218024;38.46392657788098;48.14985186002244" />
        <animate attributeName="y"
                 dur="0.40s"
                 repeatCount="indefinite"
                 values="241.53607342211902;182.58790087781978;241.53607342211902" />
      </rect>
    
      <rect x="64"
            y="241.06711447842935"
            width="14"
            height="38.932885521570654"
            fill="url(#grad)"
            opacity="0.4614481168495444">
        <animate attributeName="height"
                 dur="0.57s"
                 repeatCount="indefinite"
                 values="38.932885521570654;78.57197592056124;38.932885521570654;48.765704114645885" />
        <animate attributeName="y"
                 dur="1.03s"
                 repeatCount="indefinite"
                 values="241.06711447842935;201.42802407943876;241.06711447842935" />
      </rect>
    
      <rect x="80"
            y="232.67921738244553"
            width="14"
            height="47.32078261755446"
            fill="url(#grad)"
            opacity="0.43891420020291755">
        <animate attributeName="height"
                 dur="0.37s"
                 repeatCount="indefinite"
                 values="47.32078261755446;91.91538853633908;47.32078261755446;65.5867591374887" />
        <animate attributeName="y"
                 dur="0.98s"
                 repeatCount="indefinite"
                 values="232.67921738244553;188.0846114636609;232.67921738244553" />
      </rect>
    
      <rect x="96"
            y="245.14426600315437"
            width="14"
            height="34.85573399684563"
            fill="url(#grad)"
            opacity="0.656359667128487">
        <animate attributeName="height"
                 dur="0.84s"
                 repeatCount="indefinite"
                 values="34.85573399684563;111.87687491253321;34.85573399684563;40.57952782124919" />
        <animate attributeName="y"
                 dur="0.31s"
                 repeatCount="indefinite"
                 values="245.14426600315437;168.1231250874668;245.14426600315437" />
      </rect>
    
      <rect x="112"
            y="256.25557702290206"
            width="14"
            height="23.744422977097926"
            fill="url(#grad)"
            opacity="0.34734431952783">
        <animate attributeName="height"
                 dur="1.01s"
                 repeatCount="indefinite"
                 values="23.744422977097926;38.49051748642694;23.744422977097926;62.06785858064523" />
        <animate attributeName="y"
                 dur="0.38s"
                 repeatCount="indefinite"
                 values="256.25557702290206;241.50948251357306;256.25557702290206" />
      </rect>
    
      <rect x="128"
            y="253.19142755986496"
            width="14"
            height="26.808572440135023"
            fill="url(#grad)"
            opacity="0.7691706225292132">
        <animate attributeName="height"
                 dur="1.09s"
                 repeatCount="indefinite"
                 values="26.808572440135023;42.32529222037668;26.808572440135023;58.40855109381685" />
        <animate attributeName="y"
                 dur="1.04s"
                 repeatCount="indefinite"
                 values="253.19142755986496;237.6747077796233;253.19142755986496" />
      </rect>
    
      <rect x="144"
            y="238.41286119658258"
            width="14"
            height="41.58713880341743"
            fill="url(#grad)"
            opacity="0.77898022811753">
        <animate attributeName="height"
                 dur="1.02s"
                 repeatCount="indefinite"
                 values="41.58713880341743;115.65503298839408;41.58713880341743;54.301253148804776" />
        <animate attributeName="y"
                 dur="0.84s"
                 repeatCount="indefinite"
                 values="238.41286119658258;164.34496701160592;238.41286119658258" />
      </rect>
    
      <rect x="160"
            y="233.15301446042076"
            width="14"
            height="46.84698553957925"
            fill="url(#grad)"
            opacity="0.5636269418715376">
        <animate attributeName="height"
                 dur="1.07s"
                 repeatCount="indefinite"
                 values="46.84698553957925;74.18002014603806;46.84698553957925;62.72450759629701" />
        <animate attributeName="y"
                 dur="0.57s"
                 repeatCount="indefinite"
                 values="233.15301446042076;205.81997985396194;233.15301446042076" />
      </rect>
    
      <rect x="176"
            y="245.85228225401812"
            width="14"
            height="34.14771774598188"
            fill="url(#grad)"
            opacity="0.5250355221585026">
        <animate attributeName="height"
                 dur="0.80s"
                 repeatCount="indefinite"
                 values="34.14771774598188;65.29480192801887;34.14771774598188;66.74157781309165" />
        <animate attributeName="y"
                 dur="0.51s"
                 repeatCount="indefinite"
                 values="245.85228225401812;214.70519807198113;245.85228225401812" />
      </rect>
    
      <rect x="192"
            y="243.84655654696274"
            width="14"
            height="36.153443453037255"
            fill="url(#grad)"
            opacity="0.5179320701606795">
        <animate attributeName="height"
                 dur="0.88s"
                 repeatCount="indefinite"
                 values="36.153443453037255;62.390883962159194;36.153443453037255;39.785620654451215" />
        <animate attributeName="y"
                 dur="0.89s"
                 repeatCount="indefinite"
                 values="243.84655654696274;217.6091160378408;243.84655654696274" />
      </rect>
    
      <rect x="208"
            y="255.21542436686593"
            width="14"
            height="24.784575633134054"
            fill="url(#grad)"
            opacity="0.7741340805236512">
        <animate attributeName="height"
                 dur="0.75s"
                 repeatCount="indefinite"
                 values="24.784575633134054;46.10983468688772;24.784575633134054;47.73968325333917" />
        <animate attributeName="y"
                 dur="0.79s"
                 repeatCount="indefinite"
                 values="255.21542436686593;233.89016531311228;255.21542436686593" />
      </rect>
    
      <rect x="224"
            y="253.52242109229223"
            width="14"
            height="26.47757890770776"
            fill="url(#grad)"
            opacity="0.448345626454594">
        <animate attributeName="height"
                 dur="0.60s"
                 repeatCount="indefinite"
                 values="26.47757890770776;70.31448880939698;26.47757890770776;53.268538368343734" />
        <animate attributeName="y"
                 dur="0.74s"
                 repeatCount="indefinite"
                 values="253.52242109229223;209.68551119060302;253.52242109229223" />
      </rect>
    
      <rect x="240"
            y="245.46742101393602"
            width="14"
            height="34.53257898606397"
            fill="url(#grad)"
            opacity="0.4092018633958346">
        <animate attributeName="height"
                 dur="0.44s"
                 repeatCount="indefinite"
                 values="34.53257898606397;47.40359638088106;34.53257898606397;38.15876352621024" />
        <animate attributeName="y"
                 dur="0.41s"
                 repeatCount="indefinite"
                 values="245.46742101393602;232.59640361911895;245.46742101393602" />
      </rect>
    
      <rect x="256"
            y="249.58955120243382"
            width="14"
            height="30.41044879756617"
            fill="url(#grad)"
            opacity="0.655016601904735">
        <animate attributeName="height"
                 dur="1.08s"
                 repeatCount="indefinite"
                 values="30.41044879756617;41.619435297642916;30.41044879756617;49.7334387749161" />
        <animate attributeName="y"
                 dur="0.69s"
                 repeatCount="indefinite"
                 values="249.58955120243382;238.38056470235708;249.58955120243382" />
      </rect>
    
      <rect x="272"
            y="236.6166482972235"
            width="14"
            height="43.383351702776494"
            fill="url(#grad)"
            opacity="0.6303873852013111">
        <animate attributeName="height"
                 dur="0.68s"
                 repeatCount="indefinite"
                 values="43.383351702776494;105.85659621284505;43.383351702776494;54.254798909804194" />
        <animate attributeName="y"
                 dur="0.57s"
                 repeatCount="indefinite"
                 values="236.6166482972235;174.14340378715497;236.6166482972235" />
      </rect>
    
      <rect x="288"
            y="231.88671226569636"
            width="14"
            height="48.113287734303654"
            fill="url(#grad)"
            opacity="0.6038248063995764">
        <animate attributeName="height"
                 dur="0.60s"
                 repeatCount="indefinite"
                 values="48.113287734303654;86.79587077352872;48.113287734303654;71.05128451181129" />
        <animate attributeName="y"
                 dur="0.79s"
                 repeatCount="indefinite"
                 values="231.88671226569636;193.20412922647128;231.88671226569636" />
      </rect>
    
      <rect x="304"
            y="230.65378683862778"
            width="14"
            height="49.34621316137221"
            fill="url(#grad)"
            opacity="0.4477661403250582">
        <animate attributeName="height"
                 dur="1.04s"
                 repeatCount="indefinite"
                 values="49.34621316137221;103.90976195854711;49.34621316137221;87.23475639308776" />
        <animate attributeName="y"
                 dur="0.96s"
                 repeatCount="indefinite"
                 values="230.65378683862778;176.0902380414529;230.65378683862778" />
      </rect>
    
      <rect x="320"
            y="236.10194881125466"
            width="14"
            height="43.89805118874535"
            fill="url(#grad)"
            opacity="0.4784921351959544">
        <animate attributeName="height"
                 dur="0.94s"
                 repeatCount="indefinite"
                 values="43.89805118874535;110.72391715296678;43.89805118874535;69.52837645188183" />
        <animate attributeName="y"
                 dur="0.74s"
                 repeatCount="indefinite"
                 values="236.10194881125466;169.27608284703322;236.10194881125466" />
      </rect>
    
      <rect x="336"
            y="250.46341838737214"
            width="14"
            height="29.53658161262784"
            fill="url(#grad)"
            opacity="0.3225219683398735">
        <animate attributeName="height"
                 dur="1.00s"
                 repeatCount="indefinite"
                 values="29.53658161262784;80.32726672747341;29.53658161262784;51.86301531906325" />
        <animate attributeName="y"
                 dur="0.32s"
                 repeatCount="indefinite"
                 values="250.46341838737214;199.67273327252659;250.46341838737214" />
      </rect>
    
      <rect x="352"
            y="251.06774048838975"
            width="14"
            height="28.932259511610248"
            fill="url(#grad)"
            opacity="0.6627883309016585">
        <animate attributeName="height"
                 dur="0.86s"
                 repeatCount="indefinite"
                 values="28.932259511610248;95.48994428156956;28.932259511610248;29.316912140344876" />
        <animate attributeName="y"
                 dur="0.48s"
                 repeatCount="indefinite"
                 values="251.06774048838975;184.51005571843044;251.06774048838975" />
      </rect>
    
      <rect x="368"
            y="252.15238222977302"
            width="14"
            height="27.847617770226968"
            fill="url(#grad)"
            opacity="0.7509045786873845">
        <animate attributeName="height"
                 dur="0.30s"
                 repeatCount="indefinite"
                 values="27.847617770226968;77.00628501466491;27.847617770226968;62.57401035605287" />
        <animate attributeName="y"
                 dur="0.62s"
                 repeatCount="indefinite"
                 values="252.15238222977302;202.9937149853351;252.15238222977302" />
      </rect>
    
      <rect x="384"
            y="256.19989956884825"
            width="14"
            height="23.80010043115173"
            fill="url(#grad)"
            opacity="0.5344433417586776">
        <animate attributeName="height"
                 dur="0.45s"
                 repeatCount="indefinite"
                 values="23.80010043115173;49.80511749560242;23.80010043115173;33.81083829572138" />
        <animate attributeName="y"
                 dur="0.99s"
                 repeatCount="indefinite"
                 values="256.19989956884825;230.19488250439758;256.19989956884825" />
      </rect>
    
      <rect x="400"
            y="257.1287877774064"
            width="14"
            height="22.871212222593595"
            fill="url(#grad)"
            opacity="0.5268478546773523">
        <animate attributeName="height"
                 dur="0.41s"
                 repeatCount="indefinite"
                 values="22.871212222593595;100.70794156688366;22.871212222593595;33.21368184033204" />
        <animate attributeName="y"
                 dur="0.41s"
                 repeatCount="indefinite"
                 values="257.1287877774064;179.29205843311632;257.1287877774064" />
      </rect>
    
      <rect x="416"
            y="245.95354584348115"
            width="14"
            height="34.04645415651885"
            fill="url(#grad)"
            opacity="0.6343256150800556">
        <animate attributeName="height"
                 dur="0.79s"
                 repeatCount="indefinite"
                 values="34.04645415651885;82.02269692309136;34.04645415651885;49.95535331423318" />
        <animate attributeName="y"
                 dur="0.48s"
                 repeatCount="indefinite"
                 values="245.95354584348115;197.97730307690864;245.95354584348115" />
      </rect>
    
      <rect x="432"
            y="248.28533169288198"
            width="14"
            height="31.71466830711803"
            fill="url(#grad)"
            opacity="0.7057912392917693">
        <animate attributeName="height"
                 dur="0.83s"
                 repeatCount="indefinite"
                 values="31.71466830711803;107.15944261035857;31.71466830711803;61.69121895493903" />
        <animate attributeName="y"
                 dur="0.40s"
                 repeatCount="indefinite"
                 values="248.28533169288198;172.84055738964145;248.28533169288198" />
      </rect>
    
      <rect x="448"
            y="257.5649891114236"
            width="14"
            height="22.435010888576432"
            fill="url(#grad)"
            opacity="0.5619718457122294">
        <animate attributeName="height"
                 dur="0.93s"
                 repeatCount="indefinite"
                 values="22.435010888576432;27.434482973184338;22.435010888576432;39.68282412936193" />
        <animate attributeName="y"
                 dur="0.66s"
                 repeatCount="indefinite"
                 values="257.5649891114236;252.56551702681566;257.5649891114236" />
      </rect>
    
      <rect x="464"
            y="250.98380216348326"
            width="14"
            height="29.016197836516728"
            fill="url(#grad)"
            opacity="0.5187586109790963">
        <animate attributeName="height"
                 dur="0.77s"
                 repeatCount="indefinite"
                 values="29.016197836516728;80.73607820397255;29.016197836516728;32.005947512645506" />
        <animate attributeName="y"
                 dur="0.75s"
                 repeatCount="indefinite"
                 values="250.98380216348326;199.26392179602743;250.98380216348326" />
      </rect>
    
      <rect x="480"
            y="240.72244961322104"
            width="14"
            height="39.277550386778955"
            fill="url(#grad)"
            opacity="0.5891003258431808">
        <animate attributeName="height"
                 dur="0.46s"
                 repeatCount="indefinite"
                 values="39.277550386778955;101.33738622335349;39.277550386778955;51.03599178758112" />
        <animate attributeName="y"
                 dur="0.49s"
                 repeatCount="indefinite"
                 values="240.72244961322104;178.6626137766465;240.72244961322104" />
      </rect>
    
      <rect x="496"
            y="246.16544963845197"
            width="14"
            height="33.83455036154802"
            fill="url(#grad)"
            opacity="0.4853822044221649">
        <animate attributeName="height"
                 dur="1.04s"
                 repeatCount="indefinite"
                 values="33.83455036154802;99.36342881914783;33.83455036154802;60.433438198139434" />
        <animate attributeName="y"
                 dur="1.01s"
                 repeatCount="indefinite"
                 values="246.16544963845197;180.63657118085217;246.16544963845197" />
      </rect>
    
      <rect x="512"
            y="251.01779084017573"
            width="14"
            height="28.98220915982425"
            fill="url(#grad)"
            opacity="0.5048711469081235">
        <animate attributeName="height"
                 dur="0.59s"
                 repeatCount="indefinite"
                 values="28.98220915982425;31.608064925058226;28.98220915982425;30.270008794143955" />
        <animate attributeName="y"
                 dur="0.53s"
                 repeatCount="indefinite"
                 values="251.01779084017573;248.39193507494178;251.01779084017573" />
      </rect>
    
      <rect x="528"
            y="253.71420621668994"
            width="14"
            height="26.285793783310048"
            fill="url(#grad)"
            opacity="0.3357185009400147">
        <animate attributeName="height"
                 dur="1.03s"
                 repeatCount="indefinite"
                 values="26.285793783310048;37.79281949084772;26.285793783310048;34.58834344774929" />
        <animate attributeName="y"
                 dur="1.08s"
                 repeatCount="indefinite"
                 values="253.71420621668994;242.2071805091523;253.71420621668994" />
      </rect>
    
      <rect x="544"
            y="244.59813127258002"
            width="14"
            height="35.401868727419966"
            fill="url(#grad)"
            opacity="0.4149958600006319">
        <animate attributeName="height"
                 dur="0.88s"
                 repeatCount="indefinite"
                 values="35.401868727419966;111.16603142579604;35.401868727419966;47.042682401077016" />
        <animate attributeName="y"
                 dur="1.00s"
                 repeatCount="indefinite"
                 values="244.59813127258002;168.83396857420396;244.59813127258002" />
      </rect>
    
      <rect x="560"
            y="248.5039410394545"
            width="14"
            height="31.496058960545497"
            fill="url(#grad)"
            opacity="0.47890691712663463">
        <animate attributeName="height"
                 dur="0.43s"
                 repeatCount="indefinite"
                 values="31.496058960545497;110.7554529662708;31.496058960545497;67.63148065942718" />
        <animate attributeName="y"
                 dur="0.74s"
                 repeatCount="indefinite"
                 values="248.5039410394545;169.2445470337292;248.5039410394545" />
      </rect>
    
      <rect x="576"
            y="246.27253727090567"
            width="14"
            height="33.72746272909431"
            fill="url(#grad)"
            opacity="0.5915475397594709">
        <animate attributeName="height"
                 dur="0.90s"
                 repeatCount="indefinite"
                 values="33.72746272909431;99.46668669510798;33.72746272909431;38.36600910308362" />
        <animate attributeName="y"
                 dur="0.42s"
                 repeatCount="indefinite"
                 values="246.27253727090567;180.53331330489203;246.27253727090567" />
      </rect>
    
      <rect x="592"
            y="246.62998921719645"
            width="14"
            height="33.37001078280353"
            fill="url(#grad)"
            opacity="0.546085926926456">
        <animate attributeName="height"
                 dur="0.56s"
                 repeatCount="indefinite"
                 values="33.37001078280353;50.2963217978985;33.37001078280353;52.83246238892496" />
        <animate attributeName="y"
                 dur="1.05s"
                 repeatCount="indefinite"
                 values="246.62998921719645;229.70367820210151;246.62998921719645" />
      </rect>
    
      <rect x="608"
            y="251.55689494465142"
            width="14"
            height="28.443105055348582"
            fill="url(#grad)"
            opacity="0.5780848972989903">
        <animate attributeName="height"
                 dur="0.86s"
                 repeatCount="indefinite"
                 values="28.443105055348582;90.78270612503452;28.443105055348582;55.093431199570205" />
        <animate attributeName="y"
                 dur="0.60s"
                 repeatCount="indefinite"
                 values="251.55689494465142;189.2172938749655;251.55689494465142" />
      </rect>
    
      <rect x="624"
            y="244.70956092820404"
            width="14"
            height="35.290439071795944"
            fill="url(#grad)"
            opacity="0.44082238027651927">
        <animate attributeName="height"
                 dur="0.78s"
                 repeatCount="indefinite"
                 values="35.290439071795944;91.53980588579714;35.290439071795944;67.48989416012324" />
        <animate attributeName="y"
                 dur="0.85s"
                 repeatCount="indefinite"
                 values="244.70956092820404;188.46019411420286;244.70956092820404" />
      </rect>
    
      <rect x="640"
            y="233.71902799763276"
            width="14"
            height="46.280972002367236"
            fill="url(#grad)"
            opacity="0.6339061254918237">
        <animate attributeName="height"
                 dur="1.10s"
                 repeatCount="indefinite"
                 values="46.280972002367236;46.60450777806606;46.280972002367236;62.49036292887525" />
        <animate attributeName="y"
                 dur="0.62s"
                 repeatCount="indefinite"
                 values="233.71902799763276;233.39549222193395;233.71902799763276" />
      </rect>
    
      <rect x="656"
            y="253.87603411858356"
            width="14"
            height="26.123965881416453"
            fill="url(#grad)"
            opacity="0.6885366133615367">
        <animate attributeName="height"
                 dur="0.70s"
                 repeatCount="indefinite"
                 values="26.123965881416453;43.60521083522998;26.123965881416453;62.19739409753072" />
        <animate attributeName="y"
                 dur="0.37s"
                 repeatCount="indefinite"
                 values="253.87603411858356;236.39478916477003;253.87603411858356" />
      </rect>
    
      <rect x="672"
            y="243.68666648366934"
            width="14"
            height="36.31333351633066"
            fill="url(#grad)"
            opacity="0.3125435885522683">
        <animate attributeName="height"
                 dur="0.84s"
                 repeatCount="indefinite"
                 values="36.31333351633066;47.889070205075996;36.31333351633066;46.86519426594111" />
        <animate attributeName="y"
                 dur="0.96s"
                 repeatCount="indefinite"
                 values="243.68666648366934;232.110929794924;243.68666648366934" />
      </rect>
    
      <rect x="688"
            y="255.77254754539752"
            width="14"
            height="24.22745245460247"
            fill="url(#grad)"
            opacity="0.5642942600499978">
        <animate attributeName="height"
                 dur="0.48s"
                 repeatCount="indefinite"
                 values="24.22745245460247;33.35400579206852;24.22745245460247;41.687720991718315" />
        <animate attributeName="y"
                 dur="0.59s"
                 repeatCount="indefinite"
                 values="255.77254754539752;246.6459942079315;255.77254754539752" />
      </rect>
    
      <rect x="704"
            y="232.95675257912745"
            width="14"
            height="47.04324742087256"
            fill="url(#grad)"
            opacity="0.6305407249803747">
        <animate attributeName="height"
                 dur="0.96s"
                 repeatCount="indefinite"
                 values="47.04324742087256;114.28676022799982;47.04324742087256;52.54129348591769" />
        <animate attributeName="y"
                 dur="0.60s"
                 repeatCount="indefinite"
                 values="232.95675257912745;165.71323977200018;232.95675257912745" />
      </rect>
    
      <rect x="720"
            y="244.44993594704664"
            width="14"
            height="35.55006405295336"
            fill="url(#grad)"
            opacity="0.49331286228571297">
        <animate attributeName="height"
                 dur="0.82s"
                 repeatCount="indefinite"
                 values="35.55006405295336;99.21953028490782;35.55006405295336;41.3511512217197" />
        <animate attributeName="y"
                 dur="0.60s"
                 repeatCount="indefinite"
                 values="244.44993594704664;180.78046971509218;244.44993594704664" />
      </rect>
    
      <rect x="736"
            y="238.51468346237277"
            width="14"
            height="41.48531653762724"
            fill="url(#grad)"
            opacity="0.38106396502305556">
        <animate attributeName="height"
                 dur="0.55s"
                 repeatCount="indefinite"
                 values="41.48531653762724;69.52310107713275;41.48531653762724;54.74891277891988" />
        <animate attributeName="y"
                 dur="0.90s"
                 repeatCount="indefinite"
                 values="238.51468346237277;210.47689892286724;238.51468346237277" />
      </rect>
    
      <rect x="752"
            y="234.11829722499056"
            width="14"
            height="45.88170277500946"
            fill="url(#grad)"
            opacity="0.4911006568454728">
        <animate attributeName="height"
                 dur="0.54s"
                 repeatCount="indefinite"
                 values="45.88170277500946;88.08133407835979;45.88170277500946;50.176373191813155" />
        <animate attributeName="y"
                 dur="0.95s"
                 repeatCount="indefinite"
                 values="234.11829722499056;191.9186659216402;234.11829722499056" />
      </rect>
    
      <rect x="768"
            y="235.4776513402085"
            width="14"
            height="44.522348659791504"
            fill="url(#grad)"
            opacity="0.4702631751354421">
        <animate attributeName="height"
                 dur="0.33s"
                 repeatCount="indefinite"
                 values="44.522348659791504;48.767170016742156;44.522348659791504;55.55209459600921" />
        <animate attributeName="y"
                 dur="0.54s"
                 repeatCount="indefinite"
                 values="235.4776513402085;231.23282998325783;235.4776513402085" />
      </rect>
    
      <rect x="784"
            y="245.71970316986867"
            width="14"
            height="34.28029683013133"
            fill="url(#grad)"
            opacity="0.7476487101348308">
        <animate attributeName="height"
                 dur="0.38s"
                 repeatCount="indefinite"
                 values="34.28029683013133;87.84377319038549;34.28029683013133;45.22348676559602" />
        <animate attributeName="y"
                 dur="1.02s"
                 repeatCount="indefinite"
                 values="245.71970316986867;192.1562268096145;245.71970316986867" />
      </rect>
    
      <rect x="800"
            y="235.5559046797622"
            width="14"
            height="44.44409532023779"
            fill="url(#grad)"
            opacity="0.5695550468141515">
        <animate attributeName="height"
                 dur="1.08s"
                 repeatCount="indefinite"
                 values="44.44409532023779;123.44247422031681;44.44409532023779;46.08181069381529" />
        <animate attributeName="y"
                 dur="0.55s"
                 repeatCount="indefinite"
                 values="235.5559046797622;156.5575257796832;235.5559046797622" />
      </rect>
    
      <rect x="816"
            y="256.5630616642468"
            width="14"
            height="23.436938335753197"
            fill="url(#grad)"
            opacity="0.4691777657716942">
        <animate attributeName="height"
                 dur="0.35s"
                 repeatCount="indefinite"
                 values="23.436938335753197;36.5245947892179;23.436938335753197;40.400527698198026" />
        <animate attributeName="y"
                 dur="0.86s"
                 repeatCount="indefinite"
                 values="256.5630616642468;243.4754052107821;256.5630616642468" />
      </rect>
    
      <rect x="832"
            y="253.0316209586869"
            width="14"
            height="26.968379041313106"
            fill="url(#grad)"
            opacity="0.7812099542700024">
        <animate attributeName="height"
                 dur="0.42s"
                 repeatCount="indefinite"
                 values="26.968379041313106;60.50963153146739;26.968379041313106;34.78240397089028" />
        <animate attributeName="y"
                 dur="0.73s"
                 repeatCount="indefinite"
                 values="253.0316209586869;219.4903684685326;253.0316209586869" />
      </rect>
    
      <rect x="848"
            y="234.86197295889113"
            width="14"
            height="45.13802704110886"
            fill="url(#grad)"
            opacity="0.6912155584821202">
        <animate attributeName="height"
                 dur="0.94s"
                 repeatCount="indefinite"
                 values="45.13802704110886;102.81109374847556;45.13802704110886;73.15895057473608" />
        <animate attributeName="y"
                 dur="1.04s"
                 repeatCount="indefinite"
                 values="234.86197295889113;177.18890625152443;234.86197295889113" />
      </rect>
    
      <rect x="864"
            y="243.6294772383286"
            width="14"
            height="36.370522761671396"
            fill="url(#grad)"
            opacity="0.4918667258647325">
        <animate attributeName="height"
                 dur="1.01s"
                 repeatCount="indefinite"
                 values="36.370522761671396;37.926683067058704;36.370522761671396;67.4548773732228" />
        <animate attributeName="y"
                 dur="0.30s"
                 repeatCount="indefinite"
                 values="243.6294772383286;242.07331693294128;243.6294772383286" />
      </rect>
    
      <rect x="880"
            y="257.2850154540491"
            width="14"
            height="22.714984545950927"
            fill="url(#grad)"
            opacity="0.5159271836594828">
        <animate attributeName="height"
                 dur="1.08s"
                 repeatCount="indefinite"
                 values="22.714984545950927;26.102310363689718;22.714984545950927;43.76417172698018" />
        <animate attributeName="y"
                 dur="0.77s"
                 repeatCount="indefinite"
                 values="257.2850154540491;253.89768963631028;257.2850154540491" />
      </rect>
    
      <rect x="896"
            y="246.67938613922973"
            width="14"
            height="33.32061386077028"
            fill="url(#grad)"
            opacity="0.4989573168165719">
        <animate attributeName="height"
                 dur="0.90s"
                 repeatCount="indefinite"
                 values="33.32061386077028;82.29736347617646;33.32061386077028;53.79753143281184" />
        <animate attributeName="y"
                 dur="0.49s"
                 repeatCount="indefinite"
                 values="246.67938613922973;197.70263652382354;246.67938613922973" />
      </rect>
    
      <rect x="912"
            y="251.6775001329862"
            width="14"
            height="28.322499867013796"
            fill="url(#grad)"
            opacity="0.689036353482694">
        <animate attributeName="height"
                 dur="0.61s"
                 repeatCount="indefinite"
                 values="28.322499867013796;89.9486672106413;28.322499867013796;62.27507623313631" />
        <animate attributeName="y"
                 dur="0.53s"
                 repeatCount="indefinite"
                 values="251.6775001329862;190.0513327893587;251.6775001329862" />
      </rect>
    
      <rect x="928"
            y="230.66499510477632"
            width="14"
            height="49.335004895223676"
            fill="url(#grad)"
            opacity="0.7118204492298874">
        <animate attributeName="height"
                 dur="1.00s"
                 repeatCount="indefinite"
                 values="49.335004895223676;79.54776262103974;49.335004895223676;79.33902703548955" />
        <animate attributeName="y"
                 dur="0.76s"
                 repeatCount="indefinite"
                 values="230.66499510477632;200.45223737896026;230.66499510477632" />
      </rect>
    
      <rect x="944"
            y="248.41183624823188"
            width="14"
            height="31.588163751768114"
            fill="url(#grad)"
            opacity="0.6285071260865802">
        <animate attributeName="height"
                 dur="0.52s"
                 repeatCount="indefinite"
                 values="31.588163751768114;91.62683893272771;31.588163751768114;44.61117348819961" />
        <animate attributeName="y"
                 dur="1.04s"
                 repeatCount="indefinite"
                 values="248.41183624823188;188.3731610672723;248.41183624823188" />
      </rect>
    
</g>

<!-- TRUE PARALLAX WAVES -->
<path d="M 0 155.4773454338612 Q 2.4120603015075375 155.4773454338612 4.824120603015075 155.28077546081892 Q 7.236180904522612 155.28077546081892 9.64824120603015 155.02640990877035 Q 12.060301507537687 155.02640990877035 14.472361809045225 154.75670121278225 Q 16.884422110552762 154.75670121278225 19.2964824120603 154.5072224327646 Q 21.708542713567837 154.5072224327646 24.120603015075375 154.30300050475208 Q 26.532663316582912 154.30300050475208 28.94472361809045 154.15588696458678 Q 31.356783919597987 154.15588696458678 33.768844221105525 154.0631912521925 Q 36.18090452261306 154.0631912521925 38.5929648241206 154.00769613345489 Q 41.00502512562814 154.00769613345489 43.417085427135675 153.95905944132042 Q 45.82914572864321 153.95905944132042 48.24120603015075 153.87649053451145 Q 50.65326633165829 153.87649053451145 53.065326633165824 153.7124829380964 Q 55.47738693467336 153.7124829380964 57.8894472361809 153.4172951974407 Q 60.30150753768844 153.4172951974407 62.713567839195974 152.94380728473965 Q 65.12562814070351 152.94380728473965 67.53768844221105 152.25234521264898 Q 69.94974874371859 152.25234521264898 72.36180904522612 151.31506470656396 Q 74.77386934673366 151.31506470656396 77.1859296482412 150.11951611558283 Q 79.59798994974874 150.11951611558283 82.01005025125627 148.67107480503464 Q 84.42211055276381 148.67107480503464 86.83417085427135 146.9940092148872 Q 89.24623115577889 146.9940092148872 91.65829145728642 145.1310656577307 Q 94.07035175879396 145.1310656577307 96.4824120603015 143.14156631092007 Q 98.89447236180904 143.14156631092007 101.30653266331657 141.09813541838022 Q 103.71859296482411 141.09813541838022 106.13065326633165 139.08227903122767 Q 108.54271356783919 139.08227903122767 110.95477386934672 137.17913688854824 Q 113.36683417085426 137.17913688854824 115.7788944723618 135.4717938085147 Q 118.19095477386934 135.4717938085147 120.60301507537687 134.03557668988782 Q 123.01507537688441 134.03557668988782 125.42713567839195 132.93276874685282 Q 127.83919597989949 132.93276874685282 130.25125628140702 132.20814436964173 Q 132.66331658291455 132.20814436964173 135.0753768844221 131.88566814061028 Q 137.48743718592965 131.88566814061028 139.89949748743717 131.96661466358933 Q 142.3115577889447 131.96661466358933 144.72361809045225 132.42925874481938 Q 147.1356783919598 132.42925874481938 149.54773869346732 133.23016646261112 Q 151.95979899497485 133.23016646261112 154.3718592964824 134.3069960897835 Q 156.78391959798995 134.3069960897835 159.19597989949747 135.58260320550085 Q 161.608040201005 135.58260320550085 164.02010050251255 136.97014562436067 Q 166.4321608040201 136.97014562436067 168.84422110552762 138.37880869952144 Q 171.25628140703515 138.37880869952144 173.6683417085427 139.71972597834562 Q 176.08040201005025 139.71972597834562 178.49246231155777 140.91165763216878 Q 180.9045226130653 140.91165763216878 183.31658291457285 141.8860104707699 Q 185.7286432160804 141.8860104707699 188.14070351758792 142.5908369353317 Q 190.55276381909545 142.5908369353317 192.964824120603 142.99353195404137 Q 195.37688442211055 142.99353195404137 197.78894472361807 143.0820494605672 Q 200.2010050251256 143.0820494605672 202.61306532663315 142.86457655669716 Q 205.0251256281407 142.86457655669716 207.43718592964822 142.36772355408982 Q 209.84924623115575 142.36772355408982 212.2613065326633 141.63340296159586 Q 214.67336683417085 141.63340296159586 217.08542713567837 140.71467084941716 Q 219.4974874371859 140.71467084941716 221.90954773869345 139.6708820415764 Q 224.321608040201 139.6708820415764 226.73366834170852 138.5625601758438 Q 229.14572864321605 138.5625601758438 231.5577889447236 137.44640100826527 Q 233.96984924623115 137.44640100826527 236.38190954773867 136.37081118153264 Q 238.7939698492462 136.37081118153264 241.20603015075375 135.3723364431061 Q 243.6180904522613 135.3723364431061 246.03015075376882 134.47325696119802 Q 248.44221105527635 134.47325696119802 250.8542713567839 133.68052914711623 Q 253.26633165829145 133.68052914711623 255.67839195979897 132.9861411893565 Q 258.0904522613065 132.9861411893565 260.50251256281405 132.3688323784392 Q 262.9145728643216 132.3688323784392 265.3266331658291 131.7970136727955 Q 267.73869346733665 131.7970136727955 270.1507537688442 131.23262787571025 Q 272.56281407035175 131.23262787571025 274.9748743718593 130.63561022044382 Q 277.3869346733668 130.63561022044382 279.79899497487435 129.96856032824223 Q 282.2110552763819 129.96856032824223 284.6231155778894 129.20121842235181 Q 287.03517587939695 129.20121842235181 289.4472361809045 128.3143538182055 Q 291.85929648241205 128.3143538182055 294.2713567839196 127.30272087362896 Q 296.6834170854271 127.30272087362896 299.09547738693465 126.17681301575482 Q 301.5075376884422 126.17681301575482 303.9195979899497 124.963243139121 Q 306.33165829145725 124.963243139121 308.7437185929648 123.70369078042076 Q 311.15577889447235 123.70369078042076 313.5678391959799 122.45247404201501 Q 315.9798994974874 122.45247404201501 318.39195979899495 121.27291782999896 Q 320.8040201005025 121.27291782999896 323.21608040201 120.23279046470266 Q 325.62814070351754 120.23279046470266 328.0402010050251 119.39916001091659 Q 330.45226130653265 119.39916001091659 332.8643216080402 118.83307333464887 Q 335.2763819095477 118.83307333464887 337.68844221105525 118.58448068309622 Q 340.1005025125628 118.58448068309622 342.5125628140703 118.68781479255182 Q 344.92462311557784 118.68781479255182 347.3366834170854 119.15858710996301 Q 349.74874371859295 119.15858710996301 352.1608040201005 119.99128821719444 Q 354.572864321608 119.99128821719444 356.98492462311555 121.15878083827106 Q 359.3969849246231 121.15878083827106 361.8090452261306 122.61325960801159 Q 364.22110552763814 122.61325960801159 366.6331658291457 124.28873104804171 Q 369.04522613065325 124.28873104804171 371.4572864321608 126.10484943008105 Q 373.8693467336683 126.10484943008105 376.28140703517585 127.97183868594638 Q 378.6934673366834 127.97183868594638 381.1055276381909 129.79614557554012 Q 383.51758793969844 129.79614557554012 385.929648241206 131.48641166223194 Q 388.34170854271355 131.48641166223194 390.7537688442211 132.9593258385167 Q 393.1658291457286 132.9593258385167 395.57788944723615 134.14492725507864 Q 397.9899497487437 134.14492725507864 400.4020100502512 134.99096992325155 Q 402.81407035175874 134.99096992325155 405.2261306532663 135.46603175019803 Q 407.63819095477385 135.46603175019803 410.0502512562814 135.56114672531496 Q 412.4623115577889 135.56114672531496 414.87437185929645 135.28985187736066 Q 417.286432160804 135.28985187736066 419.6984924623115 134.6866616066923 Q 422.11055276381904 134.6866616066923 424.5226130653266 133.80410157880866 Q 426.93467336683415 133.80410157880866 429.3467336683417 132.7085431784433 Q 431.7587939698492 132.7085431784433 434.17085427135675 131.4751690639445 Q 436.5829145728643 131.4751690639445 438.9949748743718 130.1824636595867 Q 441.40703517587934 130.1824636595867 443.8190954773869 128.90665459260703 Q 446.23115577889445 128.90665459260703 448.643216080402 127.71652970435419 Q 451.0552763819095 127.71652970435419 453.46733668341705 126.66901958023281 Q 455.8793969849246 126.66901958023281 458.2914572864321 125.80587042519602 Q 460.70351758793964 125.80587042519602 463.1155778894472 125.15164183812381 Q 465.52763819095475 125.15164183812381 467.9396984924623 124.713155869156 Q 470.3517587939698 124.713155869156 472.76381909547734 124.480406341738 Q 475.1758793969849 124.480406341738 477.5879396984924 124.4288201620233 Q 479.99999999999994 124.4288201620233 482.4120603015075 124.5226545661388 Q 484.82412060301505 124.5226545661388 487.2361809045226 124.71922453918108 Q 489.6482412060301 124.71922453918108 492.06030150753764 124.97359009122965 Q 494.4723618090452 124.97359009122965 496.8844221105527 125.24329878721775 Q 499.29648241206024 125.24329878721775 501.7085427135678 125.49277756723541 Q 504.12060301507535 125.49277756723541 506.5326633165829 125.69699949524794 Q 508.9447236180904 125.69699949524794 511.35678391959794 125.84411303541322 Q 513.7688442211055 125.84411303541322 516.180904522613 125.93680874780752 Q 518.5929648241206 125.93680874780752 521.0050251256281 125.99230386654511 Q 523.4170854271356 125.99230386654511 525.8291457286432 126.04094055867957 Q 528.2412060301507 126.04094055867957 530.6532663316582 126.12350946548854 Q 533.0653266331658 126.12350946548854 535.4773869346733 126.2875170619036 Q 537.8894472361808 126.2875170619036 540.3015075376884 126.58270480255933 Q 542.713567839196 126.58270480255933 545.1256281407035 127.05619271526032 Q 547.537688442211 127.05619271526032 549.9497487437186 127.74765478735101 Q 552.3618090452261 127.74765478735101 554.7738693467336 128.684935293436 Q 557.1859296482412 128.684935293436 559.5979899497487 129.88048388441717 Q 562.0100502512562 129.88048388441717 564.4221105527638 131.32892519496534 Q 566.8341708542713 131.32892519496534 569.2462311557788 133.00599078511277 Q 571.6582914572864 133.00599078511277 574.0703517587939 134.86893434226928 Q 576.4824120603014 134.86893434226928 578.894472361809 136.8584336890799 Q 581.3065326633166 136.8584336890799 583.7185929648241 138.90186458161978 Q 586.1306532663316 138.90186458161978 588.5427135678392 140.91772096877236 Q 590.9547738693467 140.91772096877236 593.3668341708542 142.82086311145176 Q 595.7788944723618 142.82086311145176 598.1909547738693 144.5282061914853 Q 600.6030150753768 144.5282061914853 603.0150753768844 145.96442331011218 Q 605.4271356783919 145.96442331011218 607.8391959798994 147.06723125314718 Q 610.251256281407 147.06723125314718 612.6633165829145 147.79185563035827 Q 615.075376884422 147.79185563035827 617.4874371859296 148.11433185938975 Q 619.8994974874372 148.11433185938975 622.3115577889447 148.03338533641067 Q 624.7236180904522 148.03338533641067 627.1356783919598 147.57074125518062 Q 629.5477386934673 147.57074125518062 631.9597989949748 146.7698335373889 Q 634.3718592964824 146.7698335373889 636.7839195979899 145.69300391021648 Q 639.1959798994974 145.69300391021648 641.608040201005 144.41739679449915 Q 644.0201005025125 144.41739679449915 646.43216080402 143.02985437563933 Q 648.8442211055276 143.02985437563933 651.2562814070351 141.62119130047856 Q 653.6683417085426 141.62119130047856 656.0804020100502 140.28027402165435 Q 658.4924623115578 140.28027402165435 660.9045226130653 139.08834236783125 Q 663.3165829145728 139.08834236783125 665.7286432160804 138.11398952923014 Q 668.1407035175879 138.11398952923014 670.5527638190954 137.40916306466832 Q 672.964824120603 137.40916306466832 675.3768844221105 137.0064680459586 Q 677.788944723618 137.0064680459586 680.2010050251256 136.91795053943284 Q 682.6130653266331 136.91795053943284 685.0251256281406 137.13542344330284 Q 687.4371859296482 137.13542344330284 689.8492462311557 137.63227644591015 Q 692.2613065326632 137.63227644591015 694.6733668341708 138.36659703840417 Q 697.0854271356784 138.36659703840417 699.4974874371859 139.2853291505828 Q 701.9095477386934 139.2853291505828 704.321608040201 140.3291179584236 Q 706.7336683417085 140.3291179584236 709.145728643216 141.4374398241562 Q 711.5577889447236 141.4374398241562 713.9698492462311 142.55359899173476 Q 716.3819095477386 142.55359899173476 718.7939698492462 143.62918881846736 Q 721.2060301507537 143.62918881846736 723.6180904522612 144.6276635568939 Q 726.0301507537688 144.6276635568939 728.4422110552763 145.52674303880195 Q 730.8542713567838 145.52674303880195 733.2663316582914 146.31947085288377 Q 735.678391959799 146.31947085288377 738.0904522613065 147.0138588106435 Q 740.502512562814 147.0138588106435 742.9145728643216 147.6311676215608 Q 745.3266331658291 147.6311676215608 747.7386934673366 148.20298632720448 Q 750.1507537688442 148.20298632720448 752.5628140703517 148.76737212428972 Q 754.9748743718592 148.76737212428972 757.3869346733668 149.3643897795562 Q 759.7989949748743 149.3643897795562 762.2110552763818 150.03143967175777 Q 764.6231155778894 150.03143967175777 767.0351758793969 150.79878157764819 Q 769.4472361809044 150.79878157764819 771.859296482412 151.68564618179448 Q 774.2713567839196 151.68564618179448 776.6834170854271 152.69727912637106 Q 779.0954773869346 152.69727912637106 781.5075376884422 153.82318698424518 Q 783.9195979899497 153.82318698424518 786.3316582914572 155.03675686087897 Q 788.7437185929648 155.03675686087897 791.1557788944723 156.2963092195792 Q 793.5678391959798 156.2963092195792 795.9798994974874 157.547525957985 Q 798.3919597989949 157.547525957985 800.8040201005024 158.72708217000104 Q 803.21608040201 158.72708217000104 805.6281407035175 159.76720953529733 Q 808.040201005025 159.76720953529733 810.4522613065326 160.6008399890834 Q 812.8643216080402 160.6008399890834 815.2763819095477 161.16692666535113 Q 817.6884422110552 161.16692666535113 820.1005025125628 161.41551931690378 Q 822.5125628140703 161.41551931690378 824.9246231155778 161.31218520744818 Q 827.3366834170854 161.31218520744818 829.7487437185929 160.84141289003702 Q 832.1608040201004 160.84141289003702 834.572864321608 160.00871178280556 Q 836.9849246231155 160.00871178280556 839.396984924623 158.84121916172896 Q 841.8090452261306 158.84121916172896 844.2211055276381 157.3867403919884 Q 846.6331658291456 157.3867403919884 849.0452261306532 155.71126895195832 Q 851.4572864321608 155.71126895195832 853.8693467336683 153.895150569919 Q 856.2814070351758 153.895150569919 858.6934673366834 152.02816131405362 Q 861.1055276381909 152.02816131405362 863.5175879396984 150.20385442445988 Q 865.929648241206 150.20385442445988 868.3417085427135 148.51358833776806 Q 870.753768844221 148.51358833776806 873.1658291457286 147.04067416148334 Q 875.5778894472361 147.04067416148334 877.9899497487436 145.85507274492133 Q 880.4020100502512 145.85507274492133 882.8140703517587 145.00903007674842 Q 885.2261306532662 145.00903007674842 887.6381909547738 144.53396824980197 Q 890.0502512562814 144.53396824980197 892.4623115577889 144.43885327468502 Q 894.8743718592964 144.43885327468502 897.286432160804 144.71014812263934 Q 899.6984924623115 144.71014812263934 902.110552763819 145.3133383933077 Q 904.5226130653266 145.3133383933077 906.9346733668341 146.19589842119134 Q 909.3467336683416 146.19589842119134 911.7587939698492 147.29145682155664 Q 914.1708542713567 147.29145682155664 916.5829145728642 148.52483093605548 Q 918.9949748743718 148.52483093605548 921.4070351758793 149.81753634041328 Q 923.8190954773868 149.81753634041328 926.2311557788944 151.09334540739297 Q 928.643216080402 151.09334540739297 931.0552763819095 152.2834702956458 Q 933.467336683417 152.2834702956458 935.8793969849246 153.3309804197672 Q 938.2914572864321 153.3309804197672 940.7035175879396 154.194129574804 Q 943.1155778894472 154.194129574804 945.5276381909547 154.8483581618762 Q 947.9396984924622 154.8483581618762 950.3517587939698 155.28684413084397 Q 952.7638190954773 155.28684413084397 955.1758793969848 155.519593658262 Q 957.5879396984924 155.519593658262 959.9999999999999 155.5711798379767 " stroke="url(#grad)" stroke-width="2"
      opacity="0.18" fill="none">
  <animateTransform type="translate"
                    from="0 0" to="-40 0"
                    dur="9s" repeatCount="indefinite"/>
</path>

<path d="M 0 133.5053403482355 Q 2.4120603015075375 133.5053403482355 4.824120603015075 130.52955182487676 Q 7.236180904522612 130.52955182487676 9.64824120603015 127.66410539154995 Q 12.060301507537687 127.66410539154995 14.472361809045225 124.9840038801889 Q 16.884422110552762 124.9840038801889 19.2964824120603 122.55695767812091 Q 21.708542713567837 122.55695767812091 24.120603015075375 120.44040668961549 Q 26.532663316582912 120.44040668961549 28.94472361809045 118.6790565949096 Q 31.356783919597987 118.6790565949096 33.768844221105525 117.30305484237022 Q 36.18090452261306 117.30305484237022 38.5929648241206 116.32689746069286 Q 41.00502512562814 116.32689746069286 43.417085427135675 115.74911854841818 Q 45.82914572864321 115.74911854841818 48.24120603015075 115.5527723371934 Q 50.65326633165829 115.5527723371934 53.065326633165824 115.70667533153784 Q 55.47738693467336 115.70667533153784 57.8894472361809 116.1673355219353 Q 60.30150753768844 116.1673355219353 62.713567839195974 116.88145926465133 Q 65.12562814070351 116.88145926465133 67.53768844221105 117.78889610775528 Q 69.94974874371859 117.78889610775528 72.36180904522612 118.82585926821673 Q 74.77386934673366 118.82585926821673 77.1859296482412 119.92824585147989 Q 79.59798994974874 119.92824585147989 82.01005025125627 121.034876979356 Q 84.42211055276381 121.034876979356 86.83417085427135 122.09048394633376 Q 89.24623115577889 122.09048394633376 91.65829145728642 123.04828200536473 Q 94.07035175879396 123.04828200536473 96.4824120603015 123.87199751355338 Q 98.89447236180904 123.87199751355338 101.30653266331657 124.53724559142864 Q 103.71859296482411 124.53724559142864 106.13065326633165 125.03219241097757 Q 108.54271356783919 125.03219241097757 110.95477386934672 125.35747666800994 Q 113.36683417085426 125.35747666800994 115.7788944723618 125.52540646463018 Q 118.19095477386934 125.52540646463018 120.60301507537687 125.5584884133765 Q 123.01507537688441 125.5584884133765 125.42713567839195 125.48738302459026 Q 127.83919597989949 125.48738302459026 130.25125628140702 125.34841228887811 Q 132.66331658291455 125.34841228887811 135.0753768844221 125.18077005477141 Q 137.48743718592965 125.18077005477141 139.89949748743717 125.02360196452005 Q 142.3115577889447 125.02360196452005 144.72361809045225 124.91312845934259 Q 147.1356783919598 124.91312845934259 149.54773869346732 124.87998133374396 Q 151.95979899497485 124.87998133374396 154.3718592964824 124.94691168452839 Q 156.78391959798995 124.94691168452839 159.19597989949747 125.12700557519058 Q 161.608040201005 125.12700557519058 164.02010050251255 125.42251452574565 Q 166.4321608040201 125.42251452574565 168.84422110552762 125.82437267415688 Q 171.25628140703515 125.82437267415688 173.6683417085427 126.31243310736767 Q 176.08040201005025 126.31243310736767 178.49246231155777 126.85641462405785 Q 180.9045226130653 126.85641462405785 183.31658291457285 127.41750936991131 Q 185.7286432160804 127.41750936991131 188.14070351758792 127.95056365985681 Q 190.55276381909545 127.95056365985681 192.964824120603 128.40671100264203 Q 195.37688442211055 128.40671100264203 197.78894472361807 128.73630973697598 Q 200.2010050251256 128.73630973697598 202.61306532663315 128.89201927110668 Q 205.0251256281407 128.89201927110668 207.43718592964822 128.8318397318411 Q 209.84924623115575 128.8318397318411 212.2613065326633 128.52194040636732 Q 214.67336683417085 128.52194040636732 217.08542713567837 127.93911269169695 Q 219.4974874371859 127.93911269169695 221.90954773869345 127.07270280234044 Q 224.321608040201 127.07270280234044 226.73366834170852 125.92590716656842 Q 229.14572864321605 125.92590716656842 231.5577889447236 124.51634775258312 Q 233.96984924623115 124.51634775258312 236.38190954773867 122.87588362641934 Q 238.7939698492462 122.87588362641934 241.20603015075375 121.0496567064598 Q 243.6180904522613 121.0496567064598 246.03015075376882 119.09441165135928 Q 248.44221105527635 119.09441165135928 250.8542713567839 117.07616978502953 Q 253.26633165829145 117.07616978502953 255.67839195979897 115.0673727178658 Q 258.0904522613065 115.0673727178658 260.50251256281405 113.14364089081667 Q 262.9145728643216 113.14364089081667 265.3266331658291 111.38031401018367 Q 267.73869346733665 111.38031401018367 270.1507537688442 109.8489530474905 Q 272.56281407035175 109.8489530474905 274.9748743718593 108.61398643792941 Q 277.3869346733668 108.61398643792941 279.79899497487435 107.72967614609314 Q 282.2110552763819 107.72967614609314 284.6231155778894 107.23756274799896 Q 287.03517587939695 107.23756274799896 289.4472361809045 107.16452349846608 Q 291.85929648241205 107.16452349846608 294.2713567839196 107.52154488383292 Q 296.6834170854271 107.52154488383292 299.09547738693465 108.30327317390157 Q 301.5075376884422 108.30327317390157 303.9195979899497 109.48836505940807 Q 306.33165829145725 109.48836505940807 308.7437185929648 111.04061785686956 Q 311.15577889447235 111.04061785686956 313.5678391959799 112.91081731033012 Q 315.9798994974874 112.91081731033012 318.39195979899495 115.03920298433815 Q 320.8040201005025 115.03920298433815 323.21608040201 117.35841870074512 Q 325.62814070351754 117.35841870074512 328.0402010050251 119.79679019687616 Q 330.45226130653265 119.79679019687616 332.8643216080402 122.28175554689156 Q 335.2763819095477 122.28175554689156 337.68844221105525 124.74326678823506 Q 340.1005025125628 124.74326678823506 342.5125628140703 127.11698400213285 Q 344.92462311557784 127.11698400213285 347.3366834170854 129.34709563689754 Q 349.74874371859295 129.34709563689754 352.1608040201005 131.38862042546324 Q 354.572864321608 131.38862042546324 356.98492462311555 133.20907562826864 Q 359.3969849246231 133.20907562826864 361.8090452261306 134.78943189423174 Q 364.22110552763814 134.78943189423174 366.6331658291457 136.12431480241597 Q 369.04522613065325 136.12431480241597 371.4572864321608 137.22145492188994 Q 373.8693467336683 137.22145492188994 376.28140703517585 138.10042969645406 Q 378.6934673366834 138.10042969645406 381.1055276381909 138.79077933367017 Q 383.51758793969844 138.79077933367017 385.929648241206 139.3296130099971 Q 388.34170854271355 139.3296130099971 390.7537688442211 139.75884921691437 Q 393.1658291457286 139.75884921691437 395.57788944723615 140.12225345662057 Q 397.9899497487437 140.12225345662057 400.4020100502512 140.46244669223208 Q 402.81407035175874 140.46244669223208 405.2261306532663 140.81805841874277 Q 407.63819095477385 140.81805841874277 410.0502512562814 141.22118894005888 Q 412.4623115577889 141.22118894005888 414.87437185929645 141.69532694740028 Q 417.286432160804 141.69532694740028 419.6984924623115 142.25384183915511 Q 422.11055276381904 142.25384183915511 424.5226130653266 142.89913689844727 Q 426.93467336683415 142.89913689844727 429.3467336683417 143.62251131836499 Q 431.7587939698492 143.62251131836499 434.17085427135675 144.40473826822148 Q 436.5829145728643 144.40473826822148 438.9949748743718 145.21732500744113 Q 441.40703517587934 145.21732500744113 443.8190954773869 146.02438177819388 Q 446.23115577889445 146.02438177819388 448.643216080402 146.78499103911747 Q 451.0552763819095 146.78499103911747 453.46733668341705 147.4559395078891 Q 455.8793969849246 147.4559395078891 458.2914572864321 147.99465409061233 Q 460.70351758793964 147.99465409061233 463.1155778894472 148.36217029411964 Q 465.52763819095475 148.36217029411964 467.9396984924623 148.52595885226998 Q 470.3517587939698 148.52595885226998 472.76381909547734 148.46244322433904 Q 475.1758793969849 148.46244322433904 477.5879396984924 148.15905697418907 Q 479.99999999999994 148.15905697418907 482.4120603015075 147.6157149210747 Q 484.82412060301505 147.6157149210747 487.2361809045226 146.84560400026834 Q 489.6482412060301 146.84560400026834 492.06030150753764 145.87523721872677 Q 494.4723618090452 145.87523721872677 496.8844221105527 144.74375487072615 Q 499.29648241206024 144.74375487072615 501.7085427135678 143.50149903636273 Q 504.12060301507535 143.50149903636273 506.5326633165829 142.20792800483696 Q 508.9447236180904 142.20792800483696 511.35678391959794 140.9289743926363 Q 513.7688442211055 140.9289743926363 516.180904522613 139.733982302099 Q 518.5929648241206 139.733982302099 521.0050251256281 138.6923831303657 Q 523.4170854271356 138.6923831303657 525.8291457286432 137.8702852357324 Q 528.2412060301507 137.8702852357324 530.6532663316582 137.3271587177987 Q 533.0653266331658 137.3271587177987 535.4773869346733 137.11279271493012 Q 537.8894472361808 137.11279271493012 540.3015075376884 137.26468905819974 Q 542.713567839196 137.26468905819974 545.1256281407035 137.80603357112645 Q 547.537688442211 137.80603357112645 549.9497487437186 138.7443559906291 Q 552.3618090452261 138.7443559906291 554.7738693467336 140.07095305647005 Q 557.1859296482412 140.07095305647005 559.5979899497487 141.761108761456 Q 562.0100502512562 141.761108761456 564.4221105527638 143.7751032883457 Q 566.8341708542713 143.7751032883457 569.2462311557788 146.05996010348275 Q 571.6582914572864 146.05996010348275 574.0703517587939 148.55184133154373 Q 576.4824120603014 148.55184133154373 578.894472361809 151.17896705192044 Q 581.3065326633166 151.17896705192044 583.7185929648241 153.8649064195722 Q 586.1306532663316 153.8649064195722 588.5427135678392 156.53206903532157 Q 590.9547738693467 156.53206903532157 593.3668341708542 159.10521483199398 Q 595.7788944723618 159.10521483199398 598.1909547738693 161.51480045057323 Q 600.6030150753768 161.51480045057323 603.0150753768844 163.699989659257 Q 605.4271356783919 163.699989659257 607.8391959798994 165.61117428006176 Q 610.251256281407 165.61117428006176 612.6633165829145 167.21187928188866 Q 615.075376884422 167.21187928188866 617.4874371859296 168.4799596706688 Q 619.8994974874372 168.4799596706688 622.3115577889447 169.40803567999683 Q 624.7236180904522 169.40803567999683 627.1356783919598 170.00315439554709 Q 629.5477386934673 170.00315439554709 631.9597989949748 170.2857080403414 Q 634.3718592964824 170.2857080403414 636.7839195979899 170.28767938978706 Q 639.1959798994974 170.28767938978706 641.608040201005 170.0503209647116 Q 644.0201005025125 170.0503209647116 646.43216080402 169.62140478392942 Q 648.8442211055276 169.62140478392942 651.2562814070351 169.05220189822842 Q 653.6683417085426 169.05220189822842 656.0804020100502 168.3943644553458 Q 658.4924623115578 168.3943644553458 660.9045226130653 167.6968869351057 Q 663.3165829145728 167.6968869351057 665.7286432160804 167.0033172540609 Q 668.1407035175879 167.0033172540609 670.5527638190954 166.34937302262063 Q 672.964824120603 166.34937302262063 675.3768844221105 165.76109422201327 Q 677.788944723618 165.76109422201327 680.2010050251256 165.253632306279 Q 682.6130653266331 165.253632306279 685.0251256281406 164.83073897888622 Q 687.4371859296482 164.83073897888622 689.8492462311557 164.48497770064776 Q 692.2613065326632 164.48497770064776 694.6733668341708 164.19863960053328 Q 697.0854271356784 164.19863960053328 699.4974874371859 163.94530519348712 Q 701.9095477386934 163.94530519348712 704.321608040201 163.69195640579684 Q 706.7336683417085 163.69195640579684 709.145728643216 163.40151192738244 Q 711.5577889447236 163.40151192738244 713.9698492462311 163.0356346081144 Q 716.3819095477386 163.0356346081144 718.7939698492462 162.55764384919584 Q 721.2060301507537 162.55764384919584 723.6180904522612 161.9353595935293 Q 726.0301507537688 161.9353595935293 728.4422110552763 161.14370795016305 Q 730.8542713567838 161.14370795016305 733.2663316582914 160.16693151324296 Q 735.678391959799 160.16693151324296 738.0904522613065 159.0002693379093 Q 740.502512562814 159.0002693379093 742.9145728643216 157.65100110303518 Q 745.3266331658291 157.65100110303518 747.7386934673366 156.13878558558457 Q 750.1507537688442 156.13878558558457 752.5628140703517 154.4952632194236 Q 754.9748743718592 154.4952632194236 757.3869346733668 152.76293401139986 Q 759.7989949748743 152.76293401139986 762.2110552763818 150.99336313296118 Q 764.6231155778894 150.99336313296118 767.0351758793969 149.24480481252883 Q 769.4472361809044 149.24480481252883 771.859296482412 147.57936858720495 Q 774.2713567839196 147.57936858720495 776.6834170854271 146.05987866430908 Q 779.0954773869346 146.05987866430908 781.5075376884422 144.7465955965733 Q 783.9195979899497 144.7465955965733 786.3316582914572 143.69397864625816 Q 788.7437185929648 143.69397864625816 791.1557788944723 142.94766657150853 Q 793.5678391959798 142.94766657150853 795.9798994974874 142.5418441230709 Q 798.3919597989949 142.5418441230709 800.8040201005024 142.49714184260978 Q 803.21608040201 142.49714184260978 805.6281407035175 142.81918886821853 Q 808.040201005025 142.81918886821853 810.4522613065326 143.49790389427977 Q 812.8643216080402 143.49790389427977 815.2763819095477 144.50757008720728 Q 817.6884422110552 144.50757008720728 820.1005025125628 145.80769777723876 Q 822.5125628140703 145.80769777723876 824.9246231155778 147.34463642809854 Q 827.3366834170854 147.34463642809854 829.7487437185929 149.0538570503669 Q 832.1608040201004 149.0538570503669 834.572864321608 150.8627900828785 Q 836.9849246231155 150.8627900828785 839.396984924623 152.69407380229057 Q 841.8090452261306 152.69407380229057 844.2211055276381 154.46904617840175 Q 846.6331658291456 154.46904617840175 849.0452261306532 156.11129998688028 Q 851.4572864321608 156.11129998688028 853.8693467336683 157.550117640539 Q 856.2814070351758 157.550117640539 858.6934673366834 158.72360878802084 Q 861.1055276381909 158.72360878802084 863.5175879396984 159.58138989161617 Q 865.929648241206 159.58138989161617 868.3417085427135 160.08666984489258 Q 870.753768844221 160.08666984489258 873.1658291457286 160.21763785998064 Q 875.5778894472361 160.21763785998064 877.9899497487436 159.96808757635552 Q 880.4020100502512 159.96808757635552 882.8140703517587 159.34725254640819 Q 885.2261306532662 159.34725254640819 887.6381909547738 158.37887067692031 Q 890.0502512562814 158.37887067692031 892.4623115577889 157.0995365236122 Q 894.8743718592964 157.0995365236122 897.286432160804 155.55643828531947 Q 899.6984924623115 155.55643828531947 902.110552763819 153.80460885012002 Q 904.5226130653266 153.80460885012002 906.9346733668341 151.90384553518516 Q 909.3467336683416 151.90384553518516 911.7587939698492 149.91546986243844 Q 914.1708542713567 149.91546986243844 916.5829145728642 147.8991059257549 Q 918.9949748743718 147.8991059257549 921.4070351758793 145.90965325943665 Q 923.8190954773868 145.90965325943665 926.2311557788944 143.99461778380328 Q 928.643216080402 143.99461778380328 931.0552763819095 142.19194308851135 Q 933.467336683417 142.19194308851135 935.8793969849246 140.5284552196433 Q 938.2914572864321 140.5284552196433 940.7035175879396 139.01899889325594 Q 943.1155778894472 139.01899889325594 945.5276381909547 137.66630363464947 Q 947.9396984924622 137.66630363464947 950.3517587939698 136.4615769368208 Q 952.7638190954773 136.4615769368208 955.1758793969848 135.38578044836268 Q 957.5879396984924 135.38578044836268 959.9999999999999 134.41150672504884 " stroke="url(#grad)" stroke-width="3"
      opacity="0.35" fill="none">
  <animateTransform type="translate"
                    from="0 0" to="-22 0"
                    dur="5.5s" repeatCount="indefinite"/>
</path>

<g filter="url(#glow)">
  <path d="M 0 154.12431976780033 Q 2.4120603015075375 154.12431976780033 4.824120603015075 152.497496551801 Q 7.236180904522612 152.497496551801 9.64824120603015 150.78984715594382 Q 12.060301507537687 150.78984715594382 14.472361809045225 149.03838190014307 Q 16.884422110552762 149.03838190014307 19.2964824120603 147.27842922880524 Q 21.708542713567837 147.27842922880524 24.120603015075375 145.5423826035449 Q 26.532663316582912 145.5423826035449 28.94472361809045 143.85858055183405 Q 31.356783919597987 143.85858055183405 33.768844221105525 142.25035953655467 Q 36.18090452261306 142.25035953655467 38.5929648241206 140.73531292952742 Q 41.00502512562814 140.73531292952742 43.417085427135675 139.32478181328662 Q 45.82914572864321 139.32478181328662 48.24120603015075 138.02359486971702 Q 50.65326633165829 138.02359486971702 53.065326633165824 136.83006554381603 Q 55.47738693467336 136.83006554381603 57.8894472361809 135.73624531929843 Q 60.30150753768844 135.73624531929843 62.713567839195974 134.7284226434158 Q 65.12562814070351 134.7284226434158 67.53768844221105 133.78784812266517 Q 69.94974874371859 133.78784812266517 72.36180904522612 132.8916583967487 Q 74.77386934673366 132.8916583967487 77.1859296482412 132.01396387798138 Q 79.59798994974874 132.01396387798138 82.01005025125627 131.12705957471948 Q 84.42211055276381 131.12705957471948 86.83417085427135 130.2027137131981 Q 89.24623115577889 130.2027137131981 91.65829145728642 129.2134859932613 Q 94.07035175879396 129.2134859932613 96.4824120603015 128.13402616292464 Q 98.89447236180904 128.13402616292464 101.30653266331657 126.94230421618616 Q 103.71859296482411 126.94230421618616 106.13065326633165 125.62072588673918 Q 108.54271356783919 125.62072588673918 110.95477386934672 124.15709114383631 Q 113.36683417085426 124.15709114383631 115.7788944723618 122.5453589528748 Q 118.19095477386934 122.5453589528748 120.60301507537687 120.78618844554381 Q 123.01507537688441 120.78618844554381 125.42713567839195 118.88723460861777 Q 127.83919597989949 118.88723460861777 130.25125628140702 116.86318536417623 Q 132.66331658291455 116.86318536417623 135.0753768844221 114.7355361661331 Q 137.48743718592965 114.7355361661331 139.89949748743717 112.53210764990051 Q 142.3115577889447 112.53210764990051 144.72361809045225 110.28632110937372 Q 147.1356783919598 110.28632110937372 149.54773869346732 108.03625530977322 Q 151.95979899497485 108.03625530977322 154.3718592964824 105.82351606542568 Q 156.78391959798995 105.82351606542568 159.19597989949747 103.69195683617775 Q 161.608040201005 103.69195683617775 164.02010050251255 101.68629408135288 Q 166.4321608040201 101.68629408135288 168.84422110552762 99.850665059831 Q 171.25628140703515 99.850665059831 173.6683417085427 98.22717803707309 Q 176.08040201005025 98.22717803707309 178.49246231155777 96.85450537217005 Q 180.9045226130653 96.85450537217005 183.31658291457285 95.76656868996436 Q 185.7286432160804 95.76656868996436 188.14070351758792 94.99136233767517 Q 190.55276381909545 94.99136233767517 192.964824120603 94.54995668645704 Q 195.37688442211055 94.54995668645704 197.78894472361807 94.45571672797715 Q 200.2010050251256 94.45571672797715 202.61306532663315 94.71376404856277 Q 205.0251256281407 94.71376404856277 207.43718592964822 95.32070189745005 Q 209.84924623115575 95.32070189745005 212.2613065326633 96.26461399526559 Q 214.67336683417085 96.26461399526559 217.08542713567837 97.52533827320586 Q 219.4974874371859 97.52533827320586 221.90954773869345 99.07500722527983 Q 224.321608040201 99.07500722527983 226.73366834170852 100.87883733022831 Q 229.14572864321605 100.87883733022831 231.5577889447236 102.89614138121927 Q 233.96984924623115 102.89614138121927 236.38190954773867 105.08152985364411 Q 238.7939698492462 105.08152985364411 241.20603015075375 107.38626091568909 Q 243.6180904522613 107.38626091568909 246.03015075376882 109.75969357249213 Q 248.44221105527635 109.75969357249213 250.8542713567839 112.15079491243608 Q 253.26633165829145 112.15079491243608 255.67839195979897 114.50965061709826 Q 258.0904522613065 114.50965061709826 260.50251256281405 116.78892786761952 Q 262.9145728643216 116.78892786761952 265.3266331658291 118.94524153003053 Q 267.73869346733665 118.94524153003053 270.1507537688442 120.94037796783687 Q 272.56281407035175 120.94037796783687 274.9748743718593 122.7423358887985 Q 277.3869346733668 122.7423358887985 279.79899497487435 124.32615010501218 Q 282.2110552763819 124.32615010501218 284.6231155778894 125.6744717419308 Q 287.03517587939695 125.6744717419308 289.4472361809045 126.77788700190163 Q 291.85929648241205 126.77788700190163 294.2713567839196 127.63496576810263 Q 296.6834170854271 127.63496576810263 299.09547738693465 128.2520408009194 Q 301.5075376884422 128.2520408009194 303.9195979899497 128.6427276964212 Q 306.33165829145725 128.6427276964212 308.7437185929648 128.82720481317028 Q 311.15577889447235 128.82720481317028 313.5678391959799 128.83128071031996 Q 315.9798994974874 128.83128071031996 318.39195979899495 128.6852839829766 Q 320.8040201005025 128.6852839829766 323.21608040201 128.42281647163173 Q 325.62814070351754 128.42281647163173 328.0402010050251 128.07941544713523 Q 330.45226130653265 128.07941544713523 332.8643216080402 127.69117336926159 Q 335.2763819095477 127.69117336926159 337.68844221105525 127.29336508129734 Q 340.1005025125628 127.29336508129734 342.5125628140703 126.9191317925807 Q 344.92462311557784 126.9191317925807 347.3366834170854 126.59826893583768 Q 349.74874371859295 126.59826893583768 352.1608040201005 126.35616104898082 Q 354.572864321608 126.35616104898082 356.98492462311555 126.21290136353262 Q 359.3969849246231 126.21290136353262 361.8090452261306 126.18262698000228 Q 364.22110552763814 126.18262698000228 366.6331658291457 126.27309261763801 Q 369.04522613065325 126.27309261763801 371.4572864321608 126.48549722388617 Q 373.8693467336683 126.48549722388617 376.28140703517585 126.81456852811266 Q 378.6934673366834 126.81456852811266 381.1055276381909 127.24890125279376 Q 383.51758793969844 127.24890125279376 385.929648241206 127.77153548751738 Q 388.34170854271355 127.77153548751738 390.7537688442211 128.3607530149273 Q 393.1658291457286 128.3607530149273 395.57788944723615 128.9910614638183 Q 397.9899497487437 128.9910614638183 400.4020100502512 129.6343293350211 Q 402.81407035175874 129.6343293350211 405.2261306532663 130.26102944400935 Q 407.63819095477385 130.26102944400935 410.0502512562814 130.8415443466136 Q 412.4623115577889 130.8415443466136 414.87437185929645 131.3474850029646 Q 417.286432160804 131.3474850029646 419.6984924623115 131.75297337271775 Q 422.11055276381904 131.75297337271775 424.5226130653266 132.0358408424757 Q 426.93467336683415 132.0358408424757 429.3467336683417 132.17869732195527 Q 431.7587939698492 132.17869732195527 434.17085427135675 132.16983040526495 Q 436.5829145728643 132.16983040526495 438.9949748743718 132.0039000163218 Q 441.40703517587934 132.0039000163218 443.8190954773869 131.6824012295748 Q 446.23115577889445 131.6824012295748 448.643216080402 131.2138762209518 Q 451.0552763819095 131.2138762209518 453.46733668341705 130.61386526611676 Q 455.8793969849246 130.61386526611676 458.2914572864321 129.90459604555343 Q 460.70351758793964 129.90459604555343 463.1155778894472 129.11441990685773 Q 465.52763819095475 129.11441990685773 467.9396984924623 128.27701284018156 Q 470.3517587939698 128.27701284018156 472.76381909547734 127.43036741920038 Q 475.1758793969849 127.43036741920038 477.5879396984924 126.61560954486013 Q 479.99999999999994 126.61560954486013 482.4120603015075 125.87568023219967 Q 484.82412060301505 125.87568023219967 487.2361809045226 125.25392767317032 Q 489.6482412060301 125.25392767317032 492.06030150753764 124.79265821184003 Q 494.4723618090452 124.79265821184003 496.8844221105527 124.53169656010895 Q 499.29648241206024 124.53169656010895 501.7085427135678 124.5070055000505 Q 504.12060301507535 124.5070055000505 506.5326633165829 124.74941346395572 Q 508.9447236180904 124.74941346395572 511.35678391959794 125.28349481857373 Q 513.7688442211055 125.28349481857373 516.180904522613 126.12664252990179 Q 518.5929648241206 126.12664252990179 521.0050251256281 127.28836632933331 Q 523.4170854271356 127.28836632933331 525.8291457286432 128.76984177093962 Q 528.2412060301507 128.76984177093962 530.6532663316582 130.56372693474114 Q 533.0653266331658 130.56372693474114 535.4773869346733 132.6542542956576 Q 537.8894472361808 132.6542542956576 540.3015075376884 135.0175957673921 Q 542.713567839196 135.0175957673921 545.1256281407035 137.62248947959986 Q 547.537688442211 137.62248947959986 549.9497487437186 140.43110778811422 Q 552.3618090452261 140.43110778811422 554.7738693467336 143.40013767075186 Q 557.1859296482412 143.40013767075186 559.5979899497487 146.48203731924687 Q 562.0100502512562 146.48203731924687 564.4221105527638 149.62642665963227 Q 566.8341708542713 149.62642665963227 569.2462311557788 152.7815649327801 Q 571.6582914572864 152.7815649327801 574.0703517587939 155.89586550551954 Q 576.4824120603014 155.89586550551954 578.894472361809 158.91939686458502 Q 581.3065326633166 158.91939686458502 583.7185929648241 161.80531931287078 Q 586.1306532663316 161.80531931287078 588.5427135678392 164.511209219285 Q 590.9547738693467 164.511209219285 593.3668341708542 167.00022668682266 Q 595.7788944723618 167.00022668682266 598.1909547738693 169.2420880558695 Q 600.6030150753768 169.2420880558695 603.0150753768844 171.21381155445616 Q 605.4271356783919 171.21381155445616 607.8391959798994 172.9002124001265 Q 610.251256281407 172.9002124001265 612.6633165829145 174.2941324664828 Q 615.075376884422 174.2941324664828 617.4874371859296 175.39639893989107 Q 619.8994974874372 175.39639893989107 622.3115577889447 176.21551587915644 Q 624.7236180904522 176.21551587915644 627.1356783919598 176.76710191813598 Q 629.5477386934673 176.76710191813598 631.9597989949748 177.07309618900766 Q 634.3718592964824 177.07309618900766 636.7839195979899 177.16076258055256 Q 639.1959798994974 177.16076258055256 641.608040201005 177.061529398174 Q 644.0201005025125 177.061529398174 646.43216080402 176.80970711587545 Q 648.8442211055276 176.80970711587545 651.2562814070351 176.44113100766964 Q 653.6683417085426 176.44113100766964 656.0804020100502 175.99177787370633 Q 658.4924623115578 175.99177787370633 660.9045226130653 175.49640675084567 Q 663.3165829145728 175.49640675084567 665.7286432160804 174.98727239672618 Q 668.1407035175879 174.98727239672618 670.5527638190954 174.4929575017985 Q 672.964824120603 174.4929575017985 675.3768844221105 174.0373651180011 Q 677.788944723618 174.0373651180011 680.2010050251256 173.63890685624915 Q 682.6130653266331 173.63890685624915 685.0251256281406 173.309915210298 Q 687.4371859296482 173.309915210298 689.8492462311557 173.05630016900636 Q 692.2613065326632 173.05630016900636 694.6733668341708 172.87746137514216 Q 697.0854271356784 172.87746137514216 699.4974874371859 172.76645779429475 Q 701.9095477386934 172.76645779429475 704.321608040201 172.71042750357591 Q 706.7336683417085 172.71042750357591 709.145728643216 172.6912411300237 Q 711.5577889447236 172.6912411300237 713.9698492462311 172.68636398656454 Q 716.3819095477386 172.68636398656454 718.7939698492462 172.6698943713272 Q 721.2060301507537 172.6698943713272 723.6180904522612 172.6137390843109 Q 726.0301507537688 172.6137390843109 728.4422110552763 172.48888220253656 Q 730.8542713567838 172.48888220253656 733.2663316582914 172.26669971978004 Q 735.678391959799 172.26669971978004 738.0904522613065 171.92027092264968 Q 740.502512562814 171.92027092264968 742.9145728643216 171.42563740352475 Q 745.3266331658291 171.42563740352475 747.7386934673366 170.76296240246884 Q 750.1507537688442 170.76296240246884 752.5628140703517 169.9175466617554 Q 754.9748743718592 169.9175466617554 757.3869346733668 168.88066204474504 Q 759.7989949748743 168.88066204474504 762.2110552763818 167.65017063612706 Q 764.6231155778894 167.65017063612706 767.0351758793969 166.23090467384293 Q 769.4472361809044 166.23090467384293 771.859296482412 164.63479119364024 Q 774.2713567839196 164.63479119364024 776.6834170854271 162.88071439242373 Q 779.0954773869346 162.88071439242373 781.5075376884422 160.99411811239003 Q 783.9195979899497 160.99411811239003 786.3316582914572 159.00636018056312 Q 788.7437185929648 159.00636018056312 791.1557788944723 156.9538392760504 Q 793.5678391959798 156.9538392760504 795.9798994974874 154.87692322217944 Q 798.3919597989949 154.87692322217944 800.8040201005024 152.81871481979505 Q 803.21608040201 152.81871481979505 805.6281407035175 150.82369729401657 Q 808.040201005025 150.82369729401657 810.4522613065326 148.93630590688653 Q 812.8643216080402 148.93630590688653 815.2763819095477 147.19947513195754 Q 817.6884422110552 147.19947513195754 820.1005025125628 145.65321189119302 Q 822.5125628140703 145.65321189119302 824.9246231155778 144.33324467836238 Q 827.3366834170854 144.33324467836238 829.7487437185929 143.26979595813813 Q 832.1608040201004 143.26979595813813 834.572864321608 142.48652112036012 Q 836.9849246231155 142.48652112036012 839.396984924623 141.9996516277231 Q 841.8090452261306 141.9996516277231 844.2211055276381 141.81737301999772 Q 846.6331658291456 141.81737301999772 849.0452261306532 141.93946037361772 Q 851.4572864321608 141.93946037361772 853.8693467336683 142.3571849454548 Q 856.2814070351758 142.3571849454548 858.6934673366834 143.05349636586317 Q 861.1055276381909 143.05349636586317 863.5175879396984 144.00347521814928 Q 865.929648241206 144.00347521814928 868.3417085427135 145.17504148497292 Q 870.753768844221 145.17504148497292 873.1658291457286 146.52989548629182 Q 875.5778894472361 146.52989548629182 877.9899497487436 148.02465989020342 Q 880.4020100502512 148.02465989020342 882.8140703517587 149.61218443062714 Q 885.2261306532662 149.61218443062714 887.6381909547738 151.24296935876228 Q 890.0502512562814 151.24296935876228 892.4623115577889 152.8666595858857 Q 894.8743718592964 152.8666595858857 897.286432160804 154.43355908625608 Q 899.6984924623115 154.43355908625608 902.110552763819 155.89611450426656 Q 904.5226130653266 155.89611450426656 906.9346733668341 157.21031807083375 Q 909.3467336683416 157.21031807083375 911.7587939698492 158.3369828385711 Q 914.1708542713567 158.3369828385711 916.5829145728642 159.24284779027693 Q 918.9949748743718 159.24284779027693 921.4070351758793 159.9014763994519 Q 923.8190954773868 159.9014763994519 926.2311557788944 160.2939195115644 Q 928.643216080402 160.2939195115644 931.0552763819095 160.4091217125918 Q 933.467336683417 160.4091217125918 935.8793969849246 160.2440593634755 Q 938.2914572864321 160.2440593634755 940.7035175879396 159.80360788694594 Q 943.1155778894472 159.80360788694594 945.5276381909547 159.10014536428656 Q 947.9396984924622 159.10014536428656 950.3517587939698 158.1529086995664 Q 952.7638190954773 158.1529086995664 955.1758793969848 156.98712721301578 Q 957.5879396984924 156.98712721301578 959.9999999999999 155.63296623016856 " stroke="url(#grad)" stroke-width="4"
        fill="none">
    <animateTransform type="translate"
                      from="0 0" to="-10 0"
                      dur="3s" repeatCount="indefinite"/>
  </path>
</g>

<!-- BRANDING -->
<text x="50%" y="50%"
      text-anchor="middle"
      font-size="30"
      letter-spacing="5"
      fill="#ffffff"
      opacity="0.9"
      style="font-family: monospace"
      filter="url(#glow)">
  LORDZEFAN
</text>

</svg>